<?xml version="1.0" encoding="utf-8" standalone="no"?>
<!DOCTYPE svg PUBLIC "-//W3C//DTD SVG 1.1//EN"
  "http://www.w3.org/Graphics/SVG/1.1/DTD/svg11.dtd">
<svg xmlns:xlink="http://www.w3.org/1999/xlink" width="321.313281pt" height="236.528pt" viewBox="0 0 321.313281 236.528" xmlns="http://www.w3.org/2000/svg" version="1.1">
 <metadata>
  <rdf:RDF xmlns:dc="http://purl.org/dc/elements/1.1/" xmlns:cc="http://creativecommons.org/ns#" xmlns:rdf="http://www.w3.org/1999/02/22-rdf-syntax-ns#">
   <cc:Work>
    <dc:type rdf:resource="http://purl.org/dc/dcmitype/StillImage"/>
    <dc:date>2026-07-06T10:51:51.861263</dc:date>
    <dc:format>image/svg+xml</dc:format>
    <dc:creator>
     <cc:Agent>
      <dc:title>Matplotlib v3.11.0, https://matplotlib.org/</dc:title>
     </cc:Agent>
    </dc:creator>
   </cc:Work>
  </rdf:RDF>
 </metadata>
 <defs>
  <style type="text/css">*{stroke-linejoin: round; stroke-linecap: butt}</style>
 </defs>
 <g id="figure_1">
  <g id="patch_1">
   <path d="M 0 236.528 
L 321.313281 236.528 
L 321.313281 0 
L 0 0 
z
" style="fill: #ffffff"/>
  </g>
  <g id="axes_1">
   <g id="patch_2">
    <path d="M 30.2 212.328 
L 309.2 212.328 
L 309.2 7.2 
L 30.2 7.2 
z
" style="fill: #ffffff"/>
   </g>
   <g id="patch_3">
    <path d="M 42.881818 212.328 
L 51.336364 212.328 
L 51.336364 82.088 
L 42.881818 82.088 
z
" clip-path="url(#p4707950f6c)" style="fill: #1f77b4; opacity: 0.5"/>
   </g>
   <g id="patch_4">
    <path d="M 51.336364 212.328 
L 59.790909 212.328 
L 59.790909 212.328 
L 51.336364 212.328 
z
" clip-path="url(#p4707950f6c)" style="fill: #1f77b4; opacity: 0.5"/>
   </g>
   <g id="patch_5">
    <path d="M 59.790909 212.328 
L 68.245455 212.328 
L 68.245455 147.208 
L 59.790909 147.208 
z
" clip-path="url(#p4707950f6c)" style="fill: #1f77b4; opacity: 0.5"/>
   </g>
   <g id="patch_6">
    <path d="M 68.245455 212.328 
L 76.7 212.328 
L 76.7 212.328 
L 68.245455 212.328 
z
" clip-path="url(#p4707950f6c)" style="fill: #1f77b4; opacity: 0.5"/>
   </g>
   <g id="patch_7">
    <path d="M 76.7 212.328 
L 85.154545 212.328 
L 85.154545 147.208 
L 76.7 147.208 
z
" clip-path="url(#p4707950f6c)" style="fill: #1f77b4; opacity: 0.5"/>
   </g>
   <g id="patch_8">
    <path d="M 85.154545 212.328 
L 93.609091 212.328 
L 93.609091 212.328 
L 85.154545 212.328 
z
" clip-path="url(#p4707950f6c)" style="fill: #1f77b4; opacity: 0.5"/>
   </g>
   <g id="patch_9">
    <path d="M 93.609091 212.328 
L 102.063636 212.328 
L 102.063636 147.208 
L 93.609091 147.208 
z
" clip-path="url(#p4707950f6c)" style="fill: #1f77b4; opacity: 0.5"/>
   </g>
   <g id="patch_10">
    <path d="M 102.063636 212.328 
L 110.518182 212.328 
L 110.518182 82.088 
L 102.063636 82.088 
z
" clip-path="url(#p4707950f6c)" style="fill: #1f77b4; opacity: 0.5"/>
   </g>
   <g id="patch_11">
    <path d="M 110.518182 212.328 
L 118.972727 212.328 
L 118.972727 82.088 
L 110.518182 82.088 
z
" clip-path="url(#p4707950f6c)" style="fill: #1f77b4; opacity: 0.5"/>
   </g>
   <g id="patch_12">
    <path d="M 118.972727 212.328 
L 127.427273 212.328 
L 127.427273 212.328 
L 118.972727 212.328 
z
" clip-path="url(#p4707950f6c)" style="fill: #1f77b4; opacity: 0.5"/>
   </g>
   <g id="patch_13">
    <path d="M 127.427273 212.328 
L 135.881818 212.328 
L 135.881818 147.208 
L 127.427273 147.208 
z
" clip-path="url(#p4707950f6c)" style="fill: #1f77b4; opacity: 0.5"/>
   </g>
   <g id="patch_14">
    <path d="M 135.881818 212.328 
L 144.336364 212.328 
L 144.336364 147.208 
L 135.881818 147.208 
z
" clip-path="url(#p4707950f6c)" style="fill: #1f77b4; opacity: 0.5"/>
   </g>
   <g id="patch_15">
    <path d="M 144.336364 212.328 
L 152.790909 212.328 
L 152.790909 16.968 
L 144.336364 16.968 
z
" clip-path="url(#p4707950f6c)" style="fill: #1f77b4; opacity: 0.5"/>
   </g>
   <g id="patch_16">
    <path d="M 152.790909 212.328 
L 161.245455 212.328 
L 161.245455 82.088 
L 152.790909 82.088 
z
" clip-path="url(#p4707950f6c)" style="fill: #1f77b4; opacity: 0.5"/>
   </g>
   <g id="patch_17">
    <path d="M 161.245455 212.328 
L 169.7 212.328 
L 169.7 212.328 
L 161.245455 212.328 
z
" clip-path="url(#p4707950f6c)" style="fill: #1f77b4; opacity: 0.5"/>
   </g>
   <g id="patch_18">
    <path d="M 169.7 212.328 
L 178.154545 212.328 
L 178.154545 147.208 
L 169.7 147.208 
z
" clip-path="url(#p4707950f6c)" style="fill: #1f77b4; opacity: 0.5"/>
   </g>
   <g id="patch_19">
    <path d="M 178.154545 212.328 
L 186.609091 212.328 
L 186.609091 212.328 
L 178.154545 212.328 
z
" clip-path="url(#p4707950f6c)" style="fill: #1f77b4; opacity: 0.5"/>
   </g>
   <g id="patch_20">
    <path d="M 186.609091 212.328 
L 195.063636 212.328 
L 195.063636 147.208 
L 186.609091 147.208 
z
" clip-path="url(#p4707950f6c)" style="fill: #1f77b4; opacity: 0.5"/>
   </g>
   <g id="patch_21">
    <path d="M 195.063636 212.328 
L 203.518182 212.328 
L 203.518182 147.208 
L 195.063636 147.208 
z
" clip-path="url(#p4707950f6c)" style="fill: #1f77b4; opacity: 0.5"/>
   </g>
   <g id="patch_22">
    <path d="M 203.518182 212.328 
L 211.972727 212.328 
L 211.972727 147.208 
L 203.518182 147.208 
z
" clip-path="url(#p4707950f6c)" style="fill: #1f77b4; opacity: 0.5"/>
   </g>
   <g id="patch_23">
    <path d="M 211.972727 212.328 
L 220.427273 212.328 
L 220.427273 212.328 
L 211.972727 212.328 
z
" clip-path="url(#p4707950f6c)" style="fill: #1f77b4; opacity: 0.5"/>
   </g>
   <g id="patch_24">
    <path d="M 220.427273 212.328 
L 228.881818 212.328 
L 228.881818 212.328 
L 220.427273 212.328 
z
" clip-path="url(#p4707950f6c)" style="fill: #1f77b4; opacity: 0.5"/>
   </g>
   <g id="patch_25">
    <path d="M 228.881818 212.328 
L 237.336364 212.328 
L 237.336364 212.328 
L 228.881818 212.328 
z
" clip-path="url(#p4707950f6c)" style="fill: #1f77b4; opacity: 0.5"/>
   </g>
   <g id="patch_26">
    <path d="M 237.336364 212.328 
L 245.790909 212.328 
L 245.790909 212.328 
L 237.336364 212.328 
z
" clip-path="url(#p4707950f6c)" style="fill: #1f77b4; opacity: 0.5"/>
   </g>
   <g id="patch_27">
    <path d="M 245.790909 212.328 
L 254.245455 212.328 
L 254.245455 212.328 
L 245.790909 212.328 
z
" clip-path="url(#p4707950f6c)" style="fill: #1f77b4; opacity: 0.5"/>
   </g>
   <g id="patch_28">
    <path d="M 254.245455 212.328 
L 262.7 212.328 
L 262.7 212.328 
L 254.245455 212.328 
z
" clip-path="url(#p4707950f6c)" style="fill: #1f77b4; opacity: 0.5"/>
   </g>
   <g id="patch_29">
    <path d="M 262.7 212.328 
L 271.154545 212.328 
L 271.154545 212.328 
L 262.7 212.328 
z
" clip-path="url(#p4707950f6c)" style="fill: #1f77b4; opacity: 0.5"/>
   </g>
   <g id="patch_30">
    <path d="M 271.154545 212.328 
L 279.609091 212.328 
L 279.609091 212.328 
L 271.154545 212.328 
z
" clip-path="url(#p4707950f6c)" style="fill: #1f77b4; opacity: 0.5"/>
   </g>
   <g id="patch_31">
    <path d="M 279.609091 212.328 
L 288.063636 212.328 
L 288.063636 147.208 
L 279.609091 147.208 
z
" clip-path="url(#p4707950f6c)" style="fill: #1f77b4; opacity: 0.5"/>
   </g>
   <g id="patch_32">
    <path d="M 288.063636 212.328 
L 296.518182 212.328 
L 296.518182 147.208 
L 288.063636 147.208 
z
" clip-path="url(#p4707950f6c)" style="fill: #1f77b4; opacity: 0.5"/>
   </g>
   <g id="matplotlib.axis_1">
    <g id="xtick_1">
     <g id="line2d_1">
      <path d="M 41.766804 212.328 
L 41.766804 7.2 
" clip-path="url(#p4707950f6c)" style="fill: none; stroke: #000000; stroke-opacity: 0.3; stroke-width: 0.4; stroke-linecap: square"/>
     </g>
     <g id="text_1">
      <!-- $\mathdefault{2.5}$ -->
      <g transform="translate(33.766804 226.925656) scale(0.1 -0.1)">
       <defs>
        <path id="DejaVuSans-15" d="M 1228 531 
L 3431 531 
L 3431 0 
L 469 0 
L 469 531 
Q 828 903 1448 1529 
Q 2069 2156 2228 2338 
Q 2531 2678 2651 2914 
Q 2772 3150 2772 3378 
Q 2772 3750 2511 3984 
Q 2250 4219 1831 4219 
Q 1534 4219 1204 4116 
Q 875 4013 500 3803 
L 500 4441 
Q 881 4594 1212 4672 
Q 1544 4750 1819 4750 
Q 2544 4750 2975 4387 
Q 3406 4025 3406 3419 
Q 3406 3131 3298 2873 
Q 3191 2616 2906 2266 
Q 2828 2175 2409 1742 
Q 1991 1309 1228 531 
z
" transform="scale(0.015625)"/>
        <path id="DejaVuSans-11" d="M 684 794 
L 1344 794 
L 1344 0 
L 684 0 
L 684 794 
z
" transform="scale(0.015625)"/>
        <path id="DejaVuSans-18" d="M 691 4666 
L 3169 4666 
L 3169 4134 
L 1269 4134 
L 1269 2991 
Q 1406 3038 1543 3061 
Q 1681 3084 1819 3084 
Q 2600 3084 3056 2656 
Q 3513 2228 3513 1497 
Q 3513 744 3044 326 
Q 2575 -91 1722 -91 
Q 1428 -91 1123 -41 
Q 819 9 494 109 
L 494 744 
Q 775 591 1075 516 
Q 1375 441 1709 441 
Q 2250 441 2565 725 
Q 2881 1009 2881 1497 
Q 2881 1984 2565 2268 
Q 2250 2553 1709 2553 
Q 1456 2553 1204 2497 
Q 953 2441 691 2322 
L 691 4666 
z
" transform="scale(0.015625)"/>
       </defs>
       <use xlink:href="#DejaVuSans-15" transform="translate(0 0.78125)"/>
       <use xlink:href="#DejaVuSans-11" transform="translate(63.623047 0.78125)"/>
       <use xlink:href="#DejaVuSans-18" transform="translate(95.410156 0.78125)"/>
      </g>
     </g>
    </g>
    <g id="xtick_2">
     <g id="line2d_2">
      <path d="M 94.636099 212.328 
L 94.636099 7.2 
" clip-path="url(#p4707950f6c)" style="fill: none; stroke: #000000; stroke-opacity: 0.3; stroke-width: 0.4; stroke-linecap: square"/>
     </g>
     <g id="text_2">
      <!-- $\mathdefault{3.0}$ -->
      <g transform="translate(86.636099 226.925656) scale(0.1 -0.1)">
       <defs>
        <path id="DejaVuSans-16" d="M 2597 2516 
Q 3050 2419 3304 2112 
Q 3559 1806 3559 1356 
Q 3559 666 3084 287 
Q 2609 -91 1734 -91 
Q 1441 -91 1130 -33 
Q 819 25 488 141 
L 488 750 
Q 750 597 1062 519 
Q 1375 441 1716 441 
Q 2309 441 2620 675 
Q 2931 909 2931 1356 
Q 2931 1769 2642 2001 
Q 2353 2234 1838 2234 
L 1294 2234 
L 1294 2753 
L 1863 2753 
Q 2328 2753 2575 2939 
Q 2822 3125 2822 3475 
Q 2822 3834 2567 4026 
Q 2313 4219 1838 4219 
Q 1578 4219 1281 4162 
Q 984 4106 628 3988 
L 628 4550 
Q 988 4650 1302 4700 
Q 1616 4750 1894 4750 
Q 2613 4750 3031 4423 
Q 3450 4097 3450 3541 
Q 3450 3153 3228 2886 
Q 3006 2619 2597 2516 
z
" transform="scale(0.015625)"/>
        <path id="DejaVuSans-13" d="M 2034 4250 
Q 1547 4250 1301 3770 
Q 1056 3291 1056 2328 
Q 1056 1369 1301 889 
Q 1547 409 2034 409 
Q 2525 409 2770 889 
Q 3016 1369 3016 2328 
Q 3016 3291 2770 3770 
Q 2525 4250 2034 4250 
z
M 2034 4750 
Q 2819 4750 3233 4129 
Q 3647 3509 3647 2328 
Q 3647 1150 3233 529 
Q 2819 -91 2034 -91 
Q 1250 -91 836 529 
Q 422 1150 422 2328 
Q 422 3509 836 4129 
Q 1250 4750 2034 4750 
z
" transform="scale(0.015625)"/>
       </defs>
       <use xlink:href="#DejaVuSans-16" transform="translate(0 0.78125)"/>
       <use xlink:href="#DejaVuSans-11" transform="translate(63.623047 0.78125)"/>
       <use xlink:href="#DejaVuSans-13" transform="translate(95.410156 0.78125)"/>
      </g>
     </g>
    </g>
    <g id="xtick_3">
     <g id="line2d_3">
      <path d="M 147.505395 212.328 
L 147.505395 7.2 
" clip-path="url(#p4707950f6c)" style="fill: none; stroke: #000000; stroke-opacity: 0.3; stroke-width: 0.4; stroke-linecap: square"/>
     </g>
     <g id="text_3">
      <!-- $\mathdefault{3.5}$ -->
      <g transform="translate(139.505395 226.925656) scale(0.1 -0.1)">
       <use xlink:href="#DejaVuSans-16" transform="translate(0 0.78125)"/>
       <use xlink:href="#DejaVuSans-11" transform="translate(63.623047 0.78125)"/>
       <use xlink:href="#DejaVuSans-18" transform="translate(95.410156 0.78125)"/>
      </g>
     </g>
    </g>
    <g id="xtick_4">
     <g id="line2d_4">
      <path d="M 200.37469 212.328 
L 200.37469 7.2 
" clip-path="url(#p4707950f6c)" style="fill: none; stroke: #000000; stroke-opacity: 0.3; stroke-width: 0.4; stroke-linecap: square"/>
     </g>
     <g id="text_4">
      <!-- $\mathdefault{4.0}$ -->
      <g transform="translate(192.37469 226.925656) scale(0.1 -0.1)">
       <defs>
        <path id="DejaVuSans-17" d="M 2419 4116 
L 825 1625 
L 2419 1625 
L 2419 4116 
z
M 2253 4666 
L 3047 4666 
L 3047 1625 
L 3713 1625 
L 3713 1100 
L 3047 1100 
L 3047 0 
L 2419 0 
L 2419 1100 
L 313 1100 
L 313 1709 
L 2253 4666 
z
" transform="scale(0.015625)"/>
       </defs>
       <use xlink:href="#DejaVuSans-17" transform="translate(0 0.78125)"/>
       <use xlink:href="#DejaVuSans-11" transform="translate(63.623047 0.78125)"/>
       <use xlink:href="#DejaVuSans-13" transform="translate(95.410156 0.78125)"/>
      </g>
     </g>
    </g>
    <g id="xtick_5">
     <g id="line2d_5">
      <path d="M 253.243985 212.328 
L 253.243985 7.2 
" clip-path="url(#p4707950f6c)" style="fill: none; stroke: #000000; stroke-opacity: 0.3; stroke-width: 0.4; stroke-linecap: square"/>
     </g>
     <g id="text_5">
      <!-- $\mathdefault{4.5}$ -->
      <g transform="translate(245.243985 226.925656) scale(0.1 -0.1)">
       <use xlink:href="#DejaVuSans-17" transform="translate(0 0.09375)"/>
       <use xlink:href="#DejaVuSans-11" transform="translate(63.623047 0.09375)"/>
       <use xlink:href="#DejaVuSans-18" transform="translate(95.410156 0.09375)"/>
      </g>
     </g>
    </g>
    <g id="xtick_6">
     <g id="line2d_6">
      <path d="M 306.113281 212.328 
L 306.113281 7.2 
" clip-path="url(#p4707950f6c)" style="fill: none; stroke: #000000; stroke-opacity: 0.3; stroke-width: 0.4; stroke-linecap: square"/>
     </g>
     <g id="text_6">
      <!-- $\mathdefault{5.0}$ -->
      <g transform="translate(298.113281 226.925656) scale(0.1 -0.1)">
       <use xlink:href="#DejaVuSans-18" transform="translate(0 0.78125)"/>
       <use xlink:href="#DejaVuSans-11" transform="translate(63.623047 0.78125)"/>
       <use xlink:href="#DejaVuSans-13" transform="translate(95.410156 0.78125)"/>
      </g>
     </g>
    </g>
   </g>
   <g id="matplotlib.axis_2">
    <g id="ytick_1">
     <g id="line2d_7">
      <path d="M 30.2 212.328 
L 309.2 212.328 
" clip-path="url(#p4707950f6c)" style="fill: none; stroke: #000000; stroke-opacity: 0.3; stroke-width: 0.4; stroke-linecap: square"/>
     </g>
     <g id="text_7">
      <!-- $\mathdefault{0.0}$ -->
      <g transform="translate(7.2 216.126828) scale(0.1 -0.1)">
       <use xlink:href="#DejaVuSans-13" transform="translate(0 0.78125)"/>
       <use xlink:href="#DejaVuSans-11" transform="translate(63.623047 0.78125)"/>
       <use xlink:href="#DejaVuSans-13" transform="translate(95.410156 0.78125)"/>
      </g>
     </g>
    </g>
    <g id="ytick_2">
     <g id="line2d_8">
      <path d="M 30.2 179.768 
L 309.2 179.768 
" clip-path="url(#p4707950f6c)" style="fill: none; stroke: #000000; stroke-opacity: 0.3; stroke-width: 0.4; stroke-linecap: square"/>
     </g>
     <g id="text_8">
      <!-- $\mathdefault{0.5}$ -->
      <g transform="translate(7.2 183.566828) scale(0.1 -0.1)">
       <use xlink:href="#DejaVuSans-13" transform="translate(0 0.78125)"/>
       <use xlink:href="#DejaVuSans-11" transform="translate(63.623047 0.78125)"/>
       <use xlink:href="#DejaVuSans-18" transform="translate(95.410156 0.78125)"/>
      </g>
     </g>
    </g>
    <g id="ytick_3">
     <g id="line2d_9">
      <path d="M 30.2 147.208 
L 309.2 147.208 
" clip-path="url(#p4707950f6c)" style="fill: none; stroke: #000000; stroke-opacity: 0.3; stroke-width: 0.4; stroke-linecap: square"/>
     </g>
     <g id="text_9">
      <!-- $\mathdefault{1.0}$ -->
      <g transform="translate(7.2 151.006828) scale(0.1 -0.1)">
       <defs>
        <path id="DejaVuSans-14" d="M 794 531 
L 1825 531 
L 1825 4091 
L 703 3866 
L 703 4441 
L 1819 4666 
L 2450 4666 
L 2450 531 
L 3481 531 
L 3481 0 
L 794 0 
L 794 531 
z
" transform="scale(0.015625)"/>
       </defs>
       <use xlink:href="#DejaVuSans-14" transform="translate(0 0.78125)"/>
       <use xlink:href="#DejaVuSans-11" transform="translate(63.623047 0.78125)"/>
       <use xlink:href="#DejaVuSans-13" transform="translate(95.410156 0.78125)"/>
      </g>
     </g>
    </g>
    <g id="ytick_4">
     <g id="line2d_10">
      <path d="M 30.2 114.648 
L 309.2 114.648 
" clip-path="url(#p4707950f6c)" style="fill: none; stroke: #000000; stroke-opacity: 0.3; stroke-width: 0.4; stroke-linecap: square"/>
     </g>
     <g id="text_10">
      <!-- $\mathdefault{1.5}$ -->
      <g transform="translate(7.2 118.446828) scale(0.1 -0.1)">
       <use xlink:href="#DejaVuSans-14" transform="translate(0 0.09375)"/>
       <use xlink:href="#DejaVuSans-11" transform="translate(63.623047 0.09375)"/>
       <use xlink:href="#DejaVuSans-18" transform="translate(95.410156 0.09375)"/>
      </g>
     </g>
    </g>
    <g id="ytick_5">
     <g id="line2d_11">
      <path d="M 30.2 82.088 
L 309.2 82.088 
" clip-path="url(#p4707950f6c)" style="fill: none; stroke: #000000; stroke-opacity: 0.3; stroke-width: 0.4; stroke-linecap: square"/>
     </g>
     <g id="text_11">
      <!-- $\mathdefault{2.0}$ -->
      <g transform="translate(7.2 85.886828) scale(0.1 -0.1)">
       <use xlink:href="#DejaVuSans-15" transform="translate(0 0.78125)"/>
       <use xlink:href="#DejaVuSans-11" transform="translate(63.623047 0.78125)"/>
       <use xlink:href="#DejaVuSans-13" transform="translate(95.410156 0.78125)"/>
      </g>
     </g>
    </g>
    <g id="ytick_6">
     <g id="line2d_12">
      <path d="M 30.2 49.528 
L 309.2 49.528 
" clip-path="url(#p4707950f6c)" style="fill: none; stroke: #000000; stroke-opacity: 0.3; stroke-width: 0.4; stroke-linecap: square"/>
     </g>
     <g id="text_12">
      <!-- $\mathdefault{2.5}$ -->
      <g transform="translate(7.2 53.326828) scale(0.1 -0.1)">
       <use xlink:href="#DejaVuSans-15" transform="translate(0 0.78125)"/>
       <use xlink:href="#DejaVuSans-11" transform="translate(63.623047 0.78125)"/>
       <use xlink:href="#DejaVuSans-18" transform="translate(95.410156 0.78125)"/>
      </g>
     </g>
    </g>
    <g id="ytick_7">
     <g id="line2d_13">
      <path d="M 30.2 16.968 
L 309.2 16.968 
" clip-path="url(#p4707950f6c)" style="fill: none; stroke: #000000; stroke-opacity: 0.3; stroke-width: 0.4; stroke-linecap: square"/>
     </g>
     <g id="text_13">
      <!-- $\mathdefault{3.0}$ -->
      <g transform="translate(7.2 20.766828) scale(0.1 -0.1)">
       <use xlink:href="#DejaVuSans-16" transform="translate(0 0.78125)"/>
       <use xlink:href="#DejaVuSans-11" transform="translate(63.623047 0.78125)"/>
       <use xlink:href="#DejaVuSans-13" transform="translate(95.410156 0.78125)"/>
      </g>
     </g>
    </g>
   </g>
  </g>
 </g>
 <defs>
  <clipPath id="p4707950f6c">
   <rect x="30.2" y="7.2" width="279" height="205.128"/>
  </clipPath>
 </defs>
</svg>
