<?xml version="1.0" encoding="utf-8" standalone="no"?>
<!DOCTYPE svg PUBLIC "-//W3C//DTD SVG 1.1//EN"
  "http://www.w3.org/Graphics/SVG/1.1/DTD/svg11.dtd">
<svg xmlns:xlink="http://www.w3.org/1999/xlink" width="322.7pt" height="251.330344pt" viewBox="0 0 322.7 251.330344" xmlns="http://www.w3.org/2000/svg" version="1.1">
 <metadata>
  <rdf:RDF xmlns:dc="http://purl.org/dc/elements/1.1/" xmlns:cc="http://creativecommons.org/ns#" xmlns:rdf="http://www.w3.org/1999/02/22-rdf-syntax-ns#">
   <cc:Work>
    <dc:type rdf:resource="http://purl.org/dc/dcmitype/StillImage"/>
    <dc:date>2026-07-06T10:51:14.837060</dc:date>
    <dc:format>image/svg+xml</dc:format>
    <dc:creator>
     <cc:Agent>
      <dc:title>Matplotlib v3.11.0, https://matplotlib.org/</dc:title>
     </cc:Agent>
    </dc:creator>
   </cc:Work>
  </rdf:RDF>
 </metadata>
 <defs>
  <style type="text/css">*{stroke-linejoin: round; stroke-linecap: butt}</style>
 </defs>
 <g id="figure_1">
  <g id="patch_1">
   <path d="M 0 251.330344 
L 322.7 251.330344 
L 322.7 0 
L 0 0 
z
" style="fill: #ffffff"/>
  </g>
  <g id="axes_1">
   <g id="patch_2">
    <path d="M 36.5 212.328 
L 315.5 212.328 
L 315.5 7.2 
L 36.5 7.2 
z
" style="fill: #ffffff"/>
   </g>
   <g id="patch_3">
    <path d="M 49.181818 212.328 
L 51.718182 212.328 
L 51.718182 16.968 
L 49.181818 16.968 
z
" clip-path="url(#p4db3bd6515)" style="fill: #1f77b4"/>
   </g>
   <g id="patch_4">
    <path d="M 51.718182 212.328 
L 54.254545 212.328 
L 54.254545 137.905143 
L 51.718182 137.905143 
z
" clip-path="url(#p4db3bd6515)" style="fill: #1f77b4"/>
   </g>
   <g id="patch_5">
    <path d="M 54.254545 212.328 
L 56.790909 212.328 
L 56.790909 184.419429 
L 54.254545 184.419429 
z
" clip-path="url(#p4db3bd6515)" style="fill: #1f77b4"/>
   </g>
   <g id="patch_6">
    <path d="M 56.790909 212.328 
L 59.327273 212.328 
L 59.327273 165.813714 
L 56.790909 165.813714 
z
" clip-path="url(#p4db3bd6515)" style="fill: #1f77b4"/>
   </g>
   <g id="patch_7">
    <path d="M 59.327273 212.328 
L 61.863636 212.328 
L 61.863636 165.813714 
L 59.327273 165.813714 
z
" clip-path="url(#p4db3bd6515)" style="fill: #1f77b4"/>
   </g>
   <g id="patch_8">
    <path d="M 61.863636 212.328 
L 64.4 212.328 
L 64.4 165.813714 
L 61.863636 165.813714 
z
" clip-path="url(#p4db3bd6515)" style="fill: #1f77b4"/>
   </g>
   <g id="patch_9">
    <path d="M 64.4 212.328 
L 66.936364 212.328 
L 66.936364 175.116571 
L 64.4 175.116571 
z
" clip-path="url(#p4db3bd6515)" style="fill: #1f77b4"/>
   </g>
   <g id="patch_10">
    <path d="M 66.936364 212.328 
L 69.472727 212.328 
L 69.472727 184.419429 
L 66.936364 184.419429 
z
" clip-path="url(#p4db3bd6515)" style="fill: #1f77b4"/>
   </g>
   <g id="patch_11">
    <path d="M 69.472727 212.328 
L 72.009091 212.328 
L 72.009091 193.722286 
L 69.472727 193.722286 
z
" clip-path="url(#p4db3bd6515)" style="fill: #1f77b4"/>
   </g>
   <g id="patch_12">
    <path d="M 72.009091 212.328 
L 74.545455 212.328 
L 74.545455 203.025143 
L 72.009091 203.025143 
z
" clip-path="url(#p4db3bd6515)" style="fill: #1f77b4"/>
   </g>
   <g id="patch_13">
    <path d="M 74.545455 212.328 
L 77.081818 212.328 
L 77.081818 184.419429 
L 74.545455 184.419429 
z
" clip-path="url(#p4db3bd6515)" style="fill: #1f77b4"/>
   </g>
   <g id="patch_14">
    <path d="M 77.081818 212.328 
L 79.618182 212.328 
L 79.618182 193.722286 
L 77.081818 193.722286 
z
" clip-path="url(#p4db3bd6515)" style="fill: #1f77b4"/>
   </g>
   <g id="patch_15">
    <path d="M 79.618182 212.328 
L 82.154545 212.328 
L 82.154545 193.722286 
L 79.618182 193.722286 
z
" clip-path="url(#p4db3bd6515)" style="fill: #1f77b4"/>
   </g>
   <g id="patch_16">
    <path d="M 82.154545 212.328 
L 84.690909 212.328 
L 84.690909 193.722286 
L 82.154545 193.722286 
z
" clip-path="url(#p4db3bd6515)" style="fill: #1f77b4"/>
   </g>
   <g id="patch_17">
    <path d="M 84.690909 212.328 
L 87.227273 212.328 
L 87.227273 184.419429 
L 84.690909 184.419429 
z
" clip-path="url(#p4db3bd6515)" style="fill: #1f77b4"/>
   </g>
   <g id="patch_18">
    <path d="M 87.227273 212.328 
L 89.763636 212.328 
L 89.763636 184.419429 
L 87.227273 184.419429 
z
" clip-path="url(#p4db3bd6515)" style="fill: #1f77b4"/>
   </g>
   <g id="patch_19">
    <path d="M 89.763636 212.328 
L 92.3 212.328 
L 92.3 193.722286 
L 89.763636 193.722286 
z
" clip-path="url(#p4db3bd6515)" style="fill: #1f77b4"/>
   </g>
   <g id="patch_20">
    <path d="M 92.3 212.328 
L 94.836364 212.328 
L 94.836364 212.328 
L 92.3 212.328 
z
" clip-path="url(#p4db3bd6515)" style="fill: #1f77b4"/>
   </g>
   <g id="patch_21">
    <path d="M 94.836364 212.328 
L 97.372727 212.328 
L 97.372727 203.025143 
L 94.836364 203.025143 
z
" clip-path="url(#p4db3bd6515)" style="fill: #1f77b4"/>
   </g>
   <g id="patch_22">
    <path d="M 97.372727 212.328 
L 99.909091 212.328 
L 99.909091 203.025143 
L 97.372727 203.025143 
z
" clip-path="url(#p4db3bd6515)" style="fill: #1f77b4"/>
   </g>
   <g id="patch_23">
    <path d="M 99.909091 212.328 
L 102.445455 212.328 
L 102.445455 212.328 
L 99.909091 212.328 
z
" clip-path="url(#p4db3bd6515)" style="fill: #1f77b4"/>
   </g>
   <g id="patch_24">
    <path d="M 102.445455 212.328 
L 104.981818 212.328 
L 104.981818 212.328 
L 102.445455 212.328 
z
" clip-path="url(#p4db3bd6515)" style="fill: #1f77b4"/>
   </g>
   <g id="patch_25">
    <path d="M 104.981818 212.328 
L 107.518182 212.328 
L 107.518182 203.025143 
L 104.981818 203.025143 
z
" clip-path="url(#p4db3bd6515)" style="fill: #1f77b4"/>
   </g>
   <g id="patch_26">
    <path d="M 107.518182 212.328 
L 110.054545 212.328 
L 110.054545 203.025143 
L 107.518182 203.025143 
z
" clip-path="url(#p4db3bd6515)" style="fill: #1f77b4"/>
   </g>
   <g id="patch_27">
    <path d="M 110.054545 212.328 
L 112.590909 212.328 
L 112.590909 184.419429 
L 110.054545 184.419429 
z
" clip-path="url(#p4db3bd6515)" style="fill: #1f77b4"/>
   </g>
   <g id="patch_28">
    <path d="M 112.590909 212.328 
L 115.127273 212.328 
L 115.127273 203.025143 
L 112.590909 203.025143 
z
" clip-path="url(#p4db3bd6515)" style="fill: #1f77b4"/>
   </g>
   <g id="patch_29">
    <path d="M 115.127273 212.328 
L 117.663636 212.328 
L 117.663636 212.328 
L 115.127273 212.328 
z
" clip-path="url(#p4db3bd6515)" style="fill: #1f77b4"/>
   </g>
   <g id="patch_30">
    <path d="M 117.663636 212.328 
L 120.2 212.328 
L 120.2 212.328 
L 117.663636 212.328 
z
" clip-path="url(#p4db3bd6515)" style="fill: #1f77b4"/>
   </g>
   <g id="patch_31">
    <path d="M 120.2 212.328 
L 122.736364 212.328 
L 122.736364 212.328 
L 120.2 212.328 
z
" clip-path="url(#p4db3bd6515)" style="fill: #1f77b4"/>
   </g>
   <g id="patch_32">
    <path d="M 122.736364 212.328 
L 125.272727 212.328 
L 125.272727 212.328 
L 122.736364 212.328 
z
" clip-path="url(#p4db3bd6515)" style="fill: #1f77b4"/>
   </g>
   <g id="patch_33">
    <path d="M 125.272727 212.328 
L 127.809091 212.328 
L 127.809091 212.328 
L 125.272727 212.328 
z
" clip-path="url(#p4db3bd6515)" style="fill: #1f77b4"/>
   </g>
   <g id="patch_34">
    <path d="M 127.809091 212.328 
L 130.345455 212.328 
L 130.345455 212.328 
L 127.809091 212.328 
z
" clip-path="url(#p4db3bd6515)" style="fill: #1f77b4"/>
   </g>
   <g id="patch_35">
    <path d="M 130.345455 212.328 
L 132.881818 212.328 
L 132.881818 203.025143 
L 130.345455 203.025143 
z
" clip-path="url(#p4db3bd6515)" style="fill: #1f77b4"/>
   </g>
   <g id="patch_36">
    <path d="M 132.881818 212.328 
L 135.418182 212.328 
L 135.418182 203.025143 
L 132.881818 203.025143 
z
" clip-path="url(#p4db3bd6515)" style="fill: #1f77b4"/>
   </g>
   <g id="patch_37">
    <path d="M 135.418182 212.328 
L 137.954545 212.328 
L 137.954545 203.025143 
L 135.418182 203.025143 
z
" clip-path="url(#p4db3bd6515)" style="fill: #1f77b4"/>
   </g>
   <g id="patch_38">
    <path d="M 137.954545 212.328 
L 140.490909 212.328 
L 140.490909 203.025143 
L 137.954545 203.025143 
z
" clip-path="url(#p4db3bd6515)" style="fill: #1f77b4"/>
   </g>
   <g id="patch_39">
    <path d="M 140.490909 212.328 
L 143.027273 212.328 
L 143.027273 193.722286 
L 140.490909 193.722286 
z
" clip-path="url(#p4db3bd6515)" style="fill: #1f77b4"/>
   </g>
   <g id="patch_40">
    <path d="M 143.027273 212.328 
L 145.563636 212.328 
L 145.563636 193.722286 
L 143.027273 193.722286 
z
" clip-path="url(#p4db3bd6515)" style="fill: #1f77b4"/>
   </g>
   <g id="patch_41">
    <path d="M 145.563636 212.328 
L 148.1 212.328 
L 148.1 203.025143 
L 145.563636 203.025143 
z
" clip-path="url(#p4db3bd6515)" style="fill: #1f77b4"/>
   </g>
   <g id="patch_42">
    <path d="M 148.1 212.328 
L 150.636364 212.328 
L 150.636364 212.328 
L 148.1 212.328 
z
" clip-path="url(#p4db3bd6515)" style="fill: #1f77b4"/>
   </g>
   <g id="patch_43">
    <path d="M 150.636364 212.328 
L 153.172727 212.328 
L 153.172727 212.328 
L 150.636364 212.328 
z
" clip-path="url(#p4db3bd6515)" style="fill: #1f77b4"/>
   </g>
   <g id="patch_44">
    <path d="M 153.172727 212.328 
L 155.709091 212.328 
L 155.709091 193.722286 
L 153.172727 193.722286 
z
" clip-path="url(#p4db3bd6515)" style="fill: #1f77b4"/>
   </g>
   <g id="patch_45">
    <path d="M 155.709091 212.328 
L 158.245455 212.328 
L 158.245455 212.328 
L 155.709091 212.328 
z
" clip-path="url(#p4db3bd6515)" style="fill: #1f77b4"/>
   </g>
   <g id="patch_46">
    <path d="M 158.245455 212.328 
L 160.781818 212.328 
L 160.781818 203.025143 
L 158.245455 203.025143 
z
" clip-path="url(#p4db3bd6515)" style="fill: #1f77b4"/>
   </g>
   <g id="patch_47">
    <path d="M 160.781818 212.328 
L 163.318182 212.328 
L 163.318182 212.328 
L 160.781818 212.328 
z
" clip-path="url(#p4db3bd6515)" style="fill: #1f77b4"/>
   </g>
   <g id="patch_48">
    <path d="M 163.318182 212.328 
L 165.854545 212.328 
L 165.854545 212.328 
L 163.318182 212.328 
z
" clip-path="url(#p4db3bd6515)" style="fill: #1f77b4"/>
   </g>
   <g id="patch_49">
    <path d="M 165.854545 212.328 
L 168.390909 212.328 
L 168.390909 212.328 
L 165.854545 212.328 
z
" clip-path="url(#p4db3bd6515)" style="fill: #1f77b4"/>
   </g>
   <g id="patch_50">
    <path d="M 168.390909 212.328 
L 170.927273 212.328 
L 170.927273 203.025143 
L 168.390909 203.025143 
z
" clip-path="url(#p4db3bd6515)" style="fill: #1f77b4"/>
   </g>
   <g id="patch_51">
    <path d="M 170.927273 212.328 
L 173.463636 212.328 
L 173.463636 212.328 
L 170.927273 212.328 
z
" clip-path="url(#p4db3bd6515)" style="fill: #1f77b4"/>
   </g>
   <g id="patch_52">
    <path d="M 173.463636 212.328 
L 176 212.328 
L 176 212.328 
L 173.463636 212.328 
z
" clip-path="url(#p4db3bd6515)" style="fill: #1f77b4"/>
   </g>
   <g id="patch_53">
    <path d="M 176 212.328 
L 178.536364 212.328 
L 178.536364 212.328 
L 176 212.328 
z
" clip-path="url(#p4db3bd6515)" style="fill: #1f77b4"/>
   </g>
   <g id="patch_54">
    <path d="M 178.536364 212.328 
L 181.072727 212.328 
L 181.072727 212.328 
L 178.536364 212.328 
z
" clip-path="url(#p4db3bd6515)" style="fill: #1f77b4"/>
   </g>
   <g id="patch_55">
    <path d="M 181.072727 212.328 
L 183.609091 212.328 
L 183.609091 212.328 
L 181.072727 212.328 
z
" clip-path="url(#p4db3bd6515)" style="fill: #1f77b4"/>
   </g>
   <g id="patch_56">
    <path d="M 183.609091 212.328 
L 186.145455 212.328 
L 186.145455 212.328 
L 183.609091 212.328 
z
" clip-path="url(#p4db3bd6515)" style="fill: #1f77b4"/>
   </g>
   <g id="patch_57">
    <path d="M 186.145455 212.328 
L 188.681818 212.328 
L 188.681818 203.025143 
L 186.145455 203.025143 
z
" clip-path="url(#p4db3bd6515)" style="fill: #1f77b4"/>
   </g>
   <g id="patch_58">
    <path d="M 188.681818 212.328 
L 191.218182 212.328 
L 191.218182 212.328 
L 188.681818 212.328 
z
" clip-path="url(#p4db3bd6515)" style="fill: #1f77b4"/>
   </g>
   <g id="patch_59">
    <path d="M 191.218182 212.328 
L 193.754545 212.328 
L 193.754545 193.722286 
L 191.218182 193.722286 
z
" clip-path="url(#p4db3bd6515)" style="fill: #1f77b4"/>
   </g>
   <g id="patch_60">
    <path d="M 193.754545 212.328 
L 196.290909 212.328 
L 196.290909 212.328 
L 193.754545 212.328 
z
" clip-path="url(#p4db3bd6515)" style="fill: #1f77b4"/>
   </g>
   <g id="patch_61">
    <path d="M 196.290909 212.328 
L 198.827273 212.328 
L 198.827273 212.328 
L 196.290909 212.328 
z
" clip-path="url(#p4db3bd6515)" style="fill: #1f77b4"/>
   </g>
   <g id="patch_62">
    <path d="M 198.827273 212.328 
L 201.363636 212.328 
L 201.363636 212.328 
L 198.827273 212.328 
z
" clip-path="url(#p4db3bd6515)" style="fill: #1f77b4"/>
   </g>
   <g id="patch_63">
    <path d="M 201.363636 212.328 
L 203.9 212.328 
L 203.9 212.328 
L 201.363636 212.328 
z
" clip-path="url(#p4db3bd6515)" style="fill: #1f77b4"/>
   </g>
   <g id="patch_64">
    <path d="M 203.9 212.328 
L 206.436364 212.328 
L 206.436364 212.328 
L 203.9 212.328 
z
" clip-path="url(#p4db3bd6515)" style="fill: #1f77b4"/>
   </g>
   <g id="patch_65">
    <path d="M 206.436364 212.328 
L 208.972727 212.328 
L 208.972727 212.328 
L 206.436364 212.328 
z
" clip-path="url(#p4db3bd6515)" style="fill: #1f77b4"/>
   </g>
   <g id="patch_66">
    <path d="M 208.972727 212.328 
L 211.509091 212.328 
L 211.509091 212.328 
L 208.972727 212.328 
z
" clip-path="url(#p4db3bd6515)" style="fill: #1f77b4"/>
   </g>
   <g id="patch_67">
    <path d="M 211.509091 212.328 
L 214.045455 212.328 
L 214.045455 212.328 
L 211.509091 212.328 
z
" clip-path="url(#p4db3bd6515)" style="fill: #1f77b4"/>
   </g>
   <g id="patch_68">
    <path d="M 214.045455 212.328 
L 216.581818 212.328 
L 216.581818 212.328 
L 214.045455 212.328 
z
" clip-path="url(#p4db3bd6515)" style="fill: #1f77b4"/>
   </g>
   <g id="patch_69">
    <path d="M 216.581818 212.328 
L 219.118182 212.328 
L 219.118182 212.328 
L 216.581818 212.328 
z
" clip-path="url(#p4db3bd6515)" style="fill: #1f77b4"/>
   </g>
   <g id="patch_70">
    <path d="M 219.118182 212.328 
L 221.654545 212.328 
L 221.654545 212.328 
L 219.118182 212.328 
z
" clip-path="url(#p4db3bd6515)" style="fill: #1f77b4"/>
   </g>
   <g id="patch_71">
    <path d="M 221.654545 212.328 
L 224.190909 212.328 
L 224.190909 212.328 
L 221.654545 212.328 
z
" clip-path="url(#p4db3bd6515)" style="fill: #1f77b4"/>
   </g>
   <g id="patch_72">
    <path d="M 224.190909 212.328 
L 226.727273 212.328 
L 226.727273 212.328 
L 224.190909 212.328 
z
" clip-path="url(#p4db3bd6515)" style="fill: #1f77b4"/>
   </g>
   <g id="patch_73">
    <path d="M 226.727273 212.328 
L 229.263636 212.328 
L 229.263636 212.328 
L 226.727273 212.328 
z
" clip-path="url(#p4db3bd6515)" style="fill: #1f77b4"/>
   </g>
   <g id="patch_74">
    <path d="M 229.263636 212.328 
L 231.8 212.328 
L 231.8 212.328 
L 229.263636 212.328 
z
" clip-path="url(#p4db3bd6515)" style="fill: #1f77b4"/>
   </g>
   <g id="patch_75">
    <path d="M 231.8 212.328 
L 234.336364 212.328 
L 234.336364 212.328 
L 231.8 212.328 
z
" clip-path="url(#p4db3bd6515)" style="fill: #1f77b4"/>
   </g>
   <g id="patch_76">
    <path d="M 234.336364 212.328 
L 236.872727 212.328 
L 236.872727 212.328 
L 234.336364 212.328 
z
" clip-path="url(#p4db3bd6515)" style="fill: #1f77b4"/>
   </g>
   <g id="patch_77">
    <path d="M 236.872727 212.328 
L 239.409091 212.328 
L 239.409091 212.328 
L 236.872727 212.328 
z
" clip-path="url(#p4db3bd6515)" style="fill: #1f77b4"/>
   </g>
   <g id="patch_78">
    <path d="M 239.409091 212.328 
L 241.945455 212.328 
L 241.945455 212.328 
L 239.409091 212.328 
z
" clip-path="url(#p4db3bd6515)" style="fill: #1f77b4"/>
   </g>
   <g id="patch_79">
    <path d="M 241.945455 212.328 
L 244.481818 212.328 
L 244.481818 212.328 
L 241.945455 212.328 
z
" clip-path="url(#p4db3bd6515)" style="fill: #1f77b4"/>
   </g>
   <g id="patch_80">
    <path d="M 244.481818 212.328 
L 247.018182 212.328 
L 247.018182 212.328 
L 244.481818 212.328 
z
" clip-path="url(#p4db3bd6515)" style="fill: #1f77b4"/>
   </g>
   <g id="patch_81">
    <path d="M 247.018182 212.328 
L 249.554545 212.328 
L 249.554545 212.328 
L 247.018182 212.328 
z
" clip-path="url(#p4db3bd6515)" style="fill: #1f77b4"/>
   </g>
   <g id="patch_82">
    <path d="M 249.554545 212.328 
L 252.090909 212.328 
L 252.090909 212.328 
L 249.554545 212.328 
z
" clip-path="url(#p4db3bd6515)" style="fill: #1f77b4"/>
   </g>
   <g id="patch_83">
    <path d="M 252.090909 212.328 
L 254.627273 212.328 
L 254.627273 212.328 
L 252.090909 212.328 
z
" clip-path="url(#p4db3bd6515)" style="fill: #1f77b4"/>
   </g>
   <g id="patch_84">
    <path d="M 254.627273 212.328 
L 257.163636 212.328 
L 257.163636 203.025143 
L 254.627273 203.025143 
z
" clip-path="url(#p4db3bd6515)" style="fill: #1f77b4"/>
   </g>
   <g id="patch_85">
    <path d="M 257.163636 212.328 
L 259.7 212.328 
L 259.7 212.328 
L 257.163636 212.328 
z
" clip-path="url(#p4db3bd6515)" style="fill: #1f77b4"/>
   </g>
   <g id="patch_86">
    <path d="M 259.7 212.328 
L 262.236364 212.328 
L 262.236364 212.328 
L 259.7 212.328 
z
" clip-path="url(#p4db3bd6515)" style="fill: #1f77b4"/>
   </g>
   <g id="patch_87">
    <path d="M 262.236364 212.328 
L 264.772727 212.328 
L 264.772727 212.328 
L 262.236364 212.328 
z
" clip-path="url(#p4db3bd6515)" style="fill: #1f77b4"/>
   </g>
   <g id="patch_88">
    <path d="M 264.772727 212.328 
L 267.309091 212.328 
L 267.309091 212.328 
L 264.772727 212.328 
z
" clip-path="url(#p4db3bd6515)" style="fill: #1f77b4"/>
   </g>
   <g id="patch_89">
    <path d="M 267.309091 212.328 
L 269.845455 212.328 
L 269.845455 212.328 
L 267.309091 212.328 
z
" clip-path="url(#p4db3bd6515)" style="fill: #1f77b4"/>
   </g>
   <g id="patch_90">
    <path d="M 269.845455 212.328 
L 272.381818 212.328 
L 272.381818 212.328 
L 269.845455 212.328 
z
" clip-path="url(#p4db3bd6515)" style="fill: #1f77b4"/>
   </g>
   <g id="patch_91">
    <path d="M 272.381818 212.328 
L 274.918182 212.328 
L 274.918182 212.328 
L 272.381818 212.328 
z
" clip-path="url(#p4db3bd6515)" style="fill: #1f77b4"/>
   </g>
   <g id="patch_92">
    <path d="M 274.918182 212.328 
L 277.454545 212.328 
L 277.454545 212.328 
L 274.918182 212.328 
z
" clip-path="url(#p4db3bd6515)" style="fill: #1f77b4"/>
   </g>
   <g id="patch_93">
    <path d="M 277.454545 212.328 
L 279.990909 212.328 
L 279.990909 212.328 
L 277.454545 212.328 
z
" clip-path="url(#p4db3bd6515)" style="fill: #1f77b4"/>
   </g>
   <g id="patch_94">
    <path d="M 279.990909 212.328 
L 282.527273 212.328 
L 282.527273 212.328 
L 279.990909 212.328 
z
" clip-path="url(#p4db3bd6515)" style="fill: #1f77b4"/>
   </g>
   <g id="patch_95">
    <path d="M 282.527273 212.328 
L 285.063636 212.328 
L 285.063636 212.328 
L 282.527273 212.328 
z
" clip-path="url(#p4db3bd6515)" style="fill: #1f77b4"/>
   </g>
   <g id="patch_96">
    <path d="M 285.063636 212.328 
L 287.6 212.328 
L 287.6 212.328 
L 285.063636 212.328 
z
" clip-path="url(#p4db3bd6515)" style="fill: #1f77b4"/>
   </g>
   <g id="patch_97">
    <path d="M 287.6 212.328 
L 290.136364 212.328 
L 290.136364 212.328 
L 287.6 212.328 
z
" clip-path="url(#p4db3bd6515)" style="fill: #1f77b4"/>
   </g>
   <g id="patch_98">
    <path d="M 290.136364 212.328 
L 292.672727 212.328 
L 292.672727 212.328 
L 290.136364 212.328 
z
" clip-path="url(#p4db3bd6515)" style="fill: #1f77b4"/>
   </g>
   <g id="patch_99">
    <path d="M 292.672727 212.328 
L 295.209091 212.328 
L 295.209091 212.328 
L 292.672727 212.328 
z
" clip-path="url(#p4db3bd6515)" style="fill: #1f77b4"/>
   </g>
   <g id="patch_100">
    <path d="M 295.209091 212.328 
L 297.745455 212.328 
L 297.745455 212.328 
L 295.209091 212.328 
z
" clip-path="url(#p4db3bd6515)" style="fill: #1f77b4"/>
   </g>
   <g id="patch_101">
    <path d="M 297.745455 212.328 
L 300.281818 212.328 
L 300.281818 212.328 
L 297.745455 212.328 
z
" clip-path="url(#p4db3bd6515)" style="fill: #1f77b4"/>
   </g>
   <g id="patch_102">
    <path d="M 300.281818 212.328 
L 302.818182 212.328 
L 302.818182 175.116571 
L 300.281818 175.116571 
z
" clip-path="url(#p4db3bd6515)" style="fill: #1f77b4"/>
   </g>
   <g id="matplotlib.axis_1">
    <g id="xtick_1">
     <g id="line2d_1">
      <path d="M 49.180804 212.328 
L 49.180804 7.2 
" clip-path="url(#p4db3bd6515)" style="fill: none; stroke: #000000; stroke-opacity: 0.3; stroke-width: 0.4; stroke-linecap: square"/>
     </g>
     <g id="text_1">
      <!-- $\mathdefault{0.00}$ -->
      <g transform="translate(38.030804 226.925656) scale(0.1 -0.1)">
       <defs>
        <path id="DejaVuSans-13" d="M 2034 4250 
Q 1547 4250 1301 3770 
Q 1056 3291 1056 2328 
Q 1056 1369 1301 889 
Q 1547 409 2034 409 
Q 2525 409 2770 889 
Q 3016 1369 3016 2328 
Q 3016 3291 2770 3770 
Q 2525 4250 2034 4250 
z
M 2034 4750 
Q 2819 4750 3233 4129 
Q 3647 3509 3647 2328 
Q 3647 1150 3233 529 
Q 2819 -91 2034 -91 
Q 1250 -91 836 529 
Q 422 1150 422 2328 
Q 422 3509 836 4129 
Q 1250 4750 2034 4750 
z
" transform="scale(0.015625)"/>
        <path id="DejaVuSans-11" d="M 684 794 
L 1344 794 
L 1344 0 
L 684 0 
L 684 794 
z
" transform="scale(0.015625)"/>
       </defs>
       <use xlink:href="#DejaVuSans-13" transform="translate(0 0.78125)"/>
       <use xlink:href="#DejaVuSans-11" transform="translate(63.623047 0.78125)"/>
       <use xlink:href="#DejaVuSans-13" transform="translate(95.410156 0.78125)"/>
       <use xlink:href="#DejaVuSans-13" transform="translate(159.033203 0.78125)"/>
      </g>
     </g>
    </g>
    <g id="xtick_2">
     <g id="line2d_2">
      <path d="M 80.88741 212.328 
L 80.88741 7.2 
" clip-path="url(#p4db3bd6515)" style="fill: none; stroke: #000000; stroke-opacity: 0.3; stroke-width: 0.4; stroke-linecap: square"/>
     </g>
     <g id="text_2">
      <!-- $\mathdefault{0.25}$ -->
      <g transform="translate(69.73741 226.925656) scale(0.1 -0.1)">
       <defs>
        <path id="DejaVuSans-15" d="M 1228 531 
L 3431 531 
L 3431 0 
L 469 0 
L 469 531 
Q 828 903 1448 1529 
Q 2069 2156 2228 2338 
Q 2531 2678 2651 2914 
Q 2772 3150 2772 3378 
Q 2772 3750 2511 3984 
Q 2250 4219 1831 4219 
Q 1534 4219 1204 4116 
Q 875 4013 500 3803 
L 500 4441 
Q 881 4594 1212 4672 
Q 1544 4750 1819 4750 
Q 2544 4750 2975 4387 
Q 3406 4025 3406 3419 
Q 3406 3131 3298 2873 
Q 3191 2616 2906 2266 
Q 2828 2175 2409 1742 
Q 1991 1309 1228 531 
z
" transform="scale(0.015625)"/>
        <path id="DejaVuSans-18" d="M 691 4666 
L 3169 4666 
L 3169 4134 
L 1269 4134 
L 1269 2991 
Q 1406 3038 1543 3061 
Q 1681 3084 1819 3084 
Q 2600 3084 3056 2656 
Q 3513 2228 3513 1497 
Q 3513 744 3044 326 
Q 2575 -91 1722 -91 
Q 1428 -91 1123 -41 
Q 819 9 494 109 
L 494 744 
Q 775 591 1075 516 
Q 1375 441 1709 441 
Q 2250 441 2565 725 
Q 2881 1009 2881 1497 
Q 2881 1984 2565 2268 
Q 2250 2553 1709 2553 
Q 1456 2553 1204 2497 
Q 953 2441 691 2322 
L 691 4666 
z
" transform="scale(0.015625)"/>
       </defs>
       <use xlink:href="#DejaVuSans-13" transform="translate(0 0.78125)"/>
       <use xlink:href="#DejaVuSans-11" transform="translate(63.623047 0.78125)"/>
       <use xlink:href="#DejaVuSans-15" transform="translate(95.410156 0.78125)"/>
       <use xlink:href="#DejaVuSans-18" transform="translate(159.033203 0.78125)"/>
      </g>
     </g>
    </g>
    <g id="xtick_3">
     <g id="line2d_3">
      <path d="M 112.594016 212.328 
L 112.594016 7.2 
" clip-path="url(#p4db3bd6515)" style="fill: none; stroke: #000000; stroke-opacity: 0.3; stroke-width: 0.4; stroke-linecap: square"/>
     </g>
     <g id="text_3">
      <!-- $\mathdefault{0.50}$ -->
      <g transform="translate(101.444016 226.925656) scale(0.1 -0.1)">
       <use xlink:href="#DejaVuSans-13" transform="translate(0 0.78125)"/>
       <use xlink:href="#DejaVuSans-11" transform="translate(63.623047 0.78125)"/>
       <use xlink:href="#DejaVuSans-18" transform="translate(95.410156 0.78125)"/>
       <use xlink:href="#DejaVuSans-13" transform="translate(159.033203 0.78125)"/>
      </g>
     </g>
    </g>
    <g id="xtick_4">
     <g id="line2d_4">
      <path d="M 144.300623 212.328 
L 144.300623 7.2 
" clip-path="url(#p4db3bd6515)" style="fill: none; stroke: #000000; stroke-opacity: 0.3; stroke-width: 0.4; stroke-linecap: square"/>
     </g>
     <g id="text_4">
      <!-- $\mathdefault{0.75}$ -->
      <g transform="translate(133.150623 226.925656) scale(0.1 -0.1)">
       <defs>
        <path id="DejaVuSans-1a" d="M 525 4666 
L 3525 4666 
L 3525 4397 
L 1831 0 
L 1172 0 
L 2766 4134 
L 525 4134 
L 525 4666 
z
" transform="scale(0.015625)"/>
       </defs>
       <use xlink:href="#DejaVuSans-13" transform="translate(0 0.78125)"/>
       <use xlink:href="#DejaVuSans-11" transform="translate(63.623047 0.78125)"/>
       <use xlink:href="#DejaVuSans-1a" transform="translate(95.410156 0.78125)"/>
       <use xlink:href="#DejaVuSans-18" transform="translate(159.033203 0.78125)"/>
      </g>
     </g>
    </g>
    <g id="xtick_5">
     <g id="line2d_5">
      <path d="M 176.007229 212.328 
L 176.007229 7.2 
" clip-path="url(#p4db3bd6515)" style="fill: none; stroke: #000000; stroke-opacity: 0.3; stroke-width: 0.4; stroke-linecap: square"/>
     </g>
     <g id="text_5">
      <!-- $\mathdefault{1.00}$ -->
      <g transform="translate(164.857229 226.925656) scale(0.1 -0.1)">
       <defs>
        <path id="DejaVuSans-14" d="M 794 531 
L 1825 531 
L 1825 4091 
L 703 3866 
L 703 4441 
L 1819 4666 
L 2450 4666 
L 2450 531 
L 3481 531 
L 3481 0 
L 794 0 
L 794 531 
z
" transform="scale(0.015625)"/>
       </defs>
       <use xlink:href="#DejaVuSans-14" transform="translate(0 0.78125)"/>
       <use xlink:href="#DejaVuSans-11" transform="translate(63.623047 0.78125)"/>
       <use xlink:href="#DejaVuSans-13" transform="translate(95.410156 0.78125)"/>
       <use xlink:href="#DejaVuSans-13" transform="translate(159.033203 0.78125)"/>
      </g>
     </g>
    </g>
    <g id="xtick_6">
     <g id="line2d_6">
      <path d="M 207.713835 212.328 
L 207.713835 7.2 
" clip-path="url(#p4db3bd6515)" style="fill: none; stroke: #000000; stroke-opacity: 0.3; stroke-width: 0.4; stroke-linecap: square"/>
     </g>
     <g id="text_6">
      <!-- $\mathdefault{1.25}$ -->
      <g transform="translate(196.563835 226.925656) scale(0.1 -0.1)">
       <use xlink:href="#DejaVuSans-14" transform="translate(0 0.78125)"/>
       <use xlink:href="#DejaVuSans-11" transform="translate(63.623047 0.78125)"/>
       <use xlink:href="#DejaVuSans-15" transform="translate(95.410156 0.78125)"/>
       <use xlink:href="#DejaVuSans-18" transform="translate(159.033203 0.78125)"/>
      </g>
     </g>
    </g>
    <g id="xtick_7">
     <g id="line2d_7">
      <path d="M 239.420442 212.328 
L 239.420442 7.2 
" clip-path="url(#p4db3bd6515)" style="fill: none; stroke: #000000; stroke-opacity: 0.3; stroke-width: 0.4; stroke-linecap: square"/>
     </g>
     <g id="text_7">
      <!-- $\mathdefault{1.50}$ -->
      <g transform="translate(228.270442 226.925656) scale(0.1 -0.1)">
       <use xlink:href="#DejaVuSans-14" transform="translate(0 0.78125)"/>
       <use xlink:href="#DejaVuSans-11" transform="translate(63.623047 0.78125)"/>
       <use xlink:href="#DejaVuSans-18" transform="translate(95.410156 0.78125)"/>
       <use xlink:href="#DejaVuSans-13" transform="translate(159.033203 0.78125)"/>
      </g>
     </g>
    </g>
    <g id="xtick_8">
     <g id="line2d_8">
      <path d="M 271.127048 212.328 
L 271.127048 7.2 
" clip-path="url(#p4db3bd6515)" style="fill: none; stroke: #000000; stroke-opacity: 0.3; stroke-width: 0.4; stroke-linecap: square"/>
     </g>
     <g id="text_8">
      <!-- $\mathdefault{1.75}$ -->
      <g transform="translate(259.977048 226.925656) scale(0.1 -0.1)">
       <use xlink:href="#DejaVuSans-14" transform="translate(0 0.09375)"/>
       <use xlink:href="#DejaVuSans-11" transform="translate(63.623047 0.09375)"/>
       <use xlink:href="#DejaVuSans-1a" transform="translate(95.410156 0.09375)"/>
       <use xlink:href="#DejaVuSans-18" transform="translate(159.033203 0.09375)"/>
      </g>
     </g>
    </g>
    <g id="xtick_9">
     <g id="line2d_9">
      <path d="M 302.833655 212.328 
L 302.833655 7.2 
" clip-path="url(#p4db3bd6515)" style="fill: none; stroke: #000000; stroke-opacity: 0.3; stroke-width: 0.4; stroke-linecap: square"/>
     </g>
     <g id="text_9">
      <!-- $\mathdefault{2.00}$ -->
      <g transform="translate(291.683655 226.925656) scale(0.1 -0.1)">
       <use xlink:href="#DejaVuSans-15" transform="translate(0 0.78125)"/>
       <use xlink:href="#DejaVuSans-11" transform="translate(63.623047 0.78125)"/>
       <use xlink:href="#DejaVuSans-13" transform="translate(95.410156 0.78125)"/>
       <use xlink:href="#DejaVuSans-13" transform="translate(159.033203 0.78125)"/>
      </g>
     </g>
    </g>
    <g id="text_10">
     <!-- $\times\mathdefault{10^{6}}\mathdefault{}$ -->
     <g transform="translate(289.5 241.728) scale(0.1 -0.1)">
      <defs>
       <path id="DejaVuSans-99" d="M 4488 3438 
L 3059 2003 
L 4488 575 
L 4116 197 
L 2681 1631 
L 1247 197 
L 878 575 
L 2303 2003 
L 878 3438 
L 1247 3816 
L 2681 2381 
L 4116 3816 
L 4488 3438 
z
" transform="scale(0.015625)"/>
       <path id="DejaVuSans-19" d="M 2113 2584 
Q 1688 2584 1439 2293 
Q 1191 2003 1191 1497 
Q 1191 994 1439 701 
Q 1688 409 2113 409 
Q 2538 409 2786 701 
Q 3034 994 3034 1497 
Q 3034 2003 2786 2293 
Q 2538 2584 2113 2584 
z
M 3366 4563 
L 3366 3988 
Q 3128 4100 2886 4159 
Q 2644 4219 2406 4219 
Q 1781 4219 1451 3797 
Q 1122 3375 1075 2522 
Q 1259 2794 1537 2939 
Q 1816 3084 2150 3084 
Q 2853 3084 3261 2657 
Q 3669 2231 3669 1497 
Q 3669 778 3244 343 
Q 2819 -91 2113 -91 
Q 1303 -91 875 529 
Q 447 1150 447 2328 
Q 447 3434 972 4092 
Q 1497 4750 2381 4750 
Q 2619 4750 2861 4703 
Q 3103 4656 3366 4563 
z
" transform="scale(0.015625)"/>
      </defs>
      <use xlink:href="#DejaVuSans-99" transform="translate(0 0.746875)"/>
      <use xlink:href="#DejaVuSans-14" transform="translate(83.789062 0.746875)"/>
      <use xlink:href="#DejaVuSans-13" transform="translate(147.412109 0.746875)"/>
      <use xlink:href="#DejaVuSans-19" transform="translate(211.992188 42.046875) scale(0.7)"/>
     </g>
    </g>
   </g>
   <g id="matplotlib.axis_2">
    <g id="ytick_1">
     <g id="line2d_10">
      <path d="M 36.5 212.328 
L 315.5 212.328 
" clip-path="url(#p4db3bd6515)" style="fill: none; stroke: #000000; stroke-opacity: 0.3; stroke-width: 0.4; stroke-linecap: square"/>
     </g>
     <g id="text_11">
      <!-- $\mathdefault{0.0}$ -->
      <g transform="translate(13.5 216.126828) scale(0.1 -0.1)">
       <use xlink:href="#DejaVuSans-13" transform="translate(0 0.78125)"/>
       <use xlink:href="#DejaVuSans-11" transform="translate(63.623047 0.78125)"/>
       <use xlink:href="#DejaVuSans-13" transform="translate(95.410156 0.78125)"/>
      </g>
     </g>
    </g>
    <g id="ytick_2">
     <g id="line2d_11">
      <path d="M 36.5 189.070857 
L 315.5 189.070857 
" clip-path="url(#p4db3bd6515)" style="fill: none; stroke: #000000; stroke-opacity: 0.3; stroke-width: 0.4; stroke-linecap: square"/>
     </g>
     <g id="text_12">
      <!-- $\mathdefault{2.5}$ -->
      <g transform="translate(13.5 192.869685) scale(0.1 -0.1)">
       <use xlink:href="#DejaVuSans-15" transform="translate(0 0.78125)"/>
       <use xlink:href="#DejaVuSans-11" transform="translate(63.623047 0.78125)"/>
       <use xlink:href="#DejaVuSans-18" transform="translate(95.410156 0.78125)"/>
      </g>
     </g>
    </g>
    <g id="ytick_3">
     <g id="line2d_12">
      <path d="M 36.5 165.813714 
L 315.5 165.813714 
" clip-path="url(#p4db3bd6515)" style="fill: none; stroke: #000000; stroke-opacity: 0.3; stroke-width: 0.4; stroke-linecap: square"/>
     </g>
     <g id="text_13">
      <!-- $\mathdefault{5.0}$ -->
      <g transform="translate(13.5 169.612542) scale(0.1 -0.1)">
       <use xlink:href="#DejaVuSans-18" transform="translate(0 0.78125)"/>
       <use xlink:href="#DejaVuSans-11" transform="translate(63.623047 0.78125)"/>
       <use xlink:href="#DejaVuSans-13" transform="translate(95.410156 0.78125)"/>
      </g>
     </g>
    </g>
    <g id="ytick_4">
     <g id="line2d_13">
      <path d="M 36.5 142.556571 
L 315.5 142.556571 
" clip-path="url(#p4db3bd6515)" style="fill: none; stroke: #000000; stroke-opacity: 0.3; stroke-width: 0.4; stroke-linecap: square"/>
     </g>
     <g id="text_14">
      <!-- $\mathdefault{7.5}$ -->
      <g transform="translate(13.5 146.3554) scale(0.1 -0.1)">
       <use xlink:href="#DejaVuSans-1a" transform="translate(0 0.09375)"/>
       <use xlink:href="#DejaVuSans-11" transform="translate(63.623047 0.09375)"/>
       <use xlink:href="#DejaVuSans-18" transform="translate(95.410156 0.09375)"/>
      </g>
     </g>
    </g>
    <g id="ytick_5">
     <g id="line2d_14">
      <path d="M 36.5 119.299429 
L 315.5 119.299429 
" clip-path="url(#p4db3bd6515)" style="fill: none; stroke: #000000; stroke-opacity: 0.3; stroke-width: 0.4; stroke-linecap: square"/>
     </g>
     <g id="text_15">
      <!-- $\mathdefault{10.0}$ -->
      <g transform="translate(7.2 123.098257) scale(0.1 -0.1)">
       <use xlink:href="#DejaVuSans-14" transform="translate(0 0.78125)"/>
       <use xlink:href="#DejaVuSans-13" transform="translate(63.623047 0.78125)"/>
       <use xlink:href="#DejaVuSans-11" transform="translate(127.246094 0.78125)"/>
       <use xlink:href="#DejaVuSans-13" transform="translate(159.033203 0.78125)"/>
      </g>
     </g>
    </g>
    <g id="ytick_6">
     <g id="line2d_15">
      <path d="M 36.5 96.042286 
L 315.5 96.042286 
" clip-path="url(#p4db3bd6515)" style="fill: none; stroke: #000000; stroke-opacity: 0.3; stroke-width: 0.4; stroke-linecap: square"/>
     </g>
     <g id="text_16">
      <!-- $\mathdefault{12.5}$ -->
      <g transform="translate(7.2 99.841114) scale(0.1 -0.1)">
       <use xlink:href="#DejaVuSans-14" transform="translate(0 0.78125)"/>
       <use xlink:href="#DejaVuSans-15" transform="translate(63.623047 0.78125)"/>
       <use xlink:href="#DejaVuSans-11" transform="translate(127.246094 0.78125)"/>
       <use xlink:href="#DejaVuSans-18" transform="translate(159.033203 0.78125)"/>
      </g>
     </g>
    </g>
    <g id="ytick_7">
     <g id="line2d_16">
      <path d="M 36.5 72.785143 
L 315.5 72.785143 
" clip-path="url(#p4db3bd6515)" style="fill: none; stroke: #000000; stroke-opacity: 0.3; stroke-width: 0.4; stroke-linecap: square"/>
     </g>
     <g id="text_17">
      <!-- $\mathdefault{15.0}$ -->
      <g transform="translate(7.2 76.583971) scale(0.1 -0.1)">
       <use xlink:href="#DejaVuSans-14" transform="translate(0 0.78125)"/>
       <use xlink:href="#DejaVuSans-18" transform="translate(63.623047 0.78125)"/>
       <use xlink:href="#DejaVuSans-11" transform="translate(127.246094 0.78125)"/>
       <use xlink:href="#DejaVuSans-13" transform="translate(159.033203 0.78125)"/>
      </g>
     </g>
    </g>
    <g id="ytick_8">
     <g id="line2d_17">
      <path d="M 36.5 49.528 
L 315.5 49.528 
" clip-path="url(#p4db3bd6515)" style="fill: none; stroke: #000000; stroke-opacity: 0.3; stroke-width: 0.4; stroke-linecap: square"/>
     </g>
     <g id="text_18">
      <!-- $\mathdefault{17.5}$ -->
      <g transform="translate(7.2 53.326828) scale(0.1 -0.1)">
       <use xlink:href="#DejaVuSans-14" transform="translate(0 0.09375)"/>
       <use xlink:href="#DejaVuSans-1a" transform="translate(63.623047 0.09375)"/>
       <use xlink:href="#DejaVuSans-11" transform="translate(127.246094 0.09375)"/>
       <use xlink:href="#DejaVuSans-18" transform="translate(159.033203 0.09375)"/>
      </g>
     </g>
    </g>
    <g id="ytick_9">
     <g id="line2d_18">
      <path d="M 36.5 26.270857 
L 315.5 26.270857 
" clip-path="url(#p4db3bd6515)" style="fill: none; stroke: #000000; stroke-opacity: 0.3; stroke-width: 0.4; stroke-linecap: square"/>
     </g>
     <g id="text_19">
      <!-- $\mathdefault{20.0}$ -->
      <g transform="translate(7.2 30.069685) scale(0.1 -0.1)">
       <use xlink:href="#DejaVuSans-15" transform="translate(0 0.78125)"/>
       <use xlink:href="#DejaVuSans-13" transform="translate(63.623047 0.78125)"/>
       <use xlink:href="#DejaVuSans-11" transform="translate(127.246094 0.78125)"/>
       <use xlink:href="#DejaVuSans-13" transform="translate(159.033203 0.78125)"/>
      </g>
     </g>
    </g>
   </g>
  </g>
 </g>
 <defs>
  <clipPath id="p4db3bd6515">
   <rect x="36.5" y="7.2" width="279" height="205.128"/>
  </clipPath>
 </defs>
</svg>
