<?xml version="1.0" encoding="utf-8" standalone="no"?>
<!DOCTYPE svg PUBLIC "-//W3C//DTD SVG 1.1//EN"
  "http://www.w3.org/Graphics/SVG/1.1/DTD/svg11.dtd">
<svg xmlns:xlink="http://www.w3.org/1999/xlink" width="466.4pt" height="259.2pt" viewBox="0 0 466.4 259.2" xmlns="http://www.w3.org/2000/svg" version="1.1">
 <metadata>
  <rdf:RDF xmlns:dc="http://purl.org/dc/elements/1.1/" xmlns:cc="http://creativecommons.org/ns#" xmlns:rdf="http://www.w3.org/1999/02/22-rdf-syntax-ns#">
   <cc:Work>
    <dc:type rdf:resource="http://purl.org/dc/dcmitype/StillImage"/>
    <dc:date>2026-07-07T15:32:31.120859</dc:date>
    <dc:format>image/svg+xml</dc:format>
    <dc:creator>
     <cc:Agent>
      <dc:title>Matplotlib v3.11.0, https://matplotlib.org/</dc:title>
     </cc:Agent>
    </dc:creator>
   </cc:Work>
  </rdf:RDF>
 </metadata>
 <defs>
  <style type="text/css">*{stroke-linejoin: round; stroke-linecap: butt}</style>
 </defs>
 <g id="figure_1">
  <g id="patch_1">
   <path d="M 0 259.2 
L 466.4 259.2 
L 466.4 0 
L 0 0 
z
" style="fill: #ffffff"/>
  </g>
  <g id="axes_1">
   <g id="patch_2">
    <path d="M 45.800781 238.5 
L 459.2 238.5 
L 459.2 7.2 
L 45.800781 7.2 
z
" style="fill: #ffffff"/>
   </g>
   <g id="patch_3">
    <path d="M 229.63732 7.2 
L 229.63732 53.46 
M 275.363461 7.2 
L 275.363461 53.46 
" clip-path="url(#p1739e1849c)" style="fill: none; stroke: #ffffff; stroke-width: 3; stroke-linejoin: miter"/>
    <path d="M 229.63732 7.2 
L 229.63732 53.46 
M 275.363461 7.2 
L 275.363461 53.46 
" clip-path="url(#p1739e1849c)" style="fill: none; stroke: #2ca02c; stroke-linejoin: miter"/>
   </g>
   <g id="FillBetweenPolyCollection_1">
    <path d="M 275.363461 7.2 
L 229.63732 7.2 
L 229.63732 53.46 
L 275.363461 53.46 
L 275.363461 53.46 
L 275.363461 7.2 
z
" clip-path="url(#p1739e1849c)" style="fill: #2ca02c; fill-opacity: 0.5"/>
   </g>
   <g id="patch_4">
    <path d="M 64.591655 53.46 
L 64.591655 260.2 
M 110.317795 53.46 
L 110.317795 260.2 
" clip-path="url(#p1739e1849c)" style="fill: none; stroke: #ffffff; stroke-width: 3; stroke-linejoin: miter"/>
    <path d="M 64.591655 53.46 
L 64.591655 260.2 
M 110.317795 53.46 
L 110.317795 260.2 
" clip-path="url(#p1739e1849c)" style="fill: none; stroke: #1f77b4; stroke-linejoin: miter"/>
   </g>
   <g id="FillBetweenPolyCollection_2">
    <path d="M 110.317795 53.46 
L 64.591655 53.46 
L 64.591655 50263.236557 
L 110.317795 50263.236557 
L 110.317795 50263.236557 
L 110.317795 53.46 
z
" clip-path="url(#p1739e1849c)" style="fill: #1f77b4; fill-opacity: 0.5"/>
   </g>
   <g id="patch_5">
    <path d="M 394.682986 53.46 
L 394.682986 260.2 
M 440.409126 53.46 
L 440.409126 260.2 
" clip-path="url(#p1739e1849c)" style="fill: none; stroke: #ffffff; stroke-width: 3; stroke-linejoin: miter"/>
    <path d="M 394.682986 53.46 
L 394.682986 260.2 
M 440.409126 53.46 
L 440.409126 260.2 
" clip-path="url(#p1739e1849c)" style="fill: none; stroke: #d62728; stroke-linejoin: miter"/>
   </g>
   <g id="FillBetweenPolyCollection_3">
    <path d="M 440.409126 53.46 
L 394.682986 53.46 
L 394.682986 50263.236557 
L 440.409126 50263.236557 
L 440.409126 50263.236557 
L 440.409126 53.46 
z
" clip-path="url(#p1739e1849c)" style="fill: #d62728; fill-opacity: 0.5"/>
   </g>
   <g id="patch_6">
    <path d="M 147.114488 164.607398 
L 147.114488 260.2 
M 192.840628 164.607398 
L 192.840628 260.2 
" clip-path="url(#p1739e1849c)" style="fill: none; stroke: #ffffff; stroke-width: 3; stroke-linejoin: miter"/>
    <path d="M 147.114488 164.607398 
L 147.114488 260.2 
M 192.840628 164.607398 
L 192.840628 260.2 
" clip-path="url(#p1739e1849c)" style="fill: none; stroke: #ff7f0e; stroke-linejoin: miter"/>
   </g>
   <g id="FillBetweenPolyCollection_4">
    <path d="M 192.840628 164.607398 
L 147.114488 164.607398 
L 147.114488 50263.236557 
L 192.840628 50263.236557 
L 192.840628 50263.236557 
L 192.840628 164.607398 
z
" clip-path="url(#p1739e1849c)" style="fill: #ff7f0e; fill-opacity: 0.5"/>
   </g>
   <g id="patch_7">
    <path d="M 229.63732 164.607398 
L 229.63732 260.2 
M 275.363461 164.607398 
L 275.363461 260.2 
" clip-path="url(#p1739e1849c)" style="fill: none; stroke: #ffffff; stroke-width: 3; stroke-linejoin: miter"/>
    <path d="M 229.63732 164.607398 
L 229.63732 260.2 
M 275.363461 164.607398 
L 275.363461 260.2 
" clip-path="url(#p1739e1849c)" style="fill: none; stroke: #808080; stroke-linejoin: miter"/>
   </g>
   <g id="FillBetweenPolyCollection_5">
    <path d="M 275.363461 164.607398 
L 229.63732 164.607398 
L 229.63732 50263.236557 
L 275.363461 50263.236557 
L 275.363461 50263.236557 
L 275.363461 164.607398 
z
" clip-path="url(#p1739e1849c)" style="fill: #808080; fill-opacity: 0.5"/>
   </g>
   <g id="patch_8">
    <path d="M 312.160153 164.607398 
L 312.160153 260.2 
M 357.886294 164.607398 
L 357.886294 260.2 
" clip-path="url(#p1739e1849c)" style="fill: none; stroke: #ffffff; stroke-width: 3; stroke-linejoin: miter"/>
    <path d="M 312.160153 164.607398 
L 312.160153 260.2 
M 357.886294 164.607398 
L 357.886294 260.2 
" clip-path="url(#p1739e1849c)" style="fill: none; stroke: #808080; stroke-linejoin: miter"/>
   </g>
   <g id="FillBetweenPolyCollection_6">
    <path d="M 357.886294 164.607398 
L 312.160153 164.607398 
L 312.160153 50263.236557 
L 357.886294 50263.236557 
L 357.886294 50263.236557 
L 357.886294 164.607398 
z
" clip-path="url(#p1739e1849c)" style="fill: #808080; fill-opacity: 0.5"/>
   </g>
   <g id="matplotlib.axis_1">
    <g id="xtick_1">
     <g id="line2d_1"/>
     <g id="text_1">
      <!-- A -->
      <g transform="translate(84.034413 249.597656) scale(0.1 -0.1)">
       <defs>
        <path id="DejaVuSans-24" d="M 2188 4044 
L 1331 1722 
L 3047 1722 
L 2188 4044 
z
M 1831 4666 
L 2547 4666 
L 4325 0 
L 3669 0 
L 3244 1197 
L 1141 1197 
L 716 0 
L 50 0 
L 1831 4666 
z
" transform="scale(0.015625)"/>
       </defs>
       <use xlink:href="#DejaVuSans-24"/>
      </g>
     </g>
    </g>
    <g id="xtick_2">
     <g id="line2d_2"/>
     <g id="text_2">
      <!-- B -->
      <g transform="translate(414.115587 249.597656) scale(0.1 -0.1)">
       <defs>
        <path id="DejaVuSans-25" d="M 1259 2228 
L 1259 519 
L 2272 519 
Q 2781 519 3026 730 
Q 3272 941 3272 1375 
Q 3272 1813 3026 2020 
Q 2781 2228 2272 2228 
L 1259 2228 
z
M 1259 4147 
L 1259 2741 
L 2194 2741 
Q 2656 2741 2882 2914 
Q 3109 3088 3109 3444 
Q 3109 3797 2882 3972 
Q 2656 4147 2194 4147 
L 1259 4147 
z
M 628 4666 
L 2241 4666 
Q 2963 4666 3353 4366 
Q 3744 4066 3744 3513 
Q 3744 3084 3544 2831 
Q 3344 2578 2956 2516 
Q 3422 2416 3680 2098 
Q 3938 1781 3938 1306 
Q 3938 681 3513 340 
Q 3088 0 2303 0 
L 628 0 
L 628 4666 
z
" transform="scale(0.015625)"/>
       </defs>
       <use xlink:href="#DejaVuSans-25"/>
      </g>
     </g>
    </g>
    <g id="xtick_3">
     <g id="line2d_3"/>
     <g id="text_3">
      <!-- ADMIX -->
      <g transform="translate(153.493183 249.597656) scale(0.1 -0.1)">
       <defs>
        <path id="DejaVuSans-27" d="M 1259 4147 
L 1259 519 
L 2022 519 
Q 2988 519 3436 956 
Q 3884 1394 3884 2338 
Q 3884 3275 3436 3711 
Q 2988 4147 2022 4147 
L 1259 4147 
z
M 628 4666 
L 1925 4666 
Q 3281 4666 3915 4102 
Q 4550 3538 4550 2338 
Q 4550 1131 3912 565 
Q 3275 0 1925 0 
L 628 0 
L 628 4666 
z
" transform="scale(0.015625)"/>
        <path id="DejaVuSans-30" d="M 628 4666 
L 1569 4666 
L 2759 1491 
L 3956 4666 
L 4897 4666 
L 4897 0 
L 4281 0 
L 4281 4097 
L 3078 897 
L 2444 897 
L 1241 4097 
L 1241 0 
L 628 0 
L 628 4666 
z
" transform="scale(0.015625)"/>
        <path id="DejaVuSans-2c" d="M 628 4666 
L 1259 4666 
L 1259 0 
L 628 0 
L 628 4666 
z
" transform="scale(0.015625)"/>
        <path id="DejaVuSans-3b" d="M 403 4666 
L 1081 4666 
L 2241 2931 
L 3406 4666 
L 4084 4666 
L 2584 2425 
L 4184 0 
L 3506 0 
L 2194 1984 
L 872 0 
L 191 0 
L 1856 2491 
L 403 4666 
z
" transform="scale(0.015625)"/>
       </defs>
       <use xlink:href="#DejaVuSans-24"/>
       <use xlink:href="#DejaVuSans-27" transform="translate(68.40625 0)"/>
       <use xlink:href="#DejaVuSans-30" transform="translate(145.40625 0)"/>
       <use xlink:href="#DejaVuSans-2c" transform="translate(231.6875 0)"/>
       <use xlink:href="#DejaVuSans-3b" transform="translate(261.1875 0)"/>
      </g>
     </g>
    </g>
    <g id="xtick_4">
     <g id="line2d_4"/>
     <g id="text_4">
      <!-- RA -->
      <g transform="translate(245.808203 249.597656) scale(0.1 -0.1)">
       <defs>
        <path id="DejaVuSans-35" d="M 2841 2188 
Q 3044 2119 3236 1894 
Q 3428 1669 3622 1275 
L 4263 0 
L 3584 0 
L 2988 1197 
Q 2756 1666 2539 1819 
Q 2322 1972 1947 1972 
L 1259 1972 
L 1259 0 
L 628 0 
L 628 4666 
L 2053 4666 
Q 2853 4666 3247 4331 
Q 3641 3997 3641 3322 
Q 3641 2881 3436 2590 
Q 3231 2300 2841 2188 
z
M 1259 4147 
L 1259 2491 
L 2053 2491 
Q 2509 2491 2742 2702 
Q 2975 2913 2975 3322 
Q 2975 3731 2742 3939 
Q 2509 4147 2053 4147 
L 1259 4147 
z
" transform="scale(0.015625)"/>
       </defs>
       <use xlink:href="#DejaVuSans-35"/>
       <use xlink:href="#DejaVuSans-24" transform="translate(65.4375 0)"/>
      </g>
     </g>
    </g>
    <g id="xtick_5">
     <g id="line2d_5"/>
     <g id="text_5">
      <!-- RB -->
      <g transform="translate(328.118536 249.597656) scale(0.1 -0.1)">
       <use xlink:href="#DejaVuSans-35"/>
       <use xlink:href="#DejaVuSans-25" transform="translate(69.484375 0)"/>
      </g>
     </g>
    </g>
   </g>
   <g id="matplotlib.axis_2">
    <g id="ytick_1">
     <g id="line2d_6">
      <defs>
       <path id="m6d3c985e9f" d="M 0 0 
L -3.5 0 
" style="stroke: #000000; stroke-width: 0.8"/>
      </defs>
      <g>
       <use xlink:href="#m6d3c985e9f" x="45.800781" y="238.5" style="stroke: #000000; stroke-width: 0.8"/>
      </g>
     </g>
     <g id="text_6">
      <!-- $\mathdefault{10^{0}}$ -->
      <g transform="translate(21.200781 243.2) scale(0.1 -0.1)">
       <defs>
        <path id="DejaVuSans-14" d="M 794 531 
L 1825 531 
L 1825 4091 
L 703 3866 
L 703 4441 
L 1819 4666 
L 2450 4666 
L 2450 531 
L 3481 531 
L 3481 0 
L 794 0 
L 794 531 
z
" transform="scale(0.015625)"/>
        <path id="DejaVuSans-13" d="M 2034 4250 
Q 1547 4250 1301 3770 
Q 1056 3291 1056 2328 
Q 1056 1369 1301 889 
Q 1547 409 2034 409 
Q 2525 409 2770 889 
Q 3016 1369 3016 2328 
Q 3016 3291 2770 3770 
Q 2525 4250 2034 4250 
z
M 2034 4750 
Q 2819 4750 3233 4129 
Q 3647 3509 3647 2328 
Q 3647 1150 3233 529 
Q 2819 -91 2034 -91 
Q 1250 -91 836 529 
Q 422 1150 422 2328 
Q 422 3509 836 4129 
Q 1250 4750 2034 4750 
z
" transform="scale(0.015625)"/>
       </defs>
       <use xlink:href="#DejaVuSans-14" transform="translate(0 0.746875)"/>
       <use xlink:href="#DejaVuSans-13" transform="translate(63.623047 0.746875)"/>
       <use xlink:href="#DejaVuSans-13" transform="translate(128.203125 42.046875) scale(0.7)"/>
      </g>
     </g>
    </g>
    <g id="ytick_2">
     <g id="line2d_7">
      <g>
       <use xlink:href="#m6d3c985e9f" x="45.800781" y="188.475263" style="stroke: #000000; stroke-width: 0.8"/>
      </g>
     </g>
     <g id="text_7">
      <!-- $\mathdefault{10^{1}}$ -->
      <g transform="translate(21.200781 193.125263) scale(0.1 -0.1)">
       <use xlink:href="#DejaVuSans-14" transform="translate(0 0.665625)"/>
       <use xlink:href="#DejaVuSans-13" transform="translate(63.623047 0.665625)"/>
       <use xlink:href="#DejaVuSans-14" transform="translate(128.203125 41.965625) scale(0.7)"/>
      </g>
     </g>
    </g>
    <g id="ytick_3">
     <g id="line2d_8">
      <g>
       <use xlink:href="#m6d3c985e9f" x="45.800781" y="138.450527" style="stroke: #000000; stroke-width: 0.8"/>
      </g>
     </g>
     <g id="text_8">
      <!-- $\mathdefault{10^{2}}$ -->
      <g transform="translate(21.200781 143.150527) scale(0.1 -0.1)">
       <defs>
        <path id="DejaVuSans-15" d="M 1228 531 
L 3431 531 
L 3431 0 
L 469 0 
L 469 531 
Q 828 903 1448 1529 
Q 2069 2156 2228 2338 
Q 2531 2678 2651 2914 
Q 2772 3150 2772 3378 
Q 2772 3750 2511 3984 
Q 2250 4219 1831 4219 
Q 1534 4219 1204 4116 
Q 875 4013 500 3803 
L 500 4441 
Q 881 4594 1212 4672 
Q 1544 4750 1819 4750 
Q 2544 4750 2975 4387 
Q 3406 4025 3406 3419 
Q 3406 3131 3298 2873 
Q 3191 2616 2906 2266 
Q 2828 2175 2409 1742 
Q 1991 1309 1228 531 
z
" transform="scale(0.015625)"/>
       </defs>
       <use xlink:href="#DejaVuSans-14" transform="translate(0 0.746875)"/>
       <use xlink:href="#DejaVuSans-13" transform="translate(63.623047 0.746875)"/>
       <use xlink:href="#DejaVuSans-15" transform="translate(128.203125 42.046875) scale(0.7)"/>
      </g>
     </g>
    </g>
    <g id="ytick_4">
     <g id="line2d_9">
      <g>
       <use xlink:href="#m6d3c985e9f" x="45.800781" y="88.42579" style="stroke: #000000; stroke-width: 0.8"/>
      </g>
     </g>
     <g id="text_9">
      <!-- $\mathdefault{10^{3}}$ -->
      <g transform="translate(21.200781 93.12579) scale(0.1 -0.1)">
       <defs>
        <path id="DejaVuSans-16" d="M 2597 2516 
Q 3050 2419 3304 2112 
Q 3559 1806 3559 1356 
Q 3559 666 3084 287 
Q 2609 -91 1734 -91 
Q 1441 -91 1130 -33 
Q 819 25 488 141 
L 488 750 
Q 750 597 1062 519 
Q 1375 441 1716 441 
Q 2309 441 2620 675 
Q 2931 909 2931 1356 
Q 2931 1769 2642 2001 
Q 2353 2234 1838 2234 
L 1294 2234 
L 1294 2753 
L 1863 2753 
Q 2328 2753 2575 2939 
Q 2822 3125 2822 3475 
Q 2822 3834 2567 4026 
Q 2313 4219 1838 4219 
Q 1578 4219 1281 4162 
Q 984 4106 628 3988 
L 628 4550 
Q 988 4650 1302 4700 
Q 1616 4750 1894 4750 
Q 2613 4750 3031 4423 
Q 3450 4097 3450 3541 
Q 3450 3153 3228 2886 
Q 3006 2619 2597 2516 
z
" transform="scale(0.015625)"/>
       </defs>
       <use xlink:href="#DejaVuSans-14" transform="translate(0 0.746875)"/>
       <use xlink:href="#DejaVuSans-13" transform="translate(63.623047 0.746875)"/>
       <use xlink:href="#DejaVuSans-16" transform="translate(128.203125 42.046875) scale(0.7)"/>
      </g>
     </g>
    </g>
    <g id="ytick_5">
     <g id="line2d_10">
      <g>
       <use xlink:href="#m6d3c985e9f" x="45.800781" y="38.401054" style="stroke: #000000; stroke-width: 0.8"/>
      </g>
     </g>
     <g id="text_10">
      <!-- $\mathdefault{10^{4}}$ -->
      <g transform="translate(21.200781 43.051054) scale(0.1 -0.1)">
       <defs>
        <path id="DejaVuSans-17" d="M 2419 4116 
L 825 1625 
L 2419 1625 
L 2419 4116 
z
M 2253 4666 
L 3047 4666 
L 3047 1625 
L 3713 1625 
L 3713 1100 
L 3047 1100 
L 3047 0 
L 2419 0 
L 2419 1100 
L 313 1100 
L 313 1709 
L 2253 4666 
z
" transform="scale(0.015625)"/>
       </defs>
       <use xlink:href="#DejaVuSans-14" transform="translate(0 0.665625)"/>
       <use xlink:href="#DejaVuSans-13" transform="translate(63.623047 0.665625)"/>
       <use xlink:href="#DejaVuSans-17" transform="translate(128.203125 41.965625) scale(0.7)"/>
      </g>
     </g>
    </g>
    <g id="ytick_6">
     <g id="line2d_11">
      <defs>
       <path id="mcf39f15c09" d="M 0 0 
L -2 0 
" style="stroke: #000000; stroke-width: 0.6"/>
      </defs>
      <g>
       <use xlink:href="#mcf39f15c09" x="45.800781" y="223.441054" style="stroke: #000000; stroke-width: 0.6"/>
      </g>
     </g>
    </g>
    <g id="ytick_7">
     <g id="line2d_12">
      <g>
       <use xlink:href="#mcf39f15c09" x="45.800781" y="214.632135" style="stroke: #000000; stroke-width: 0.6"/>
      </g>
     </g>
    </g>
    <g id="ytick_8">
     <g id="line2d_13">
      <g>
       <use xlink:href="#mcf39f15c09" x="45.800781" y="208.382108" style="stroke: #000000; stroke-width: 0.6"/>
      </g>
     </g>
    </g>
    <g id="ytick_9">
     <g id="line2d_14">
      <g>
       <use xlink:href="#mcf39f15c09" x="45.800781" y="203.53421" style="stroke: #000000; stroke-width: 0.6"/>
      </g>
     </g>
    </g>
    <g id="ytick_10">
     <g id="line2d_15">
      <g>
       <use xlink:href="#mcf39f15c09" x="45.800781" y="199.573189" style="stroke: #000000; stroke-width: 0.6"/>
      </g>
     </g>
    </g>
    <g id="ytick_11">
     <g id="line2d_16">
      <g>
       <use xlink:href="#mcf39f15c09" x="45.800781" y="196.224193" style="stroke: #000000; stroke-width: 0.6"/>
      </g>
     </g>
    </g>
    <g id="ytick_12">
     <g id="line2d_17">
      <g>
       <use xlink:href="#mcf39f15c09" x="45.800781" y="193.323161" style="stroke: #000000; stroke-width: 0.6"/>
      </g>
     </g>
    </g>
    <g id="ytick_13">
     <g id="line2d_18">
      <g>
       <use xlink:href="#mcf39f15c09" x="45.800781" y="190.76427" style="stroke: #000000; stroke-width: 0.6"/>
      </g>
     </g>
    </g>
    <g id="ytick_14">
     <g id="line2d_19">
      <g>
       <use xlink:href="#mcf39f15c09" x="45.800781" y="173.416317" style="stroke: #000000; stroke-width: 0.6"/>
      </g>
     </g>
    </g>
    <g id="ytick_15">
     <g id="line2d_20">
      <g>
       <use xlink:href="#mcf39f15c09" x="45.800781" y="164.607398" style="stroke: #000000; stroke-width: 0.6"/>
      </g>
     </g>
    </g>
    <g id="ytick_16">
     <g id="line2d_21">
      <g>
       <use xlink:href="#mcf39f15c09" x="45.800781" y="158.357371" style="stroke: #000000; stroke-width: 0.6"/>
      </g>
     </g>
    </g>
    <g id="ytick_17">
     <g id="line2d_22">
      <g>
       <use xlink:href="#mcf39f15c09" x="45.800781" y="153.509473" style="stroke: #000000; stroke-width: 0.6"/>
      </g>
     </g>
    </g>
    <g id="ytick_18">
     <g id="line2d_23">
      <g>
       <use xlink:href="#mcf39f15c09" x="45.800781" y="149.548452" style="stroke: #000000; stroke-width: 0.6"/>
      </g>
     </g>
    </g>
    <g id="ytick_19">
     <g id="line2d_24">
      <g>
       <use xlink:href="#mcf39f15c09" x="45.800781" y="146.199457" style="stroke: #000000; stroke-width: 0.6"/>
      </g>
     </g>
    </g>
    <g id="ytick_20">
     <g id="line2d_25">
      <g>
       <use xlink:href="#mcf39f15c09" x="45.800781" y="143.298425" style="stroke: #000000; stroke-width: 0.6"/>
      </g>
     </g>
    </g>
    <g id="ytick_21">
     <g id="line2d_26">
      <g>
       <use xlink:href="#mcf39f15c09" x="45.800781" y="140.739533" style="stroke: #000000; stroke-width: 0.6"/>
      </g>
     </g>
    </g>
    <g id="ytick_22">
     <g id="line2d_27">
      <g>
       <use xlink:href="#mcf39f15c09" x="45.800781" y="123.391581" style="stroke: #000000; stroke-width: 0.6"/>
      </g>
     </g>
    </g>
    <g id="ytick_23">
     <g id="line2d_28">
      <g>
       <use xlink:href="#mcf39f15c09" x="45.800781" y="114.582662" style="stroke: #000000; stroke-width: 0.6"/>
      </g>
     </g>
    </g>
    <g id="ytick_24">
     <g id="line2d_29">
      <g>
       <use xlink:href="#mcf39f15c09" x="45.800781" y="108.332634" style="stroke: #000000; stroke-width: 0.6"/>
      </g>
     </g>
    </g>
    <g id="ytick_25">
     <g id="line2d_30">
      <g>
       <use xlink:href="#mcf39f15c09" x="45.800781" y="103.484737" style="stroke: #000000; stroke-width: 0.6"/>
      </g>
     </g>
    </g>
    <g id="ytick_26">
     <g id="line2d_31">
      <g>
       <use xlink:href="#mcf39f15c09" x="45.800781" y="99.523716" style="stroke: #000000; stroke-width: 0.6"/>
      </g>
     </g>
    </g>
    <g id="ytick_27">
     <g id="line2d_32">
      <g>
       <use xlink:href="#mcf39f15c09" x="45.800781" y="96.17472" style="stroke: #000000; stroke-width: 0.6"/>
      </g>
     </g>
    </g>
    <g id="ytick_28">
     <g id="line2d_33">
      <g>
       <use xlink:href="#mcf39f15c09" x="45.800781" y="93.273688" style="stroke: #000000; stroke-width: 0.6"/>
      </g>
     </g>
    </g>
    <g id="ytick_29">
     <g id="line2d_34">
      <g>
       <use xlink:href="#mcf39f15c09" x="45.800781" y="90.714797" style="stroke: #000000; stroke-width: 0.6"/>
      </g>
     </g>
    </g>
    <g id="ytick_30">
     <g id="line2d_35">
      <g>
       <use xlink:href="#mcf39f15c09" x="45.800781" y="73.366844" style="stroke: #000000; stroke-width: 0.6"/>
      </g>
     </g>
    </g>
    <g id="ytick_31">
     <g id="line2d_36">
      <g>
       <use xlink:href="#mcf39f15c09" x="45.800781" y="64.557925" style="stroke: #000000; stroke-width: 0.6"/>
      </g>
     </g>
    </g>
    <g id="ytick_32">
     <g id="line2d_37">
      <g>
       <use xlink:href="#mcf39f15c09" x="45.800781" y="58.307898" style="stroke: #000000; stroke-width: 0.6"/>
      </g>
     </g>
    </g>
    <g id="ytick_33">
     <g id="line2d_38">
      <g>
       <use xlink:href="#mcf39f15c09" x="45.800781" y="53.46" style="stroke: #000000; stroke-width: 0.6"/>
      </g>
     </g>
    </g>
    <g id="ytick_34">
     <g id="line2d_39">
      <g>
       <use xlink:href="#mcf39f15c09" x="45.800781" y="49.498979" style="stroke: #000000; stroke-width: 0.6"/>
      </g>
     </g>
    </g>
    <g id="ytick_35">
     <g id="line2d_40">
      <g>
       <use xlink:href="#mcf39f15c09" x="45.800781" y="46.149984" style="stroke: #000000; stroke-width: 0.6"/>
      </g>
     </g>
    </g>
    <g id="ytick_36">
     <g id="line2d_41">
      <g>
       <use xlink:href="#mcf39f15c09" x="45.800781" y="43.248952" style="stroke: #000000; stroke-width: 0.6"/>
      </g>
     </g>
    </g>
    <g id="ytick_37">
     <g id="line2d_42">
      <g>
       <use xlink:href="#mcf39f15c09" x="45.800781" y="40.69006" style="stroke: #000000; stroke-width: 0.6"/>
      </g>
     </g>
    </g>
    <g id="ytick_38">
     <g id="line2d_43">
      <g>
       <use xlink:href="#mcf39f15c09" x="45.800781" y="23.342108" style="stroke: #000000; stroke-width: 0.6"/>
      </g>
     </g>
    </g>
    <g id="ytick_39">
     <g id="line2d_44">
      <g>
       <use xlink:href="#mcf39f15c09" x="45.800781" y="14.533189" style="stroke: #000000; stroke-width: 0.6"/>
      </g>
     </g>
    </g>
    <g id="ytick_40">
     <g id="line2d_45">
      <g>
       <use xlink:href="#mcf39f15c09" x="45.800781" y="8.283161" style="stroke: #000000; stroke-width: 0.6"/>
      </g>
     </g>
    </g>
    <g id="text_11">
     <!-- time ago (generations) -->
     <g transform="translate(14.798438 180.321094) rotate(-90) scale(0.1 -0.1)">
      <defs>
       <path id="DejaVuSans-57" d="M 1172 4494 
L 1172 3500 
L 2356 3500 
L 2356 3053 
L 1172 3053 
L 1172 1153 
Q 1172 725 1289 603 
Q 1406 481 1766 481 
L 2356 481 
L 2356 0 
L 1766 0 
Q 1100 0 847 248 
Q 594 497 594 1153 
L 594 3053 
L 172 3053 
L 172 3500 
L 594 3500 
L 594 4494 
L 1172 4494 
z
" transform="scale(0.015625)"/>
       <path id="DejaVuSans-4c" d="M 603 3500 
L 1178 3500 
L 1178 0 
L 603 0 
L 603 3500 
z
M 603 4863 
L 1178 4863 
L 1178 4134 
L 603 4134 
L 603 4863 
z
" transform="scale(0.015625)"/>
       <path id="DejaVuSans-50" d="M 3328 2828 
Q 3544 3216 3844 3400 
Q 4144 3584 4550 3584 
Q 5097 3584 5394 3201 
Q 5691 2819 5691 2113 
L 5691 0 
L 5113 0 
L 5113 2094 
Q 5113 2597 4934 2840 
Q 4756 3084 4391 3084 
Q 3944 3084 3684 2787 
Q 3425 2491 3425 1978 
L 3425 0 
L 2847 0 
L 2847 2094 
Q 2847 2600 2669 2842 
Q 2491 3084 2119 3084 
Q 1678 3084 1418 2786 
Q 1159 2488 1159 1978 
L 1159 0 
L 581 0 
L 581 3500 
L 1159 3500 
L 1159 2956 
Q 1356 3278 1631 3431 
Q 1906 3584 2284 3584 
Q 2666 3584 2933 3390 
Q 3200 3197 3328 2828 
z
" transform="scale(0.015625)"/>
       <path id="DejaVuSans-48" d="M 3597 1894 
L 3597 1613 
L 953 1613 
Q 991 1019 1311 708 
Q 1631 397 2203 397 
Q 2534 397 2845 478 
Q 3156 559 3463 722 
L 3463 178 
Q 3153 47 2828 -22 
Q 2503 -91 2169 -91 
Q 1331 -91 842 396 
Q 353 884 353 1716 
Q 353 2575 817 3079 
Q 1281 3584 2069 3584 
Q 2775 3584 3186 3129 
Q 3597 2675 3597 1894 
z
M 3022 2063 
Q 3016 2534 2758 2815 
Q 2500 3097 2075 3097 
Q 1594 3097 1305 2825 
Q 1016 2553 972 2059 
L 3022 2063 
z
" transform="scale(0.015625)"/>
       <path id="DejaVuSans-3" transform="scale(0.015625)"/>
       <path id="DejaVuSans-44" d="M 2194 1759 
Q 1497 1759 1228 1600 
Q 959 1441 959 1056 
Q 959 750 1161 570 
Q 1363 391 1709 391 
Q 2188 391 2477 730 
Q 2766 1069 2766 1631 
L 2766 1759 
L 2194 1759 
z
M 3341 1997 
L 3341 0 
L 2766 0 
L 2766 531 
Q 2569 213 2275 61 
Q 1981 -91 1556 -91 
Q 1019 -91 701 211 
Q 384 513 384 1019 
Q 384 1609 779 1909 
Q 1175 2209 1959 2209 
L 2766 2209 
L 2766 2266 
Q 2766 2663 2505 2880 
Q 2244 3097 1772 3097 
Q 1472 3097 1187 3025 
Q 903 2953 641 2809 
L 641 3341 
Q 956 3463 1253 3523 
Q 1550 3584 1831 3584 
Q 2591 3584 2966 3190 
Q 3341 2797 3341 1997 
z
" transform="scale(0.015625)"/>
       <path id="DejaVuSans-4a" d="M 2906 1791 
Q 2906 2416 2648 2759 
Q 2391 3103 1925 3103 
Q 1463 3103 1205 2759 
Q 947 2416 947 1791 
Q 947 1169 1205 825 
Q 1463 481 1925 481 
Q 2391 481 2648 825 
Q 2906 1169 2906 1791 
z
M 3481 434 
Q 3481 -459 3084 -895 
Q 2688 -1331 1869 -1331 
Q 1566 -1331 1297 -1286 
Q 1028 -1241 775 -1147 
L 775 -588 
Q 1028 -725 1275 -790 
Q 1522 -856 1778 -856 
Q 2344 -856 2625 -561 
Q 2906 -266 2906 331 
L 2906 616 
Q 2728 306 2450 153 
Q 2172 0 1784 0 
Q 1141 0 747 490 
Q 353 981 353 1791 
Q 353 2603 747 3093 
Q 1141 3584 1784 3584 
Q 2172 3584 2450 3431 
Q 2728 3278 2906 2969 
L 2906 3500 
L 3481 3500 
L 3481 434 
z
" transform="scale(0.015625)"/>
       <path id="DejaVuSans-52" d="M 1959 3097 
Q 1497 3097 1228 2736 
Q 959 2375 959 1747 
Q 959 1119 1226 758 
Q 1494 397 1959 397 
Q 2419 397 2687 759 
Q 2956 1122 2956 1747 
Q 2956 2369 2687 2733 
Q 2419 3097 1959 3097 
z
M 1959 3584 
Q 2709 3584 3137 3096 
Q 3566 2609 3566 1747 
Q 3566 888 3137 398 
Q 2709 -91 1959 -91 
Q 1206 -91 779 398 
Q 353 888 353 1747 
Q 353 2609 779 3096 
Q 1206 3584 1959 3584 
z
" transform="scale(0.015625)"/>
       <path id="DejaVuSans-b" d="M 1984 4856 
Q 1566 4138 1362 3434 
Q 1159 2731 1159 2009 
Q 1159 1288 1364 580 
Q 1569 -128 1984 -844 
L 1484 -844 
Q 1016 -109 783 600 
Q 550 1309 550 2009 
Q 550 2706 781 3412 
Q 1013 4119 1484 4856 
L 1984 4856 
z
" transform="scale(0.015625)"/>
       <path id="DejaVuSans-51" d="M 3513 2113 
L 3513 0 
L 2938 0 
L 2938 2094 
Q 2938 2591 2744 2837 
Q 2550 3084 2163 3084 
Q 1697 3084 1428 2787 
Q 1159 2491 1159 1978 
L 1159 0 
L 581 0 
L 581 3500 
L 1159 3500 
L 1159 2956 
Q 1366 3272 1645 3428 
Q 1925 3584 2291 3584 
Q 2894 3584 3203 3211 
Q 3513 2838 3513 2113 
z
" transform="scale(0.015625)"/>
       <path id="DejaVuSans-55" d="M 2631 2963 
Q 2534 3019 2420 3045 
Q 2306 3072 2169 3072 
Q 1681 3072 1420 2755 
Q 1159 2438 1159 1844 
L 1159 0 
L 581 0 
L 581 3500 
L 1159 3500 
L 1159 2956 
Q 1341 3275 1631 3429 
Q 1922 3584 2338 3584 
Q 2397 3584 2469 3576 
Q 2541 3569 2628 3553 
L 2631 2963 
z
" transform="scale(0.015625)"/>
       <path id="DejaVuSans-56" d="M 2834 3397 
L 2834 2853 
Q 2591 2978 2328 3040 
Q 2066 3103 1784 3103 
Q 1356 3103 1142 2972 
Q 928 2841 928 2578 
Q 928 2378 1081 2264 
Q 1234 2150 1697 2047 
L 1894 2003 
Q 2506 1872 2764 1633 
Q 3022 1394 3022 966 
Q 3022 478 2636 193 
Q 2250 -91 1575 -91 
Q 1294 -91 989 -36 
Q 684 19 347 128 
L 347 722 
Q 666 556 975 473 
Q 1284 391 1588 391 
Q 1994 391 2212 530 
Q 2431 669 2431 922 
Q 2431 1156 2273 1281 
Q 2116 1406 1581 1522 
L 1381 1569 
Q 847 1681 609 1914 
Q 372 2147 372 2553 
Q 372 3047 722 3315 
Q 1072 3584 1716 3584 
Q 2034 3584 2315 3537 
Q 2597 3491 2834 3397 
z
" transform="scale(0.015625)"/>
       <path id="DejaVuSans-c" d="M 513 4856 
L 1013 4856 
Q 1481 4119 1714 3412 
Q 1947 2706 1947 2009 
Q 1947 1309 1714 600 
Q 1481 -109 1013 -844 
L 513 -844 
Q 928 -128 1133 580 
Q 1338 1288 1338 2009 
Q 1338 2731 1133 3434 
Q 928 4138 513 4856 
z
" transform="scale(0.015625)"/>
      </defs>
      <use xlink:href="#DejaVuSans-57"/>
      <use xlink:href="#DejaVuSans-4c" transform="translate(39.203125 0)"/>
      <use xlink:href="#DejaVuSans-50" transform="translate(66.984375 0)"/>
      <use xlink:href="#DejaVuSans-48" transform="translate(164.390625 0)"/>
      <use xlink:href="#DejaVuSans-3" transform="translate(225.921875 0)"/>
      <use xlink:href="#DejaVuSans-44" transform="translate(257.703125 0)"/>
      <use xlink:href="#DejaVuSans-4a" transform="translate(318.984375 0)"/>
      <use xlink:href="#DejaVuSans-52" transform="translate(382.46875 0)"/>
      <use xlink:href="#DejaVuSans-3" transform="translate(443.65625 0)"/>
      <use xlink:href="#DejaVuSans-b" transform="translate(475.4375 0)"/>
      <use xlink:href="#DejaVuSans-4a" transform="translate(514.453125 0)"/>
      <use xlink:href="#DejaVuSans-48" transform="translate(577.9375 0)"/>
      <use xlink:href="#DejaVuSans-51" transform="translate(639.46875 0)"/>
      <use xlink:href="#DejaVuSans-48" transform="translate(702.84375 0)"/>
      <use xlink:href="#DejaVuSans-55" transform="translate(764.375 0)"/>
      <use xlink:href="#DejaVuSans-44" transform="translate(805.484375 0)"/>
      <use xlink:href="#DejaVuSans-57" transform="translate(866.765625 0)"/>
      <use xlink:href="#DejaVuSans-4c" transform="translate(905.96875 0)"/>
      <use xlink:href="#DejaVuSans-52" transform="translate(933.75 0)"/>
      <use xlink:href="#DejaVuSans-51" transform="translate(994.9375 0)"/>
      <use xlink:href="#DejaVuSans-56" transform="translate(1058.3125 0)"/>
      <use xlink:href="#DejaVuSans-c" transform="translate(1110.40625 0)"/>
     </g>
    </g>
   </g>
   <g id="patch_9">
    <path d="M 227.638223 53.46 
L 226.638223 53.428564 
L 225.638223 53.391623 
L 224.638223 53.293877 
L 223.638223 53.261355 
L 222.638223 53.18773 
L 221.638223 53.149165 
L 220.638223 53.113752 
L 219.638223 53.056112 
L 218.638223 52.985726 
L 217.638223 52.933761 
L 216.638223 52.874672 
L 215.638223 52.786351 
L 214.638223 52.740206 
L 213.638223 52.697795 
L 212.638223 52.667303 
L 211.638223 52.641258 
L 210.638223 52.620058 
L 209.638223 52.565757 
L 208.638223 52.537819 
L 207.638223 52.508095 
L 206.638223 52.4827 
L 205.638223 52.4715 
L 204.638223 52.461376 
L 203.638223 52.46158 
L 202.638223 52.47109 
L 201.638223 52.482744 
L 200.638223 52.513773 
L 199.638223 52.524941 
L 198.638223 52.555058 
L 197.638223 52.614835 
L 196.638223 52.652027 
L 195.638223 52.691123 
L 194.638223 52.733563 
L 193.638223 52.766328 
L 192.638223 52.833754 
L 191.638223 52.87288 
L 190.638223 52.915555 
L 189.638223 52.986135 
L 188.638223 53.022526 
L 187.638223 53.080929 
L 186.638223 53.191882 
L 185.638223 53.26254 
L 184.638223 53.37548 
L 183.638223 53.421253 
L 182.638223 53.482536 
L 181.638223 53.531035 
L 180.638223 53.611858 
L 179.638223 53.730377 
L 178.638223 53.800588 
L 177.638223 53.88385 
L 176.638223 53.916992 
L 175.638223 53.968229 
L 174.638223 54.036628 
L 173.638223 54.102843 
L 172.638223 54.17976 
L 171.638223 54.207076 
L 170.638223 54.233553 
L 169.638223 54.256204 
L 168.638223 54.275735 
L 167.638223 54.302129 
L 166.638223 54.3519 
L 165.638223 54.386973 
L 164.638223 54.422839 
L 163.638223 54.438206 
L 162.638223 54.453975 
L 161.638223 54.457388 
L 160.638223 54.459805 
L 159.638223 54.459319 
L 158.638223 54.45739 
L 157.638223 54.444133 
L 156.638223 54.435742 
L 155.638223 54.414206 
L 154.638223 54.391173 
L 153.638223 54.37394 
L 152.638223 54.355477 
L 151.638223 54.335025 
L 150.638223 54.318425 
L 149.638223 54.255646 
L 148.638223 54.180381 
L 147.638223 54.147742 
L 146.638223 54.080178 
L 145.638223 54.026131 
L 144.638223 53.992427 
L 143.638223 53.902301 
L 142.638223 53.873766 
L 141.638223 53.84228 
L 140.638223 53.811269 
L 139.638223 53.756461 
L 138.638223 53.691874 
L 137.638223 53.653678 
L 136.638223 53.557744 
L 135.638223 53.508486 
L 134.638223 53.464417 
L 133.638223 53.424293 
L 132.638223 53.315926 
L 131.638223 53.274298 
L 130.638223 53.212156 
L 129.638223 53.142194 
L 128.638223 53.03769 
L 127.638223 53.000702 
L 126.638223 52.954825 
L 125.638223 52.88633 
L 124.638223 52.837584 
L 123.638223 52.759987 
L 122.638223 52.729446 
L 121.638223 52.659932 
L 120.638223 52.635959 
L 119.638223 52.607337 
L 118.638223 52.565544 
L 117.638223 52.543968 
L 116.638223 52.53002 
L 115.638223 52.503298 
L 114.638223 52.493988 
L 113.437237 52.481541 
" clip-path="url(#p1739e1849c)" style="fill: none; stroke: #ffffff; stroke-width: 3; stroke-linecap: round"/>
    <path d="M 227.638223 53.46 
L 226.638223 53.428564 
L 225.638223 53.391623 
L 224.638223 53.293877 
L 223.638223 53.261355 
L 222.638223 53.18773 
L 221.638223 53.149165 
L 220.638223 53.113752 
L 219.638223 53.056112 
L 218.638223 52.985726 
L 217.638223 52.933761 
L 216.638223 52.874672 
L 215.638223 52.786351 
L 214.638223 52.740206 
L 213.638223 52.697795 
L 212.638223 52.667303 
L 211.638223 52.641258 
L 210.638223 52.620058 
L 209.638223 52.565757 
L 208.638223 52.537819 
L 207.638223 52.508095 
L 206.638223 52.4827 
L 205.638223 52.4715 
L 204.638223 52.461376 
L 203.638223 52.46158 
L 202.638223 52.47109 
L 201.638223 52.482744 
L 200.638223 52.513773 
L 199.638223 52.524941 
L 198.638223 52.555058 
L 197.638223 52.614835 
L 196.638223 52.652027 
L 195.638223 52.691123 
L 194.638223 52.733563 
L 193.638223 52.766328 
L 192.638223 52.833754 
L 191.638223 52.87288 
L 190.638223 52.915555 
L 189.638223 52.986135 
L 188.638223 53.022526 
L 187.638223 53.080929 
L 186.638223 53.191882 
L 185.638223 53.26254 
L 184.638223 53.37548 
L 183.638223 53.421253 
L 182.638223 53.482536 
L 181.638223 53.531035 
L 180.638223 53.611858 
L 179.638223 53.730377 
L 178.638223 53.800588 
L 177.638223 53.88385 
L 176.638223 53.916992 
L 175.638223 53.968229 
L 174.638223 54.036628 
L 173.638223 54.102843 
L 172.638223 54.17976 
L 171.638223 54.207076 
L 170.638223 54.233553 
L 169.638223 54.256204 
L 168.638223 54.275735 
L 167.638223 54.302129 
L 166.638223 54.3519 
L 165.638223 54.386973 
L 164.638223 54.422839 
L 163.638223 54.438206 
L 162.638223 54.453975 
L 161.638223 54.457388 
L 160.638223 54.459805 
L 159.638223 54.459319 
L 158.638223 54.45739 
L 157.638223 54.444133 
L 156.638223 54.435742 
L 155.638223 54.414206 
L 154.638223 54.391173 
L 153.638223 54.37394 
L 152.638223 54.355477 
L 151.638223 54.335025 
L 150.638223 54.318425 
L 149.638223 54.255646 
L 148.638223 54.180381 
L 147.638223 54.147742 
L 146.638223 54.080178 
L 145.638223 54.026131 
L 144.638223 53.992427 
L 143.638223 53.902301 
L 142.638223 53.873766 
L 141.638223 53.84228 
L 140.638223 53.811269 
L 139.638223 53.756461 
L 138.638223 53.691874 
L 137.638223 53.653678 
L 136.638223 53.557744 
L 135.638223 53.508486 
L 134.638223 53.464417 
L 133.638223 53.424293 
L 132.638223 53.315926 
L 131.638223 53.274298 
L 130.638223 53.212156 
L 129.638223 53.142194 
L 128.638223 53.03769 
L 127.638223 53.000702 
L 126.638223 52.954825 
L 125.638223 52.88633 
L 124.638223 52.837584 
L 123.638223 52.759987 
L 122.638223 52.729446 
L 121.638223 52.659932 
L 120.638223 52.635959 
L 119.638223 52.607337 
L 118.638223 52.565544 
L 117.638223 52.543968 
L 116.638223 52.53002 
L 115.638223 52.503298 
L 114.638223 52.493988 
L 113.437237 52.481541 
" clip-path="url(#p1739e1849c)" style="fill: none; stroke: #2ca02c; stroke-linecap: round"/>
    <path d="M 117.437237 55.46 
L 116.556868 54.984669 
L 115.678961 54.504415 
L 114.828248 53.969774 
L 113.526074 53.282327 
L 114.453427 53.256312 
L 115.365101 52.843592 
L 116.275365 52.428053 
L 117.617861 51.821249 
L 116.962962 52.46 
L 116.910998 53.46 
L 116.851908 55.46 
z
" clip-path="url(#p1739e1849c)" style="fill: #ffffff; stroke: #ffffff; stroke-width: 3; stroke-linecap: round"/>
    <path d="M 117.437237 55.46 
L 116.556868 54.984669 
L 115.678961 54.504415 
L 114.828248 53.969774 
L 113.526074 53.282327 
L 114.453427 53.256312 
L 115.365101 52.843592 
L 116.275365 52.428053 
L 117.617861 51.821249 
L 116.962962 52.46 
L 116.910998 53.46 
L 116.851908 55.46 
z
" clip-path="url(#p1739e1849c)" style="fill: #ffffff; stroke: #2ca02c; stroke-linecap: round"/>
   </g>
   <g id="patch_10">
    <path d="M 277.362558 53.46 
L 278.362558 53.491436 
L 279.362558 53.528377 
L 280.362558 53.626123 
L 281.362558 53.658645 
L 282.362558 53.73227 
L 283.362558 53.770835 
L 284.362558 53.806248 
L 285.362558 53.863888 
L 286.362558 53.934274 
L 287.362558 53.986239 
L 288.362558 54.045328 
L 289.362558 54.133649 
L 290.362558 54.179794 
L 291.362558 54.222205 
L 292.362558 54.252697 
L 293.362558 54.278742 
L 294.362558 54.299942 
L 295.362558 54.354243 
L 296.362558 54.382181 
L 297.362558 54.411905 
L 298.362558 54.4373 
L 299.362558 54.4485 
L 300.362558 54.458624 
L 301.362558 54.45842 
L 302.362558 54.44891 
L 303.362558 54.437256 
L 304.362558 54.406227 
L 305.362558 54.395059 
L 306.362558 54.364942 
L 307.362558 54.305165 
L 308.362558 54.267973 
L 309.362558 54.228877 
L 310.362558 54.186437 
L 311.362558 54.153672 
L 312.362558 54.086246 
L 313.362558 54.04712 
L 314.362558 54.004445 
L 315.362558 53.933865 
L 316.362558 53.897474 
L 317.362558 53.839071 
L 318.362558 53.728118 
L 319.362558 53.65746 
L 320.362558 53.54452 
L 321.362558 53.498747 
L 322.362558 53.437464 
L 323.362558 53.388965 
L 324.362558 53.308142 
L 325.362558 53.189623 
L 326.362558 53.119412 
L 327.362558 53.03615 
L 328.362558 53.003008 
L 329.362558 52.951771 
L 330.362558 52.883372 
L 331.362558 52.817157 
L 332.362558 52.74024 
L 333.362558 52.712924 
L 334.362558 52.686447 
L 335.362558 52.663796 
L 336.362558 52.644265 
L 337.362558 52.617871 
L 338.362558 52.5681 
L 339.362558 52.533027 
L 340.362558 52.497161 
L 341.362558 52.481794 
L 342.362558 52.466025 
L 343.362558 52.462612 
L 344.362558 52.460195 
L 345.362558 52.460681 
L 346.362558 52.46261 
L 347.362558 52.475867 
L 348.362558 52.484258 
L 349.362558 52.505794 
L 350.362558 52.528827 
L 351.362558 52.54606 
L 352.362558 52.564523 
L 353.362558 52.584975 
L 354.362558 52.601575 
L 355.362558 52.664354 
L 356.362558 52.739619 
L 357.362558 52.772258 
L 358.362558 52.839822 
L 359.362558 52.893869 
L 360.362558 52.927573 
L 361.362558 53.017699 
L 362.362558 53.046234 
L 363.362558 53.07772 
L 364.362558 53.108731 
L 365.362558 53.163539 
L 366.362558 53.228126 
L 367.362558 53.266322 
L 368.362558 53.362256 
L 369.362558 53.411514 
L 370.362558 53.455583 
L 371.362558 53.495707 
L 372.362558 53.604074 
L 373.362558 53.645702 
L 374.362558 53.707844 
L 375.362558 53.777806 
L 376.362558 53.88231 
L 377.362558 53.919298 
L 378.362558 53.965175 
L 379.362558 54.03367 
L 380.362558 54.082416 
L 381.362558 54.160013 
L 382.362558 54.190554 
L 383.362558 54.260068 
L 384.362558 54.284041 
L 385.362558 54.312663 
L 386.362558 54.354456 
L 387.362558 54.376032 
L 388.362558 54.38998 
L 389.362558 54.416702 
L 390.362558 54.426012 
L 391.563544 54.438459 
" clip-path="url(#p1739e1849c)" style="fill: none; stroke: #ffffff; stroke-width: 3; stroke-linecap: round"/>
    <path d="M 277.362558 53.46 
L 278.362558 53.491436 
L 279.362558 53.528377 
L 280.362558 53.626123 
L 281.362558 53.658645 
L 282.362558 53.73227 
L 283.362558 53.770835 
L 284.362558 53.806248 
L 285.362558 53.863888 
L 286.362558 53.934274 
L 287.362558 53.986239 
L 288.362558 54.045328 
L 289.362558 54.133649 
L 290.362558 54.179794 
L 291.362558 54.222205 
L 292.362558 54.252697 
L 293.362558 54.278742 
L 294.362558 54.299942 
L 295.362558 54.354243 
L 296.362558 54.382181 
L 297.362558 54.411905 
L 298.362558 54.4373 
L 299.362558 54.4485 
L 300.362558 54.458624 
L 301.362558 54.45842 
L 302.362558 54.44891 
L 303.362558 54.437256 
L 304.362558 54.406227 
L 305.362558 54.395059 
L 306.362558 54.364942 
L 307.362558 54.305165 
L 308.362558 54.267973 
L 309.362558 54.228877 
L 310.362558 54.186437 
L 311.362558 54.153672 
L 312.362558 54.086246 
L 313.362558 54.04712 
L 314.362558 54.004445 
L 315.362558 53.933865 
L 316.362558 53.897474 
L 317.362558 53.839071 
L 318.362558 53.728118 
L 319.362558 53.65746 
L 320.362558 53.54452 
L 321.362558 53.498747 
L 322.362558 53.437464 
L 323.362558 53.388965 
L 324.362558 53.308142 
L 325.362558 53.189623 
L 326.362558 53.119412 
L 327.362558 53.03615 
L 328.362558 53.003008 
L 329.362558 52.951771 
L 330.362558 52.883372 
L 331.362558 52.817157 
L 332.362558 52.74024 
L 333.362558 52.712924 
L 334.362558 52.686447 
L 335.362558 52.663796 
L 336.362558 52.644265 
L 337.362558 52.617871 
L 338.362558 52.5681 
L 339.362558 52.533027 
L 340.362558 52.497161 
L 341.362558 52.481794 
L 342.362558 52.466025 
L 343.362558 52.462612 
L 344.362558 52.460195 
L 345.362558 52.460681 
L 346.362558 52.46261 
L 347.362558 52.475867 
L 348.362558 52.484258 
L 349.362558 52.505794 
L 350.362558 52.528827 
L 351.362558 52.54606 
L 352.362558 52.564523 
L 353.362558 52.584975 
L 354.362558 52.601575 
L 355.362558 52.664354 
L 356.362558 52.739619 
L 357.362558 52.772258 
L 358.362558 52.839822 
L 359.362558 52.893869 
L 360.362558 52.927573 
L 361.362558 53.017699 
L 362.362558 53.046234 
L 363.362558 53.07772 
L 364.362558 53.108731 
L 365.362558 53.163539 
L 366.362558 53.228126 
L 367.362558 53.266322 
L 368.362558 53.362256 
L 369.362558 53.411514 
L 370.362558 53.455583 
L 371.362558 53.495707 
L 372.362558 53.604074 
L 373.362558 53.645702 
L 374.362558 53.707844 
L 375.362558 53.777806 
L 376.362558 53.88231 
L 377.362558 53.919298 
L 378.362558 53.965175 
L 379.362558 54.03367 
L 380.362558 54.082416 
L 381.362558 54.160013 
L 382.362558 54.190554 
L 383.362558 54.260068 
L 384.362558 54.284041 
L 385.362558 54.312663 
L 386.362558 54.354456 
L 387.362558 54.376032 
L 388.362558 54.38998 
L 389.362558 54.416702 
L 390.362558 54.426012 
L 391.563544 54.438459 
" clip-path="url(#p1739e1849c)" style="fill: none; stroke: #2ca02c; stroke-linecap: round"/>
    <path d="M 387.563544 51.46 
L 388.443913 51.935331 
L 389.32182 52.415585 
L 390.172533 52.950226 
L 391.474708 53.637673 
L 390.547355 53.663688 
L 389.63568 54.076408 
L 388.725416 54.491947 
L 387.38292 55.098751 
L 388.037819 54.46 
L 388.089783 53.46 
L 388.148873 51.46 
z
" clip-path="url(#p1739e1849c)" style="fill: #ffffff; stroke: #ffffff; stroke-width: 3; stroke-linecap: round"/>
    <path d="M 387.563544 51.46 
L 388.443913 51.935331 
L 389.32182 52.415585 
L 390.172533 52.950226 
L 391.474708 53.637673 
L 390.547355 53.663688 
L 389.63568 54.076408 
L 388.725416 54.491947 
L 387.38292 55.098751 
L 388.037819 54.46 
L 388.089783 53.46 
L 388.148873 51.46 
z
" clip-path="url(#p1739e1849c)" style="fill: #ffffff; stroke: #2ca02c; stroke-linecap: round"/>
   </g>
   <g id="patch_11">
    <path d="M 112.316639 164.607398 
L 113.316639 164.638835 
L 114.316639 164.675775 
L 115.316639 164.773522 
L 116.316639 164.806043 
L 117.316639 164.879668 
L 118.316639 164.918234 
L 119.316639 164.953647 
L 120.316639 165.011287 
L 121.316639 165.081673 
L 122.316639 165.133637 
L 123.316639 165.192727 
L 124.316639 165.281048 
L 125.316639 165.327192 
L 126.316639 165.369603 
L 127.316639 165.400096 
L 128.316639 165.426141 
L 129.316639 165.447341 
L 130.316639 165.501642 
L 131.316639 165.529579 
L 132.316639 165.559303 
L 133.316639 165.584698 
L 134.316639 165.595899 
L 135.316639 165.606023 
L 136.316639 165.605818 
L 137.316639 165.596308 
L 138.316639 165.584655 
L 139.316639 165.553626 
L 140.316639 165.542458 
L 141.316639 165.51234 
L 142.316639 165.452563 
L 143.995747 165.415372 
" clip-path="url(#p1739e1849c)" style="fill: none; stroke: #ffffff; stroke-width: 3; stroke-linecap: round"/>
    <path d="M 112.316639 164.607398 
L 113.316639 164.638835 
L 114.316639 164.675775 
L 115.316639 164.773522 
L 116.316639 164.806043 
L 117.316639 164.879668 
L 118.316639 164.918234 
L 119.316639 164.953647 
L 120.316639 165.011287 
L 121.316639 165.081673 
L 122.316639 165.133637 
L 123.316639 165.192727 
L 124.316639 165.281048 
L 125.316639 165.327192 
L 126.316639 165.369603 
L 127.316639 165.400096 
L 128.316639 165.426141 
L 129.316639 165.447341 
L 130.316639 165.501642 
L 131.316639 165.529579 
L 132.316639 165.559303 
L 133.316639 165.584698 
L 134.316639 165.595899 
L 135.316639 165.606023 
L 136.316639 165.605818 
L 137.316639 165.596308 
L 138.316639 165.584655 
L 139.316639 165.553626 
L 140.316639 165.542458 
L 141.316639 165.51234 
L 142.316639 165.452563 
L 143.995747 165.415372 
" clip-path="url(#p1739e1849c)" style="fill: none; stroke: #1f77b4; stroke-linecap: round"/>
    <path d="M 139.995747 162.607398 
L 140.876116 163.08273 
L 141.754023 163.562984 
L 142.604736 164.097624 
L 143.906911 164.785072 
L 142.979557 164.811087 
L 142.067883 165.223806 
L 141.157619 165.639345 
L 139.815123 166.24615 
L 140.470022 165.607398 
L 140.521986 164.607398 
L 140.581076 162.607398 
z
" clip-path="url(#p1739e1849c)" style="fill: #ffffff; stroke: #ffffff; stroke-width: 3; stroke-linecap: round"/>
    <path d="M 139.995747 162.607398 
L 140.876116 163.08273 
L 141.754023 163.562984 
L 142.604736 164.097624 
L 143.906911 164.785072 
L 142.979557 164.811087 
L 142.067883 165.223806 
L 141.157619 165.639345 
L 139.815123 166.24615 
L 140.470022 165.607398 
L 140.521986 164.607398 
L 140.581076 162.607398 
z
" clip-path="url(#p1739e1849c)" style="fill: #ffffff; stroke: #1f77b4; stroke-linecap: round"/>
   </g>
   <g id="patch_12">
    <path d="M 392.68415 164.607398 
L 391.68415 164.575962 
L 390.68415 164.539022 
L 389.68415 164.441275 
L 388.68415 164.408753 
L 387.68415 164.335129 
L 386.68415 164.296563 
L 385.68415 164.26115 
L 384.68415 164.20351 
L 383.68415 164.133124 
L 382.68415 164.08116 
L 381.68415 164.02207 
L 380.68415 163.933749 
L 379.68415 163.887605 
L 378.68415 163.845194 
L 377.68415 163.814701 
L 376.68415 163.788656 
L 375.68415 163.767456 
L 374.68415 163.713155 
L 373.68415 163.685217 
L 372.68415 163.655493 
L 371.68415 163.630099 
L 370.68415 163.618898 
L 369.68415 163.608774 
L 368.68415 163.608979 
L 367.68415 163.618488 
L 366.68415 163.630142 
L 365.68415 163.661171 
L 364.68415 163.672339 
L 363.68415 163.702457 
L 362.68415 163.762234 
L 361.68415 163.799425 
L 360.68415 163.838521 
L 359.68415 163.880961 
L 358.68415 163.913726 
L 357.68415 163.981152 
L 356.68415 164.020278 
L 355.68415 164.062953 
L 354.68415 164.133534 
L 353.68415 164.169924 
L 352.68415 164.228328 
L 351.68415 164.33928 
L 350.68415 164.409938 
L 349.68415 164.522878 
L 348.68415 164.568651 
L 347.68415 164.629934 
L 346.68415 164.678434 
L 345.68415 164.759256 
L 344.68415 164.877775 
L 343.68415 164.947986 
L 342.68415 165.031248 
L 341.68415 165.06439 
L 340.68415 165.115628 
L 339.68415 165.184026 
L 338.68415 165.250241 
L 337.68415 165.327158 
L 336.68415 165.354474 
L 335.68415 165.380951 
L 334.68415 165.403602 
L 333.68415 165.423133 
L 332.68415 165.449527 
L 331.68415 165.499298 
L 330.68415 165.534371 
L 329.68415 165.570237 
L 328.68415 165.585604 
L 327.68415 165.601373 
L 326.68415 165.604786 
L 325.68415 165.607204 
L 324.68415 165.606718 
L 323.68415 165.604788 
L 322.68415 165.591531 
L 321.68415 165.583141 
L 320.68415 165.561604 
L 319.68415 165.538572 
L 318.68415 165.521338 
L 317.68415 165.502876 
L 316.68415 165.482423 
L 315.68415 165.465823 
L 314.68415 165.403045 
L 313.68415 165.327779 
L 312.68415 165.29514 
L 311.68415 165.227577 
L 310.68415 165.17353 
L 309.68415 165.139825 
L 308.68415 165.049699 
L 307.68415 165.021164 
L 306.68415 164.989678 
L 305.68415 164.958667 
L 304.68415 164.903859 
L 303.68415 164.839272 
L 302.68415 164.801077 
L 301.68415 164.705143 
L 300.68415 164.655884 
L 299.68415 164.611815 
L 298.68415 164.571691 
L 297.68415 164.463324 
L 296.68415 164.421696 
L 295.68415 164.359555 
L 294.68415 164.289592 
L 293.68415 164.185088 
L 292.68415 164.148101 
L 291.68415 164.102223 
L 290.68415 164.033729 
L 289.68415 163.984983 
L 288.68415 163.907385 
L 287.68415 163.876845 
L 286.68415 163.80733 
L 285.68415 163.783357 
L 284.68415 163.754736 
L 283.68415 163.712942 
L 282.68415 163.691367 
L 281.68415 163.677419 
L 280.68415 163.650696 
L 279.68415 163.641386 
L 278.68415 163.62894 
L 277.68415 163.617885 
L 276.68415 163.61222 
L 275.68415 163.607456 
L 274.68415 163.613004 
L 273.68415 163.626292 
L 272.68415 163.63381 
L 271.68415 163.658594 
L 270.68415 163.682163 
L 269.68415 163.718344 
L 268.68415 163.744306 
L 267.68415 163.766627 
L 266.68415 163.835387 
L 265.68415 163.909922 
L 264.68415 164.003902 
L 263.68415 164.054954 
L 262.68415 164.108887 
L 261.68415 164.144138 
L 260.68415 164.250226 
L 259.68415 164.30249 
L 258.68415 164.339397 
L 257.68415 164.370428 
L 256.68415 164.431583 
L 255.68415 164.499003 
L 254.68415 164.547909 
L 253.68415 164.613102 
L 252.68415 164.651289 
L 251.68415 164.693285 
L 250.68415 164.735302 
L 249.68415 164.794819 
L 248.68415 164.907979 
L 247.68415 164.960229 
L 246.68415 164.999647 
L 245.68415 165.046749 
L 244.68415 165.103528 
L 243.68415 165.136191 
L 242.68415 165.172369 
L 241.68415 165.20446 
L 240.68415 165.238739 
L 239.68415 165.297117 
L 238.68415 165.342302 
L 237.68415 165.371926 
L 236.68415 165.422312 
L 235.68415 165.44751 
L 234.68415 165.46856 
L 233.68415 165.503528 
L 232.68415 165.527818 
L 231.68415 165.541885 
L 230.68415 165.560827 
L 229.68415 165.576489 
L 228.68415 165.58904 
L 227.68415 165.594876 
L 226.68415 165.601759 
L 225.68415 165.606932 
L 224.68415 165.60515 
L 223.68415 165.602424 
L 222.68415 165.591271 
L 221.68415 165.563035 
L 220.68415 165.519248 
L 219.68415 165.498558 
L 218.68415 165.457585 
L 217.68415 165.41751 
L 216.68415 165.3984 
L 215.68415 165.375892 
L 214.68415 165.30924 
L 213.68415 165.259531 
L 212.68415 165.185824 
L 211.68415 165.15451 
L 210.68415 165.077888 
L 209.68415 165.03959 
L 208.68415 164.965473 
L 207.68415 164.861415 
L 206.68415 164.791584 
L 205.68415 164.686351 
L 204.68415 164.631335 
L 203.68415 164.50786 
L 202.68415 164.437301 
L 201.68415 164.321462 
L 200.68415 164.271281 
L 199.68415 164.235677 
L 198.68415 164.144271 
L 197.68415 164.090763 
L 195.956 164.002854 
" clip-path="url(#p1739e1849c)" style="fill: none; stroke: #ffffff; stroke-width: 3; stroke-linecap: round"/>
    <path d="M 392.68415 164.607398 
L 391.68415 164.575962 
L 390.68415 164.539022 
L 389.68415 164.441275 
L 388.68415 164.408753 
L 387.68415 164.335129 
L 386.68415 164.296563 
L 385.68415 164.26115 
L 384.68415 164.20351 
L 383.68415 164.133124 
L 382.68415 164.08116 
L 381.68415 164.02207 
L 380.68415 163.933749 
L 379.68415 163.887605 
L 378.68415 163.845194 
L 377.68415 163.814701 
L 376.68415 163.788656 
L 375.68415 163.767456 
L 374.68415 163.713155 
L 373.68415 163.685217 
L 372.68415 163.655493 
L 371.68415 163.630099 
L 370.68415 163.618898 
L 369.68415 163.608774 
L 368.68415 163.608979 
L 367.68415 163.618488 
L 366.68415 163.630142 
L 365.68415 163.661171 
L 364.68415 163.672339 
L 363.68415 163.702457 
L 362.68415 163.762234 
L 361.68415 163.799425 
L 360.68415 163.838521 
L 359.68415 163.880961 
L 358.68415 163.913726 
L 357.68415 163.981152 
L 356.68415 164.020278 
L 355.68415 164.062953 
L 354.68415 164.133534 
L 353.68415 164.169924 
L 352.68415 164.228328 
L 351.68415 164.33928 
L 350.68415 164.409938 
L 349.68415 164.522878 
L 348.68415 164.568651 
L 347.68415 164.629934 
L 346.68415 164.678434 
L 345.68415 164.759256 
L 344.68415 164.877775 
L 343.68415 164.947986 
L 342.68415 165.031248 
L 341.68415 165.06439 
L 340.68415 165.115628 
L 339.68415 165.184026 
L 338.68415 165.250241 
L 337.68415 165.327158 
L 336.68415 165.354474 
L 335.68415 165.380951 
L 334.68415 165.403602 
L 333.68415 165.423133 
L 332.68415 165.449527 
L 331.68415 165.499298 
L 330.68415 165.534371 
L 329.68415 165.570237 
L 328.68415 165.585604 
L 327.68415 165.601373 
L 326.68415 165.604786 
L 325.68415 165.607204 
L 324.68415 165.606718 
L 323.68415 165.604788 
L 322.68415 165.591531 
L 321.68415 165.583141 
L 320.68415 165.561604 
L 319.68415 165.538572 
L 318.68415 165.521338 
L 317.68415 165.502876 
L 316.68415 165.482423 
L 315.68415 165.465823 
L 314.68415 165.403045 
L 313.68415 165.327779 
L 312.68415 165.29514 
L 311.68415 165.227577 
L 310.68415 165.17353 
L 309.68415 165.139825 
L 308.68415 165.049699 
L 307.68415 165.021164 
L 306.68415 164.989678 
L 305.68415 164.958667 
L 304.68415 164.903859 
L 303.68415 164.839272 
L 302.68415 164.801077 
L 301.68415 164.705143 
L 300.68415 164.655884 
L 299.68415 164.611815 
L 298.68415 164.571691 
L 297.68415 164.463324 
L 296.68415 164.421696 
L 295.68415 164.359555 
L 294.68415 164.289592 
L 293.68415 164.185088 
L 292.68415 164.148101 
L 291.68415 164.102223 
L 290.68415 164.033729 
L 289.68415 163.984983 
L 288.68415 163.907385 
L 287.68415 163.876845 
L 286.68415 163.80733 
L 285.68415 163.783357 
L 284.68415 163.754736 
L 283.68415 163.712942 
L 282.68415 163.691367 
L 281.68415 163.677419 
L 280.68415 163.650696 
L 279.68415 163.641386 
L 278.68415 163.62894 
L 277.68415 163.617885 
L 276.68415 163.61222 
L 275.68415 163.607456 
L 274.68415 163.613004 
L 273.68415 163.626292 
L 272.68415 163.63381 
L 271.68415 163.658594 
L 270.68415 163.682163 
L 269.68415 163.718344 
L 268.68415 163.744306 
L 267.68415 163.766627 
L 266.68415 163.835387 
L 265.68415 163.909922 
L 264.68415 164.003902 
L 263.68415 164.054954 
L 262.68415 164.108887 
L 261.68415 164.144138 
L 260.68415 164.250226 
L 259.68415 164.30249 
L 258.68415 164.339397 
L 257.68415 164.370428 
L 256.68415 164.431583 
L 255.68415 164.499003 
L 254.68415 164.547909 
L 253.68415 164.613102 
L 252.68415 164.651289 
L 251.68415 164.693285 
L 250.68415 164.735302 
L 249.68415 164.794819 
L 248.68415 164.907979 
L 247.68415 164.960229 
L 246.68415 164.999647 
L 245.68415 165.046749 
L 244.68415 165.103528 
L 243.68415 165.136191 
L 242.68415 165.172369 
L 241.68415 165.20446 
L 240.68415 165.238739 
L 239.68415 165.297117 
L 238.68415 165.342302 
L 237.68415 165.371926 
L 236.68415 165.422312 
L 235.68415 165.44751 
L 234.68415 165.46856 
L 233.68415 165.503528 
L 232.68415 165.527818 
L 231.68415 165.541885 
L 230.68415 165.560827 
L 229.68415 165.576489 
L 228.68415 165.58904 
L 227.68415 165.594876 
L 226.68415 165.601759 
L 225.68415 165.606932 
L 224.68415 165.60515 
L 223.68415 165.602424 
L 222.68415 165.591271 
L 221.68415 165.563035 
L 220.68415 165.519248 
L 219.68415 165.498558 
L 218.68415 165.457585 
L 217.68415 165.41751 
L 216.68415 165.3984 
L 215.68415 165.375892 
L 214.68415 165.30924 
L 213.68415 165.259531 
L 212.68415 165.185824 
L 211.68415 165.15451 
L 210.68415 165.077888 
L 209.68415 165.03959 
L 208.68415 164.965473 
L 207.68415 164.861415 
L 206.68415 164.791584 
L 205.68415 164.686351 
L 204.68415 164.631335 
L 203.68415 164.50786 
L 202.68415 164.437301 
L 201.68415 164.321462 
L 200.68415 164.271281 
L 199.68415 164.235677 
L 198.68415 164.144271 
L 197.68415 164.090763 
L 195.956 164.002854 
" clip-path="url(#p1739e1849c)" style="fill: none; stroke: #d62728; stroke-linecap: round"/>
    <path d="M 199.956 166.607398 
L 199.075631 166.132067 
L 198.197724 165.651813 
L 197.347011 165.117172 
L 196.044836 164.429725 
L 196.972189 164.40371 
L 197.883864 163.990991 
L 198.794128 163.575452 
L 200.136624 162.968647 
L 199.481725 163.607398 
L 199.429761 164.607398 
L 199.370671 166.607398 
z
" clip-path="url(#p1739e1849c)" style="fill: #ffffff; stroke: #ffffff; stroke-width: 3; stroke-linecap: round"/>
    <path d="M 199.956 166.607398 
L 199.075631 166.132067 
L 198.197724 165.651813 
L 197.347011 165.117172 
L 196.044836 164.429725 
L 196.972189 164.40371 
L 197.883864 163.990991 
L 198.794128 163.575452 
L 200.136624 162.968647 
L 199.481725 163.607398 
L 199.429761 164.607398 
L 199.370671 166.607398 
z
" clip-path="url(#p1739e1849c)" style="fill: #ffffff; stroke: #d62728; stroke-linecap: round"/>
   </g>
   <g id="patch_13">
    <path d="M 112.236783 165.173836 
L 113.193329 165.467107 
L 114.148428 165.765687 
L 115.087539 166.122935 
L 116.0438 166.417253 
L 116.989253 166.751227 
L 117.943924 167.051376 
L 119.359281 167.473808 
L 120.3408 167.748165 
L 121.302607 168.030801 
L 122.268353 168.295441 
L 123.232575 168.567043 
L 124.190545 168.867199 
L 125.157536 169.126154 
L 126.125325 169.381462 
L 127.095664 169.625128 
L 128.066954 169.86445 
L 129.03928 170.099038 
L 130.004526 170.365961 
L 130.975411 170.607131 
L 131.945914 170.850046 
L 133.643216 171.247659 
L 134.697615 171.416571 
L 135.685479 171.572224 
L 136.674847 171.717659 
L 137.66557 171.853888 
L 138.656605 171.987995 
L 139.650462 172.102934 
L 140.641427 172.237522 
L 141.635151 172.353363 
L 142.633195 172.43986 
L 143.62795 172.548702 
L 144.622981 172.65566 
L 145.6185 172.75931 
L 146.61261 172.872531 
L 148.129398 173.027659 
L 149.173805 173.068481 
L 150.174191 173.100847 
L 151.176669 173.105385 
L 152.176585 173.144018 
L 153.17815 173.1607 
L 154.183652 173.12498 
L 155.186135 173.129441 
L 156.191786 173.091739 
L 157.192405 173.121016 
L 158.194186 173.134826 
L 159.195009 173.161384 
L 160.198254 173.155709 
L 161.204323 173.112444 
L 162.58093 173.145463 
L 163.556562 173.063964 
L 164.556648 173.033542 
L 165.556784 172.985024 
L 166.556966 172.919345 
L 167.557143 172.855849 
L 168.557348 172.781652 
L 169.557419 172.757056 
L 170.557487 172.733297 
L 171.557545 172.713366 
L 172.557594 172.696554 
L 173.557662 172.67288 
L 174.557794 172.625828 
L 175.557886 172.593475 
L 176.859289 172.561148 
L 177.785887 172.478304 
L 178.782342 172.392711 
L 179.77966 172.319444 
L 180.777048 172.247169 
L 181.774638 172.177791 
L 182.77233 172.109853 
L 183.770813 172.053215 
L 184.768955 171.991722 
L 185.768017 171.943344 
L 186.767182 171.896457 
L 187.765943 171.843785 
L 188.764789 171.79234 
L 189.763775 171.74288 
L 191.064404 171.668432 
L 192.001555 171.595454 
L 193.002131 171.528273 
L 193.996667 171.418897 
L 194.996151 171.344093 
L 195.993721 171.255908 
L 196.988408 171.147586 
L 197.991089 171.095117 
L 198.985044 170.981678 
L 199.979416 170.87116 
L 200.973722 170.760172 
L 201.971399 170.672741 
L 202.970462 170.59499 
L 203.965785 170.491114 
L 205.344679 170.390664 
L 206.325607 170.22837 
L 207.312277 170.059776 
L 208.298113 169.887326 
L 209.298392 169.781573 
L 210.284546 169.610593 
L 211.275041 169.459661 
L 212.267192 169.316374 
L 213.266654 169.206846 
L 214.251826 169.03133 
L 215.238879 168.864503 
L 216.230719 168.719781 
L 217.218379 168.555757 
L 218.212146 168.419932 
L 219.71376 168.125973 
L 220.734002 167.921657 
L 221.705262 167.682433 
L 222.677742 167.447695 
L 223.653677 167.225666 
L 224.624309 166.984129 
L 225.592939 166.735231 
L 226.897842 166.408145 
" clip-path="url(#p1739e1849c)" style="fill: none; stroke: #ffffff; stroke-width: 3; stroke-linecap: round"/>
    <path d="M 112.236783 165.173836 
L 113.193329 165.467107 
L 114.148428 165.765687 
L 115.087539 166.122935 
L 116.0438 166.417253 
L 116.989253 166.751227 
L 117.943924 167.051376 
L 119.359281 167.473808 
L 120.3408 167.748165 
L 121.302607 168.030801 
L 122.268353 168.295441 
L 123.232575 168.567043 
L 124.190545 168.867199 
L 125.157536 169.126154 
L 126.125325 169.381462 
L 127.095664 169.625128 
L 128.066954 169.86445 
L 129.03928 170.099038 
L 130.004526 170.365961 
L 130.975411 170.607131 
L 131.945914 170.850046 
L 133.643216 171.247659 
L 134.697615 171.416571 
L 135.685479 171.572224 
L 136.674847 171.717659 
L 137.66557 171.853888 
L 138.656605 171.987995 
L 139.650462 172.102934 
L 140.641427 172.237522 
L 141.635151 172.353363 
L 142.633195 172.43986 
L 143.62795 172.548702 
L 144.622981 172.65566 
L 145.6185 172.75931 
L 146.61261 172.872531 
L 148.129398 173.027659 
L 149.173805 173.068481 
L 150.174191 173.100847 
L 151.176669 173.105385 
L 152.176585 173.144018 
L 153.17815 173.1607 
L 154.183652 173.12498 
L 155.186135 173.129441 
L 156.191786 173.091739 
L 157.192405 173.121016 
L 158.194186 173.134826 
L 159.195009 173.161384 
L 160.198254 173.155709 
L 161.204323 173.112444 
L 162.58093 173.145463 
L 163.556562 173.063964 
L 164.556648 173.033542 
L 165.556784 172.985024 
L 166.556966 172.919345 
L 167.557143 172.855849 
L 168.557348 172.781652 
L 169.557419 172.757056 
L 170.557487 172.733297 
L 171.557545 172.713366 
L 172.557594 172.696554 
L 173.557662 172.67288 
L 174.557794 172.625828 
L 175.557886 172.593475 
L 176.859289 172.561148 
L 177.785887 172.478304 
L 178.782342 172.392711 
L 179.77966 172.319444 
L 180.777048 172.247169 
L 181.774638 172.177791 
L 182.77233 172.109853 
L 183.770813 172.053215 
L 184.768955 171.991722 
L 185.768017 171.943344 
L 186.767182 171.896457 
L 187.765943 171.843785 
L 188.764789 171.79234 
L 189.763775 171.74288 
L 191.064404 171.668432 
L 192.001555 171.595454 
L 193.002131 171.528273 
L 193.996667 171.418897 
L 194.996151 171.344093 
L 195.993721 171.255908 
L 196.988408 171.147586 
L 197.991089 171.095117 
L 198.985044 170.981678 
L 199.979416 170.87116 
L 200.973722 170.760172 
L 201.971399 170.672741 
L 202.970462 170.59499 
L 203.965785 170.491114 
L 205.344679 170.390664 
L 206.325607 170.22837 
L 207.312277 170.059776 
L 208.298113 169.887326 
L 209.298392 169.781573 
L 210.284546 169.610593 
L 211.275041 169.459661 
L 212.267192 169.316374 
L 213.266654 169.206846 
L 214.251826 169.03133 
L 215.238879 168.864503 
L 216.230719 168.719781 
L 217.218379 168.555757 
L 218.212146 168.419932 
L 219.71376 168.125973 
L 220.734002 167.921657 
L 221.705262 167.682433 
L 222.677742 167.447695 
L 223.653677 167.225666 
L 224.624309 166.984129 
L 225.592939 166.735231 
L 226.897842 166.408145 
" clip-path="url(#p1739e1849c)" style="fill: none; stroke: #1f77b4; stroke-linecap: round"/>
    <path d="M 222.24781 164.679661 
L 223.225803 164.890652 
L 224.202806 165.107058 
L 225.168858 165.383276 
L 226.611075 165.680353 
L 225.727758 165.963923 
L 224.967329 166.614488 
L 224.209039 167.267367 
L 223.088996 168.224451 
L 223.539807 167.42842 
L 223.310865 166.453594 
L 222.809922 164.516445 
z
" clip-path="url(#p1739e1849c)" style="fill: #ffffff; stroke: #ffffff; stroke-width: 3; stroke-linecap: round"/>
    <path d="M 222.24781 164.679661 
L 223.225803 164.890652 
L 224.202806 165.107058 
L 225.168858 165.383276 
L 226.611075 165.680353 
L 225.727758 165.963923 
L 224.967329 166.614488 
L 224.209039 167.267367 
L 223.088996 168.224451 
L 223.539807 167.42842 
L 223.310865 166.453594 
L 222.809922 164.516445 
z
" clip-path="url(#p1739e1849c)" style="fill: #ffffff; stroke: #1f77b4; stroke-linecap: round"/>
   </g>
   <g id="patch_14">
    <path d="M 392.763998 164.040961 
L 391.807452 163.74769 
L 390.852353 163.449109 
L 389.913242 163.091862 
L 388.956982 162.797544 
L 388.011528 162.46357 
L 387.056857 162.163421 
L 385.641501 161.740989 
L 384.659981 161.466632 
L 383.698175 161.183996 
L 382.732429 160.919355 
L 381.768206 160.647754 
L 380.810236 160.347598 
L 379.843245 160.088643 
L 378.875456 159.833334 
L 377.905117 159.589668 
L 376.933828 159.350347 
L 375.961502 159.115759 
L 374.996255 158.848835 
L 374.02537 158.607666 
L 373.054868 158.364751 
L 371.357566 157.967138 
L 370.303166 157.798225 
L 369.315302 157.642572 
L 368.325934 157.497138 
L 367.335211 157.360909 
L 366.344176 157.226801 
L 365.350319 157.111863 
L 364.359354 156.977275 
L 363.36563 156.861434 
L 362.367586 156.774937 
L 361.372832 156.666095 
L 360.3778 156.559137 
L 359.382281 156.455487 
L 358.388171 156.342266 
L 356.871383 156.187138 
L 355.826977 156.146316 
L 354.82659 156.11395 
L 353.824113 156.109411 
L 352.824197 156.070779 
L 351.822632 156.054097 
L 350.817129 156.089817 
L 349.814646 156.085356 
L 348.808995 156.123058 
L 347.808376 156.093781 
L 346.806595 156.079971 
L 345.805772 156.053413 
L 344.802528 156.059088 
L 343.796459 156.102353 
L 342.419851 156.069334 
L 341.444219 156.150833 
L 340.444133 156.181255 
L 339.443997 156.229773 
L 338.443815 156.295452 
L 337.443639 156.358948 
L 336.443433 156.433145 
L 335.443363 156.457741 
L 334.443294 156.481499 
L 333.443236 156.50143 
L 332.443187 156.518242 
L 331.443119 156.541917 
L 330.442987 156.588968 
L 329.442896 156.621322 
L 328.141492 156.653649 
L 327.214894 156.736492 
L 326.218439 156.822086 
L 325.221121 156.895353 
L 324.223733 156.967628 
L 323.226143 157.037005 
L 322.228451 157.104944 
L 321.229969 157.161582 
L 320.231826 157.223075 
L 319.232765 157.271453 
L 318.233599 157.31834 
L 317.234838 157.371011 
L 316.235992 157.422457 
L 315.237006 157.471917 
L 313.936378 157.546365 
L 312.999226 157.619343 
L 311.998651 157.686523 
L 311.004114 157.7959 
L 310.00463 157.870704 
L 309.007061 157.958888 
L 308.012374 158.06721 
L 307.009692 158.11968 
L 306.015738 158.233119 
L 305.021365 158.343637 
L 304.02706 158.454625 
L 303.029382 158.542056 
L 302.03032 158.619806 
L 301.034996 158.723683 
L 299.656103 158.824132 
L 298.675174 158.986427 
L 297.688504 159.15502 
L 296.702669 159.327471 
L 295.702389 159.433224 
L 294.716235 159.604204 
L 293.72574 159.755135 
L 292.733589 159.898423 
L 291.734127 160.007951 
L 290.748956 160.183467 
L 289.761903 160.350293 
L 288.770062 160.495016 
L 287.782402 160.659039 
L 286.788635 160.794865 
L 285.287022 161.088823 
L 284.26678 161.293139 
L 283.295519 161.532364 
L 282.32304 161.767102 
L 281.347104 161.98913 
L 280.376473 162.230668 
L 279.407843 162.479566 
L 278.102939 162.806652 
" clip-path="url(#p1739e1849c)" style="fill: none; stroke: #ffffff; stroke-width: 3; stroke-linecap: round"/>
    <path d="M 392.763998 164.040961 
L 391.807452 163.74769 
L 390.852353 163.449109 
L 389.913242 163.091862 
L 388.956982 162.797544 
L 388.011528 162.46357 
L 387.056857 162.163421 
L 385.641501 161.740989 
L 384.659981 161.466632 
L 383.698175 161.183996 
L 382.732429 160.919355 
L 381.768206 160.647754 
L 380.810236 160.347598 
L 379.843245 160.088643 
L 378.875456 159.833334 
L 377.905117 159.589668 
L 376.933828 159.350347 
L 375.961502 159.115759 
L 374.996255 158.848835 
L 374.02537 158.607666 
L 373.054868 158.364751 
L 371.357566 157.967138 
L 370.303166 157.798225 
L 369.315302 157.642572 
L 368.325934 157.497138 
L 367.335211 157.360909 
L 366.344176 157.226801 
L 365.350319 157.111863 
L 364.359354 156.977275 
L 363.36563 156.861434 
L 362.367586 156.774937 
L 361.372832 156.666095 
L 360.3778 156.559137 
L 359.382281 156.455487 
L 358.388171 156.342266 
L 356.871383 156.187138 
L 355.826977 156.146316 
L 354.82659 156.11395 
L 353.824113 156.109411 
L 352.824197 156.070779 
L 351.822632 156.054097 
L 350.817129 156.089817 
L 349.814646 156.085356 
L 348.808995 156.123058 
L 347.808376 156.093781 
L 346.806595 156.079971 
L 345.805772 156.053413 
L 344.802528 156.059088 
L 343.796459 156.102353 
L 342.419851 156.069334 
L 341.444219 156.150833 
L 340.444133 156.181255 
L 339.443997 156.229773 
L 338.443815 156.295452 
L 337.443639 156.358948 
L 336.443433 156.433145 
L 335.443363 156.457741 
L 334.443294 156.481499 
L 333.443236 156.50143 
L 332.443187 156.518242 
L 331.443119 156.541917 
L 330.442987 156.588968 
L 329.442896 156.621322 
L 328.141492 156.653649 
L 327.214894 156.736492 
L 326.218439 156.822086 
L 325.221121 156.895353 
L 324.223733 156.967628 
L 323.226143 157.037005 
L 322.228451 157.104944 
L 321.229969 157.161582 
L 320.231826 157.223075 
L 319.232765 157.271453 
L 318.233599 157.31834 
L 317.234838 157.371011 
L 316.235992 157.422457 
L 315.237006 157.471917 
L 313.936378 157.546365 
L 312.999226 157.619343 
L 311.998651 157.686523 
L 311.004114 157.7959 
L 310.00463 157.870704 
L 309.007061 157.958888 
L 308.012374 158.06721 
L 307.009692 158.11968 
L 306.015738 158.233119 
L 305.021365 158.343637 
L 304.02706 158.454625 
L 303.029382 158.542056 
L 302.03032 158.619806 
L 301.034996 158.723683 
L 299.656103 158.824132 
L 298.675174 158.986427 
L 297.688504 159.15502 
L 296.702669 159.327471 
L 295.702389 159.433224 
L 294.716235 159.604204 
L 293.72574 159.755135 
L 292.733589 159.898423 
L 291.734127 160.007951 
L 290.748956 160.183467 
L 289.761903 160.350293 
L 288.770062 160.495016 
L 287.782402 160.659039 
L 286.788635 160.794865 
L 285.287022 161.088823 
L 284.26678 161.293139 
L 283.295519 161.532364 
L 282.32304 161.767102 
L 281.347104 161.98913 
L 280.376473 162.230668 
L 279.407843 162.479566 
L 278.102939 162.806652 
" clip-path="url(#p1739e1849c)" style="fill: none; stroke: #d62728; stroke-linecap: round"/>
    <path d="M 282.752971 164.535136 
L 281.774978 164.324144 
L 280.797976 164.107739 
L 279.831923 163.831521 
L 278.389707 163.534444 
L 279.273023 163.250874 
L 280.033453 162.600309 
L 280.791742 161.947429 
L 281.911785 160.990345 
L 281.460974 161.786376 
L 281.689916 162.761202 
L 281.912014 163.738016 
L 282.106041 164.72298 
z
" clip-path="url(#p1739e1849c)" style="fill: #ffffff; stroke: #ffffff; stroke-width: 3; stroke-linecap: round"/>
    <path d="M 282.752971 164.535136 
L 281.774978 164.324144 
L 280.797976 164.107739 
L 279.831923 163.831521 
L 278.389707 163.534444 
L 279.273023 163.250874 
L 280.033453 162.600309 
L 280.791742 161.947429 
L 281.911785 160.990345 
L 281.460974 161.786376 
L 281.689916 162.761202 
L 281.912014 163.738016 
L 282.106041 164.72298 
z
" clip-path="url(#p1739e1849c)" style="fill: #ffffff; stroke: #d62728; stroke-linecap: round"/>
   </g>
   <g id="patch_15">
    <path d="M 112.236554 164.037243 
L 113.208856 163.801407 
L 114.182622 163.570877 
L 115.172571 163.39896 
L 116.145161 163.16417 
L 117.12869 162.969001 
L 118.102889 162.740037 
L 119.076248 162.508035 
L 120.055523 162.297457 
L 121.03819 162.099167 
L 122.015955 161.883118 
L 122.995616 161.673939 
L 124.786947 161.270985 
L 125.739624 161.108219 
L 126.725145 160.933442 
L 127.70809 160.747029 
L 128.690073 160.556274 
L 129.671008 160.360788 
L 130.6591 160.19762 
L 131.641492 160.008713 
L 132.624271 159.821549 
L 133.606113 159.630159 
L 134.584887 159.42491 
L 135.563428 159.21861 
L 136.539736 159.002226 
L 137.514033 158.776756 
L 138.487866 158.549194 
L 139.457511 158.302714 
L 140.431449 158.075625 
L 141.40129 157.830035 
L 142.36472 157.555487 
L 143.333032 157.302991 
L 144.300933 157.048635 
L 145.268111 156.791014 
L 146.23738 156.542839 
L 147.199156 156.260823 
L 148.16705 156.006437 
L 149.442444 155.680331 
L 150.383453 155.470754 
L 151.367288 155.288016 
L 152.347893 155.083504 
L 153.320787 154.827011 
L 154.299593 154.610377 
L 155.272195 154.351918 
L 156.254653 154.1599 
L 157.234836 153.952539 
L 158.216894 153.757823 
L 159.194208 153.531134 
L 160.165992 153.267157 
L 161.144864 153.050965 
L 162.121821 152.821863 
L 163.106133 152.642339 
L 164.087789 152.444915 
L 165.066927 152.230516 
L 166.046385 152.018276 
L 167.024273 151.79545 
L 168.00944 151.62169 
L 168.994729 151.448757 
L 169.980581 151.279611 
L 170.96689 151.11355 
L 171.952191 150.9407 
L 173.877427 150.604782 
L 174.936102 150.487791 
L 175.930611 150.377162 
L 176.926654 150.286974 
L 177.922668 150.196385 
L 178.919606 150.118118 
L 179.916619 150.040843 
L 180.913849 149.966463 
L 181.911187 149.893523 
L 182.909373 149.831879 
L 183.907195 149.765382 
L 184.906001 149.711994 
L 185.904919 149.660098 
L 186.903403 149.602419 
L 187.901979 149.545965 
L 188.900704 149.491497 
L 189.89914 149.433186 
L 190.901034 149.420924 
L 191.903862 149.421114 
L 192.9035 149.378798 
L 193.905752 149.371307 
L 194.906991 149.350339 
L 195.906708 149.309085 
L 196.910649 149.324094 
L 198.627375 149.223826 
L 199.657737 149.252549 
L 200.657785 149.281957 
L 201.657872 149.335161 
L 202.657974 149.398146 
L 203.658034 149.434738 
L 204.658187 149.529069 
L 205.658264 149.576724 
L 206.658334 149.619191 
L 207.658397 149.657712 
L 208.658569 149.764476 
L 209.658635 149.804501 
L 210.658733 149.865039 
L 211.658844 149.933399 
L 212.65901 150.0363 
L 213.659068 150.071684 
L 214.65914 150.115959 
L 215.659249 150.18285 
L 216.659326 150.229993 
L 217.659449 150.305988 
L 218.659496 150.334925 
L 219.659606 150.402837 
L 220.659644 150.425207 
L 221.659688 150.452226 
L 223.276313 150.491427 
L 224.206445 150.582518 
L 225.202856 150.668312 
L 226.198348 150.766849 
L 227.195092 150.848017 
L 228.19161 150.932314 
L 229.188229 151.015223 
L 230.185234 151.092756 
L 231.182305 151.16939 
L 232.180117 151.23574 
L 233.178485 151.294369 
L 234.176439 151.358754 
L 235.175633 151.405916 
L 236.174741 151.454291 
L 237.174755 151.490087 
L 238.174034 151.536075 
L 239.173051 151.585694 
L 240.175407 151.588995 
L 241.178178 151.586535 
L 242.182347 151.564682 
L 243.18343 151.585645 
L 244.184719 151.603733 
L 245.184667 151.640456 
L 246.189705 151.606526 
L 247.835972 151.672771 
L 248.808705 151.778257 
L 249.802703 151.891964 
L 250.801053 151.975862 
L 251.800307 152.053562 
L 252.796887 152.149581 
L 253.795819 152.229485 
L 254.790851 152.336111 
L 255.786433 152.438968 
L 256.782019 152.541803 
L 257.780131 152.627324 
L 258.785991 152.659763 
L 259.783054 152.752472 
L 260.778264 152.857881 
L 261.774583 152.955686 
L 262.7723 153.043914 
L 263.766535 153.156006 
L 264.761277 153.26462 
L 265.755429 153.377279 
L 266.749897 153.487771 
L 267.747845 153.574418 
L 268.743888 153.674119 
L 269.737683 153.789219 
L 270.734477 153.883774 
L 272.528706 154.120164 
L 273.56907 154.325301 
L 274.553224 154.506028 
L 275.535084 154.697184 
L 276.514748 154.898324 
L 277.495459 155.094704 
L 278.475465 155.294286 
L 279.454803 155.496906 
L 280.432698 155.706085 
L 281.410817 155.914242 
L 282.38857 156.124068 
L 283.364828 156.340687 
L 284.340883 156.558228 
L 285.315127 156.783999 
L 286.285701 157.026453 
L 287.252932 157.284097 
L 288.225127 157.519181 
L 289.192964 157.774076 
L 290.160993 158.028093 
L 291.133528 158.261635 
L 292.105332 158.498496 
L 293.067651 158.778469 
L 294.03361 159.041896 
L 294.994413 159.32876 
L 295.964325 159.57422 
L 297.024458 159.885923 
L 298.002263 160.194567 
L 298.946595 160.531808 
L 299.882968 160.897914 
L 300.828438 161.231024 
L 301.764499 161.598263 
L 302.713907 161.91709 
L 303.645119 162.301914 
L 304.590396 162.635726 
L 305.523638 163.013189 
L 306.474331 163.327355 
L 307.428899 163.627469 
L 309.045684 164.168046 
" clip-path="url(#p1739e1849c)" style="fill: none; stroke: #ffffff; stroke-width: 3; stroke-linecap: round"/>
    <path d="M 112.236554 164.037243 
L 113.208856 163.801407 
L 114.182622 163.570877 
L 115.172571 163.39896 
L 116.145161 163.16417 
L 117.12869 162.969001 
L 118.102889 162.740037 
L 119.076248 162.508035 
L 120.055523 162.297457 
L 121.03819 162.099167 
L 122.015955 161.883118 
L 122.995616 161.673939 
L 124.786947 161.270985 
L 125.739624 161.108219 
L 126.725145 160.933442 
L 127.70809 160.747029 
L 128.690073 160.556274 
L 129.671008 160.360788 
L 130.6591 160.19762 
L 131.641492 160.008713 
L 132.624271 159.821549 
L 133.606113 159.630159 
L 134.584887 159.42491 
L 135.563428 159.21861 
L 136.539736 159.002226 
L 137.514033 158.776756 
L 138.487866 158.549194 
L 139.457511 158.302714 
L 140.431449 158.075625 
L 141.40129 157.830035 
L 142.36472 157.555487 
L 143.333032 157.302991 
L 144.300933 157.048635 
L 145.268111 156.791014 
L 146.23738 156.542839 
L 147.199156 156.260823 
L 148.16705 156.006437 
L 149.442444 155.680331 
L 150.383453 155.470754 
L 151.367288 155.288016 
L 152.347893 155.083504 
L 153.320787 154.827011 
L 154.299593 154.610377 
L 155.272195 154.351918 
L 156.254653 154.1599 
L 157.234836 153.952539 
L 158.216894 153.757823 
L 159.194208 153.531134 
L 160.165992 153.267157 
L 161.144864 153.050965 
L 162.121821 152.821863 
L 163.106133 152.642339 
L 164.087789 152.444915 
L 165.066927 152.230516 
L 166.046385 152.018276 
L 167.024273 151.79545 
L 168.00944 151.62169 
L 168.994729 151.448757 
L 169.980581 151.279611 
L 170.96689 151.11355 
L 171.952191 150.9407 
L 173.877427 150.604782 
L 174.936102 150.487791 
L 175.930611 150.377162 
L 176.926654 150.286974 
L 177.922668 150.196385 
L 178.919606 150.118118 
L 179.916619 150.040843 
L 180.913849 149.966463 
L 181.911187 149.893523 
L 182.909373 149.831879 
L 183.907195 149.765382 
L 184.906001 149.711994 
L 185.904919 149.660098 
L 186.903403 149.602419 
L 187.901979 149.545965 
L 188.900704 149.491497 
L 189.89914 149.433186 
L 190.901034 149.420924 
L 191.903862 149.421114 
L 192.9035 149.378798 
L 193.905752 149.371307 
L 194.906991 149.350339 
L 195.906708 149.309085 
L 196.910649 149.324094 
L 198.627375 149.223826 
L 199.657737 149.252549 
L 200.657785 149.281957 
L 201.657872 149.335161 
L 202.657974 149.398146 
L 203.658034 149.434738 
L 204.658187 149.529069 
L 205.658264 149.576724 
L 206.658334 149.619191 
L 207.658397 149.657712 
L 208.658569 149.764476 
L 209.658635 149.804501 
L 210.658733 149.865039 
L 211.658844 149.933399 
L 212.65901 150.0363 
L 213.659068 150.071684 
L 214.65914 150.115959 
L 215.659249 150.18285 
L 216.659326 150.229993 
L 217.659449 150.305988 
L 218.659496 150.334925 
L 219.659606 150.402837 
L 220.659644 150.425207 
L 221.659688 150.452226 
L 223.276313 150.491427 
L 224.206445 150.582518 
L 225.202856 150.668312 
L 226.198348 150.766849 
L 227.195092 150.848017 
L 228.19161 150.932314 
L 229.188229 151.015223 
L 230.185234 151.092756 
L 231.182305 151.16939 
L 232.180117 151.23574 
L 233.178485 151.294369 
L 234.176439 151.358754 
L 235.175633 151.405916 
L 236.174741 151.454291 
L 237.174755 151.490087 
L 238.174034 151.536075 
L 239.173051 151.585694 
L 240.175407 151.588995 
L 241.178178 151.586535 
L 242.182347 151.564682 
L 243.18343 151.585645 
L 244.184719 151.603733 
L 245.184667 151.640456 
L 246.189705 151.606526 
L 247.835972 151.672771 
L 248.808705 151.778257 
L 249.802703 151.891964 
L 250.801053 151.975862 
L 251.800307 152.053562 
L 252.796887 152.149581 
L 253.795819 152.229485 
L 254.790851 152.336111 
L 255.786433 152.438968 
L 256.782019 152.541803 
L 257.780131 152.627324 
L 258.785991 152.659763 
L 259.783054 152.752472 
L 260.778264 152.857881 
L 261.774583 152.955686 
L 262.7723 153.043914 
L 263.766535 153.156006 
L 264.761277 153.26462 
L 265.755429 153.377279 
L 266.749897 153.487771 
L 267.747845 153.574418 
L 268.743888 153.674119 
L 269.737683 153.789219 
L 270.734477 153.883774 
L 272.528706 154.120164 
L 273.56907 154.325301 
L 274.553224 154.506028 
L 275.535084 154.697184 
L 276.514748 154.898324 
L 277.495459 155.094704 
L 278.475465 155.294286 
L 279.454803 155.496906 
L 280.432698 155.706085 
L 281.410817 155.914242 
L 282.38857 156.124068 
L 283.364828 156.340687 
L 284.340883 156.558228 
L 285.315127 156.783999 
L 286.285701 157.026453 
L 287.252932 157.284097 
L 288.225127 157.519181 
L 289.192964 157.774076 
L 290.160993 158.028093 
L 291.133528 158.261635 
L 292.105332 158.498496 
L 293.067651 158.778469 
L 294.03361 159.041896 
L 294.994413 159.32876 
L 295.964325 159.57422 
L 297.024458 159.885923 
L 298.002263 160.194567 
L 298.946595 160.531808 
L 299.882968 160.897914 
L 300.828438 161.231024 
L 301.764499 161.598263 
L 302.713907 161.91709 
L 303.645119 162.301914 
L 304.590396 162.635726 
L 305.523638 163.013189 
L 306.474331 163.327355 
L 307.428899 163.627469 
L 309.045684 164.168046 
" clip-path="url(#p1739e1849c)" style="fill: none; stroke: #1f77b4; stroke-linecap: round"/>
    <path d="M 305.89615 160.673643 
L 306.606507 161.378186 
L 307.313113 162.086757 
L 307.978277 162.839825 
L 309.033395 163.866941 
L 308.136423 163.630084 
L 307.145316 163.768626 
L 306.154765 163.910271 
L 304.695568 164.113372 
L 305.504159 163.685499 
L 305.836333 162.740851 
L 306.457667 160.838895 
z
" clip-path="url(#p1739e1849c)" style="fill: #ffffff; stroke: #ffffff; stroke-width: 3; stroke-linecap: round"/>
    <path d="M 305.89615 160.673643 
L 306.606507 161.378186 
L 307.313113 162.086757 
L 307.978277 162.839825 
L 309.033395 163.866941 
L 308.136423 163.630084 
L 307.145316 163.768626 
L 306.154765 163.910271 
L 304.695568 164.113372 
L 305.504159 163.685499 
L 305.836333 162.740851 
L 306.457667 160.838895 
z
" clip-path="url(#p1739e1849c)" style="fill: #ffffff; stroke: #1f77b4; stroke-linecap: round"/>
   </g>
   <g id="patch_16">
    <path d="M 392.756011 165.155217 
L 391.775729 165.355306 
L 390.794177 165.550039 
L 389.798599 165.685606 
L 388.608307 165.934367 
L 387.625915 165.997642 
L 386.630322 166.099046 
L 385.635169 166.203572 
L 384.636914 166.286088 
L 383.63688 166.355983 
L 382.639417 166.444119 
L 381.640959 166.5252 
L 380.457559 166.602832 
L 379.545128 166.559163 
L 378.544785 166.525796 
L 377.54455 166.504346 
L 376.544356 166.487343 
L 375.544205 166.475186 
L 374.543755 166.429929 
L 372.575688 166.419785 
L 371.712381 166.271247 
L 370.723614 166.119644 
L 369.733052 165.98212 
L 368.742354 165.845665 
L 367.75035 165.719455 
L 366.75717 165.602476 
L 364.874962 165.374365 
L 363.992144 165.195375 
L 363.01568 164.979404 
L 361.09102 164.562037 
" clip-path="url(#p1739e1849c)" style="fill: none; stroke: #ffffff; stroke-width: 3; stroke-linecap: round"/>
    <path d="M 392.756011 165.155217 
L 391.775729 165.355306 
L 390.794177 165.550039 
L 389.798599 165.685606 
L 388.608307 165.934367 
L 387.625915 165.997642 
L 386.630322 166.099046 
L 385.635169 166.203572 
L 384.636914 166.286088 
L 383.63688 166.355983 
L 382.639417 166.444119 
L 381.640959 166.5252 
L 380.457559 166.602832 
L 379.545128 166.559163 
L 378.544785 166.525796 
L 377.54455 166.504346 
L 376.544356 166.487343 
L 375.544205 166.475186 
L 374.543755 166.429929 
L 372.575688 166.419785 
L 371.712381 166.271247 
L 370.723614 166.119644 
L 369.733052 165.98212 
L 368.742354 165.845665 
L 367.75035 165.719455 
L 366.75717 165.602476 
L 364.874962 165.374365 
L 363.992144 165.195375 
L 363.01568 164.979404 
L 361.09102 164.562037 
" clip-path="url(#p1739e1849c)" style="fill: none; stroke: #d62728; stroke-linecap: round"/>
    <path d="M 364.229729 168.41285 
L 363.502863 167.725352 
L 362.779652 167.033738 
L 362.096815 166.296657 
L 361.017635 165.294853 
L 361.919973 165.510371 
L 362.907515 165.348363 
L 363.894428 165.183265 
L 365.348398 164.945616 
L 364.550181 165.392545 
L 364.240504 166.344805 
L 363.664452 168.260962 
z
" clip-path="url(#p1739e1849c)" style="fill: #ffffff; stroke: #ffffff; stroke-width: 3; stroke-linecap: round"/>
    <path d="M 364.229729 168.41285 
L 363.502863 167.725352 
L 362.779652 167.033738 
L 362.096815 166.296657 
L 361.017635 165.294853 
L 361.919973 165.510371 
L 362.907515 165.348363 
L 363.894428 165.183265 
L 365.348398 164.945616 
L 364.550181 165.392545 
L 364.240504 166.344805 
L 363.664452 168.260962 
z
" clip-path="url(#p1739e1849c)" style="fill: #ffffff; stroke: #d62728; stroke-linecap: round"/>
   </g>
   <g id="patch_17">
    <path d="M 45.800781 238.5 
L 45.800781 7.2 
" style="fill: none; stroke: #000000; stroke-width: 0.8; stroke-linejoin: miter; stroke-linecap: square"/>
   </g>
   <g id="text_12">
    <g id="patch_18">
     <path d="M 241.848047 37.33 
L 263.152734 37.33 
Q 265.152734 37.33 265.152734 35.33 
L 265.152734 25.33 
Q 265.152734 23.33 263.152734 23.33 
L 241.848047 23.33 
Q 239.848047 23.33 239.848047 25.33 
L 239.848047 35.33 
Q 239.848047 37.33 241.848047 37.33 
z
" style="fill: #ffffff; opacity: 0.6"/>
    </g>
    <!-- ANC -->
    <g transform="translate(241.848047 32.927656) scale(0.1 -0.1)">
     <defs>
      <path id="DejaVuSans-31" d="M 628 4666 
L 1478 4666 
L 3547 763 
L 3547 4666 
L 4159 4666 
L 4159 0 
L 3309 0 
L 1241 3903 
L 1241 0 
L 628 0 
L 628 4666 
z
" transform="scale(0.015625)"/>
      <path id="DejaVuSans-26" d="M 4122 4306 
L 4122 3641 
Q 3803 3938 3442 4084 
Q 3081 4231 2675 4231 
Q 1875 4231 1450 3742 
Q 1025 3253 1025 2328 
Q 1025 1406 1450 917 
Q 1875 428 2675 428 
Q 3081 428 3442 575 
Q 3803 722 4122 1019 
L 4122 359 
Q 3791 134 3420 21 
Q 3050 -91 2638 -91 
Q 1578 -91 968 557 
Q 359 1206 359 2328 
Q 359 3453 968 4101 
Q 1578 4750 2638 4750 
Q 3056 4750 3426 4639 
Q 3797 4528 4122 4306 
z
" transform="scale(0.015625)"/>
     </defs>
     <use xlink:href="#DejaVuSans-24"/>
     <use xlink:href="#DejaVuSans-31" transform="translate(68.40625 0)"/>
     <use xlink:href="#DejaVuSans-26" transform="translate(143.21875 0)"/>
    </g>
   </g>
  </g>
 </g>
 <defs>
  <clipPath id="p1739e1849c">
   <rect x="45.800781" y="7.2" width="413.399219" height="231.3"/>
  </clipPath>
 </defs>
</svg>
