<?xml version="1.0" encoding="utf-8" standalone="no"?>
<!DOCTYPE svg PUBLIC "-//W3C//DTD SVG 1.1//EN"
  "http://www.w3.org/Graphics/SVG/1.1/DTD/svg11.dtd">
<svg xmlns:xlink="http://www.w3.org/1999/xlink" width="466.4pt" height="259.2pt" viewBox="0 0 466.4 259.2" xmlns="http://www.w3.org/2000/svg" version="1.1">
 <metadata>
  <rdf:RDF xmlns:dc="http://purl.org/dc/elements/1.1/" xmlns:cc="http://creativecommons.org/ns#" xmlns:rdf="http://www.w3.org/1999/02/22-rdf-syntax-ns#">
   <cc:Work>
    <dc:type rdf:resource="http://purl.org/dc/dcmitype/StillImage"/>
    <dc:date>2026-07-07T15:32:55.294573</dc:date>
    <dc:format>image/svg+xml</dc:format>
    <dc:creator>
     <cc:Agent>
      <dc:title>Matplotlib v3.11.0, https://matplotlib.org/</dc:title>
     </cc:Agent>
    </dc:creator>
   </cc:Work>
  </rdf:RDF>
 </metadata>
 <defs>
  <style type="text/css">*{stroke-linejoin: round; stroke-linecap: butt}</style>
 </defs>
 <g id="figure_1">
  <g id="patch_1">
   <path d="M 0 259.2 
L 466.4 259.2 
L 466.4 0 
L 0 0 
z
" style="fill: #ffffff"/>
  </g>
  <g id="axes_1">
   <g id="patch_2">
    <path d="M 45.800781 238.5 
L 459.2 238.5 
L 459.2 7.2 
L 45.800781 7.2 
z
" style="fill: #ffffff"/>
   </g>
   <g id="patch_3">
    <path d="M 250.527627 7.2 
L 250.527627 53.46 
M 286.775435 7.2 
L 286.775435 53.46 
" clip-path="url(#pa4c28c36e3)" style="fill: none; stroke: #ffffff; stroke-width: 3; stroke-linejoin: miter"/>
    <path d="M 250.527627 7.2 
L 250.527627 53.46 
M 286.775435 7.2 
L 286.775435 53.46 
" clip-path="url(#pa4c28c36e3)" style="fill: none; stroke: #2ca02c; stroke-linejoin: miter"/>
   </g>
   <g id="FillBetweenPolyCollection_1">
    <path d="M 286.775435 7.2 
L 250.527627 7.2 
L 250.527627 53.46 
L 286.775435 53.46 
L 286.775435 53.46 
L 286.775435 7.2 
z
" clip-path="url(#pa4c28c36e3)" style="fill: #2ca02c; fill-opacity: 0.5"/>
   </g>
   <g id="patch_4">
    <path d="M 131.274469 53.46 
L 131.274469 70.5166 
M 167.522277 53.46 
L 167.522277 70.5166 
" clip-path="url(#pa4c28c36e3)" style="fill: none; stroke: #ffffff; stroke-width: 3; stroke-linejoin: miter"/>
    <path d="M 131.274469 53.46 
L 131.274469 70.5166 
M 167.522277 53.46 
L 167.522277 70.5166 
" clip-path="url(#pa4c28c36e3)" style="fill: none; stroke: #808080; stroke-linejoin: miter"/>
   </g>
   <g id="FillBetweenPolyCollection_2">
    <path d="M 167.522277 53.46 
L 131.274469 53.46 
L 131.274469 70.5166 
L 167.522277 70.5166 
L 167.522277 70.5166 
L 167.522277 53.46 
z
" clip-path="url(#pa4c28c36e3)" style="fill: #808080; fill-opacity: 0.5"/>
   </g>
   <g id="patch_5">
    <path d="M 369.780785 53.46 
L 369.780785 78.447467 
M 406.028594 53.46 
L 406.028594 78.447467 
" clip-path="url(#pa4c28c36e3)" style="fill: none; stroke: #ffffff; stroke-width: 3; stroke-linejoin: miter"/>
    <path d="M 369.780785 53.46 
L 369.780785 78.447467 
M 406.028594 53.46 
L 406.028594 78.447467 
" clip-path="url(#pa4c28c36e3)" style="fill: none; stroke: #808080; stroke-linejoin: miter"/>
   </g>
   <g id="FillBetweenPolyCollection_3">
    <path d="M 406.028594 53.46 
L 369.780785 53.46 
L 369.780785 78.447467 
L 406.028594 78.447467 
L 406.028594 78.447467 
L 406.028594 53.46 
z
" clip-path="url(#pa4c28c36e3)" style="fill: #808080; fill-opacity: 0.5"/>
   </g>
   <g id="patch_6">
    <path d="M 64.591655 70.5166 
L 64.591655 260.2 
M 100.839463 70.5166 
L 100.839463 260.2 
" clip-path="url(#pa4c28c36e3)" style="fill: none; stroke: #ffffff; stroke-width: 3; stroke-linejoin: miter"/>
    <path d="M 64.591655 70.5166 
L 64.591655 260.2 
M 100.839463 70.5166 
L 100.839463 260.2 
" clip-path="url(#pa4c28c36e3)" style="fill: none; stroke: #808080; stroke-linejoin: miter"/>
   </g>
   <g id="FillBetweenPolyCollection_4">
    <path d="M 100.839463 70.5166 
L 64.591655 70.5166 
L 64.591655 35987.483304 
L 100.839463 35987.483304 
L 100.839463 35987.483304 
L 100.839463 70.5166 
z
" clip-path="url(#pa4c28c36e3)" style="fill: #808080; fill-opacity: 0.5"/>
   </g>
   <g id="patch_7">
    <path d="M 197.957283 70.5166 
L 197.957283 260.2 
M 234.205091 70.5166 
L 234.205091 260.2 
" clip-path="url(#pa4c28c36e3)" style="fill: none; stroke: #ffffff; stroke-width: 3; stroke-linejoin: miter"/>
    <path d="M 197.957283 70.5166 
L 197.957283 260.2 
M 234.205091 70.5166 
L 234.205091 260.2 
" clip-path="url(#pa4c28c36e3)" style="fill: none; stroke: #1f77b4; stroke-linejoin: miter"/>
   </g>
   <g id="FillBetweenPolyCollection_5">
    <path d="M 234.205091 70.5166 
L 197.957283 70.5166 
L 197.957283 35987.483304 
L 234.205091 35987.483304 
L 234.205091 35987.483304 
L 234.205091 70.5166 
z
" clip-path="url(#pa4c28c36e3)" style="fill: #1f77b4; fill-opacity: 0.5"/>
   </g>
   <g id="patch_8">
    <path d="M 335.400253 78.447467 
L 335.400253 260.2 
M 371.648061 78.447467 
L 371.648061 260.2 
" clip-path="url(#pa4c28c36e3)" style="fill: none; stroke: #ffffff; stroke-width: 3; stroke-linejoin: miter"/>
    <path d="M 335.400253 78.447467 
L 335.400253 260.2 
M 371.648061 78.447467 
L 371.648061 260.2 
" clip-path="url(#pa4c28c36e3)" style="fill: none; stroke: #d62728; stroke-linejoin: miter"/>
   </g>
   <g id="FillBetweenPolyCollection_6">
    <path d="M 371.648061 78.447467 
L 335.400253 78.447467 
L 335.400253 35987.483304 
L 371.648061 35987.483304 
L 371.648061 35987.483304 
L 371.648061 78.447467 
z
" clip-path="url(#pa4c28c36e3)" style="fill: #d62728; fill-opacity: 0.5"/>
   </g>
   <g id="patch_9">
    <path d="M 404.161318 78.447467 
L 404.161318 260.2 
M 440.409126 78.447467 
L 440.409126 260.2 
" clip-path="url(#pa4c28c36e3)" style="fill: none; stroke: #ffffff; stroke-width: 3; stroke-linejoin: miter"/>
    <path d="M 404.161318 78.447467 
L 404.161318 260.2 
M 440.409126 78.447467 
L 440.409126 260.2 
" clip-path="url(#pa4c28c36e3)" style="fill: none; stroke: #808080; stroke-linejoin: miter"/>
   </g>
   <g id="FillBetweenPolyCollection_7">
    <path d="M 440.409126 78.447467 
L 404.161318 78.447467 
L 404.161318 35987.483304 
L 440.409126 35987.483304 
L 440.409126 35987.483304 
L 440.409126 78.447467 
z
" clip-path="url(#pa4c28c36e3)" style="fill: #808080; fill-opacity: 0.5"/>
   </g>
   <g id="patch_10">
    <path d="M 266.678768 142.014566 
L 266.678768 260.2 
M 302.926576 142.014566 
L 302.926576 260.2 
" clip-path="url(#pa4c28c36e3)" style="fill: none; stroke: #ffffff; stroke-width: 3; stroke-linejoin: miter"/>
    <path d="M 266.678768 142.014566 
L 266.678768 260.2 
M 302.926576 142.014566 
L 302.926576 260.2 
" clip-path="url(#pa4c28c36e3)" style="fill: none; stroke: #ff7f0e; stroke-linejoin: miter"/>
   </g>
   <g id="FillBetweenPolyCollection_8">
    <path d="M 302.926576 142.014566 
L 266.678768 142.014566 
L 266.678768 35987.483304 
L 302.926576 35987.483304 
L 302.926576 35987.483304 
L 302.926576 142.014566 
z
" clip-path="url(#pa4c28c36e3)" style="fill: #ff7f0e; fill-opacity: 0.5"/>
   </g>
   <g id="matplotlib.axis_1">
    <g id="xtick_1">
     <g id="line2d_1"/>
     <g id="text_1">
      <!-- A_prox -->
      <g transform="translate(65.810871 249.597656) scale(0.1 -0.1)">
       <defs>
        <path id="DejaVuSans-24" d="M 2188 4044 
L 1331 1722 
L 3047 1722 
L 2188 4044 
z
M 1831 4666 
L 2547 4666 
L 4325 0 
L 3669 0 
L 3244 1197 
L 1141 1197 
L 716 0 
L 50 0 
L 1831 4666 
z
" transform="scale(0.015625)"/>
        <path id="DejaVuSans-42" d="M 3263 -1063 
L 3263 -1509 
L -63 -1509 
L -63 -1063 
L 3263 -1063 
z
" transform="scale(0.015625)"/>
        <path id="DejaVuSans-53" d="M 1159 525 
L 1159 -1331 
L 581 -1331 
L 581 3500 
L 1159 3500 
L 1159 2969 
Q 1341 3281 1617 3432 
Q 1894 3584 2278 3584 
Q 2916 3584 3314 3078 
Q 3713 2572 3713 1747 
Q 3713 922 3314 415 
Q 2916 -91 2278 -91 
Q 1894 -91 1617 61 
Q 1341 213 1159 525 
z
M 3116 1747 
Q 3116 2381 2855 2742 
Q 2594 3103 2138 3103 
Q 1681 3103 1420 2742 
Q 1159 2381 1159 1747 
Q 1159 1113 1420 752 
Q 1681 391 2138 391 
Q 2594 391 2855 752 
Q 3116 1113 3116 1747 
z
" transform="scale(0.015625)"/>
        <path id="DejaVuSans-55" d="M 2631 2963 
Q 2534 3019 2420 3045 
Q 2306 3072 2169 3072 
Q 1681 3072 1420 2755 
Q 1159 2438 1159 1844 
L 1159 0 
L 581 0 
L 581 3500 
L 1159 3500 
L 1159 2956 
Q 1341 3275 1631 3429 
Q 1922 3584 2338 3584 
Q 2397 3584 2469 3576 
Q 2541 3569 2628 3553 
L 2631 2963 
z
" transform="scale(0.015625)"/>
        <path id="DejaVuSans-52" d="M 1959 3097 
Q 1497 3097 1228 2736 
Q 959 2375 959 1747 
Q 959 1119 1226 758 
Q 1494 397 1959 397 
Q 2419 397 2687 759 
Q 2956 1122 2956 1747 
Q 2956 2369 2687 2733 
Q 2419 3097 1959 3097 
z
M 1959 3584 
Q 2709 3584 3137 3096 
Q 3566 2609 3566 1747 
Q 3566 888 3137 398 
Q 2709 -91 1959 -91 
Q 1206 -91 779 398 
Q 353 888 353 1747 
Q 353 2609 779 3096 
Q 1206 3584 1959 3584 
z
" transform="scale(0.015625)"/>
        <path id="DejaVuSans-5b" d="M 3513 3500 
L 2247 1797 
L 3578 0 
L 2900 0 
L 1881 1375 
L 863 0 
L 184 0 
L 1544 1831 
L 300 3500 
L 978 3500 
L 1906 2253 
L 2834 3500 
L 3513 3500 
z
" transform="scale(0.015625)"/>
       </defs>
       <use xlink:href="#DejaVuSans-24"/>
       <use xlink:href="#DejaVuSans-42" transform="translate(68.40625 0)"/>
       <use xlink:href="#DejaVuSans-53" transform="translate(118.40625 0)"/>
       <use xlink:href="#DejaVuSans-55" transform="translate(181.890625 0)"/>
       <use xlink:href="#DejaVuSans-52" transform="translate(220.796875 0)"/>
       <use xlink:href="#DejaVuSans-5b" transform="translate(278.90625 0)"/>
      </g>
     </g>
    </g>
    <g id="xtick_2">
     <g id="line2d_2"/>
     <g id="text_2">
      <!-- A -->
      <g transform="translate(212.660874 249.597656) scale(0.1 -0.1)">
       <use xlink:href="#DejaVuSans-24"/>
      </g>
     </g>
    </g>
    <g id="xtick_3">
     <g id="line2d_3"/>
     <g id="text_3">
      <!-- B -->
      <g transform="translate(350.093688 249.597656) scale(0.1 -0.1)">
       <defs>
        <path id="DejaVuSans-25" d="M 1259 2228 
L 1259 519 
L 2272 519 
Q 2781 519 3026 730 
Q 3272 941 3272 1375 
Q 3272 1813 3026 2020 
Q 2781 2228 2272 2228 
L 1259 2228 
z
M 1259 4147 
L 1259 2741 
L 2194 2741 
Q 2656 2741 2882 2914 
Q 3109 3088 3109 3444 
Q 3109 3797 2882 3972 
Q 2656 4147 2194 4147 
L 1259 4147 
z
M 628 4666 
L 2241 4666 
Q 2963 4666 3353 4366 
Q 3744 4066 3744 3513 
Q 3744 3084 3544 2831 
Q 3344 2578 2956 2516 
Q 3422 2416 3680 2098 
Q 3938 1781 3938 1306 
Q 3938 681 3513 340 
Q 3088 0 2303 0 
L 628 0 
L 628 4666 
z
" transform="scale(0.015625)"/>
       </defs>
       <use xlink:href="#DejaVuSans-25"/>
      </g>
     </g>
    </g>
    <g id="xtick_4">
     <g id="line2d_4"/>
     <g id="text_4">
      <!-- B_prox -->
      <g transform="translate(405.370379 249.597656) scale(0.1 -0.1)">
       <use xlink:href="#DejaVuSans-25"/>
       <use xlink:href="#DejaVuSans-42" transform="translate(68.609375 0)"/>
       <use xlink:href="#DejaVuSans-53" transform="translate(118.609375 0)"/>
       <use xlink:href="#DejaVuSans-55" transform="translate(182.09375 0)"/>
       <use xlink:href="#DejaVuSans-52" transform="translate(221 0)"/>
       <use xlink:href="#DejaVuSans-5b" transform="translate(279.109375 0)"/>
      </g>
     </g>
    </g>
    <g id="xtick_5">
     <g id="line2d_5"/>
     <g id="text_5">
      <!-- ADMIX -->
      <g transform="translate(268.318297 249.597656) scale(0.1 -0.1)">
       <defs>
        <path id="DejaVuSans-27" d="M 1259 4147 
L 1259 519 
L 2022 519 
Q 2988 519 3436 956 
Q 3884 1394 3884 2338 
Q 3884 3275 3436 3711 
Q 2988 4147 2022 4147 
L 1259 4147 
z
M 628 4666 
L 1925 4666 
Q 3281 4666 3915 4102 
Q 4550 3538 4550 2338 
Q 4550 1131 3912 565 
Q 3275 0 1925 0 
L 628 0 
L 628 4666 
z
" transform="scale(0.015625)"/>
        <path id="DejaVuSans-30" d="M 628 4666 
L 1569 4666 
L 2759 1491 
L 3956 4666 
L 4897 4666 
L 4897 0 
L 4281 0 
L 4281 4097 
L 3078 897 
L 2444 897 
L 1241 4097 
L 1241 0 
L 628 0 
L 628 4666 
z
" transform="scale(0.015625)"/>
        <path id="DejaVuSans-2c" d="M 628 4666 
L 1259 4666 
L 1259 0 
L 628 0 
L 628 4666 
z
" transform="scale(0.015625)"/>
        <path id="DejaVuSans-3b" d="M 403 4666 
L 1081 4666 
L 2241 2931 
L 3406 4666 
L 4084 4666 
L 2584 2425 
L 4184 0 
L 3506 0 
L 2194 1984 
L 872 0 
L 191 0 
L 1856 2491 
L 403 4666 
z
" transform="scale(0.015625)"/>
       </defs>
       <use xlink:href="#DejaVuSans-24"/>
       <use xlink:href="#DejaVuSans-27" transform="translate(68.40625 0)"/>
       <use xlink:href="#DejaVuSans-30" transform="translate(145.40625 0)"/>
       <use xlink:href="#DejaVuSans-2c" transform="translate(231.6875 0)"/>
       <use xlink:href="#DejaVuSans-3b" transform="translate(261.1875 0)"/>
      </g>
     </g>
    </g>
   </g>
   <g id="matplotlib.axis_2">
    <g id="ytick_1">
     <g id="line2d_6">
      <defs>
       <path id="m2058d74b08" d="M 0 0 
L -3.5 0 
" style="stroke: #000000; stroke-width: 0.8"/>
      </defs>
      <g>
       <use xlink:href="#m2058d74b08" x="45.800781" y="238.5" style="stroke: #000000; stroke-width: 0.8"/>
      </g>
     </g>
     <g id="text_6">
      <!-- $\mathdefault{10^{0}}$ -->
      <g transform="translate(21.200781 243.2) scale(0.1 -0.1)">
       <defs>
        <path id="DejaVuSans-14" d="M 794 531 
L 1825 531 
L 1825 4091 
L 703 3866 
L 703 4441 
L 1819 4666 
L 2450 4666 
L 2450 531 
L 3481 531 
L 3481 0 
L 794 0 
L 794 531 
z
" transform="scale(0.015625)"/>
        <path id="DejaVuSans-13" d="M 2034 4250 
Q 1547 4250 1301 3770 
Q 1056 3291 1056 2328 
Q 1056 1369 1301 889 
Q 1547 409 2034 409 
Q 2525 409 2770 889 
Q 3016 1369 3016 2328 
Q 3016 3291 2770 3770 
Q 2525 4250 2034 4250 
z
M 2034 4750 
Q 2819 4750 3233 4129 
Q 3647 3509 3647 2328 
Q 3647 1150 3233 529 
Q 2819 -91 2034 -91 
Q 1250 -91 836 529 
Q 422 1150 422 2328 
Q 422 3509 836 4129 
Q 1250 4750 2034 4750 
z
" transform="scale(0.015625)"/>
       </defs>
       <use xlink:href="#DejaVuSans-14" transform="translate(0 0.746875)"/>
       <use xlink:href="#DejaVuSans-13" transform="translate(63.623047 0.746875)"/>
       <use xlink:href="#DejaVuSans-13" transform="translate(128.203125 42.046875) scale(0.7)"/>
      </g>
     </g>
    </g>
    <g id="ytick_2">
     <g id="line2d_7">
      <g>
       <use xlink:href="#m2058d74b08" x="45.800781" y="202.751017" style="stroke: #000000; stroke-width: 0.8"/>
      </g>
     </g>
     <g id="text_7">
      <!-- $\mathdefault{10^{1}}$ -->
      <g transform="translate(21.200781 207.401017) scale(0.1 -0.1)">
       <use xlink:href="#DejaVuSans-14" transform="translate(0 0.665625)"/>
       <use xlink:href="#DejaVuSans-13" transform="translate(63.623047 0.665625)"/>
       <use xlink:href="#DejaVuSans-14" transform="translate(128.203125 41.965625) scale(0.7)"/>
      </g>
     </g>
    </g>
    <g id="ytick_3">
     <g id="line2d_8">
      <g>
       <use xlink:href="#m2058d74b08" x="45.800781" y="167.002033" style="stroke: #000000; stroke-width: 0.8"/>
      </g>
     </g>
     <g id="text_8">
      <!-- $\mathdefault{10^{2}}$ -->
      <g transform="translate(21.200781 171.702033) scale(0.1 -0.1)">
       <defs>
        <path id="DejaVuSans-15" d="M 1228 531 
L 3431 531 
L 3431 0 
L 469 0 
L 469 531 
Q 828 903 1448 1529 
Q 2069 2156 2228 2338 
Q 2531 2678 2651 2914 
Q 2772 3150 2772 3378 
Q 2772 3750 2511 3984 
Q 2250 4219 1831 4219 
Q 1534 4219 1204 4116 
Q 875 4013 500 3803 
L 500 4441 
Q 881 4594 1212 4672 
Q 1544 4750 1819 4750 
Q 2544 4750 2975 4387 
Q 3406 4025 3406 3419 
Q 3406 3131 3298 2873 
Q 3191 2616 2906 2266 
Q 2828 2175 2409 1742 
Q 1991 1309 1228 531 
z
" transform="scale(0.015625)"/>
       </defs>
       <use xlink:href="#DejaVuSans-14" transform="translate(0 0.746875)"/>
       <use xlink:href="#DejaVuSans-13" transform="translate(63.623047 0.746875)"/>
       <use xlink:href="#DejaVuSans-15" transform="translate(128.203125 42.046875) scale(0.7)"/>
      </g>
     </g>
    </g>
    <g id="ytick_4">
     <g id="line2d_9">
      <g>
       <use xlink:href="#m2058d74b08" x="45.800781" y="131.25305" style="stroke: #000000; stroke-width: 0.8"/>
      </g>
     </g>
     <g id="text_9">
      <!-- $\mathdefault{10^{3}}$ -->
      <g transform="translate(21.200781 135.95305) scale(0.1 -0.1)">
       <defs>
        <path id="DejaVuSans-16" d="M 2597 2516 
Q 3050 2419 3304 2112 
Q 3559 1806 3559 1356 
Q 3559 666 3084 287 
Q 2609 -91 1734 -91 
Q 1441 -91 1130 -33 
Q 819 25 488 141 
L 488 750 
Q 750 597 1062 519 
Q 1375 441 1716 441 
Q 2309 441 2620 675 
Q 2931 909 2931 1356 
Q 2931 1769 2642 2001 
Q 2353 2234 1838 2234 
L 1294 2234 
L 1294 2753 
L 1863 2753 
Q 2328 2753 2575 2939 
Q 2822 3125 2822 3475 
Q 2822 3834 2567 4026 
Q 2313 4219 1838 4219 
Q 1578 4219 1281 4162 
Q 984 4106 628 3988 
L 628 4550 
Q 988 4650 1302 4700 
Q 1616 4750 1894 4750 
Q 2613 4750 3031 4423 
Q 3450 4097 3450 3541 
Q 3450 3153 3228 2886 
Q 3006 2619 2597 2516 
z
" transform="scale(0.015625)"/>
       </defs>
       <use xlink:href="#DejaVuSans-14" transform="translate(0 0.746875)"/>
       <use xlink:href="#DejaVuSans-13" transform="translate(63.623047 0.746875)"/>
       <use xlink:href="#DejaVuSans-16" transform="translate(128.203125 42.046875) scale(0.7)"/>
      </g>
     </g>
    </g>
    <g id="ytick_5">
     <g id="line2d_10">
      <g>
       <use xlink:href="#m2058d74b08" x="45.800781" y="95.504067" style="stroke: #000000; stroke-width: 0.8"/>
      </g>
     </g>
     <g id="text_10">
      <!-- $\mathdefault{10^{4}}$ -->
      <g transform="translate(21.200781 100.154067) scale(0.1 -0.1)">
       <defs>
        <path id="DejaVuSans-17" d="M 2419 4116 
L 825 1625 
L 2419 1625 
L 2419 4116 
z
M 2253 4666 
L 3047 4666 
L 3047 1625 
L 3713 1625 
L 3713 1100 
L 3047 1100 
L 3047 0 
L 2419 0 
L 2419 1100 
L 313 1100 
L 313 1709 
L 2253 4666 
z
" transform="scale(0.015625)"/>
       </defs>
       <use xlink:href="#DejaVuSans-14" transform="translate(0 0.665625)"/>
       <use xlink:href="#DejaVuSans-13" transform="translate(63.623047 0.665625)"/>
       <use xlink:href="#DejaVuSans-17" transform="translate(128.203125 41.965625) scale(0.7)"/>
      </g>
     </g>
    </g>
    <g id="ytick_6">
     <g id="line2d_11">
      <g>
       <use xlink:href="#m2058d74b08" x="45.800781" y="59.755083" style="stroke: #000000; stroke-width: 0.8"/>
      </g>
     </g>
     <g id="text_11">
      <!-- $\mathdefault{10^{5}}$ -->
      <g transform="translate(21.200781 64.405083) scale(0.1 -0.1)">
       <defs>
        <path id="DejaVuSans-18" d="M 691 4666 
L 3169 4666 
L 3169 4134 
L 1269 4134 
L 1269 2991 
Q 1406 3038 1543 3061 
Q 1681 3084 1819 3084 
Q 2600 3084 3056 2656 
Q 3513 2228 3513 1497 
Q 3513 744 3044 326 
Q 2575 -91 1722 -91 
Q 1428 -91 1123 -41 
Q 819 9 494 109 
L 494 744 
Q 775 591 1075 516 
Q 1375 441 1709 441 
Q 2250 441 2565 725 
Q 2881 1009 2881 1497 
Q 2881 1984 2565 2268 
Q 2250 2553 1709 2553 
Q 1456 2553 1204 2497 
Q 953 2441 691 2322 
L 691 4666 
z
" transform="scale(0.015625)"/>
       </defs>
       <use xlink:href="#DejaVuSans-14" transform="translate(0 0.665625)"/>
       <use xlink:href="#DejaVuSans-13" transform="translate(63.623047 0.665625)"/>
       <use xlink:href="#DejaVuSans-18" transform="translate(128.203125 41.965625) scale(0.7)"/>
      </g>
     </g>
    </g>
    <g id="ytick_7">
     <g id="line2d_12">
      <g>
       <use xlink:href="#m2058d74b08" x="45.800781" y="24.0061" style="stroke: #000000; stroke-width: 0.8"/>
      </g>
     </g>
     <g id="text_12">
      <!-- $\mathdefault{10^{6}}$ -->
      <g transform="translate(21.200781 28.7061) scale(0.1 -0.1)">
       <defs>
        <path id="DejaVuSans-19" d="M 2113 2584 
Q 1688 2584 1439 2293 
Q 1191 2003 1191 1497 
Q 1191 994 1439 701 
Q 1688 409 2113 409 
Q 2538 409 2786 701 
Q 3034 994 3034 1497 
Q 3034 2003 2786 2293 
Q 2538 2584 2113 2584 
z
M 3366 4563 
L 3366 3988 
Q 3128 4100 2886 4159 
Q 2644 4219 2406 4219 
Q 1781 4219 1451 3797 
Q 1122 3375 1075 2522 
Q 1259 2794 1537 2939 
Q 1816 3084 2150 3084 
Q 2853 3084 3261 2657 
Q 3669 2231 3669 1497 
Q 3669 778 3244 343 
Q 2819 -91 2113 -91 
Q 1303 -91 875 529 
Q 447 1150 447 2328 
Q 447 3434 972 4092 
Q 1497 4750 2381 4750 
Q 2619 4750 2861 4703 
Q 3103 4656 3366 4563 
z
" transform="scale(0.015625)"/>
       </defs>
       <use xlink:href="#DejaVuSans-14" transform="translate(0 0.746875)"/>
       <use xlink:href="#DejaVuSans-13" transform="translate(63.623047 0.746875)"/>
       <use xlink:href="#DejaVuSans-19" transform="translate(128.203125 42.046875) scale(0.7)"/>
      </g>
     </g>
    </g>
    <g id="ytick_8">
     <g id="line2d_13">
      <defs>
       <path id="me0e19800f4" d="M 0 0 
L -2 0 
" style="stroke: #000000; stroke-width: 0.6"/>
      </defs>
      <g>
       <use xlink:href="#me0e19800f4" x="45.800781" y="227.738484" style="stroke: #000000; stroke-width: 0.6"/>
      </g>
     </g>
    </g>
    <g id="ytick_9">
     <g id="line2d_14">
      <g>
       <use xlink:href="#me0e19800f4" x="45.800781" y="221.4434" style="stroke: #000000; stroke-width: 0.6"/>
      </g>
     </g>
    </g>
    <g id="ytick_10">
     <g id="line2d_15">
      <g>
       <use xlink:href="#me0e19800f4" x="45.800781" y="216.976967" style="stroke: #000000; stroke-width: 0.6"/>
      </g>
     </g>
    </g>
    <g id="ytick_11">
     <g id="line2d_16">
      <g>
       <use xlink:href="#me0e19800f4" x="45.800781" y="213.512533" style="stroke: #000000; stroke-width: 0.6"/>
      </g>
     </g>
    </g>
    <g id="ytick_12">
     <g id="line2d_17">
      <g>
       <use xlink:href="#me0e19800f4" x="45.800781" y="210.681884" style="stroke: #000000; stroke-width: 0.6"/>
      </g>
     </g>
    </g>
    <g id="ytick_13">
     <g id="line2d_18">
      <g>
       <use xlink:href="#me0e19800f4" x="45.800781" y="208.288604" style="stroke: #000000; stroke-width: 0.6"/>
      </g>
     </g>
    </g>
    <g id="ytick_14">
     <g id="line2d_19">
      <g>
       <use xlink:href="#me0e19800f4" x="45.800781" y="206.215451" style="stroke: #000000; stroke-width: 0.6"/>
      </g>
     </g>
    </g>
    <g id="ytick_15">
     <g id="line2d_20">
      <g>
       <use xlink:href="#me0e19800f4" x="45.800781" y="204.3868" style="stroke: #000000; stroke-width: 0.6"/>
      </g>
     </g>
    </g>
    <g id="ytick_16">
     <g id="line2d_21">
      <g>
       <use xlink:href="#me0e19800f4" x="45.800781" y="191.9895" style="stroke: #000000; stroke-width: 0.6"/>
      </g>
     </g>
    </g>
    <g id="ytick_17">
     <g id="line2d_22">
      <g>
       <use xlink:href="#me0e19800f4" x="45.800781" y="185.694417" style="stroke: #000000; stroke-width: 0.6"/>
      </g>
     </g>
    </g>
    <g id="ytick_18">
     <g id="line2d_23">
      <g>
       <use xlink:href="#me0e19800f4" x="45.800781" y="181.227984" style="stroke: #000000; stroke-width: 0.6"/>
      </g>
     </g>
    </g>
    <g id="ytick_19">
     <g id="line2d_24">
      <g>
       <use xlink:href="#me0e19800f4" x="45.800781" y="177.76355" style="stroke: #000000; stroke-width: 0.6"/>
      </g>
     </g>
    </g>
    <g id="ytick_20">
     <g id="line2d_25">
      <g>
       <use xlink:href="#me0e19800f4" x="45.800781" y="174.932901" style="stroke: #000000; stroke-width: 0.6"/>
      </g>
     </g>
    </g>
    <g id="ytick_21">
     <g id="line2d_26">
      <g>
       <use xlink:href="#me0e19800f4" x="45.800781" y="172.539621" style="stroke: #000000; stroke-width: 0.6"/>
      </g>
     </g>
    </g>
    <g id="ytick_22">
     <g id="line2d_27">
      <g>
       <use xlink:href="#me0e19800f4" x="45.800781" y="170.466468" style="stroke: #000000; stroke-width: 0.6"/>
      </g>
     </g>
    </g>
    <g id="ytick_23">
     <g id="line2d_28">
      <g>
       <use xlink:href="#me0e19800f4" x="45.800781" y="168.637817" style="stroke: #000000; stroke-width: 0.6"/>
      </g>
     </g>
    </g>
    <g id="ytick_24">
     <g id="line2d_29">
      <g>
       <use xlink:href="#me0e19800f4" x="45.800781" y="156.240517" style="stroke: #000000; stroke-width: 0.6"/>
      </g>
     </g>
    </g>
    <g id="ytick_25">
     <g id="line2d_30">
      <g>
       <use xlink:href="#me0e19800f4" x="45.800781" y="149.945434" style="stroke: #000000; stroke-width: 0.6"/>
      </g>
     </g>
    </g>
    <g id="ytick_26">
     <g id="line2d_31">
      <g>
       <use xlink:href="#me0e19800f4" x="45.800781" y="145.479001" style="stroke: #000000; stroke-width: 0.6"/>
      </g>
     </g>
    </g>
    <g id="ytick_27">
     <g id="line2d_32">
      <g>
       <use xlink:href="#me0e19800f4" x="45.800781" y="142.014566" style="stroke: #000000; stroke-width: 0.6"/>
      </g>
     </g>
    </g>
    <g id="ytick_28">
     <g id="line2d_33">
      <g>
       <use xlink:href="#me0e19800f4" x="45.800781" y="139.183917" style="stroke: #000000; stroke-width: 0.6"/>
      </g>
     </g>
    </g>
    <g id="ytick_29">
     <g id="line2d_34">
      <g>
       <use xlink:href="#me0e19800f4" x="45.800781" y="136.790638" style="stroke: #000000; stroke-width: 0.6"/>
      </g>
     </g>
    </g>
    <g id="ytick_30">
     <g id="line2d_35">
      <g>
       <use xlink:href="#me0e19800f4" x="45.800781" y="134.717485" style="stroke: #000000; stroke-width: 0.6"/>
      </g>
     </g>
    </g>
    <g id="ytick_31">
     <g id="line2d_36">
      <g>
       <use xlink:href="#me0e19800f4" x="45.800781" y="132.888834" style="stroke: #000000; stroke-width: 0.6"/>
      </g>
     </g>
    </g>
    <g id="ytick_32">
     <g id="line2d_37">
      <g>
       <use xlink:href="#me0e19800f4" x="45.800781" y="120.491534" style="stroke: #000000; stroke-width: 0.6"/>
      </g>
     </g>
    </g>
    <g id="ytick_33">
     <g id="line2d_38">
      <g>
       <use xlink:href="#me0e19800f4" x="45.800781" y="114.19645" style="stroke: #000000; stroke-width: 0.6"/>
      </g>
     </g>
    </g>
    <g id="ytick_34">
     <g id="line2d_39">
      <g>
       <use xlink:href="#me0e19800f4" x="45.800781" y="109.730018" style="stroke: #000000; stroke-width: 0.6"/>
      </g>
     </g>
    </g>
    <g id="ytick_35">
     <g id="line2d_40">
      <g>
       <use xlink:href="#me0e19800f4" x="45.800781" y="106.265583" style="stroke: #000000; stroke-width: 0.6"/>
      </g>
     </g>
    </g>
    <g id="ytick_36">
     <g id="line2d_41">
      <g>
       <use xlink:href="#me0e19800f4" x="45.800781" y="103.434934" style="stroke: #000000; stroke-width: 0.6"/>
      </g>
     </g>
    </g>
    <g id="ytick_37">
     <g id="line2d_42">
      <g>
       <use xlink:href="#me0e19800f4" x="45.800781" y="101.041654" style="stroke: #000000; stroke-width: 0.6"/>
      </g>
     </g>
    </g>
    <g id="ytick_38">
     <g id="line2d_43">
      <g>
       <use xlink:href="#me0e19800f4" x="45.800781" y="98.968501" style="stroke: #000000; stroke-width: 0.6"/>
      </g>
     </g>
    </g>
    <g id="ytick_39">
     <g id="line2d_44">
      <g>
       <use xlink:href="#me0e19800f4" x="45.800781" y="97.139851" style="stroke: #000000; stroke-width: 0.6"/>
      </g>
     </g>
    </g>
    <g id="ytick_40">
     <g id="line2d_45">
      <g>
       <use xlink:href="#me0e19800f4" x="45.800781" y="84.74255" style="stroke: #000000; stroke-width: 0.6"/>
      </g>
     </g>
    </g>
    <g id="ytick_41">
     <g id="line2d_46">
      <g>
       <use xlink:href="#me0e19800f4" x="45.800781" y="78.447467" style="stroke: #000000; stroke-width: 0.6"/>
      </g>
     </g>
    </g>
    <g id="ytick_42">
     <g id="line2d_47">
      <g>
       <use xlink:href="#me0e19800f4" x="45.800781" y="73.981034" style="stroke: #000000; stroke-width: 0.6"/>
      </g>
     </g>
    </g>
    <g id="ytick_43">
     <g id="line2d_48">
      <g>
       <use xlink:href="#me0e19800f4" x="45.800781" y="70.5166" style="stroke: #000000; stroke-width: 0.6"/>
      </g>
     </g>
    </g>
    <g id="ytick_44">
     <g id="line2d_49">
      <g>
       <use xlink:href="#me0e19800f4" x="45.800781" y="67.685951" style="stroke: #000000; stroke-width: 0.6"/>
      </g>
     </g>
    </g>
    <g id="ytick_45">
     <g id="line2d_50">
      <g>
       <use xlink:href="#me0e19800f4" x="45.800781" y="65.292671" style="stroke: #000000; stroke-width: 0.6"/>
      </g>
     </g>
    </g>
    <g id="ytick_46">
     <g id="line2d_51">
      <g>
       <use xlink:href="#me0e19800f4" x="45.800781" y="63.219518" style="stroke: #000000; stroke-width: 0.6"/>
      </g>
     </g>
    </g>
    <g id="ytick_47">
     <g id="line2d_52">
      <g>
       <use xlink:href="#me0e19800f4" x="45.800781" y="61.390867" style="stroke: #000000; stroke-width: 0.6"/>
      </g>
     </g>
    </g>
    <g id="ytick_48">
     <g id="line2d_53">
      <g>
       <use xlink:href="#me0e19800f4" x="45.800781" y="48.993567" style="stroke: #000000; stroke-width: 0.6"/>
      </g>
     </g>
    </g>
    <g id="ytick_49">
     <g id="line2d_54">
      <g>
       <use xlink:href="#me0e19800f4" x="45.800781" y="42.698484" style="stroke: #000000; stroke-width: 0.6"/>
      </g>
     </g>
    </g>
    <g id="ytick_50">
     <g id="line2d_55">
      <g>
       <use xlink:href="#me0e19800f4" x="45.800781" y="38.232051" style="stroke: #000000; stroke-width: 0.6"/>
      </g>
     </g>
    </g>
    <g id="ytick_51">
     <g id="line2d_56">
      <g>
       <use xlink:href="#me0e19800f4" x="45.800781" y="34.767616" style="stroke: #000000; stroke-width: 0.6"/>
      </g>
     </g>
    </g>
    <g id="ytick_52">
     <g id="line2d_57">
      <g>
       <use xlink:href="#me0e19800f4" x="45.800781" y="31.936967" style="stroke: #000000; stroke-width: 0.6"/>
      </g>
     </g>
    </g>
    <g id="ytick_53">
     <g id="line2d_58">
      <g>
       <use xlink:href="#me0e19800f4" x="45.800781" y="29.543688" style="stroke: #000000; stroke-width: 0.6"/>
      </g>
     </g>
    </g>
    <g id="ytick_54">
     <g id="line2d_59">
      <g>
       <use xlink:href="#me0e19800f4" x="45.800781" y="27.470535" style="stroke: #000000; stroke-width: 0.6"/>
      </g>
     </g>
    </g>
    <g id="ytick_55">
     <g id="line2d_60">
      <g>
       <use xlink:href="#me0e19800f4" x="45.800781" y="25.641884" style="stroke: #000000; stroke-width: 0.6"/>
      </g>
     </g>
    </g>
    <g id="ytick_56">
     <g id="line2d_61">
      <g>
       <use xlink:href="#me0e19800f4" x="45.800781" y="13.244584" style="stroke: #000000; stroke-width: 0.6"/>
      </g>
     </g>
    </g>
    <g id="text_13">
     <!-- time ago (generations) -->
     <g transform="translate(14.798438 180.321094) rotate(-90) scale(0.1 -0.1)">
      <defs>
       <path id="DejaVuSans-57" d="M 1172 4494 
L 1172 3500 
L 2356 3500 
L 2356 3053 
L 1172 3053 
L 1172 1153 
Q 1172 725 1289 603 
Q 1406 481 1766 481 
L 2356 481 
L 2356 0 
L 1766 0 
Q 1100 0 847 248 
Q 594 497 594 1153 
L 594 3053 
L 172 3053 
L 172 3500 
L 594 3500 
L 594 4494 
L 1172 4494 
z
" transform="scale(0.015625)"/>
       <path id="DejaVuSans-4c" d="M 603 3500 
L 1178 3500 
L 1178 0 
L 603 0 
L 603 3500 
z
M 603 4863 
L 1178 4863 
L 1178 4134 
L 603 4134 
L 603 4863 
z
" transform="scale(0.015625)"/>
       <path id="DejaVuSans-50" d="M 3328 2828 
Q 3544 3216 3844 3400 
Q 4144 3584 4550 3584 
Q 5097 3584 5394 3201 
Q 5691 2819 5691 2113 
L 5691 0 
L 5113 0 
L 5113 2094 
Q 5113 2597 4934 2840 
Q 4756 3084 4391 3084 
Q 3944 3084 3684 2787 
Q 3425 2491 3425 1978 
L 3425 0 
L 2847 0 
L 2847 2094 
Q 2847 2600 2669 2842 
Q 2491 3084 2119 3084 
Q 1678 3084 1418 2786 
Q 1159 2488 1159 1978 
L 1159 0 
L 581 0 
L 581 3500 
L 1159 3500 
L 1159 2956 
Q 1356 3278 1631 3431 
Q 1906 3584 2284 3584 
Q 2666 3584 2933 3390 
Q 3200 3197 3328 2828 
z
" transform="scale(0.015625)"/>
       <path id="DejaVuSans-48" d="M 3597 1894 
L 3597 1613 
L 953 1613 
Q 991 1019 1311 708 
Q 1631 397 2203 397 
Q 2534 397 2845 478 
Q 3156 559 3463 722 
L 3463 178 
Q 3153 47 2828 -22 
Q 2503 -91 2169 -91 
Q 1331 -91 842 396 
Q 353 884 353 1716 
Q 353 2575 817 3079 
Q 1281 3584 2069 3584 
Q 2775 3584 3186 3129 
Q 3597 2675 3597 1894 
z
M 3022 2063 
Q 3016 2534 2758 2815 
Q 2500 3097 2075 3097 
Q 1594 3097 1305 2825 
Q 1016 2553 972 2059 
L 3022 2063 
z
" transform="scale(0.015625)"/>
       <path id="DejaVuSans-3" transform="scale(0.015625)"/>
       <path id="DejaVuSans-44" d="M 2194 1759 
Q 1497 1759 1228 1600 
Q 959 1441 959 1056 
Q 959 750 1161 570 
Q 1363 391 1709 391 
Q 2188 391 2477 730 
Q 2766 1069 2766 1631 
L 2766 1759 
L 2194 1759 
z
M 3341 1997 
L 3341 0 
L 2766 0 
L 2766 531 
Q 2569 213 2275 61 
Q 1981 -91 1556 -91 
Q 1019 -91 701 211 
Q 384 513 384 1019 
Q 384 1609 779 1909 
Q 1175 2209 1959 2209 
L 2766 2209 
L 2766 2266 
Q 2766 2663 2505 2880 
Q 2244 3097 1772 3097 
Q 1472 3097 1187 3025 
Q 903 2953 641 2809 
L 641 3341 
Q 956 3463 1253 3523 
Q 1550 3584 1831 3584 
Q 2591 3584 2966 3190 
Q 3341 2797 3341 1997 
z
" transform="scale(0.015625)"/>
       <path id="DejaVuSans-4a" d="M 2906 1791 
Q 2906 2416 2648 2759 
Q 2391 3103 1925 3103 
Q 1463 3103 1205 2759 
Q 947 2416 947 1791 
Q 947 1169 1205 825 
Q 1463 481 1925 481 
Q 2391 481 2648 825 
Q 2906 1169 2906 1791 
z
M 3481 434 
Q 3481 -459 3084 -895 
Q 2688 -1331 1869 -1331 
Q 1566 -1331 1297 -1286 
Q 1028 -1241 775 -1147 
L 775 -588 
Q 1028 -725 1275 -790 
Q 1522 -856 1778 -856 
Q 2344 -856 2625 -561 
Q 2906 -266 2906 331 
L 2906 616 
Q 2728 306 2450 153 
Q 2172 0 1784 0 
Q 1141 0 747 490 
Q 353 981 353 1791 
Q 353 2603 747 3093 
Q 1141 3584 1784 3584 
Q 2172 3584 2450 3431 
Q 2728 3278 2906 2969 
L 2906 3500 
L 3481 3500 
L 3481 434 
z
" transform="scale(0.015625)"/>
       <path id="DejaVuSans-b" d="M 1984 4856 
Q 1566 4138 1362 3434 
Q 1159 2731 1159 2009 
Q 1159 1288 1364 580 
Q 1569 -128 1984 -844 
L 1484 -844 
Q 1016 -109 783 600 
Q 550 1309 550 2009 
Q 550 2706 781 3412 
Q 1013 4119 1484 4856 
L 1984 4856 
z
" transform="scale(0.015625)"/>
       <path id="DejaVuSans-51" d="M 3513 2113 
L 3513 0 
L 2938 0 
L 2938 2094 
Q 2938 2591 2744 2837 
Q 2550 3084 2163 3084 
Q 1697 3084 1428 2787 
Q 1159 2491 1159 1978 
L 1159 0 
L 581 0 
L 581 3500 
L 1159 3500 
L 1159 2956 
Q 1366 3272 1645 3428 
Q 1925 3584 2291 3584 
Q 2894 3584 3203 3211 
Q 3513 2838 3513 2113 
z
" transform="scale(0.015625)"/>
       <path id="DejaVuSans-56" d="M 2834 3397 
L 2834 2853 
Q 2591 2978 2328 3040 
Q 2066 3103 1784 3103 
Q 1356 3103 1142 2972 
Q 928 2841 928 2578 
Q 928 2378 1081 2264 
Q 1234 2150 1697 2047 
L 1894 2003 
Q 2506 1872 2764 1633 
Q 3022 1394 3022 966 
Q 3022 478 2636 193 
Q 2250 -91 1575 -91 
Q 1294 -91 989 -36 
Q 684 19 347 128 
L 347 722 
Q 666 556 975 473 
Q 1284 391 1588 391 
Q 1994 391 2212 530 
Q 2431 669 2431 922 
Q 2431 1156 2273 1281 
Q 2116 1406 1581 1522 
L 1381 1569 
Q 847 1681 609 1914 
Q 372 2147 372 2553 
Q 372 3047 722 3315 
Q 1072 3584 1716 3584 
Q 2034 3584 2315 3537 
Q 2597 3491 2834 3397 
z
" transform="scale(0.015625)"/>
       <path id="DejaVuSans-c" d="M 513 4856 
L 1013 4856 
Q 1481 4119 1714 3412 
Q 1947 2706 1947 2009 
Q 1947 1309 1714 600 
Q 1481 -109 1013 -844 
L 513 -844 
Q 928 -128 1133 580 
Q 1338 1288 1338 2009 
Q 1338 2731 1133 3434 
Q 928 4138 513 4856 
z
" transform="scale(0.015625)"/>
      </defs>
      <use xlink:href="#DejaVuSans-57"/>
      <use xlink:href="#DejaVuSans-4c" transform="translate(39.203125 0)"/>
      <use xlink:href="#DejaVuSans-50" transform="translate(66.984375 0)"/>
      <use xlink:href="#DejaVuSans-48" transform="translate(164.390625 0)"/>
      <use xlink:href="#DejaVuSans-3" transform="translate(225.921875 0)"/>
      <use xlink:href="#DejaVuSans-44" transform="translate(257.703125 0)"/>
      <use xlink:href="#DejaVuSans-4a" transform="translate(318.984375 0)"/>
      <use xlink:href="#DejaVuSans-52" transform="translate(382.46875 0)"/>
      <use xlink:href="#DejaVuSans-3" transform="translate(443.65625 0)"/>
      <use xlink:href="#DejaVuSans-b" transform="translate(475.4375 0)"/>
      <use xlink:href="#DejaVuSans-4a" transform="translate(514.453125 0)"/>
      <use xlink:href="#DejaVuSans-48" transform="translate(577.9375 0)"/>
      <use xlink:href="#DejaVuSans-51" transform="translate(639.46875 0)"/>
      <use xlink:href="#DejaVuSans-48" transform="translate(702.84375 0)"/>
      <use xlink:href="#DejaVuSans-55" transform="translate(764.375 0)"/>
      <use xlink:href="#DejaVuSans-44" transform="translate(805.484375 0)"/>
      <use xlink:href="#DejaVuSans-57" transform="translate(866.765625 0)"/>
      <use xlink:href="#DejaVuSans-4c" transform="translate(905.96875 0)"/>
      <use xlink:href="#DejaVuSans-52" transform="translate(933.75 0)"/>
      <use xlink:href="#DejaVuSans-51" transform="translate(994.9375 0)"/>
      <use xlink:href="#DejaVuSans-56" transform="translate(1058.3125 0)"/>
      <use xlink:href="#DejaVuSans-c" transform="translate(1110.40625 0)"/>
     </g>
    </g>
   </g>
   <g id="patch_11">
    <path d="M 248.528994 53.46 
L 247.528994 53.428564 
L 246.528994 53.391623 
L 245.528994 53.293877 
L 244.528994 53.261355 
L 243.528994 53.18773 
L 242.528994 53.149165 
L 241.528994 53.113752 
L 240.528994 53.056112 
L 239.528994 52.985726 
L 238.528994 52.933761 
L 237.528994 52.874672 
L 236.528994 52.786351 
L 235.528994 52.740206 
L 234.528994 52.697795 
L 233.528994 52.667303 
L 232.528994 52.641258 
L 231.528994 52.620058 
L 230.528994 52.565757 
L 229.528994 52.537819 
L 228.528994 52.508095 
L 227.528994 52.4827 
L 226.528994 52.4715 
L 225.528994 52.461376 
L 224.528994 52.46158 
L 223.528994 52.47109 
L 222.528994 52.482744 
L 221.528994 52.513773 
L 220.528994 52.524941 
L 219.528994 52.555058 
L 218.528994 52.614835 
L 217.528994 52.652027 
L 216.528994 52.691123 
L 215.528994 52.733563 
L 214.528994 52.766328 
L 213.528994 52.833754 
L 212.528994 52.87288 
L 211.528994 52.915555 
L 210.528994 52.986135 
L 209.528994 53.022526 
L 208.528994 53.080929 
L 207.528994 53.191882 
L 206.528994 53.26254 
L 205.528994 53.37548 
L 204.528994 53.421253 
L 203.528994 53.482536 
L 202.528994 53.531035 
L 201.528994 53.611858 
L 200.528994 53.730377 
L 199.528994 53.800588 
L 198.528994 53.88385 
L 197.528994 53.916992 
L 196.528994 53.968229 
L 195.528994 54.036628 
L 194.528994 54.102843 
L 193.528994 54.17976 
L 192.528994 54.207076 
L 191.528994 54.233553 
L 190.528994 54.256204 
L 189.528994 54.275735 
L 188.528994 54.302129 
L 187.528994 54.3519 
L 186.528994 54.386973 
L 185.528994 54.422839 
L 184.528994 54.438206 
L 183.528994 54.453975 
L 182.528994 54.457388 
L 181.528994 54.459805 
L 180.528994 54.459319 
L 179.528994 54.45739 
L 178.528994 54.444133 
L 177.528994 54.435742 
L 176.528994 54.414206 
L 175.528994 54.391173 
L 174.528994 54.37394 
L 173.528994 54.355477 
L 172.528994 54.335025 
L 170.642735 54.318425 
" clip-path="url(#pa4c28c36e3)" style="fill: none; stroke: #ffffff; stroke-width: 3; stroke-linecap: round"/>
    <path d="M 248.528994 53.46 
L 247.528994 53.428564 
L 246.528994 53.391623 
L 245.528994 53.293877 
L 244.528994 53.261355 
L 243.528994 53.18773 
L 242.528994 53.149165 
L 241.528994 53.113752 
L 240.528994 53.056112 
L 239.528994 52.985726 
L 238.528994 52.933761 
L 237.528994 52.874672 
L 236.528994 52.786351 
L 235.528994 52.740206 
L 234.528994 52.697795 
L 233.528994 52.667303 
L 232.528994 52.641258 
L 231.528994 52.620058 
L 230.528994 52.565757 
L 229.528994 52.537819 
L 228.528994 52.508095 
L 227.528994 52.4827 
L 226.528994 52.4715 
L 225.528994 52.461376 
L 224.528994 52.46158 
L 223.528994 52.47109 
L 222.528994 52.482744 
L 221.528994 52.513773 
L 220.528994 52.524941 
L 219.528994 52.555058 
L 218.528994 52.614835 
L 217.528994 52.652027 
L 216.528994 52.691123 
L 215.528994 52.733563 
L 214.528994 52.766328 
L 213.528994 52.833754 
L 212.528994 52.87288 
L 211.528994 52.915555 
L 210.528994 52.986135 
L 209.528994 53.022526 
L 208.528994 53.080929 
L 207.528994 53.191882 
L 206.528994 53.26254 
L 205.528994 53.37548 
L 204.528994 53.421253 
L 203.528994 53.482536 
L 202.528994 53.531035 
L 201.528994 53.611858 
L 200.528994 53.730377 
L 199.528994 53.800588 
L 198.528994 53.88385 
L 197.528994 53.916992 
L 196.528994 53.968229 
L 195.528994 54.036628 
L 194.528994 54.102843 
L 193.528994 54.17976 
L 192.528994 54.207076 
L 191.528994 54.233553 
L 190.528994 54.256204 
L 189.528994 54.275735 
L 188.528994 54.302129 
L 187.528994 54.3519 
L 186.528994 54.386973 
L 185.528994 54.422839 
L 184.528994 54.438206 
L 183.528994 54.453975 
L 182.528994 54.457388 
L 181.528994 54.459805 
L 180.528994 54.459319 
L 179.528994 54.45739 
L 178.528994 54.444133 
L 177.528994 54.435742 
L 176.528994 54.414206 
L 175.528994 54.391173 
L 174.528994 54.37394 
L 173.528994 54.355477 
L 172.528994 54.335025 
L 170.642735 54.318425 
" clip-path="url(#pa4c28c36e3)" style="fill: none; stroke: #2ca02c; stroke-linecap: round"/>
    <path d="M 174.642735 55.46 
L 173.762367 54.984669 
L 172.88446 54.504415 
L 172.033746 53.969774 
L 170.731572 53.282327 
L 171.658925 53.256312 
L 172.570599 52.843592 
L 173.480864 52.428053 
L 174.82336 51.821249 
L 174.168461 52.46 
L 174.116497 53.46 
L 174.057407 55.46 
z
" clip-path="url(#pa4c28c36e3)" style="fill: #ffffff; stroke: #ffffff; stroke-width: 3; stroke-linecap: round"/>
    <path d="M 174.642735 55.46 
L 173.762367 54.984669 
L 172.88446 54.504415 
L 172.033746 53.969774 
L 170.731572 53.282327 
L 171.658925 53.256312 
L 172.570599 52.843592 
L 173.480864 52.428053 
L 174.82336 51.821249 
L 174.168461 52.46 
L 174.116497 53.46 
L 174.057407 55.46 
z
" clip-path="url(#pa4c28c36e3)" style="fill: #ffffff; stroke: #2ca02c; stroke-linecap: round"/>
   </g>
   <g id="patch_12">
    <path d="M 288.774069 53.46 
L 289.774069 53.491436 
L 290.774069 53.528377 
L 291.774069 53.626123 
L 292.774069 53.658645 
L 293.774069 53.73227 
L 294.774069 53.770835 
L 295.774069 53.806248 
L 296.774069 53.863888 
L 297.774069 53.934274 
L 298.774069 53.986239 
L 299.774069 54.045328 
L 300.774069 54.133649 
L 301.774069 54.179794 
L 302.774069 54.222205 
L 303.774069 54.252697 
L 304.774069 54.278742 
L 305.774069 54.299942 
L 306.774069 54.354243 
L 307.774069 54.382181 
L 308.774069 54.411905 
L 309.774069 54.4373 
L 310.774069 54.4485 
L 311.774069 54.458624 
L 312.774069 54.45842 
L 313.774069 54.44891 
L 314.774069 54.437256 
L 315.774069 54.406227 
L 316.774069 54.395059 
L 317.774069 54.364942 
L 318.774069 54.305165 
L 319.774069 54.267973 
L 320.774069 54.228877 
L 321.774069 54.186437 
L 322.774069 54.153672 
L 323.774069 54.086246 
L 324.774069 54.04712 
L 325.774069 54.004445 
L 326.774069 53.933865 
L 327.774069 53.897474 
L 328.774069 53.839071 
L 329.774069 53.728118 
L 330.774069 53.65746 
L 331.774069 53.54452 
L 332.774069 53.498747 
L 333.774069 53.437464 
L 334.774069 53.388965 
L 335.774069 53.308142 
L 336.774069 53.189623 
L 337.774069 53.119412 
L 338.774069 53.03615 
L 339.774069 53.003008 
L 340.774069 52.951771 
L 341.774069 52.883372 
L 342.774069 52.817157 
L 343.774069 52.74024 
L 344.774069 52.712924 
L 345.774069 52.686447 
L 346.774069 52.663796 
L 347.774069 52.644265 
L 348.774069 52.617871 
L 349.774069 52.5681 
L 350.774069 52.533027 
L 351.774069 52.497161 
L 352.774069 52.481794 
L 353.774069 52.466025 
L 354.774069 52.462612 
L 355.774069 52.460195 
L 356.774069 52.460681 
L 357.774069 52.46261 
L 358.774069 52.475867 
L 359.774069 52.484258 
L 360.774069 52.505794 
L 361.774069 52.528827 
L 362.774069 52.54606 
L 363.774069 52.564523 
L 364.774069 52.584975 
L 366.660327 52.601575 
" clip-path="url(#pa4c28c36e3)" style="fill: none; stroke: #ffffff; stroke-width: 3; stroke-linecap: round"/>
    <path d="M 288.774069 53.46 
L 289.774069 53.491436 
L 290.774069 53.528377 
L 291.774069 53.626123 
L 292.774069 53.658645 
L 293.774069 53.73227 
L 294.774069 53.770835 
L 295.774069 53.806248 
L 296.774069 53.863888 
L 297.774069 53.934274 
L 298.774069 53.986239 
L 299.774069 54.045328 
L 300.774069 54.133649 
L 301.774069 54.179794 
L 302.774069 54.222205 
L 303.774069 54.252697 
L 304.774069 54.278742 
L 305.774069 54.299942 
L 306.774069 54.354243 
L 307.774069 54.382181 
L 308.774069 54.411905 
L 309.774069 54.4373 
L 310.774069 54.4485 
L 311.774069 54.458624 
L 312.774069 54.45842 
L 313.774069 54.44891 
L 314.774069 54.437256 
L 315.774069 54.406227 
L 316.774069 54.395059 
L 317.774069 54.364942 
L 318.774069 54.305165 
L 319.774069 54.267973 
L 320.774069 54.228877 
L 321.774069 54.186437 
L 322.774069 54.153672 
L 323.774069 54.086246 
L 324.774069 54.04712 
L 325.774069 54.004445 
L 326.774069 53.933865 
L 327.774069 53.897474 
L 328.774069 53.839071 
L 329.774069 53.728118 
L 330.774069 53.65746 
L 331.774069 53.54452 
L 332.774069 53.498747 
L 333.774069 53.437464 
L 334.774069 53.388965 
L 335.774069 53.308142 
L 336.774069 53.189623 
L 337.774069 53.119412 
L 338.774069 53.03615 
L 339.774069 53.003008 
L 340.774069 52.951771 
L 341.774069 52.883372 
L 342.774069 52.817157 
L 343.774069 52.74024 
L 344.774069 52.712924 
L 345.774069 52.686447 
L 346.774069 52.663796 
L 347.774069 52.644265 
L 348.774069 52.617871 
L 349.774069 52.5681 
L 350.774069 52.533027 
L 351.774069 52.497161 
L 352.774069 52.481794 
L 353.774069 52.466025 
L 354.774069 52.462612 
L 355.774069 52.460195 
L 356.774069 52.460681 
L 357.774069 52.46261 
L 358.774069 52.475867 
L 359.774069 52.484258 
L 360.774069 52.505794 
L 361.774069 52.528827 
L 362.774069 52.54606 
L 363.774069 52.564523 
L 364.774069 52.584975 
L 366.660327 52.601575 
" clip-path="url(#pa4c28c36e3)" style="fill: none; stroke: #2ca02c; stroke-linecap: round"/>
    <path d="M 362.660327 51.46 
L 363.540695 51.935331 
L 364.418602 52.415585 
L 365.269316 52.950226 
L 366.57149 53.637673 
L 365.644137 53.663688 
L 364.732463 54.076408 
L 363.822199 54.491947 
L 362.479703 55.098751 
L 363.134602 54.46 
L 363.186566 53.46 
L 363.245656 51.46 
z
" clip-path="url(#pa4c28c36e3)" style="fill: #ffffff; stroke: #ffffff; stroke-width: 3; stroke-linecap: round"/>
    <path d="M 362.660327 51.46 
L 363.540695 51.935331 
L 364.418602 52.415585 
L 365.269316 52.950226 
L 366.57149 53.637673 
L 365.644137 53.663688 
L 364.732463 54.076408 
L 363.822199 54.491947 
L 362.479703 55.098751 
L 363.134602 54.46 
L 363.186566 53.46 
L 363.245656 51.46 
z
" clip-path="url(#pa4c28c36e3)" style="fill: #ffffff; stroke: #2ca02c; stroke-linecap: round"/>
   </g>
   <g id="patch_13">
    <path d="M 129.27197 70.5166 
L 128.27197 70.485163 
L 127.27197 70.448223 
L 126.27197 70.350476 
L 125.27197 70.317955 
L 124.27197 70.24433 
L 123.27197 70.205765 
L 122.27197 70.170351 
L 121.27197 70.112711 
L 120.27197 70.042325 
L 119.27197 69.990361 
L 118.27197 69.931271 
L 117.27197 69.84295 
L 116.27197 69.796806 
L 115.27197 69.754395 
L 114.27197 69.723902 
L 113.27197 69.697857 
L 112.27197 69.676657 
L 111.27197 69.622356 
L 110.27197 69.594419 
L 109.27197 69.564695 
L 108.27197 69.5393 
L 107.27197 69.5281 
L 106.27197 69.517976 
L 105.27197 69.51818 
L 103.960128 69.52769 
" clip-path="url(#pa4c28c36e3)" style="fill: none; stroke: #ffffff; stroke-width: 3; stroke-linecap: round"/>
    <path d="M 129.27197 70.5166 
L 128.27197 70.485163 
L 127.27197 70.448223 
L 126.27197 70.350476 
L 125.27197 70.317955 
L 124.27197 70.24433 
L 123.27197 70.205765 
L 122.27197 70.170351 
L 121.27197 70.112711 
L 120.27197 70.042325 
L 119.27197 69.990361 
L 118.27197 69.931271 
L 117.27197 69.84295 
L 116.27197 69.796806 
L 115.27197 69.754395 
L 114.27197 69.723902 
L 113.27197 69.697857 
L 112.27197 69.676657 
L 111.27197 69.622356 
L 110.27197 69.594419 
L 109.27197 69.564695 
L 108.27197 69.5393 
L 107.27197 69.5281 
L 106.27197 69.517976 
L 105.27197 69.51818 
L 103.960128 69.52769 
" clip-path="url(#pa4c28c36e3)" style="fill: none; stroke: #808080; stroke-linecap: round"/>
    <path d="M 107.960128 72.5166 
L 107.07976 72.041269 
L 106.201853 71.561015 
L 105.351139 71.026374 
L 104.048965 70.338926 
L 104.976318 70.312911 
L 105.887993 69.900192 
L 106.798257 69.484653 
L 108.140753 68.877848 
L 107.485854 69.5166 
L 107.43389 70.5166 
L 107.3748 72.5166 
z
" clip-path="url(#pa4c28c36e3)" style="fill: #ffffff; stroke: #ffffff; stroke-width: 3; stroke-linecap: round"/>
    <path d="M 107.960128 72.5166 
L 107.07976 72.041269 
L 106.201853 71.561015 
L 105.351139 71.026374 
L 104.048965 70.338926 
L 104.976318 70.312911 
L 105.887993 69.900192 
L 106.798257 69.484653 
L 108.140753 68.877848 
L 107.485854 69.5166 
L 107.43389 70.5166 
L 107.3748 72.5166 
z
" clip-path="url(#pa4c28c36e3)" style="fill: #ffffff; stroke: #808080; stroke-linecap: round"/>
   </g>
   <g id="patch_14">
    <path d="M 169.524775 70.5166 
L 170.524775 70.548036 
L 171.524775 70.584977 
L 172.524775 70.682723 
L 173.524775 70.715245 
L 174.524775 70.788869 
L 175.524775 70.827435 
L 176.524775 70.862848 
L 177.524775 70.920488 
L 178.524775 70.990874 
L 179.524775 71.042838 
L 180.524775 71.101928 
L 181.524775 71.190249 
L 182.524775 71.236393 
L 183.524775 71.278804 
L 184.524775 71.309297 
L 185.524775 71.335342 
L 186.524775 71.356542 
L 187.524775 71.410843 
L 188.524775 71.438781 
L 189.524775 71.468505 
L 190.524775 71.4939 
L 191.524775 71.5051 
L 192.524775 71.515224 
L 193.524775 71.51502 
L 194.836617 71.50551 
" clip-path="url(#pa4c28c36e3)" style="fill: none; stroke: #ffffff; stroke-width: 3; stroke-linecap: round"/>
    <path d="M 169.524775 70.5166 
L 170.524775 70.548036 
L 171.524775 70.584977 
L 172.524775 70.682723 
L 173.524775 70.715245 
L 174.524775 70.788869 
L 175.524775 70.827435 
L 176.524775 70.862848 
L 177.524775 70.920488 
L 178.524775 70.990874 
L 179.524775 71.042838 
L 180.524775 71.101928 
L 181.524775 71.190249 
L 182.524775 71.236393 
L 183.524775 71.278804 
L 184.524775 71.309297 
L 185.524775 71.335342 
L 186.524775 71.356542 
L 187.524775 71.410843 
L 188.524775 71.438781 
L 189.524775 71.468505 
L 190.524775 71.4939 
L 191.524775 71.5051 
L 192.524775 71.515224 
L 193.524775 71.51502 
L 194.836617 71.50551 
" clip-path="url(#pa4c28c36e3)" style="fill: none; stroke: #808080; stroke-linecap: round"/>
    <path d="M 190.836617 68.5166 
L 191.716986 68.991931 
L 192.594893 69.472185 
L 193.445606 70.006826 
L 194.747781 70.694273 
L 193.820427 70.720288 
L 192.908753 71.133007 
L 191.998489 71.548547 
L 190.655993 72.155351 
L 191.310892 71.5166 
L 191.362856 70.5166 
L 191.421946 68.5166 
z
" clip-path="url(#pa4c28c36e3)" style="fill: #ffffff; stroke: #ffffff; stroke-width: 3; stroke-linecap: round"/>
    <path d="M 190.836617 68.5166 
L 191.716986 68.991931 
L 192.594893 69.472185 
L 193.445606 70.006826 
L 194.747781 70.694273 
L 193.820427 70.720288 
L 192.908753 71.133007 
L 191.998489 71.548547 
L 190.655993 72.155351 
L 191.310892 71.5166 
L 191.362856 70.5166 
L 191.421946 68.5166 
z
" clip-path="url(#pa4c28c36e3)" style="fill: #ffffff; stroke: #808080; stroke-linecap: round"/>
   </g>
   <g id="patch_15">
    <path d="M 236.206947 142.014566 
L 237.206947 142.046003 
L 238.206947 142.082943 
L 239.206947 142.18069 
L 240.206947 142.213211 
L 241.206947 142.286836 
L 242.206947 142.325402 
L 243.206947 142.360815 
L 244.206947 142.418455 
L 245.206947 142.488841 
L 246.206947 142.540805 
L 247.206947 142.599895 
L 248.206947 142.688216 
L 249.206947 142.73436 
L 250.206947 142.776771 
L 251.206947 142.807264 
L 252.206947 142.833309 
L 253.206947 142.854509 
L 254.206947 142.90881 
L 255.206947 142.936747 
L 256.206947 142.966471 
L 257.206947 142.991866 
L 258.206947 143.003067 
L 259.206947 143.013191 
L 260.206947 143.012986 
L 261.206947 143.003476 
L 262.206947 142.991823 
L 263.563252 142.960794 
" clip-path="url(#pa4c28c36e3)" style="fill: none; stroke: #ffffff; stroke-width: 3; stroke-linecap: round"/>
    <path d="M 236.206947 142.014566 
L 237.206947 142.046003 
L 238.206947 142.082943 
L 239.206947 142.18069 
L 240.206947 142.213211 
L 241.206947 142.286836 
L 242.206947 142.325402 
L 243.206947 142.360815 
L 244.206947 142.418455 
L 245.206947 142.488841 
L 246.206947 142.540805 
L 247.206947 142.599895 
L 248.206947 142.688216 
L 249.206947 142.73436 
L 250.206947 142.776771 
L 251.206947 142.807264 
L 252.206947 142.833309 
L 253.206947 142.854509 
L 254.206947 142.90881 
L 255.206947 142.936747 
L 256.206947 142.966471 
L 257.206947 142.991866 
L 258.206947 143.003067 
L 259.206947 143.013191 
L 260.206947 143.012986 
L 261.206947 143.003476 
L 262.206947 142.991823 
L 263.563252 142.960794 
" clip-path="url(#pa4c28c36e3)" style="fill: none; stroke: #1f77b4; stroke-linecap: round"/>
    <path d="M 259.563252 140.014566 
L 260.443621 140.489898 
L 261.321528 140.970152 
L 262.172241 141.504792 
L 263.474416 142.19224 
L 262.547062 142.218255 
L 261.635388 142.630974 
L 260.725124 143.046513 
L 259.382628 143.653318 
L 260.037527 143.014566 
L 260.089491 142.014566 
L 260.148581 140.014566 
z
" clip-path="url(#pa4c28c36e3)" style="fill: #ffffff; stroke: #ffffff; stroke-width: 3; stroke-linecap: round"/>
    <path d="M 259.563252 140.014566 
L 260.443621 140.489898 
L 261.321528 140.970152 
L 262.172241 141.504792 
L 263.474416 142.19224 
L 262.547062 142.218255 
L 261.635388 142.630974 
L 260.725124 143.046513 
L 259.382628 143.653318 
L 260.037527 143.014566 
L 260.089491 142.014566 
L 260.148581 140.014566 
z
" clip-path="url(#pa4c28c36e3)" style="fill: #ffffff; stroke: #1f77b4; stroke-linecap: round"/>
   </g>
   <g id="patch_16">
    <path d="M 333.398396 142.014566 
L 332.398396 141.98313 
L 331.398396 141.94619 
L 330.398396 141.848443 
L 329.398396 141.815921 
L 328.398396 141.742297 
L 327.398396 141.703731 
L 326.398396 141.668318 
L 325.398396 141.610678 
L 324.398396 141.540292 
L 323.398396 141.488328 
L 322.398396 141.429238 
L 321.398396 141.340917 
L 320.398396 141.294773 
L 319.398396 141.252362 
L 318.398396 141.221869 
L 317.398396 141.195824 
L 316.398396 141.174624 
L 315.398396 141.120323 
L 314.398396 141.092385 
L 313.398396 141.062661 
L 312.398396 141.037267 
L 311.398396 141.026066 
L 310.398396 141.015942 
L 309.398396 141.016147 
L 308.398396 141.025656 
L 307.398396 141.03731 
L 306.042091 141.068339 
" clip-path="url(#pa4c28c36e3)" style="fill: none; stroke: #ffffff; stroke-width: 3; stroke-linecap: round"/>
    <path d="M 333.398396 142.014566 
L 332.398396 141.98313 
L 331.398396 141.94619 
L 330.398396 141.848443 
L 329.398396 141.815921 
L 328.398396 141.742297 
L 327.398396 141.703731 
L 326.398396 141.668318 
L 325.398396 141.610678 
L 324.398396 141.540292 
L 323.398396 141.488328 
L 322.398396 141.429238 
L 321.398396 141.340917 
L 320.398396 141.294773 
L 319.398396 141.252362 
L 318.398396 141.221869 
L 317.398396 141.195824 
L 316.398396 141.174624 
L 315.398396 141.120323 
L 314.398396 141.092385 
L 313.398396 141.062661 
L 312.398396 141.037267 
L 311.398396 141.026066 
L 310.398396 141.015942 
L 309.398396 141.016147 
L 308.398396 141.025656 
L 307.398396 141.03731 
L 306.042091 141.068339 
" clip-path="url(#pa4c28c36e3)" style="fill: none; stroke: #d62728; stroke-linecap: round"/>
    <path d="M 310.042091 144.014566 
L 309.161723 143.539235 
L 308.283816 143.058981 
L 307.433102 142.52434 
L 306.130928 141.836893 
L 307.058281 141.810878 
L 307.969955 141.398159 
L 308.88022 140.98262 
L 310.222716 140.375815 
L 309.567817 141.014566 
L 309.515853 142.014566 
L 309.456763 144.014566 
z
" clip-path="url(#pa4c28c36e3)" style="fill: #ffffff; stroke: #ffffff; stroke-width: 3; stroke-linecap: round"/>
    <path d="M 310.042091 144.014566 
L 309.161723 143.539235 
L 308.283816 143.058981 
L 307.433102 142.52434 
L 306.130928 141.836893 
L 307.058281 141.810878 
L 307.969955 141.398159 
L 308.88022 140.98262 
L 310.222716 140.375815 
L 309.567817 141.014566 
L 309.515853 142.014566 
L 309.456763 144.014566 
z
" clip-path="url(#pa4c28c36e3)" style="fill: #ffffff; stroke: #d62728; stroke-linecap: round"/>
   </g>
   <g id="patch_17">
    <path d="M 45.800781 238.5 
L 45.800781 7.2 
" style="fill: none; stroke: #000000; stroke-width: 0.8; stroke-linejoin: miter; stroke-linecap: square"/>
   </g>
   <g id="text_14">
    <g id="patch_18">
     <path d="M 257.999187 37.33 
L 279.303875 37.33 
Q 281.303875 37.33 281.303875 35.33 
L 281.303875 25.33 
Q 281.303875 23.33 279.303875 23.33 
L 257.999187 23.33 
Q 255.999187 23.33 255.999187 25.33 
L 255.999187 35.33 
Q 255.999187 37.33 257.999187 37.33 
z
" style="fill: #ffffff; opacity: 0.6"/>
    </g>
    <!-- ANC -->
    <g transform="translate(257.999187 32.927656) scale(0.1 -0.1)">
     <defs>
      <path id="DejaVuSans-31" d="M 628 4666 
L 1478 4666 
L 3547 763 
L 3547 4666 
L 4159 4666 
L 4159 0 
L 3309 0 
L 1241 3903 
L 1241 0 
L 628 0 
L 628 4666 
z
" transform="scale(0.015625)"/>
      <path id="DejaVuSans-26" d="M 4122 4306 
L 4122 3641 
Q 3803 3938 3442 4084 
Q 3081 4231 2675 4231 
Q 1875 4231 1450 3742 
Q 1025 3253 1025 2328 
Q 1025 1406 1450 917 
Q 1875 428 2675 428 
Q 3081 428 3442 575 
Q 3803 722 4122 1019 
L 4122 359 
Q 3791 134 3420 21 
Q 3050 -91 2638 -91 
Q 1578 -91 968 557 
Q 359 1206 359 2328 
Q 359 3453 968 4101 
Q 1578 4750 2638 4750 
Q 3056 4750 3426 4639 
Q 3797 4528 4122 4306 
z
" transform="scale(0.015625)"/>
     </defs>
     <use xlink:href="#DejaVuSans-24"/>
     <use xlink:href="#DejaVuSans-31" transform="translate(68.40625 0)"/>
     <use xlink:href="#DejaVuSans-26" transform="translate(143.21875 0)"/>
    </g>
   </g>
   <g id="text_15">
    <g id="patch_19">
     <path d="M 132.825717 68.9883 
L 165.971029 68.9883 
Q 167.971029 68.9883 167.971029 66.9883 
L 167.971029 56.9883 
Q 167.971029 54.9883 165.971029 54.9883 
L 132.825717 54.9883 
Q 130.825717 54.9883 130.825717 56.9883 
L 130.825717 66.9883 
Q 130.825717 68.9883 132.825717 68.9883 
z
" style="fill: #ffffff; opacity: 0.6"/>
    </g>
    <!-- A_ANC -->
    <g transform="translate(132.825717 64.585956) scale(0.1 -0.1)">
     <use xlink:href="#DejaVuSans-24"/>
     <use xlink:href="#DejaVuSans-42" transform="translate(68.40625 0)"/>
     <use xlink:href="#DejaVuSans-24" transform="translate(118.40625 0)"/>
     <use xlink:href="#DejaVuSans-31" transform="translate(186.8125 0)"/>
     <use xlink:href="#DejaVuSans-26" transform="translate(261.625 0)"/>
    </g>
   </g>
   <g id="text_16">
    <g id="patch_20">
     <path d="M 371.321877 72.953734 
L 404.487502 72.953734 
Q 406.487502 72.953734 406.487502 70.953734 
L 406.487502 60.953734 
Q 406.487502 58.953734 404.487502 58.953734 
L 371.321877 58.953734 
Q 369.321877 58.953734 369.321877 60.953734 
L 369.321877 70.953734 
Q 369.321877 72.953734 371.321877 72.953734 
z
" style="fill: #ffffff; opacity: 0.6"/>
    </g>
    <!-- B_ANC -->
    <g transform="translate(371.321877 68.55139) scale(0.1 -0.1)">
     <use xlink:href="#DejaVuSans-25"/>
     <use xlink:href="#DejaVuSans-42" transform="translate(68.609375 0)"/>
     <use xlink:href="#DejaVuSans-24" transform="translate(118.609375 0)"/>
     <use xlink:href="#DejaVuSans-31" transform="translate(187.015625 0)"/>
     <use xlink:href="#DejaVuSans-26" transform="translate(261.828125 0)"/>
    </g>
   </g>
  </g>
 </g>
 <defs>
  <clipPath id="pa4c28c36e3">
   <rect x="45.800781" y="7.2" width="413.399219" height="231.3"/>
  </clipPath>
 </defs>
</svg>
