<?xml version="1.0" encoding="utf-8" standalone="no"?>
<!DOCTYPE svg PUBLIC "-//W3C//DTD SVG 1.1//EN"
  "http://www.w3.org/Graphics/SVG/1.1/DTD/svg11.dtd">
<svg xmlns:xlink="http://www.w3.org/1999/xlink" width="466.4pt" height="259.2pt" viewBox="0 0 466.4 259.2" xmlns="http://www.w3.org/2000/svg" version="1.1">
 <metadata>
  <rdf:RDF xmlns:dc="http://purl.org/dc/elements/1.1/" xmlns:cc="http://creativecommons.org/ns#" xmlns:rdf="http://www.w3.org/1999/02/22-rdf-syntax-ns#">
   <cc:Work>
    <dc:type rdf:resource="http://purl.org/dc/dcmitype/StillImage"/>
    <dc:date>2026-07-07T15:32:32.616687</dc:date>
    <dc:format>image/svg+xml</dc:format>
    <dc:creator>
     <cc:Agent>
      <dc:title>Matplotlib v3.11.0, https://matplotlib.org/</dc:title>
     </cc:Agent>
    </dc:creator>
   </cc:Work>
  </rdf:RDF>
 </metadata>
 <defs>
  <style type="text/css">*{stroke-linejoin: round; stroke-linecap: butt}</style>
 </defs>
 <g id="figure_1">
  <g id="patch_1">
   <path d="M 0 259.2 
L 466.4 259.2 
L 466.4 0 
L 0 0 
z
" style="fill: #ffffff"/>
  </g>
  <g id="axes_1">
   <g id="patch_2">
    <path d="M 45.800781 238.5 
L 459.2 238.5 
L 459.2 7.2 
L 45.800781 7.2 
z
" style="fill: #ffffff"/>
   </g>
   <g id="patch_3">
    <path d="M 170.333521 7.2 
L 170.333521 53.46 
M 228.925395 7.2 
L 228.925395 53.46 
" clip-path="url(#p6c17d66d89)" style="fill: none; stroke: #ffffff; stroke-width: 3; stroke-linejoin: miter"/>
    <path d="M 170.333521 7.2 
L 170.333521 53.46 
M 228.925395 7.2 
L 228.925395 53.46 
" clip-path="url(#p6c17d66d89)" style="fill: none; stroke: #2ca02c; stroke-linejoin: miter"/>
   </g>
   <g id="FillBetweenPolyCollection_1">
    <path d="M 228.925395 7.2 
L 170.333521 7.2 
L 170.333521 53.46 
L 228.925395 53.46 
L 228.925395 53.46 
L 228.925395 7.2 
z
" clip-path="url(#p6c17d66d89)" style="fill: #2ca02c; fill-opacity: 0.5"/>
   </g>
   <g id="patch_4">
    <path d="M 64.591655 53.46 
L 64.591655 260.2 
M 123.183529 53.46 
L 123.183529 260.2 
" clip-path="url(#p6c17d66d89)" style="fill: none; stroke: #ffffff; stroke-width: 3; stroke-linejoin: miter"/>
    <path d="M 64.591655 53.46 
L 64.591655 260.2 
M 123.183529 53.46 
L 123.183529 260.2 
" clip-path="url(#p6c17d66d89)" style="fill: none; stroke: #808080; stroke-linejoin: miter"/>
   </g>
   <g id="FillBetweenPolyCollection_2">
    <path d="M 123.183529 53.46 
L 64.591655 53.46 
L 64.591655 43260.752853 
L 123.183529 43260.752853 
L 123.183529 43260.752853 
L 123.183529 53.46 
z
" clip-path="url(#p6c17d66d89)" style="fill: #808080; fill-opacity: 0.5"/>
   </g>
   <g id="patch_5">
    <path d="M 276.075387 53.46 
L 276.075387 96.482253 
M 334.667261 53.46 
L 334.667261 96.482253 
" clip-path="url(#p6c17d66d89)" style="fill: none; stroke: #ffffff; stroke-width: 3; stroke-linejoin: miter"/>
    <path d="M 276.075387 53.46 
L 276.075387 96.482253 
M 334.667261 53.46 
L 334.667261 96.482253 
" clip-path="url(#p6c17d66d89)" style="fill: none; stroke: #808080; stroke-linejoin: miter"/>
   </g>
   <g id="FillBetweenPolyCollection_3">
    <path d="M 334.667261 53.46 
L 276.075387 53.46 
L 276.075387 96.482253 
L 334.667261 96.482253 
L 334.667261 96.482253 
L 334.667261 53.46 
z
" clip-path="url(#p6c17d66d89)" style="fill: #808080; fill-opacity: 0.5"/>
   </g>
   <g id="patch_6">
    <path d="M 170.333521 96.482253 
L 170.333521 260.2 
M 228.925395 96.482253 
L 228.925395 260.2 
" clip-path="url(#p6c17d66d89)" style="fill: none; stroke: #ffffff; stroke-width: 3; stroke-linejoin: miter"/>
    <path d="M 170.333521 96.482253 
L 170.333521 260.2 
M 228.925395 96.482253 
L 228.925395 260.2 
" clip-path="url(#p6c17d66d89)" style="fill: none; stroke: #1f77b4; stroke-linejoin: miter"/>
   </g>
   <g id="FillBetweenPolyCollection_4">
    <path d="M 228.925395 96.482253 
L 170.333521 96.482253 
L 170.333521 43260.752853 
L 228.925395 43260.752853 
L 228.925395 43260.752853 
L 228.925395 96.482253 
z
" clip-path="url(#p6c17d66d89)" style="fill: #1f77b4; fill-opacity: 0.5"/>
   </g>
   <g id="patch_7">
    <path d="M 381.817252 96.482253 
L 381.817252 260.2 
M 440.409126 96.482253 
L 440.409126 260.2 
" clip-path="url(#p6c17d66d89)" style="fill: none; stroke: #ffffff; stroke-width: 3; stroke-linejoin: miter"/>
    <path d="M 381.817252 96.482253 
L 381.817252 260.2 
M 440.409126 96.482253 
L 440.409126 260.2 
" clip-path="url(#p6c17d66d89)" style="fill: none; stroke: #d62728; stroke-linejoin: miter"/>
   </g>
   <g id="FillBetweenPolyCollection_5">
    <path d="M 440.409126 96.482253 
L 381.817252 96.482253 
L 381.817252 43260.752853 
L 440.409126 43260.752853 
L 440.409126 43260.752853 
L 440.409126 96.482253 
z
" clip-path="url(#p6c17d66d89)" style="fill: #d62728; fill-opacity: 0.5"/>
   </g>
   <g id="patch_8">
    <path d="M 276.075387 152.455494 
L 276.075387 260.2 
M 334.667261 152.455494 
L 334.667261 260.2 
" clip-path="url(#p6c17d66d89)" style="fill: none; stroke: #ffffff; stroke-width: 3; stroke-linejoin: miter"/>
    <path d="M 276.075387 152.455494 
L 276.075387 260.2 
M 334.667261 152.455494 
L 334.667261 260.2 
" clip-path="url(#p6c17d66d89)" style="fill: none; stroke: #ff7f0e; stroke-linejoin: miter"/>
   </g>
   <g id="FillBetweenPolyCollection_6">
    <path d="M 334.667261 152.455494 
L 276.075387 152.455494 
L 276.075387 43260.752853 
L 334.667261 43260.752853 
L 334.667261 43260.752853 
L 334.667261 152.455494 
z
" clip-path="url(#p6c17d66d89)" style="fill: #ff7f0e; fill-opacity: 0.5"/>
   </g>
   <g id="matplotlib.axis_1">
    <g id="xtick_1">
     <g id="line2d_1"/>
     <g id="text_1">
      <!-- GHOST -->
      <g transform="translate(76.089154 249.597656) scale(0.1 -0.1)">
       <defs>
        <path id="DejaVuSans-2a" d="M 3809 666 
L 3809 1919 
L 2778 1919 
L 2778 2438 
L 4434 2438 
L 4434 434 
Q 4069 175 3628 42 
Q 3188 -91 2688 -91 
Q 1594 -91 976 548 
Q 359 1188 359 2328 
Q 359 3472 976 4111 
Q 1594 4750 2688 4750 
Q 3144 4750 3555 4637 
Q 3966 4525 4313 4306 
L 4313 3634 
Q 3963 3931 3569 4081 
Q 3175 4231 2741 4231 
Q 1884 4231 1454 3753 
Q 1025 3275 1025 2328 
Q 1025 1384 1454 906 
Q 1884 428 2741 428 
Q 3075 428 3337 486 
Q 3600 544 3809 666 
z
" transform="scale(0.015625)"/>
        <path id="DejaVuSans-2b" d="M 628 4666 
L 1259 4666 
L 1259 2753 
L 3553 2753 
L 3553 4666 
L 4184 4666 
L 4184 0 
L 3553 0 
L 3553 2222 
L 1259 2222 
L 1259 0 
L 628 0 
L 628 4666 
z
" transform="scale(0.015625)"/>
        <path id="DejaVuSans-32" d="M 2522 4238 
Q 1834 4238 1429 3725 
Q 1025 3213 1025 2328 
Q 1025 1447 1429 934 
Q 1834 422 2522 422 
Q 3209 422 3611 934 
Q 4013 1447 4013 2328 
Q 4013 3213 3611 3725 
Q 3209 4238 2522 4238 
z
M 2522 4750 
Q 3503 4750 4090 4092 
Q 4678 3434 4678 2328 
Q 4678 1225 4090 567 
Q 3503 -91 2522 -91 
Q 1538 -91 948 565 
Q 359 1222 359 2328 
Q 359 3434 948 4092 
Q 1538 4750 2522 4750 
z
" transform="scale(0.015625)"/>
        <path id="DejaVuSans-36" d="M 3425 4513 
L 3425 3897 
Q 3066 4069 2747 4153 
Q 2428 4238 2131 4238 
Q 1616 4238 1336 4038 
Q 1056 3838 1056 3469 
Q 1056 3159 1242 3001 
Q 1428 2844 1947 2747 
L 2328 2669 
Q 3034 2534 3370 2195 
Q 3706 1856 3706 1288 
Q 3706 609 3251 259 
Q 2797 -91 1919 -91 
Q 1588 -91 1214 -16 
Q 841 59 441 206 
L 441 856 
Q 825 641 1194 531 
Q 1563 422 1919 422 
Q 2459 422 2753 634 
Q 3047 847 3047 1241 
Q 3047 1584 2836 1778 
Q 2625 1972 2144 2069 
L 1759 2144 
Q 1053 2284 737 2584 
Q 422 2884 422 3419 
Q 422 4038 858 4394 
Q 1294 4750 2059 4750 
Q 2388 4750 2728 4690 
Q 3069 4631 3425 4513 
z
" transform="scale(0.015625)"/>
        <path id="DejaVuSans-37" d="M -19 4666 
L 3928 4666 
L 3928 4134 
L 2272 4134 
L 2272 0 
L 1638 0 
L 1638 4134 
L -19 4134 
L -19 4666 
z
" transform="scale(0.015625)"/>
       </defs>
       <use xlink:href="#DejaVuSans-2a"/>
       <use xlink:href="#DejaVuSans-2b" transform="translate(77.484375 0)"/>
       <use xlink:href="#DejaVuSans-32" transform="translate(152.6875 0)"/>
       <use xlink:href="#DejaVuSans-36" transform="translate(231.40625 0)"/>
       <use xlink:href="#DejaVuSans-37" transform="translate(294.890625 0)"/>
      </g>
     </g>
    </g>
    <g id="xtick_2">
     <g id="line2d_2"/>
     <g id="text_2">
      <!-- A -->
      <g transform="translate(196.209145 249.597656) scale(0.1 -0.1)">
       <defs>
        <path id="DejaVuSans-24" d="M 2188 4044 
L 1331 1722 
L 3047 1722 
L 2188 4044 
z
M 1831 4666 
L 2547 4666 
L 4325 0 
L 3669 0 
L 3244 1197 
L 1141 1197 
L 716 0 
L 50 0 
L 1831 4666 
z
" transform="scale(0.015625)"/>
       </defs>
       <use xlink:href="#DejaVuSans-24"/>
      </g>
     </g>
    </g>
    <g id="xtick_3">
     <g id="line2d_3"/>
     <g id="text_3">
      <!-- B -->
      <g transform="translate(407.682721 249.597656) scale(0.1 -0.1)">
       <defs>
        <path id="DejaVuSans-25" d="M 1259 2228 
L 1259 519 
L 2272 519 
Q 2781 519 3026 730 
Q 3272 941 3272 1375 
Q 3272 1813 3026 2020 
Q 2781 2228 2272 2228 
L 1259 2228 
z
M 1259 4147 
L 1259 2741 
L 2194 2741 
Q 2656 2741 2882 2914 
Q 3109 3088 3109 3444 
Q 3109 3797 2882 3972 
Q 2656 4147 2194 4147 
L 1259 4147 
z
M 628 4666 
L 2241 4666 
Q 2963 4666 3353 4366 
Q 3744 4066 3744 3513 
Q 3744 3084 3544 2831 
Q 3344 2578 2956 2516 
Q 3422 2416 3680 2098 
Q 3938 1781 3938 1306 
Q 3938 681 3513 340 
Q 3088 0 2303 0 
L 628 0 
L 628 4666 
z
" transform="scale(0.015625)"/>
       </defs>
       <use xlink:href="#DejaVuSans-25"/>
      </g>
     </g>
    </g>
    <g id="xtick_4">
     <g id="line2d_4"/>
     <g id="text_4">
      <!-- ADMIX -->
      <g transform="translate(288.886949 249.597656) scale(0.1 -0.1)">
       <defs>
        <path id="DejaVuSans-27" d="M 1259 4147 
L 1259 519 
L 2022 519 
Q 2988 519 3436 956 
Q 3884 1394 3884 2338 
Q 3884 3275 3436 3711 
Q 2988 4147 2022 4147 
L 1259 4147 
z
M 628 4666 
L 1925 4666 
Q 3281 4666 3915 4102 
Q 4550 3538 4550 2338 
Q 4550 1131 3912 565 
Q 3275 0 1925 0 
L 628 0 
L 628 4666 
z
" transform="scale(0.015625)"/>
        <path id="DejaVuSans-30" d="M 628 4666 
L 1569 4666 
L 2759 1491 
L 3956 4666 
L 4897 4666 
L 4897 0 
L 4281 0 
L 4281 4097 
L 3078 897 
L 2444 897 
L 1241 4097 
L 1241 0 
L 628 0 
L 628 4666 
z
" transform="scale(0.015625)"/>
        <path id="DejaVuSans-2c" d="M 628 4666 
L 1259 4666 
L 1259 0 
L 628 0 
L 628 4666 
z
" transform="scale(0.015625)"/>
        <path id="DejaVuSans-3b" d="M 403 4666 
L 1081 4666 
L 2241 2931 
L 3406 4666 
L 4084 4666 
L 2584 2425 
L 4184 0 
L 3506 0 
L 2194 1984 
L 872 0 
L 191 0 
L 1856 2491 
L 403 4666 
z
" transform="scale(0.015625)"/>
       </defs>
       <use xlink:href="#DejaVuSans-24"/>
       <use xlink:href="#DejaVuSans-27" transform="translate(68.40625 0)"/>
       <use xlink:href="#DejaVuSans-30" transform="translate(145.40625 0)"/>
       <use xlink:href="#DejaVuSans-2c" transform="translate(231.6875 0)"/>
       <use xlink:href="#DejaVuSans-3b" transform="translate(261.1875 0)"/>
      </g>
     </g>
    </g>
   </g>
   <g id="matplotlib.axis_2">
    <g id="ytick_1">
     <g id="line2d_5">
      <defs>
       <path id="mb9a50eb940" d="M 0 0 
L -3.5 0 
" style="stroke: #000000; stroke-width: 0.8"/>
      </defs>
      <g>
       <use xlink:href="#mb9a50eb940" x="45.800781" y="238.5" style="stroke: #000000; stroke-width: 0.8"/>
      </g>
     </g>
     <g id="text_5">
      <!-- $\mathdefault{10^{0}}$ -->
      <g transform="translate(21.200781 243.2) scale(0.1 -0.1)">
       <defs>
        <path id="DejaVuSans-14" d="M 794 531 
L 1825 531 
L 1825 4091 
L 703 3866 
L 703 4441 
L 1819 4666 
L 2450 4666 
L 2450 531 
L 3481 531 
L 3481 0 
L 794 0 
L 794 531 
z
" transform="scale(0.015625)"/>
        <path id="DejaVuSans-13" d="M 2034 4250 
Q 1547 4250 1301 3770 
Q 1056 3291 1056 2328 
Q 1056 1369 1301 889 
Q 1547 409 2034 409 
Q 2525 409 2770 889 
Q 3016 1369 3016 2328 
Q 3016 3291 2770 3770 
Q 2525 4250 2034 4250 
z
M 2034 4750 
Q 2819 4750 3233 4129 
Q 3647 3509 3647 2328 
Q 3647 1150 3233 529 
Q 2819 -91 2034 -91 
Q 1250 -91 836 529 
Q 422 1150 422 2328 
Q 422 3509 836 4129 
Q 1250 4750 2034 4750 
z
" transform="scale(0.015625)"/>
       </defs>
       <use xlink:href="#DejaVuSans-14" transform="translate(0 0.746875)"/>
       <use xlink:href="#DejaVuSans-13" transform="translate(63.623047 0.746875)"/>
       <use xlink:href="#DejaVuSans-13" transform="translate(128.203125 42.046875) scale(0.7)"/>
      </g>
     </g>
    </g>
    <g id="ytick_2">
     <g id="line2d_6">
      <g>
       <use xlink:href="#mb9a50eb940" x="45.800781" y="195.477747" style="stroke: #000000; stroke-width: 0.8"/>
      </g>
     </g>
     <g id="text_6">
      <!-- $\mathdefault{10^{1}}$ -->
      <g transform="translate(21.200781 200.127747) scale(0.1 -0.1)">
       <use xlink:href="#DejaVuSans-14" transform="translate(0 0.665625)"/>
       <use xlink:href="#DejaVuSans-13" transform="translate(63.623047 0.665625)"/>
       <use xlink:href="#DejaVuSans-14" transform="translate(128.203125 41.965625) scale(0.7)"/>
      </g>
     </g>
    </g>
    <g id="ytick_3">
     <g id="line2d_7">
      <g>
       <use xlink:href="#mb9a50eb940" x="45.800781" y="152.455494" style="stroke: #000000; stroke-width: 0.8"/>
      </g>
     </g>
     <g id="text_7">
      <!-- $\mathdefault{10^{2}}$ -->
      <g transform="translate(21.200781 157.155494) scale(0.1 -0.1)">
       <defs>
        <path id="DejaVuSans-15" d="M 1228 531 
L 3431 531 
L 3431 0 
L 469 0 
L 469 531 
Q 828 903 1448 1529 
Q 2069 2156 2228 2338 
Q 2531 2678 2651 2914 
Q 2772 3150 2772 3378 
Q 2772 3750 2511 3984 
Q 2250 4219 1831 4219 
Q 1534 4219 1204 4116 
Q 875 4013 500 3803 
L 500 4441 
Q 881 4594 1212 4672 
Q 1544 4750 1819 4750 
Q 2544 4750 2975 4387 
Q 3406 4025 3406 3419 
Q 3406 3131 3298 2873 
Q 3191 2616 2906 2266 
Q 2828 2175 2409 1742 
Q 1991 1309 1228 531 
z
" transform="scale(0.015625)"/>
       </defs>
       <use xlink:href="#DejaVuSans-14" transform="translate(0 0.746875)"/>
       <use xlink:href="#DejaVuSans-13" transform="translate(63.623047 0.746875)"/>
       <use xlink:href="#DejaVuSans-15" transform="translate(128.203125 42.046875) scale(0.7)"/>
      </g>
     </g>
    </g>
    <g id="ytick_4">
     <g id="line2d_8">
      <g>
       <use xlink:href="#mb9a50eb940" x="45.800781" y="109.433241" style="stroke: #000000; stroke-width: 0.8"/>
      </g>
     </g>
     <g id="text_8">
      <!-- $\mathdefault{10^{3}}$ -->
      <g transform="translate(21.200781 114.133241) scale(0.1 -0.1)">
       <defs>
        <path id="DejaVuSans-16" d="M 2597 2516 
Q 3050 2419 3304 2112 
Q 3559 1806 3559 1356 
Q 3559 666 3084 287 
Q 2609 -91 1734 -91 
Q 1441 -91 1130 -33 
Q 819 25 488 141 
L 488 750 
Q 750 597 1062 519 
Q 1375 441 1716 441 
Q 2309 441 2620 675 
Q 2931 909 2931 1356 
Q 2931 1769 2642 2001 
Q 2353 2234 1838 2234 
L 1294 2234 
L 1294 2753 
L 1863 2753 
Q 2328 2753 2575 2939 
Q 2822 3125 2822 3475 
Q 2822 3834 2567 4026 
Q 2313 4219 1838 4219 
Q 1578 4219 1281 4162 
Q 984 4106 628 3988 
L 628 4550 
Q 988 4650 1302 4700 
Q 1616 4750 1894 4750 
Q 2613 4750 3031 4423 
Q 3450 4097 3450 3541 
Q 3450 3153 3228 2886 
Q 3006 2619 2597 2516 
z
" transform="scale(0.015625)"/>
       </defs>
       <use xlink:href="#DejaVuSans-14" transform="translate(0 0.746875)"/>
       <use xlink:href="#DejaVuSans-13" transform="translate(63.623047 0.746875)"/>
       <use xlink:href="#DejaVuSans-16" transform="translate(128.203125 42.046875) scale(0.7)"/>
      </g>
     </g>
    </g>
    <g id="ytick_5">
     <g id="line2d_9">
      <g>
       <use xlink:href="#mb9a50eb940" x="45.800781" y="66.410989" style="stroke: #000000; stroke-width: 0.8"/>
      </g>
     </g>
     <g id="text_9">
      <!-- $\mathdefault{10^{4}}$ -->
      <g transform="translate(21.200781 71.060989) scale(0.1 -0.1)">
       <defs>
        <path id="DejaVuSans-17" d="M 2419 4116 
L 825 1625 
L 2419 1625 
L 2419 4116 
z
M 2253 4666 
L 3047 4666 
L 3047 1625 
L 3713 1625 
L 3713 1100 
L 3047 1100 
L 3047 0 
L 2419 0 
L 2419 1100 
L 313 1100 
L 313 1709 
L 2253 4666 
z
" transform="scale(0.015625)"/>
       </defs>
       <use xlink:href="#DejaVuSans-14" transform="translate(0 0.665625)"/>
       <use xlink:href="#DejaVuSans-13" transform="translate(63.623047 0.665625)"/>
       <use xlink:href="#DejaVuSans-17" transform="translate(128.203125 41.965625) scale(0.7)"/>
      </g>
     </g>
    </g>
    <g id="ytick_6">
     <g id="line2d_10">
      <g>
       <use xlink:href="#mb9a50eb940" x="45.800781" y="23.388736" style="stroke: #000000; stroke-width: 0.8"/>
      </g>
     </g>
     <g id="text_10">
      <!-- $\mathdefault{10^{5}}$ -->
      <g transform="translate(21.200781 28.038736) scale(0.1 -0.1)">
       <defs>
        <path id="DejaVuSans-18" d="M 691 4666 
L 3169 4666 
L 3169 4134 
L 1269 4134 
L 1269 2991 
Q 1406 3038 1543 3061 
Q 1681 3084 1819 3084 
Q 2600 3084 3056 2656 
Q 3513 2228 3513 1497 
Q 3513 744 3044 326 
Q 2575 -91 1722 -91 
Q 1428 -91 1123 -41 
Q 819 9 494 109 
L 494 744 
Q 775 591 1075 516 
Q 1375 441 1709 441 
Q 2250 441 2565 725 
Q 2881 1009 2881 1497 
Q 2881 1984 2565 2268 
Q 2250 2553 1709 2553 
Q 1456 2553 1204 2497 
Q 953 2441 691 2322 
L 691 4666 
z
" transform="scale(0.015625)"/>
       </defs>
       <use xlink:href="#DejaVuSans-14" transform="translate(0 0.665625)"/>
       <use xlink:href="#DejaVuSans-13" transform="translate(63.623047 0.665625)"/>
       <use xlink:href="#DejaVuSans-18" transform="translate(128.203125 41.965625) scale(0.7)"/>
      </g>
     </g>
    </g>
    <g id="ytick_7">
     <g id="line2d_11">
      <defs>
       <path id="m544b6fffa5" d="M 0 0 
L -2 0 
" style="stroke: #000000; stroke-width: 0.6"/>
      </defs>
      <g>
       <use xlink:href="#m544b6fffa5" x="45.800781" y="225.549011" style="stroke: #000000; stroke-width: 0.6"/>
      </g>
     </g>
    </g>
    <g id="ytick_8">
     <g id="line2d_12">
      <g>
       <use xlink:href="#m544b6fffa5" x="45.800781" y="217.973169" style="stroke: #000000; stroke-width: 0.6"/>
      </g>
     </g>
    </g>
    <g id="ytick_9">
     <g id="line2d_13">
      <g>
       <use xlink:href="#m544b6fffa5" x="45.800781" y="212.598023" style="stroke: #000000; stroke-width: 0.6"/>
      </g>
     </g>
    </g>
    <g id="ytick_10">
     <g id="line2d_14">
      <g>
       <use xlink:href="#m544b6fffa5" x="45.800781" y="208.428736" style="stroke: #000000; stroke-width: 0.6"/>
      </g>
     </g>
    </g>
    <g id="ytick_11">
     <g id="line2d_15">
      <g>
       <use xlink:href="#m544b6fffa5" x="45.800781" y="205.02218" style="stroke: #000000; stroke-width: 0.6"/>
      </g>
     </g>
    </g>
    <g id="ytick_12">
     <g id="line2d_16">
      <g>
       <use xlink:href="#m544b6fffa5" x="45.800781" y="202.141978" style="stroke: #000000; stroke-width: 0.6"/>
      </g>
     </g>
    </g>
    <g id="ytick_13">
     <g id="line2d_17">
      <g>
       <use xlink:href="#m544b6fffa5" x="45.800781" y="199.647034" style="stroke: #000000; stroke-width: 0.6"/>
      </g>
     </g>
    </g>
    <g id="ytick_14">
     <g id="line2d_18">
      <g>
       <use xlink:href="#m544b6fffa5" x="45.800781" y="197.446337" style="stroke: #000000; stroke-width: 0.6"/>
      </g>
     </g>
    </g>
    <g id="ytick_15">
     <g id="line2d_19">
      <g>
       <use xlink:href="#m544b6fffa5" x="45.800781" y="182.526759" style="stroke: #000000; stroke-width: 0.6"/>
      </g>
     </g>
    </g>
    <g id="ytick_16">
     <g id="line2d_20">
      <g>
       <use xlink:href="#m544b6fffa5" x="45.800781" y="174.950916" style="stroke: #000000; stroke-width: 0.6"/>
      </g>
     </g>
    </g>
    <g id="ytick_17">
     <g id="line2d_21">
      <g>
       <use xlink:href="#m544b6fffa5" x="45.800781" y="169.57577" style="stroke: #000000; stroke-width: 0.6"/>
      </g>
     </g>
    </g>
    <g id="ytick_18">
     <g id="line2d_22">
      <g>
       <use xlink:href="#m544b6fffa5" x="45.800781" y="165.406483" style="stroke: #000000; stroke-width: 0.6"/>
      </g>
     </g>
    </g>
    <g id="ytick_19">
     <g id="line2d_23">
      <g>
       <use xlink:href="#m544b6fffa5" x="45.800781" y="161.999927" style="stroke: #000000; stroke-width: 0.6"/>
      </g>
     </g>
    </g>
    <g id="ytick_20">
     <g id="line2d_24">
      <g>
       <use xlink:href="#m544b6fffa5" x="45.800781" y="159.119726" style="stroke: #000000; stroke-width: 0.6"/>
      </g>
     </g>
    </g>
    <g id="ytick_21">
     <g id="line2d_25">
      <g>
       <use xlink:href="#m544b6fffa5" x="45.800781" y="156.624781" style="stroke: #000000; stroke-width: 0.6"/>
      </g>
     </g>
    </g>
    <g id="ytick_22">
     <g id="line2d_26">
      <g>
       <use xlink:href="#m544b6fffa5" x="45.800781" y="154.424085" style="stroke: #000000; stroke-width: 0.6"/>
      </g>
     </g>
    </g>
    <g id="ytick_23">
     <g id="line2d_27">
      <g>
       <use xlink:href="#m544b6fffa5" x="45.800781" y="139.504506" style="stroke: #000000; stroke-width: 0.6"/>
      </g>
     </g>
    </g>
    <g id="ytick_24">
     <g id="line2d_28">
      <g>
       <use xlink:href="#m544b6fffa5" x="45.800781" y="131.928663" style="stroke: #000000; stroke-width: 0.6"/>
      </g>
     </g>
    </g>
    <g id="ytick_25">
     <g id="line2d_29">
      <g>
       <use xlink:href="#m544b6fffa5" x="45.800781" y="126.553517" style="stroke: #000000; stroke-width: 0.6"/>
      </g>
     </g>
    </g>
    <g id="ytick_26">
     <g id="line2d_30">
      <g>
       <use xlink:href="#m544b6fffa5" x="45.800781" y="122.38423" style="stroke: #000000; stroke-width: 0.6"/>
      </g>
     </g>
    </g>
    <g id="ytick_27">
     <g id="line2d_31">
      <g>
       <use xlink:href="#m544b6fffa5" x="45.800781" y="118.977674" style="stroke: #000000; stroke-width: 0.6"/>
      </g>
     </g>
    </g>
    <g id="ytick_28">
     <g id="line2d_32">
      <g>
       <use xlink:href="#m544b6fffa5" x="45.800781" y="116.097473" style="stroke: #000000; stroke-width: 0.6"/>
      </g>
     </g>
    </g>
    <g id="ytick_29">
     <g id="line2d_33">
      <g>
       <use xlink:href="#m544b6fffa5" x="45.800781" y="113.602529" style="stroke: #000000; stroke-width: 0.6"/>
      </g>
     </g>
    </g>
    <g id="ytick_30">
     <g id="line2d_34">
      <g>
       <use xlink:href="#m544b6fffa5" x="45.800781" y="111.401832" style="stroke: #000000; stroke-width: 0.6"/>
      </g>
     </g>
    </g>
    <g id="ytick_31">
     <g id="line2d_35">
      <g>
       <use xlink:href="#m544b6fffa5" x="45.800781" y="96.482253" style="stroke: #000000; stroke-width: 0.6"/>
      </g>
     </g>
    </g>
    <g id="ytick_32">
     <g id="line2d_36">
      <g>
       <use xlink:href="#m544b6fffa5" x="45.800781" y="88.90641" style="stroke: #000000; stroke-width: 0.6"/>
      </g>
     </g>
    </g>
    <g id="ytick_33">
     <g id="line2d_37">
      <g>
       <use xlink:href="#m544b6fffa5" x="45.800781" y="83.531264" style="stroke: #000000; stroke-width: 0.6"/>
      </g>
     </g>
    </g>
    <g id="ytick_34">
     <g id="line2d_38">
      <g>
       <use xlink:href="#m544b6fffa5" x="45.800781" y="79.361977" style="stroke: #000000; stroke-width: 0.6"/>
      </g>
     </g>
    </g>
    <g id="ytick_35">
     <g id="line2d_39">
      <g>
       <use xlink:href="#m544b6fffa5" x="45.800781" y="75.955422" style="stroke: #000000; stroke-width: 0.6"/>
      </g>
     </g>
    </g>
    <g id="ytick_36">
     <g id="line2d_40">
      <g>
       <use xlink:href="#m544b6fffa5" x="45.800781" y="73.07522" style="stroke: #000000; stroke-width: 0.6"/>
      </g>
     </g>
    </g>
    <g id="ytick_37">
     <g id="line2d_41">
      <g>
       <use xlink:href="#m544b6fffa5" x="45.800781" y="70.580276" style="stroke: #000000; stroke-width: 0.6"/>
      </g>
     </g>
    </g>
    <g id="ytick_38">
     <g id="line2d_42">
      <g>
       <use xlink:href="#m544b6fffa5" x="45.800781" y="68.379579" style="stroke: #000000; stroke-width: 0.6"/>
      </g>
     </g>
    </g>
    <g id="ytick_39">
     <g id="line2d_43">
      <g>
       <use xlink:href="#m544b6fffa5" x="45.800781" y="53.46" style="stroke: #000000; stroke-width: 0.6"/>
      </g>
     </g>
    </g>
    <g id="ytick_40">
     <g id="line2d_44">
      <g>
       <use xlink:href="#m544b6fffa5" x="45.800781" y="45.884157" style="stroke: #000000; stroke-width: 0.6"/>
      </g>
     </g>
    </g>
    <g id="ytick_41">
     <g id="line2d_45">
      <g>
       <use xlink:href="#m544b6fffa5" x="45.800781" y="40.509011" style="stroke: #000000; stroke-width: 0.6"/>
      </g>
     </g>
    </g>
    <g id="ytick_42">
     <g id="line2d_46">
      <g>
       <use xlink:href="#m544b6fffa5" x="45.800781" y="36.339724" style="stroke: #000000; stroke-width: 0.6"/>
      </g>
     </g>
    </g>
    <g id="ytick_43">
     <g id="line2d_47">
      <g>
       <use xlink:href="#m544b6fffa5" x="45.800781" y="32.933169" style="stroke: #000000; stroke-width: 0.6"/>
      </g>
     </g>
    </g>
    <g id="ytick_44">
     <g id="line2d_48">
      <g>
       <use xlink:href="#m544b6fffa5" x="45.800781" y="30.052967" style="stroke: #000000; stroke-width: 0.6"/>
      </g>
     </g>
    </g>
    <g id="ytick_45">
     <g id="line2d_49">
      <g>
       <use xlink:href="#m544b6fffa5" x="45.800781" y="27.558023" style="stroke: #000000; stroke-width: 0.6"/>
      </g>
     </g>
    </g>
    <g id="ytick_46">
     <g id="line2d_50">
      <g>
       <use xlink:href="#m544b6fffa5" x="45.800781" y="25.357326" style="stroke: #000000; stroke-width: 0.6"/>
      </g>
     </g>
    </g>
    <g id="ytick_47">
     <g id="line2d_51">
      <g>
       <use xlink:href="#m544b6fffa5" x="45.800781" y="10.437747" style="stroke: #000000; stroke-width: 0.6"/>
      </g>
     </g>
    </g>
    <g id="text_11">
     <!-- time ago (generations) -->
     <g transform="translate(14.798438 180.321094) rotate(-90) scale(0.1 -0.1)">
      <defs>
       <path id="DejaVuSans-57" d="M 1172 4494 
L 1172 3500 
L 2356 3500 
L 2356 3053 
L 1172 3053 
L 1172 1153 
Q 1172 725 1289 603 
Q 1406 481 1766 481 
L 2356 481 
L 2356 0 
L 1766 0 
Q 1100 0 847 248 
Q 594 497 594 1153 
L 594 3053 
L 172 3053 
L 172 3500 
L 594 3500 
L 594 4494 
L 1172 4494 
z
" transform="scale(0.015625)"/>
       <path id="DejaVuSans-4c" d="M 603 3500 
L 1178 3500 
L 1178 0 
L 603 0 
L 603 3500 
z
M 603 4863 
L 1178 4863 
L 1178 4134 
L 603 4134 
L 603 4863 
z
" transform="scale(0.015625)"/>
       <path id="DejaVuSans-50" d="M 3328 2828 
Q 3544 3216 3844 3400 
Q 4144 3584 4550 3584 
Q 5097 3584 5394 3201 
Q 5691 2819 5691 2113 
L 5691 0 
L 5113 0 
L 5113 2094 
Q 5113 2597 4934 2840 
Q 4756 3084 4391 3084 
Q 3944 3084 3684 2787 
Q 3425 2491 3425 1978 
L 3425 0 
L 2847 0 
L 2847 2094 
Q 2847 2600 2669 2842 
Q 2491 3084 2119 3084 
Q 1678 3084 1418 2786 
Q 1159 2488 1159 1978 
L 1159 0 
L 581 0 
L 581 3500 
L 1159 3500 
L 1159 2956 
Q 1356 3278 1631 3431 
Q 1906 3584 2284 3584 
Q 2666 3584 2933 3390 
Q 3200 3197 3328 2828 
z
" transform="scale(0.015625)"/>
       <path id="DejaVuSans-48" d="M 3597 1894 
L 3597 1613 
L 953 1613 
Q 991 1019 1311 708 
Q 1631 397 2203 397 
Q 2534 397 2845 478 
Q 3156 559 3463 722 
L 3463 178 
Q 3153 47 2828 -22 
Q 2503 -91 2169 -91 
Q 1331 -91 842 396 
Q 353 884 353 1716 
Q 353 2575 817 3079 
Q 1281 3584 2069 3584 
Q 2775 3584 3186 3129 
Q 3597 2675 3597 1894 
z
M 3022 2063 
Q 3016 2534 2758 2815 
Q 2500 3097 2075 3097 
Q 1594 3097 1305 2825 
Q 1016 2553 972 2059 
L 3022 2063 
z
" transform="scale(0.015625)"/>
       <path id="DejaVuSans-3" transform="scale(0.015625)"/>
       <path id="DejaVuSans-44" d="M 2194 1759 
Q 1497 1759 1228 1600 
Q 959 1441 959 1056 
Q 959 750 1161 570 
Q 1363 391 1709 391 
Q 2188 391 2477 730 
Q 2766 1069 2766 1631 
L 2766 1759 
L 2194 1759 
z
M 3341 1997 
L 3341 0 
L 2766 0 
L 2766 531 
Q 2569 213 2275 61 
Q 1981 -91 1556 -91 
Q 1019 -91 701 211 
Q 384 513 384 1019 
Q 384 1609 779 1909 
Q 1175 2209 1959 2209 
L 2766 2209 
L 2766 2266 
Q 2766 2663 2505 2880 
Q 2244 3097 1772 3097 
Q 1472 3097 1187 3025 
Q 903 2953 641 2809 
L 641 3341 
Q 956 3463 1253 3523 
Q 1550 3584 1831 3584 
Q 2591 3584 2966 3190 
Q 3341 2797 3341 1997 
z
" transform="scale(0.015625)"/>
       <path id="DejaVuSans-4a" d="M 2906 1791 
Q 2906 2416 2648 2759 
Q 2391 3103 1925 3103 
Q 1463 3103 1205 2759 
Q 947 2416 947 1791 
Q 947 1169 1205 825 
Q 1463 481 1925 481 
Q 2391 481 2648 825 
Q 2906 1169 2906 1791 
z
M 3481 434 
Q 3481 -459 3084 -895 
Q 2688 -1331 1869 -1331 
Q 1566 -1331 1297 -1286 
Q 1028 -1241 775 -1147 
L 775 -588 
Q 1028 -725 1275 -790 
Q 1522 -856 1778 -856 
Q 2344 -856 2625 -561 
Q 2906 -266 2906 331 
L 2906 616 
Q 2728 306 2450 153 
Q 2172 0 1784 0 
Q 1141 0 747 490 
Q 353 981 353 1791 
Q 353 2603 747 3093 
Q 1141 3584 1784 3584 
Q 2172 3584 2450 3431 
Q 2728 3278 2906 2969 
L 2906 3500 
L 3481 3500 
L 3481 434 
z
" transform="scale(0.015625)"/>
       <path id="DejaVuSans-52" d="M 1959 3097 
Q 1497 3097 1228 2736 
Q 959 2375 959 1747 
Q 959 1119 1226 758 
Q 1494 397 1959 397 
Q 2419 397 2687 759 
Q 2956 1122 2956 1747 
Q 2956 2369 2687 2733 
Q 2419 3097 1959 3097 
z
M 1959 3584 
Q 2709 3584 3137 3096 
Q 3566 2609 3566 1747 
Q 3566 888 3137 398 
Q 2709 -91 1959 -91 
Q 1206 -91 779 398 
Q 353 888 353 1747 
Q 353 2609 779 3096 
Q 1206 3584 1959 3584 
z
" transform="scale(0.015625)"/>
       <path id="DejaVuSans-b" d="M 1984 4856 
Q 1566 4138 1362 3434 
Q 1159 2731 1159 2009 
Q 1159 1288 1364 580 
Q 1569 -128 1984 -844 
L 1484 -844 
Q 1016 -109 783 600 
Q 550 1309 550 2009 
Q 550 2706 781 3412 
Q 1013 4119 1484 4856 
L 1984 4856 
z
" transform="scale(0.015625)"/>
       <path id="DejaVuSans-51" d="M 3513 2113 
L 3513 0 
L 2938 0 
L 2938 2094 
Q 2938 2591 2744 2837 
Q 2550 3084 2163 3084 
Q 1697 3084 1428 2787 
Q 1159 2491 1159 1978 
L 1159 0 
L 581 0 
L 581 3500 
L 1159 3500 
L 1159 2956 
Q 1366 3272 1645 3428 
Q 1925 3584 2291 3584 
Q 2894 3584 3203 3211 
Q 3513 2838 3513 2113 
z
" transform="scale(0.015625)"/>
       <path id="DejaVuSans-55" d="M 2631 2963 
Q 2534 3019 2420 3045 
Q 2306 3072 2169 3072 
Q 1681 3072 1420 2755 
Q 1159 2438 1159 1844 
L 1159 0 
L 581 0 
L 581 3500 
L 1159 3500 
L 1159 2956 
Q 1341 3275 1631 3429 
Q 1922 3584 2338 3584 
Q 2397 3584 2469 3576 
Q 2541 3569 2628 3553 
L 2631 2963 
z
" transform="scale(0.015625)"/>
       <path id="DejaVuSans-56" d="M 2834 3397 
L 2834 2853 
Q 2591 2978 2328 3040 
Q 2066 3103 1784 3103 
Q 1356 3103 1142 2972 
Q 928 2841 928 2578 
Q 928 2378 1081 2264 
Q 1234 2150 1697 2047 
L 1894 2003 
Q 2506 1872 2764 1633 
Q 3022 1394 3022 966 
Q 3022 478 2636 193 
Q 2250 -91 1575 -91 
Q 1294 -91 989 -36 
Q 684 19 347 128 
L 347 722 
Q 666 556 975 473 
Q 1284 391 1588 391 
Q 1994 391 2212 530 
Q 2431 669 2431 922 
Q 2431 1156 2273 1281 
Q 2116 1406 1581 1522 
L 1381 1569 
Q 847 1681 609 1914 
Q 372 2147 372 2553 
Q 372 3047 722 3315 
Q 1072 3584 1716 3584 
Q 2034 3584 2315 3537 
Q 2597 3491 2834 3397 
z
" transform="scale(0.015625)"/>
       <path id="DejaVuSans-c" d="M 513 4856 
L 1013 4856 
Q 1481 4119 1714 3412 
Q 1947 2706 1947 2009 
Q 1947 1309 1714 600 
Q 1481 -109 1013 -844 
L 513 -844 
Q 928 -128 1133 580 
Q 1338 1288 1338 2009 
Q 1338 2731 1133 3434 
Q 928 4138 513 4856 
z
" transform="scale(0.015625)"/>
      </defs>
      <use xlink:href="#DejaVuSans-57"/>
      <use xlink:href="#DejaVuSans-4c" transform="translate(39.203125 0)"/>
      <use xlink:href="#DejaVuSans-50" transform="translate(66.984375 0)"/>
      <use xlink:href="#DejaVuSans-48" transform="translate(164.390625 0)"/>
      <use xlink:href="#DejaVuSans-3" transform="translate(225.921875 0)"/>
      <use xlink:href="#DejaVuSans-44" transform="translate(257.703125 0)"/>
      <use xlink:href="#DejaVuSans-4a" transform="translate(318.984375 0)"/>
      <use xlink:href="#DejaVuSans-52" transform="translate(382.46875 0)"/>
      <use xlink:href="#DejaVuSans-3" transform="translate(443.65625 0)"/>
      <use xlink:href="#DejaVuSans-b" transform="translate(475.4375 0)"/>
      <use xlink:href="#DejaVuSans-4a" transform="translate(514.453125 0)"/>
      <use xlink:href="#DejaVuSans-48" transform="translate(577.9375 0)"/>
      <use xlink:href="#DejaVuSans-51" transform="translate(639.46875 0)"/>
      <use xlink:href="#DejaVuSans-48" transform="translate(702.84375 0)"/>
      <use xlink:href="#DejaVuSans-55" transform="translate(764.375 0)"/>
      <use xlink:href="#DejaVuSans-44" transform="translate(805.484375 0)"/>
      <use xlink:href="#DejaVuSans-57" transform="translate(866.765625 0)"/>
      <use xlink:href="#DejaVuSans-4c" transform="translate(905.96875 0)"/>
      <use xlink:href="#DejaVuSans-52" transform="translate(933.75 0)"/>
      <use xlink:href="#DejaVuSans-51" transform="translate(994.9375 0)"/>
      <use xlink:href="#DejaVuSans-56" transform="translate(1058.3125 0)"/>
      <use xlink:href="#DejaVuSans-c" transform="translate(1110.40625 0)"/>
     </g>
    </g>
   </g>
   <g id="patch_9">
    <path d="M 168.333445 53.46 
L 167.333445 53.428564 
L 166.333445 53.391623 
L 165.333445 53.293877 
L 164.333445 53.261355 
L 163.333445 53.18773 
L 162.333445 53.149165 
L 161.333445 53.113752 
L 160.333445 53.056112 
L 159.333445 52.985726 
L 158.333445 52.933761 
L 157.333445 52.874672 
L 156.333445 52.786351 
L 155.333445 52.740206 
L 154.333445 52.697795 
L 153.333445 52.667303 
L 152.333445 52.641258 
L 151.333445 52.620058 
L 150.333445 52.565757 
L 149.333445 52.537819 
L 148.333445 52.508095 
L 147.333445 52.4827 
L 146.333445 52.4715 
L 145.333445 52.461376 
L 144.333445 52.46158 
L 143.333445 52.47109 
L 142.333445 52.482744 
L 141.333445 52.513773 
L 140.333445 52.524941 
L 139.333445 52.555058 
L 138.333445 52.614835 
L 137.333445 52.652027 
L 136.333445 52.691123 
L 135.333445 52.733563 
L 134.333445 52.766328 
L 133.333445 52.833754 
L 132.333445 52.87288 
L 131.333445 52.915555 
L 130.333445 52.986135 
L 129.333445 53.022526 
L 128.333445 53.080929 
L 127.333445 53.191882 
L 126.299469 53.26254 
" clip-path="url(#p6c17d66d89)" style="fill: none; stroke: #ffffff; stroke-width: 3; stroke-linecap: round"/>
    <path d="M 168.333445 53.46 
L 167.333445 53.428564 
L 166.333445 53.391623 
L 165.333445 53.293877 
L 164.333445 53.261355 
L 163.333445 53.18773 
L 162.333445 53.149165 
L 161.333445 53.113752 
L 160.333445 53.056112 
L 159.333445 52.985726 
L 158.333445 52.933761 
L 157.333445 52.874672 
L 156.333445 52.786351 
L 155.333445 52.740206 
L 154.333445 52.697795 
L 153.333445 52.667303 
L 152.333445 52.641258 
L 151.333445 52.620058 
L 150.333445 52.565757 
L 149.333445 52.537819 
L 148.333445 52.508095 
L 147.333445 52.4827 
L 146.333445 52.4715 
L 145.333445 52.461376 
L 144.333445 52.46158 
L 143.333445 52.47109 
L 142.333445 52.482744 
L 141.333445 52.513773 
L 140.333445 52.524941 
L 139.333445 52.555058 
L 138.333445 52.614835 
L 137.333445 52.652027 
L 136.333445 52.691123 
L 135.333445 52.733563 
L 134.333445 52.766328 
L 133.333445 52.833754 
L 132.333445 52.87288 
L 131.333445 52.915555 
L 130.333445 52.986135 
L 129.333445 53.022526 
L 128.333445 53.080929 
L 127.333445 53.191882 
L 126.299469 53.26254 
" clip-path="url(#p6c17d66d89)" style="fill: none; stroke: #2ca02c; stroke-linecap: round"/>
    <path d="M 130.299469 55.46 
L 129.4191 54.984669 
L 128.541193 54.504415 
L 127.69048 53.969774 
L 126.388305 53.282327 
L 127.315659 53.256312 
L 128.227333 52.843592 
L 129.137597 52.428053 
L 130.480093 51.821249 
L 129.825194 52.46 
L 129.77323 53.46 
L 129.71414 55.46 
z
" clip-path="url(#p6c17d66d89)" style="fill: #ffffff; stroke: #ffffff; stroke-width: 3; stroke-linecap: round"/>
    <path d="M 130.299469 55.46 
L 129.4191 54.984669 
L 128.541193 54.504415 
L 127.69048 53.969774 
L 126.388305 53.282327 
L 127.315659 53.256312 
L 128.227333 52.843592 
L 129.137597 52.428053 
L 130.480093 51.821249 
L 129.825194 52.46 
L 129.77323 53.46 
L 129.71414 55.46 
z
" clip-path="url(#p6c17d66d89)" style="fill: #ffffff; stroke: #2ca02c; stroke-linecap: round"/>
   </g>
   <g id="patch_10">
    <path d="M 230.925471 53.46 
L 231.925471 53.491436 
L 232.925471 53.528377 
L 233.925471 53.626123 
L 234.925471 53.658645 
L 235.925471 53.73227 
L 236.925471 53.770835 
L 237.925471 53.806248 
L 238.925471 53.863888 
L 239.925471 53.934274 
L 240.925471 53.986239 
L 241.925471 54.045328 
L 242.925471 54.133649 
L 243.925471 54.179794 
L 244.925471 54.222205 
L 245.925471 54.252697 
L 246.925471 54.278742 
L 247.925471 54.299942 
L 248.925471 54.354243 
L 249.925471 54.382181 
L 250.925471 54.411905 
L 251.925471 54.4373 
L 252.925471 54.4485 
L 253.925471 54.458624 
L 254.925471 54.45842 
L 255.925471 54.44891 
L 256.925471 54.437256 
L 257.925471 54.406227 
L 258.925471 54.395059 
L 259.925471 54.364942 
L 260.925471 54.305165 
L 261.925471 54.267973 
L 262.925471 54.228877 
L 263.925471 54.186437 
L 264.925471 54.153672 
L 265.925471 54.086246 
L 266.925471 54.04712 
L 267.925471 54.004445 
L 268.925471 53.933865 
L 269.925471 53.897474 
L 270.925471 53.839071 
L 271.925471 53.728118 
L 272.959447 53.65746 
" clip-path="url(#p6c17d66d89)" style="fill: none; stroke: #ffffff; stroke-width: 3; stroke-linecap: round"/>
    <path d="M 230.925471 53.46 
L 231.925471 53.491436 
L 232.925471 53.528377 
L 233.925471 53.626123 
L 234.925471 53.658645 
L 235.925471 53.73227 
L 236.925471 53.770835 
L 237.925471 53.806248 
L 238.925471 53.863888 
L 239.925471 53.934274 
L 240.925471 53.986239 
L 241.925471 54.045328 
L 242.925471 54.133649 
L 243.925471 54.179794 
L 244.925471 54.222205 
L 245.925471 54.252697 
L 246.925471 54.278742 
L 247.925471 54.299942 
L 248.925471 54.354243 
L 249.925471 54.382181 
L 250.925471 54.411905 
L 251.925471 54.4373 
L 252.925471 54.4485 
L 253.925471 54.458624 
L 254.925471 54.45842 
L 255.925471 54.44891 
L 256.925471 54.437256 
L 257.925471 54.406227 
L 258.925471 54.395059 
L 259.925471 54.364942 
L 260.925471 54.305165 
L 261.925471 54.267973 
L 262.925471 54.228877 
L 263.925471 54.186437 
L 264.925471 54.153672 
L 265.925471 54.086246 
L 266.925471 54.04712 
L 267.925471 54.004445 
L 268.925471 53.933865 
L 269.925471 53.897474 
L 270.925471 53.839071 
L 271.925471 53.728118 
L 272.959447 53.65746 
" clip-path="url(#p6c17d66d89)" style="fill: none; stroke: #2ca02c; stroke-linecap: round"/>
    <path d="M 268.959447 51.46 
L 269.839815 51.935331 
L 270.717722 52.415585 
L 271.568436 52.950226 
L 272.87061 53.637673 
L 271.943257 53.663688 
L 271.031583 54.076408 
L 270.121318 54.491947 
L 268.778822 55.098751 
L 269.433721 54.46 
L 269.485685 53.46 
L 269.544775 51.46 
z
" clip-path="url(#p6c17d66d89)" style="fill: #ffffff; stroke: #ffffff; stroke-width: 3; stroke-linecap: round"/>
    <path d="M 268.959447 51.46 
L 269.839815 51.935331 
L 270.717722 52.415585 
L 271.568436 52.950226 
L 272.87061 53.637673 
L 271.943257 53.663688 
L 271.031583 54.076408 
L 270.121318 54.491947 
L 268.778822 55.098751 
L 269.433721 54.46 
L 269.485685 53.46 
L 269.544775 51.46 
z
" clip-path="url(#p6c17d66d89)" style="fill: #ffffff; stroke: #2ca02c; stroke-linecap: round"/>
   </g>
   <g id="patch_11">
    <path d="M 274.075311 96.482253 
L 273.075311 96.450816 
L 272.075311 96.413876 
L 271.075311 96.31613 
L 270.075311 96.283608 
L 269.075311 96.209983 
L 268.075311 96.171418 
L 267.075311 96.136004 
L 266.075311 96.078365 
L 265.075311 96.007978 
L 264.075311 95.956014 
L 263.075311 95.896924 
L 262.075311 95.808603 
L 261.075311 95.762459 
L 260.075311 95.720048 
L 259.075311 95.689555 
L 258.075311 95.663511 
L 257.075311 95.64231 
L 256.075311 95.588009 
L 255.075311 95.560072 
L 254.075311 95.530348 
L 253.075311 95.504953 
L 252.075311 95.493753 
L 251.075311 95.483629 
L 250.075311 95.483833 
L 249.075311 95.493343 
L 248.075311 95.504996 
L 247.075311 95.536026 
L 246.075311 95.547194 
L 245.075311 95.577311 
L 244.075311 95.637088 
L 243.075311 95.67428 
L 242.075311 95.713376 
L 241.075311 95.755815 
L 240.075311 95.78858 
L 239.075311 95.856007 
L 238.075311 95.895133 
L 237.075311 95.937807 
L 236.075311 96.008388 
L 235.075311 96.044779 
L 234.075311 96.103182 
L 233.075311 96.214135 
L 232.041335 96.284793 
" clip-path="url(#p6c17d66d89)" style="fill: none; stroke: #ffffff; stroke-width: 3; stroke-linecap: round"/>
    <path d="M 274.075311 96.482253 
L 273.075311 96.450816 
L 272.075311 96.413876 
L 271.075311 96.31613 
L 270.075311 96.283608 
L 269.075311 96.209983 
L 268.075311 96.171418 
L 267.075311 96.136004 
L 266.075311 96.078365 
L 265.075311 96.007978 
L 264.075311 95.956014 
L 263.075311 95.896924 
L 262.075311 95.808603 
L 261.075311 95.762459 
L 260.075311 95.720048 
L 259.075311 95.689555 
L 258.075311 95.663511 
L 257.075311 95.64231 
L 256.075311 95.588009 
L 255.075311 95.560072 
L 254.075311 95.530348 
L 253.075311 95.504953 
L 252.075311 95.493753 
L 251.075311 95.483629 
L 250.075311 95.483833 
L 249.075311 95.493343 
L 248.075311 95.504996 
L 247.075311 95.536026 
L 246.075311 95.547194 
L 245.075311 95.577311 
L 244.075311 95.637088 
L 243.075311 95.67428 
L 242.075311 95.713376 
L 241.075311 95.755815 
L 240.075311 95.78858 
L 239.075311 95.856007 
L 238.075311 95.895133 
L 237.075311 95.937807 
L 236.075311 96.008388 
L 235.075311 96.044779 
L 234.075311 96.103182 
L 233.075311 96.214135 
L 232.041335 96.284793 
" clip-path="url(#p6c17d66d89)" style="fill: none; stroke: #808080; stroke-linecap: round"/>
    <path d="M 236.041335 98.482253 
L 235.160966 98.006922 
L 234.283059 97.526668 
L 233.432346 96.992027 
L 232.130171 96.304579 
L 233.057524 96.278565 
L 233.969199 95.865845 
L 234.879463 95.450306 
L 236.221959 94.843502 
L 235.56706 95.482253 
L 235.515096 96.482253 
L 235.456006 98.482253 
z
" clip-path="url(#p6c17d66d89)" style="fill: #ffffff; stroke: #ffffff; stroke-width: 3; stroke-linecap: round"/>
    <path d="M 236.041335 98.482253 
L 235.160966 98.006922 
L 234.283059 97.526668 
L 233.432346 96.992027 
L 232.130171 96.304579 
L 233.057524 96.278565 
L 233.969199 95.865845 
L 234.879463 95.450306 
L 236.221959 94.843502 
L 235.56706 95.482253 
L 235.515096 96.482253 
L 235.456006 98.482253 
z
" clip-path="url(#p6c17d66d89)" style="fill: #ffffff; stroke: #808080; stroke-linecap: round"/>
   </g>
   <g id="patch_12">
    <path d="M 336.667337 96.482253 
L 337.667337 96.513689 
L 338.667337 96.55063 
L 339.667337 96.648376 
L 340.667337 96.680898 
L 341.667337 96.754522 
L 342.667337 96.793088 
L 343.667337 96.828501 
L 344.667337 96.886141 
L 345.667337 96.956527 
L 346.667337 97.008491 
L 347.667337 97.067581 
L 348.667337 97.155902 
L 349.667337 97.202047 
L 350.667337 97.244457 
L 351.667337 97.27495 
L 352.667337 97.300995 
L 353.667337 97.322195 
L 354.667337 97.376496 
L 355.667337 97.404434 
L 356.667337 97.434158 
L 357.667337 97.459553 
L 358.667337 97.470753 
L 359.667337 97.480877 
L 360.667337 97.480673 
L 361.667337 97.471163 
L 362.667337 97.459509 
L 363.667337 97.42848 
L 364.667337 97.417312 
L 365.667337 97.387194 
L 366.667337 97.327418 
L 367.667337 97.290226 
L 368.667337 97.25113 
L 369.667337 97.20869 
L 370.667337 97.175925 
L 371.667337 97.108499 
L 372.667337 97.069373 
L 373.667337 97.026698 
L 374.667337 96.956118 
L 375.667337 96.919727 
L 376.667337 96.861324 
L 377.667337 96.750371 
L 378.701313 96.679713 
" clip-path="url(#p6c17d66d89)" style="fill: none; stroke: #ffffff; stroke-width: 3; stroke-linecap: round"/>
    <path d="M 336.667337 96.482253 
L 337.667337 96.513689 
L 338.667337 96.55063 
L 339.667337 96.648376 
L 340.667337 96.680898 
L 341.667337 96.754522 
L 342.667337 96.793088 
L 343.667337 96.828501 
L 344.667337 96.886141 
L 345.667337 96.956527 
L 346.667337 97.008491 
L 347.667337 97.067581 
L 348.667337 97.155902 
L 349.667337 97.202047 
L 350.667337 97.244457 
L 351.667337 97.27495 
L 352.667337 97.300995 
L 353.667337 97.322195 
L 354.667337 97.376496 
L 355.667337 97.404434 
L 356.667337 97.434158 
L 357.667337 97.459553 
L 358.667337 97.470753 
L 359.667337 97.480877 
L 360.667337 97.480673 
L 361.667337 97.471163 
L 362.667337 97.459509 
L 363.667337 97.42848 
L 364.667337 97.417312 
L 365.667337 97.387194 
L 366.667337 97.327418 
L 367.667337 97.290226 
L 368.667337 97.25113 
L 369.667337 97.20869 
L 370.667337 97.175925 
L 371.667337 97.108499 
L 372.667337 97.069373 
L 373.667337 97.026698 
L 374.667337 96.956118 
L 375.667337 96.919727 
L 376.667337 96.861324 
L 377.667337 96.750371 
L 378.701313 96.679713 
" clip-path="url(#p6c17d66d89)" style="fill: none; stroke: #808080; stroke-linecap: round"/>
    <path d="M 374.701313 94.482253 
L 375.581681 94.957584 
L 376.459588 95.437838 
L 377.310301 95.972479 
L 378.612476 96.659926 
L 377.685123 96.685941 
L 376.773448 97.098661 
L 375.863184 97.5142 
L 374.520688 98.121004 
L 375.175587 97.482253 
L 375.227551 96.482253 
L 375.286641 94.482253 
z
" clip-path="url(#p6c17d66d89)" style="fill: #ffffff; stroke: #ffffff; stroke-width: 3; stroke-linecap: round"/>
    <path d="M 374.701313 94.482253 
L 375.581681 94.957584 
L 376.459588 95.437838 
L 377.310301 95.972479 
L 378.612476 96.659926 
L 377.685123 96.685941 
L 376.773448 97.098661 
L 375.863184 97.5142 
L 374.520688 98.121004 
L 375.175587 97.482253 
L 375.227551 96.482253 
L 375.286641 94.482253 
z
" clip-path="url(#p6c17d66d89)" style="fill: #ffffff; stroke: #808080; stroke-linecap: round"/>
   </g>
   <g id="patch_13">
    <path d="M 230.925471 152.455494 
L 231.925471 152.486931 
L 232.925471 152.523871 
L 233.925471 152.621618 
L 234.925471 152.654139 
L 235.925471 152.727764 
L 236.925471 152.76633 
L 237.925471 152.801743 
L 238.925471 152.859383 
L 239.925471 152.929769 
L 240.925471 152.981733 
L 241.925471 153.040823 
L 242.925471 153.129144 
L 243.925471 153.175288 
L 244.925471 153.217699 
L 245.925471 153.248192 
L 246.925471 153.274237 
L 247.925471 153.295437 
L 248.925471 153.349738 
L 249.925471 153.377675 
L 250.925471 153.407399 
L 251.925471 153.432794 
L 252.925471 153.443995 
L 253.925471 153.454119 
L 254.925471 153.453914 
L 255.925471 153.444404 
L 256.925471 153.432751 
L 257.925471 153.401721 
L 258.925471 153.390554 
L 259.925471 153.360436 
L 260.925471 153.300659 
L 261.925471 153.263468 
L 262.925471 153.224371 
L 263.925471 153.181932 
L 264.925471 153.149167 
L 265.925471 153.08174 
L 266.925471 153.042614 
L 267.925471 152.99994 
L 268.925471 152.929359 
L 269.925471 152.892968 
L 270.925471 152.834565 
L 271.925471 152.723613 
L 272.959447 152.652954 
" clip-path="url(#p6c17d66d89)" style="fill: none; stroke: #ffffff; stroke-width: 3; stroke-linecap: round"/>
    <path d="M 230.925471 152.455494 
L 231.925471 152.486931 
L 232.925471 152.523871 
L 233.925471 152.621618 
L 234.925471 152.654139 
L 235.925471 152.727764 
L 236.925471 152.76633 
L 237.925471 152.801743 
L 238.925471 152.859383 
L 239.925471 152.929769 
L 240.925471 152.981733 
L 241.925471 153.040823 
L 242.925471 153.129144 
L 243.925471 153.175288 
L 244.925471 153.217699 
L 245.925471 153.248192 
L 246.925471 153.274237 
L 247.925471 153.295437 
L 248.925471 153.349738 
L 249.925471 153.377675 
L 250.925471 153.407399 
L 251.925471 153.432794 
L 252.925471 153.443995 
L 253.925471 153.454119 
L 254.925471 153.453914 
L 255.925471 153.444404 
L 256.925471 153.432751 
L 257.925471 153.401721 
L 258.925471 153.390554 
L 259.925471 153.360436 
L 260.925471 153.300659 
L 261.925471 153.263468 
L 262.925471 153.224371 
L 263.925471 153.181932 
L 264.925471 153.149167 
L 265.925471 153.08174 
L 266.925471 153.042614 
L 267.925471 152.99994 
L 268.925471 152.929359 
L 269.925471 152.892968 
L 270.925471 152.834565 
L 271.925471 152.723613 
L 272.959447 152.652954 
" clip-path="url(#p6c17d66d89)" style="fill: none; stroke: #1f77b4; stroke-linecap: round"/>
    <path d="M 268.959447 150.455494 
L 269.839815 150.930825 
L 270.717722 151.41108 
L 271.568436 151.94572 
L 272.87061 152.633168 
L 271.943257 152.659183 
L 271.031583 153.071902 
L 270.121318 153.487441 
L 268.778822 154.094246 
L 269.433721 153.455494 
L 269.485685 152.455494 
L 269.544775 150.455494 
z
" clip-path="url(#p6c17d66d89)" style="fill: #ffffff; stroke: #ffffff; stroke-width: 3; stroke-linecap: round"/>
    <path d="M 268.959447 150.455494 
L 269.839815 150.930825 
L 270.717722 151.41108 
L 271.568436 151.94572 
L 272.87061 152.633168 
L 271.943257 152.659183 
L 271.031583 153.071902 
L 270.121318 153.487441 
L 268.778822 154.094246 
L 269.433721 153.455494 
L 269.485685 152.455494 
L 269.544775 150.455494 
z
" clip-path="url(#p6c17d66d89)" style="fill: #ffffff; stroke: #1f77b4; stroke-linecap: round"/>
   </g>
   <g id="patch_14">
    <path d="M 379.817176 152.455494 
L 378.817176 152.424058 
L 377.817176 152.387118 
L 376.817176 152.289371 
L 375.817176 152.256849 
L 374.817176 152.183225 
L 373.817176 152.144659 
L 372.817176 152.109246 
L 371.817176 152.051606 
L 370.817176 151.98122 
L 369.817176 151.929256 
L 368.817176 151.870166 
L 367.817176 151.781845 
L 366.817176 151.735701 
L 365.817176 151.69329 
L 364.817176 151.662797 
L 363.817176 151.636752 
L 362.817176 151.615552 
L 361.817176 151.561251 
L 360.817176 151.533313 
L 359.817176 151.503589 
L 358.817176 151.478195 
L 357.817176 151.466994 
L 356.817176 151.45687 
L 355.817176 151.457075 
L 354.817176 151.466584 
L 353.817176 151.478238 
L 352.817176 151.509267 
L 351.817176 151.520435 
L 350.817176 151.550553 
L 349.817176 151.61033 
L 348.817176 151.647521 
L 347.817176 151.686617 
L 346.817176 151.729057 
L 345.817176 151.761822 
L 344.817176 151.829248 
L 343.817176 151.868374 
L 342.817176 151.911049 
L 341.817176 151.981629 
L 340.817176 152.01802 
L 339.817176 152.076424 
L 338.817176 152.187376 
L 337.7832 152.258034 
" clip-path="url(#p6c17d66d89)" style="fill: none; stroke: #ffffff; stroke-width: 3; stroke-linecap: round"/>
    <path d="M 379.817176 152.455494 
L 378.817176 152.424058 
L 377.817176 152.387118 
L 376.817176 152.289371 
L 375.817176 152.256849 
L 374.817176 152.183225 
L 373.817176 152.144659 
L 372.817176 152.109246 
L 371.817176 152.051606 
L 370.817176 151.98122 
L 369.817176 151.929256 
L 368.817176 151.870166 
L 367.817176 151.781845 
L 366.817176 151.735701 
L 365.817176 151.69329 
L 364.817176 151.662797 
L 363.817176 151.636752 
L 362.817176 151.615552 
L 361.817176 151.561251 
L 360.817176 151.533313 
L 359.817176 151.503589 
L 358.817176 151.478195 
L 357.817176 151.466994 
L 356.817176 151.45687 
L 355.817176 151.457075 
L 354.817176 151.466584 
L 353.817176 151.478238 
L 352.817176 151.509267 
L 351.817176 151.520435 
L 350.817176 151.550553 
L 349.817176 151.61033 
L 348.817176 151.647521 
L 347.817176 151.686617 
L 346.817176 151.729057 
L 345.817176 151.761822 
L 344.817176 151.829248 
L 343.817176 151.868374 
L 342.817176 151.911049 
L 341.817176 151.981629 
L 340.817176 152.01802 
L 339.817176 152.076424 
L 338.817176 152.187376 
L 337.7832 152.258034 
" clip-path="url(#p6c17d66d89)" style="fill: none; stroke: #d62728; stroke-linecap: round"/>
    <path d="M 341.7832 154.455494 
L 340.902832 153.980163 
L 340.024925 153.499909 
L 339.174211 152.965268 
L 337.872037 152.277821 
L 338.79939 152.251806 
L 339.711065 151.839087 
L 340.621329 151.423547 
L 341.963825 150.816743 
L 341.308926 151.455494 
L 341.256962 152.455494 
L 341.197872 154.455494 
z
" clip-path="url(#p6c17d66d89)" style="fill: #ffffff; stroke: #ffffff; stroke-width: 3; stroke-linecap: round"/>
    <path d="M 341.7832 154.455494 
L 340.902832 153.980163 
L 340.024925 153.499909 
L 339.174211 152.965268 
L 337.872037 152.277821 
L 338.79939 152.251806 
L 339.711065 151.839087 
L 340.621329 151.423547 
L 341.963825 150.816743 
L 341.308926 151.455494 
L 341.256962 152.455494 
L 341.197872 154.455494 
z
" clip-path="url(#p6c17d66d89)" style="fill: #ffffff; stroke: #d62728; stroke-linecap: round"/>
   </g>
   <g id="patch_15">
    <path d="M 125.098925 153.024072 
L 126.054643 153.320029 
L 127.0089 153.621291 
L 127.947003 153.981176 
L 128.902433 154.278179 
L 129.846945 154.614808 
L 130.800769 154.917638 
L 131.755431 155.217428 
L 132.704189 155.538647 
L 133.64956 155.872154 
L 134.599826 156.187901 
L 136.086438 156.658829 
L 137.072964 156.968137 
L 138.039435 157.229028 
L 139.006711 157.486273 
L 139.97656 157.731881 
L 140.947369 157.973146 
L 141.919223 158.20968 
L 142.883933 158.478535 
L 143.854334 158.721648 
L 144.824348 158.966505 
L 145.795297 159.207135 
L 146.76931 159.433905 
L 147.743555 159.659624 
L 148.720029 159.875258 
L 149.698512 160.081806 
L 150.677457 160.286261 
L 151.660585 160.471797 
L 152.639425 160.676726 
L 153.622356 160.863152 
L 154.611688 161.020618 
L 155.596145 161.200137 
L 156.581013 161.377796 
L 158.34601 161.724473 
L 159.390323 161.847914 
L 160.389406 161.927792 
L 161.38434 162.035665 
L 162.379794 162.140027 
L 163.379339 162.216785 
L 164.373873 162.327363 
L 165.371633 162.416166 
L 166.377095 162.452988 
L 167.376651 162.529669 
L 168.382405 162.564525 
L 169.378314 162.665822 
L 170.376496 162.751777 
L 171.372804 162.850377 
L 172.37385 162.917004 
L 173.380421 162.946341 
L 174.379912 163.023464 
L 175.381316 163.087677 
L 176.375373 163.201469 
L 177.372083 163.297361 
L 178.371307 163.376278 
L 179.370212 163.457353 
L 180.835645 163.596739 
L 181.783278 163.638625 
L 182.782453 163.6871 
L 183.781342 163.739391 
L 184.779997 163.794792 
L 185.779166 163.84335 
L 186.780085 163.868597 
L 187.779904 163.908501 
L 188.779783 163.947614 
L 189.778126 164.007168 
L 190.776499 164.066321 
L 191.773948 164.137796 
L 192.771321 164.210263 
L 193.768478 164.285626 
L 194.765526 164.362428 
L 195.761726 164.450525 
L 196.75829 164.53377 
L 197.753871 164.630125 
L 198.749339 164.72797 
L 199.745241 164.820034 
L 200.741051 164.913322 
L 201.736712 165.008595 
L 202.988246 165.119218 
L 203.925384 165.181368 
L 204.925248 165.258414 
L 205.925189 165.292833 
L 206.925067 165.362176 
L 207.924969 165.418004 
L 208.924907 165.453488 
L 209.924745 165.545394 
L 210.924693 165.575709 
L 211.924635 165.608976 
L 212.924579 165.641766 
L 213.924479 165.698354 
L 214.924363 165.764722 
L 215.924293 165.804697 
L 216.924121 165.902412 
L 217.924032 165.95345 
L 218.923952 165.999299 
L 219.923879 166.041203 
L 220.923684 166.15135 
L 221.923608 166.194758 
L 222.923496 166.25868 
L 223.92337 166.330422 
L 225.083518 166.436992 
L 226.114576 166.401236 
L 227.115295 166.375429 
L 228.117633 166.372181 
L 229.118557 166.349236 
L 230.121546 166.355068 
L 231.121168 166.313963 
L 232.123579 166.311733 
L 233.12273 166.264078 
L 234.122214 166.221059 
L 235.122641 166.191179 
L 236.121621 166.141133 
L 237.120055 166.083478 
L 238.119403 166.038566 
L 239.117505 165.976285 
L 240.115832 165.917133 
L 241.114059 165.856593 
L 242.1119 165.790676 
L 243.109677 165.723861 
L 244.106716 165.646761 
L 245.103201 165.561941 
L 246.100098 165.482876 
L 247.27895 165.373444 
L 248.33385 165.198678 
L 249.31822 165.018886 
L 250.304061 164.849207 
L 251.290426 164.68313 
L 252.270105 164.471098 
L 253.248952 164.253351 
L 254.225 164.016363 
L 255.207228 163.821855 
L 256.189042 163.624495 
L 257.173546 163.445623 
L 258.14785 163.196652 
L 259.129904 163.000944 
L 260.114169 162.820434 
L 261.09928 162.645738 
L 262.080054 162.441231 
L 263.059926 162.230526 
L 264.042463 162.038141 
L 265.022655 161.82964 
L 266.006736 161.647862 
L 266.990269 161.462316 
L 267.973798 161.276748 
L 269.277316 161.026937 
L 270.216615 160.704433 
L 271.182164 160.439017 
L 272.150464 160.186136 
L 273.117117 159.92575 
L 274.081695 159.655911 
L 275.051443 159.409627 
L 276.020437 159.159911 
L 276.990308 158.914187 
L 277.95971 158.666324 
L 278.923945 158.394924 
L 279.891009 158.13641 
L 280.861408 157.893095 
L 281.827357 157.629501 
L 282.798705 157.390509 
L 283.770943 157.155568 
L 284.740197 156.907033 
L 285.71174 156.668928 
L 286.685475 156.440809 
L 287.658164 156.207928 
L 288.631557 155.97825 
L 289.605617 155.751611 
L 291.15234 155.406158 
L 292.06445 155.146678 
L 293.027255 154.876432 
L 293.991905 154.612892 
L 294.956805 154.350261 
L 295.923941 154.095757 
L 296.895608 153.857722 
L 297.8714 153.634682 
L 298.841066 153.389372 
L 299.816112 153.163619 
L 300.790919 152.937 
L 302.17151 152.577 
" clip-path="url(#p6c17d66d89)" style="fill: none; stroke: #ffffff; stroke-width: 3; stroke-linecap: round"/>
    <path d="M 125.098925 153.024072 
L 126.054643 153.320029 
L 127.0089 153.621291 
L 127.947003 153.981176 
L 128.902433 154.278179 
L 129.846945 154.614808 
L 130.800769 154.917638 
L 131.755431 155.217428 
L 132.704189 155.538647 
L 133.64956 155.872154 
L 134.599826 156.187901 
L 136.086438 156.658829 
L 137.072964 156.968137 
L 138.039435 157.229028 
L 139.006711 157.486273 
L 139.97656 157.731881 
L 140.947369 157.973146 
L 141.919223 158.20968 
L 142.883933 158.478535 
L 143.854334 158.721648 
L 144.824348 158.966505 
L 145.795297 159.207135 
L 146.76931 159.433905 
L 147.743555 159.659624 
L 148.720029 159.875258 
L 149.698512 160.081806 
L 150.677457 160.286261 
L 151.660585 160.471797 
L 152.639425 160.676726 
L 153.622356 160.863152 
L 154.611688 161.020618 
L 155.596145 161.200137 
L 156.581013 161.377796 
L 158.34601 161.724473 
L 159.390323 161.847914 
L 160.389406 161.927792 
L 161.38434 162.035665 
L 162.379794 162.140027 
L 163.379339 162.216785 
L 164.373873 162.327363 
L 165.371633 162.416166 
L 166.377095 162.452988 
L 167.376651 162.529669 
L 168.382405 162.564525 
L 169.378314 162.665822 
L 170.376496 162.751777 
L 171.372804 162.850377 
L 172.37385 162.917004 
L 173.380421 162.946341 
L 174.379912 163.023464 
L 175.381316 163.087677 
L 176.375373 163.201469 
L 177.372083 163.297361 
L 178.371307 163.376278 
L 179.370212 163.457353 
L 180.835645 163.596739 
L 181.783278 163.638625 
L 182.782453 163.6871 
L 183.781342 163.739391 
L 184.779997 163.794792 
L 185.779166 163.84335 
L 186.780085 163.868597 
L 187.779904 163.908501 
L 188.779783 163.947614 
L 189.778126 164.007168 
L 190.776499 164.066321 
L 191.773948 164.137796 
L 192.771321 164.210263 
L 193.768478 164.285626 
L 194.765526 164.362428 
L 195.761726 164.450525 
L 196.75829 164.53377 
L 197.753871 164.630125 
L 198.749339 164.72797 
L 199.745241 164.820034 
L 200.741051 164.913322 
L 201.736712 165.008595 
L 202.988246 165.119218 
L 203.925384 165.181368 
L 204.925248 165.258414 
L 205.925189 165.292833 
L 206.925067 165.362176 
L 207.924969 165.418004 
L 208.924907 165.453488 
L 209.924745 165.545394 
L 210.924693 165.575709 
L 211.924635 165.608976 
L 212.924579 165.641766 
L 213.924479 165.698354 
L 214.924363 165.764722 
L 215.924293 165.804697 
L 216.924121 165.902412 
L 217.924032 165.95345 
L 218.923952 165.999299 
L 219.923879 166.041203 
L 220.923684 166.15135 
L 221.923608 166.194758 
L 222.923496 166.25868 
L 223.92337 166.330422 
L 225.083518 166.436992 
L 226.114576 166.401236 
L 227.115295 166.375429 
L 228.117633 166.372181 
L 229.118557 166.349236 
L 230.121546 166.355068 
L 231.121168 166.313963 
L 232.123579 166.311733 
L 233.12273 166.264078 
L 234.122214 166.221059 
L 235.122641 166.191179 
L 236.121621 166.141133 
L 237.120055 166.083478 
L 238.119403 166.038566 
L 239.117505 165.976285 
L 240.115832 165.917133 
L 241.114059 165.856593 
L 242.1119 165.790676 
L 243.109677 165.723861 
L 244.106716 165.646761 
L 245.103201 165.561941 
L 246.100098 165.482876 
L 247.27895 165.373444 
L 248.33385 165.198678 
L 249.31822 165.018886 
L 250.304061 164.849207 
L 251.290426 164.68313 
L 252.270105 164.471098 
L 253.248952 164.253351 
L 254.225 164.016363 
L 255.207228 163.821855 
L 256.189042 163.624495 
L 257.173546 163.445623 
L 258.14785 163.196652 
L 259.129904 163.000944 
L 260.114169 162.820434 
L 261.09928 162.645738 
L 262.080054 162.441231 
L 263.059926 162.230526 
L 264.042463 162.038141 
L 265.022655 161.82964 
L 266.006736 161.647862 
L 266.990269 161.462316 
L 267.973798 161.276748 
L 269.277316 161.026937 
L 270.216615 160.704433 
L 271.182164 160.439017 
L 272.150464 160.186136 
L 273.117117 159.92575 
L 274.081695 159.655911 
L 275.051443 159.409627 
L 276.020437 159.159911 
L 276.990308 158.914187 
L 277.95971 158.666324 
L 278.923945 158.394924 
L 279.891009 158.13641 
L 280.861408 157.893095 
L 281.827357 157.629501 
L 282.798705 157.390509 
L 283.770943 157.155568 
L 284.740197 156.907033 
L 285.71174 156.668928 
L 286.685475 156.440809 
L 287.658164 156.207928 
L 288.631557 155.97825 
L 289.605617 155.751611 
L 291.15234 155.406158 
L 292.06445 155.146678 
L 293.027255 154.876432 
L 293.991905 154.612892 
L 294.956805 154.350261 
L 295.923941 154.095757 
L 296.895608 153.857722 
L 297.8714 153.634682 
L 298.841066 153.389372 
L 299.816112 153.163619 
L 300.790919 152.937 
L 302.17151 152.577 
" clip-path="url(#p6c17d66d89)" style="fill: none; stroke: #808080; stroke-linecap: round"/>
    <path d="M 297.97985 152.547851 
L 298.958485 152.755846 
L 299.936145 152.969258 
L 300.90304 153.242515 
L 302.346159 153.535172 
L 301.463715 153.821447 
L 300.705282 154.474339 
L 299.948997 155.129538 
L 298.83189 156.090048 
L 299.280261 155.29264 
L 299.048334 154.31852 
L 298.54146 152.382914 
z
" clip-path="url(#p6c17d66d89)" style="fill: #ffffff; stroke: #ffffff; stroke-width: 3; stroke-linecap: round"/>
    <path d="M 297.97985 152.547851 
L 298.958485 152.755846 
L 299.936145 152.969258 
L 300.90304 153.242515 
L 302.346159 153.535172 
L 301.463715 153.821447 
L 300.705282 154.474339 
L 299.948997 155.129538 
L 298.83189 156.090048 
L 299.280261 155.29264 
L 299.048334 154.31852 
L 298.54146 152.382914 
z
" clip-path="url(#p6c17d66d89)" style="fill: #ffffff; stroke: #808080; stroke-linecap: round"/>
   </g>
   <g id="patch_16">
    <path d="M 45.800781 238.5 
L 45.800781 7.2 
" style="fill: none; stroke: #000000; stroke-width: 0.8; stroke-linejoin: miter; stroke-linecap: square"/>
   </g>
   <g id="text_12">
    <g id="patch_17">
     <path d="M 188.977114 37.33 
L 210.281801 37.33 
Q 212.281801 37.33 212.281801 35.33 
L 212.281801 25.33 
Q 212.281801 23.33 210.281801 23.33 
L 188.977114 23.33 
Q 186.977114 23.33 186.977114 25.33 
L 186.977114 35.33 
Q 186.977114 37.33 188.977114 37.33 
z
" style="fill: #ffffff; opacity: 0.6"/>
    </g>
    <!-- ANC -->
    <g transform="translate(188.977114 32.927656) scale(0.1 -0.1)">
     <defs>
      <path id="DejaVuSans-31" d="M 628 4666 
L 1478 4666 
L 3547 763 
L 3547 4666 
L 4159 4666 
L 4159 0 
L 3309 0 
L 1241 3903 
L 1241 0 
L 628 0 
L 628 4666 
z
" transform="scale(0.015625)"/>
      <path id="DejaVuSans-26" d="M 4122 4306 
L 4122 3641 
Q 3803 3938 3442 4084 
Q 3081 4231 2675 4231 
Q 1875 4231 1450 3742 
Q 1025 3253 1025 2328 
Q 1025 1406 1450 917 
Q 1875 428 2675 428 
Q 3081 428 3442 575 
Q 3803 722 4122 1019 
L 4122 359 
Q 3791 134 3420 21 
Q 3050 -91 2638 -91 
Q 1578 -91 968 557 
Q 359 1206 359 2328 
Q 359 3453 968 4101 
Q 1578 4750 2638 4750 
Q 3056 4750 3426 4639 
Q 3797 4528 4122 4306 
z
" transform="scale(0.015625)"/>
     </defs>
     <use xlink:href="#DejaVuSans-24"/>
     <use xlink:href="#DejaVuSans-31" transform="translate(68.40625 0)"/>
     <use xlink:href="#DejaVuSans-26" transform="translate(143.21875 0)"/>
    </g>
   </g>
   <g id="text_13">
    <g id="patch_18">
     <path d="M 298.520542 81.971126 
L 312.222105 81.971126 
Q 314.222105 81.971126 314.222105 79.971126 
L 314.222105 69.971126 
Q 314.222105 67.971126 312.222105 67.971126 
L 298.520542 67.971126 
Q 296.520542 67.971126 296.520542 69.971126 
L 296.520542 79.971126 
Q 296.520542 81.971126 298.520542 81.971126 
z
" style="fill: #ffffff; opacity: 0.6"/>
    </g>
    <!-- AB -->
    <g transform="translate(298.520542 77.568783) scale(0.1 -0.1)">
     <use xlink:href="#DejaVuSans-24"/>
     <use xlink:href="#DejaVuSans-25" transform="translate(68.40625 0)"/>
    </g>
   </g>
  </g>
 </g>
 <defs>
  <clipPath id="p6c17d66d89">
   <rect x="45.800781" y="7.2" width="413.399219" height="231.3"/>
  </clipPath>
 </defs>
</svg>
