<?xml version="1.0" encoding="utf-8" standalone="no"?>
<!DOCTYPE svg PUBLIC "-//W3C//DTD SVG 1.1//EN"
  "http://www.w3.org/Graphics/SVG/1.1/DTD/svg11.dtd">
<svg xmlns:xlink="http://www.w3.org/1999/xlink" width="466.4pt" height="259.2pt" viewBox="0 0 466.4 259.2" xmlns="http://www.w3.org/2000/svg" version="1.1">
 <metadata>
  <rdf:RDF xmlns:dc="http://purl.org/dc/elements/1.1/" xmlns:cc="http://creativecommons.org/ns#" xmlns:rdf="http://www.w3.org/1999/02/22-rdf-syntax-ns#">
   <cc:Work>
    <dc:type rdf:resource="http://purl.org/dc/dcmitype/StillImage"/>
    <dc:date>2026-07-07T15:32:31.914066</dc:date>
    <dc:format>image/svg+xml</dc:format>
    <dc:creator>
     <cc:Agent>
      <dc:title>Matplotlib v3.11.0, https://matplotlib.org/</dc:title>
     </cc:Agent>
    </dc:creator>
   </cc:Work>
  </rdf:RDF>
 </metadata>
 <defs>
  <style type="text/css">*{stroke-linejoin: round; stroke-linecap: butt}</style>
 </defs>
 <g id="figure_1">
  <g id="patch_1">
   <path d="M 0 259.2 
L 466.4 259.2 
L 466.4 0 
L 0 0 
z
" style="fill: #ffffff"/>
  </g>
  <g id="axes_1">
   <g id="patch_2">
    <path d="M 45.800781 238.5 
L 459.2 238.5 
L 459.2 7.2 
L 45.800781 7.2 
z
" style="fill: #ffffff"/>
   </g>
   <g id="line2d_1">
    <path d="M 344.581301 88.42579 
L 343.581301 88.394354 
L 342.581301 88.357414 
L 341.581301 88.259667 
L 340.581301 88.227145 
L 339.581301 88.153521 
L 338.581301 88.114955 
L 337.581301 88.079542 
L 336.581301 88.021902 
L 335.581301 87.951516 
L 334.581301 87.899552 
L 333.581301 87.840462 
L 332.581301 87.752141 
L 331.581301 87.705997 
L 330.581301 87.663586 
L 329.581301 87.633093 
L 328.581301 87.607048 
L 327.581301 87.585848 
L 326.581301 87.531547 
L 325.581301 87.503609 
L 324.581301 87.473885 
L 323.581301 87.448491 
L 322.581301 87.43729 
L 321.581301 87.427166 
L 320.581301 87.427371 
L 319.581301 87.43688 
L 318.581301 87.448534 
L 317.581301 87.479563 
L 316.581301 87.490731 
L 315.581301 87.520849 
L 314.581301 87.580626 
L 313.581301 87.617817 
L 312.581301 87.656913 
L 311.581301 87.699353 
L 310.581301 87.732118 
L 309.581301 87.799544 
L 308.581301 87.83867 
L 307.581301 87.881345 
L 306.581301 87.951926 
L 305.581301 87.988316 
L 304.581301 88.04672 
L 303.581301 88.157672 
L 302.581301 88.22833 
L 301.581301 88.34127 
L 300.581301 88.387043 
L 299.581301 88.448326 
L 298.581301 88.496826 
L 297.581301 88.577648 
L 296.581301 88.696167 
L 295.581301 88.766378 
L 294.581301 88.84964 
L 293.581301 88.882782 
L 292.581301 88.93402 
L 291.581301 89.002418 
L 290.581301 89.068633 
L 289.581301 89.14555 
L 288.581301 89.172866 
L 287.581301 89.199343 
L 286.581301 89.221994 
L 285.581301 89.241525 
L 284.581301 89.267919 
L 283.581301 89.31769 
L 282.581301 89.352763 
L 281.581301 89.388629 
L 280.581301 89.403996 
L 279.581301 89.419765 
L 278.581301 89.423178 
L 277.581301 89.425596 
L 276.581301 89.42511 
L 275.581301 89.42318 
L 274.581301 89.409923 
L 273.581301 89.401533 
L 272.581301 89.379996 
L 271.581301 89.356964 
L 270.581301 89.33973 
L 269.581301 89.321268 
L 268.581301 89.300815 
L 267.581301 89.284215 
L 266.581301 89.221437 
L 265.581301 89.146171 
L 264.581301 89.113532 
L 263.581301 89.045969 
L 262.581301 88.991922 
L 261.581301 88.958217 
L 260.581301 88.868091 
L 259.581301 88.839556 
L 258.581301 88.80807 
L 257.581301 88.777059 
L 256.581301 88.722251 
L 255.581301 88.657664 
L 254.581301 88.619469 
L 253.581301 88.523534 
L 252.581301 88.474276 
L 251.581301 88.430207 
L 250.581301 88.390083 
L 249.581301 88.281716 
L 248.581301 88.240088 
L 247.581301 88.177947 
L 246.581301 88.107984 
L 245.581301 88.00348 
L 244.581301 87.966492 
L 243.581301 87.920615 
L 242.581301 87.852121 
L 241.581301 87.803375 
L 240.581301 87.725777 
L 239.581301 87.695237 
L 238.581301 87.625722 
L 237.581301 87.601749 
L 236.581301 87.573128 
L 235.581301 87.531334 
L 234.581301 87.509759 
L 233.581301 87.495811 
L 232.581301 87.469088 
L 231.581301 87.459778 
L 230.581301 87.447332 
L 229.581301 87.436277 
L 228.581301 87.430612 
L 227.581301 87.425848 
L 226.581301 87.431396 
L 225.581301 87.444684 
L 224.581301 87.452202 
L 223.581301 87.476986 
L 222.581301 87.500555 
L 221.581301 87.536736 
L 220.581301 87.562698 
L 219.581301 87.585019 
L 218.581301 87.653779 
L 217.581301 87.728314 
L 216.581301 87.822294 
L 215.581301 87.873346 
L 214.581301 87.927279 
L 213.581301 87.96253 
L 212.581301 88.068618 
L 211.581301 88.120882 
L 210.581301 88.157789 
L 209.581301 88.18882 
L 208.581301 88.249975 
L 207.581301 88.317395 
L 206.581301 88.366301 
L 205.581301 88.431494 
L 204.581301 88.469681 
L 203.581301 88.511677 
L 202.581301 88.553694 
L 201.581301 88.613211 
L 200.581301 88.726371 
L 199.581301 88.778621 
L 198.581301 88.818039 
L 197.581301 88.865141 
L 196.581301 88.92192 
L 195.581301 88.954583 
L 194.581301 88.990761 
L 193.581301 89.022852 
L 192.581301 89.057131 
L 191.581301 89.115509 
L 190.581301 89.160694 
L 189.581301 89.190318 
L 188.581301 89.240704 
L 187.581301 89.265902 
L 186.581301 89.286952 
L 185.581301 89.32192 
L 184.581301 89.34621 
L 183.581301 89.360277 
L 182.581301 89.379219 
L 181.581301 89.394881 
L 180.581301 89.407432 
L 179.581301 89.413268 
L 178.581301 89.420151 
L 177.581301 89.425324 
L 176.581301 89.423542 
L 175.581301 89.420816 
L 174.581301 89.409663 
L 173.581301 89.381427 
L 172.581301 89.33764 
L 171.581301 89.31695 
L 170.581301 89.275977 
L 169.581301 89.235902 
L 168.581301 89.216792 
L 167.581301 89.194284 
L 166.581301 89.127632 
L 165.581301 89.077923 
L 164.581301 89.004216 
L 163.581301 88.972902 
L 162.581301 88.89628 
L 161.581301 88.857982 
L 160.41948 88.783865 
" clip-path="url(#p65ff932fd0)" style="fill: none; stroke-dasharray: 3.7,1.6; stroke-dashoffset: 0; stroke: #d62728"/>
   </g>
   <g id="patch_3">
    <path d="M 206.653474 7.2 
L 206.653474 53.46 
M 298.347307 7.2 
L 298.347307 53.46 
" clip-path="url(#p65ff932fd0)" style="fill: none; stroke: #ffffff; stroke-width: 3; stroke-linejoin: miter"/>
    <path d="M 206.653474 7.2 
L 206.653474 53.46 
M 298.347307 7.2 
L 298.347307 53.46 
" clip-path="url(#p65ff932fd0)" style="fill: none; stroke: #2ca02c; stroke-linejoin: miter"/>
   </g>
   <g id="FillBetweenPolyCollection_1">
    <path d="M 298.347307 7.2 
L 206.653474 7.2 
L 206.653474 53.46 
L 298.347307 53.46 
L 298.347307 53.46 
L 298.347307 7.2 
z
" clip-path="url(#p65ff932fd0)" style="fill: #2ca02c; fill-opacity: 0.5"/>
   </g>
   <g id="patch_4">
    <path d="M 64.591655 53.46 
L 64.591655 260.2 
M 156.285488 53.46 
L 156.285488 260.2 
" clip-path="url(#p65ff932fd0)" style="fill: none; stroke: #ffffff; stroke-width: 3; stroke-linejoin: miter"/>
    <path d="M 64.591655 53.46 
L 64.591655 260.2 
M 156.285488 53.46 
L 156.285488 260.2 
" clip-path="url(#p65ff932fd0)" style="fill: none; stroke: #1f77b4; stroke-linejoin: miter"/>
   </g>
   <g id="FillBetweenPolyCollection_2">
    <path d="M 156.285488 53.46 
L 64.591655 53.46 
L 64.591655 50263.236557 
L 156.285488 50263.236557 
L 156.285488 50263.236557 
L 156.285488 53.46 
z
" clip-path="url(#p65ff932fd0)" style="fill: #1f77b4; fill-opacity: 0.5"/>
   </g>
   <g id="patch_5">
    <path d="M 348.715293 53.46 
L 348.715293 260.2 
M 440.409126 53.46 
L 440.409126 260.2 
" clip-path="url(#p65ff932fd0)" style="fill: none; stroke: #ffffff; stroke-width: 3; stroke-linejoin: miter"/>
    <path d="M 348.715293 53.46 
L 348.715293 260.2 
M 440.409126 53.46 
L 440.409126 260.2 
" clip-path="url(#p65ff932fd0)" style="fill: none; stroke: #d62728; stroke-linejoin: miter"/>
   </g>
   <g id="FillBetweenPolyCollection_3">
    <path d="M 440.409126 53.46 
L 348.715293 53.46 
L 348.715293 50263.236557 
L 440.409126 50263.236557 
L 440.409126 50263.236557 
L 440.409126 53.46 
z
" clip-path="url(#p65ff932fd0)" style="fill: #d62728; fill-opacity: 0.5"/>
   </g>
   <g id="patch_6">
    <path d="M 206.653474 164.607398 
L 206.653474 260.2 
M 298.347307 164.607398 
L 298.347307 260.2 
" clip-path="url(#p65ff932fd0)" style="fill: none; stroke: #ffffff; stroke-width: 3; stroke-linejoin: miter"/>
    <path d="M 206.653474 164.607398 
L 206.653474 260.2 
M 298.347307 164.607398 
L 298.347307 260.2 
" clip-path="url(#p65ff932fd0)" style="fill: none; stroke: #ff7f0e; stroke-linejoin: miter"/>
   </g>
   <g id="FillBetweenPolyCollection_4">
    <path d="M 298.347307 164.607398 
L 206.653474 164.607398 
L 206.653474 50263.236557 
L 298.347307 50263.236557 
L 298.347307 50263.236557 
L 298.347307 164.607398 
z
" clip-path="url(#p65ff932fd0)" style="fill: #ff7f0e; fill-opacity: 0.5"/>
   </g>
   <g id="matplotlib.axis_1">
    <g id="xtick_1">
     <g id="line2d_2"/>
     <g id="text_1">
      <!-- A -->
      <g transform="translate(107.018259 249.597656) scale(0.1 -0.1)">
       <defs>
        <path id="DejaVuSans-24" d="M 2188 4044 
L 1331 1722 
L 3047 1722 
L 2188 4044 
z
M 1831 4666 
L 2547 4666 
L 4325 0 
L 3669 0 
L 3244 1197 
L 1141 1197 
L 716 0 
L 50 0 
L 1831 4666 
z
" transform="scale(0.015625)"/>
       </defs>
       <use xlink:href="#DejaVuSans-24"/>
      </g>
     </g>
    </g>
    <g id="xtick_2">
     <g id="line2d_3"/>
     <g id="text_2">
      <!-- B -->
      <g transform="translate(391.131741 249.597656) scale(0.1 -0.1)">
       <defs>
        <path id="DejaVuSans-25" d="M 1259 2228 
L 1259 519 
L 2272 519 
Q 2781 519 3026 730 
Q 3272 941 3272 1375 
Q 3272 1813 3026 2020 
Q 2781 2228 2272 2228 
L 1259 2228 
z
M 1259 4147 
L 1259 2741 
L 2194 2741 
Q 2656 2741 2882 2914 
Q 3109 3088 3109 3444 
Q 3109 3797 2882 3972 
Q 2656 4147 2194 4147 
L 1259 4147 
z
M 628 4666 
L 2241 4666 
Q 2963 4666 3353 4366 
Q 3744 4066 3744 3513 
Q 3744 3084 3544 2831 
Q 3344 2578 2956 2516 
Q 3422 2416 3680 2098 
Q 3938 1781 3938 1306 
Q 3938 681 3513 340 
Q 3088 0 2303 0 
L 628 0 
L 628 4666 
z
" transform="scale(0.015625)"/>
       </defs>
       <use xlink:href="#DejaVuSans-25"/>
      </g>
     </g>
    </g>
    <g id="xtick_3">
     <g id="line2d_4"/>
     <g id="text_3">
      <!-- ADMIX -->
      <g transform="translate(236.016016 249.597656) scale(0.1 -0.1)">
       <defs>
        <path id="DejaVuSans-27" d="M 1259 4147 
L 1259 519 
L 2022 519 
Q 2988 519 3436 956 
Q 3884 1394 3884 2338 
Q 3884 3275 3436 3711 
Q 2988 4147 2022 4147 
L 1259 4147 
z
M 628 4666 
L 1925 4666 
Q 3281 4666 3915 4102 
Q 4550 3538 4550 2338 
Q 4550 1131 3912 565 
Q 3275 0 1925 0 
L 628 0 
L 628 4666 
z
" transform="scale(0.015625)"/>
        <path id="DejaVuSans-30" d="M 628 4666 
L 1569 4666 
L 2759 1491 
L 3956 4666 
L 4897 4666 
L 4897 0 
L 4281 0 
L 4281 4097 
L 3078 897 
L 2444 897 
L 1241 4097 
L 1241 0 
L 628 0 
L 628 4666 
z
" transform="scale(0.015625)"/>
        <path id="DejaVuSans-2c" d="M 628 4666 
L 1259 4666 
L 1259 0 
L 628 0 
L 628 4666 
z
" transform="scale(0.015625)"/>
        <path id="DejaVuSans-3b" d="M 403 4666 
L 1081 4666 
L 2241 2931 
L 3406 4666 
L 4084 4666 
L 2584 2425 
L 4184 0 
L 3506 0 
L 2194 1984 
L 872 0 
L 191 0 
L 1856 2491 
L 403 4666 
z
" transform="scale(0.015625)"/>
       </defs>
       <use xlink:href="#DejaVuSans-24"/>
       <use xlink:href="#DejaVuSans-27" transform="translate(68.40625 0)"/>
       <use xlink:href="#DejaVuSans-30" transform="translate(145.40625 0)"/>
       <use xlink:href="#DejaVuSans-2c" transform="translate(231.6875 0)"/>
       <use xlink:href="#DejaVuSans-3b" transform="translate(261.1875 0)"/>
      </g>
     </g>
    </g>
   </g>
   <g id="matplotlib.axis_2">
    <g id="ytick_1">
     <g id="line2d_5">
      <defs>
       <path id="md71f1e8a95" d="M 0 0 
L -3.5 0 
" style="stroke: #000000; stroke-width: 0.8"/>
      </defs>
      <g>
       <use xlink:href="#md71f1e8a95" x="45.800781" y="238.5" style="stroke: #000000; stroke-width: 0.8"/>
      </g>
     </g>
     <g id="text_4">
      <!-- $\mathdefault{10^{0}}$ -->
      <g transform="translate(21.200781 243.2) scale(0.1 -0.1)">
       <defs>
        <path id="DejaVuSans-14" d="M 794 531 
L 1825 531 
L 1825 4091 
L 703 3866 
L 703 4441 
L 1819 4666 
L 2450 4666 
L 2450 531 
L 3481 531 
L 3481 0 
L 794 0 
L 794 531 
z
" transform="scale(0.015625)"/>
        <path id="DejaVuSans-13" d="M 2034 4250 
Q 1547 4250 1301 3770 
Q 1056 3291 1056 2328 
Q 1056 1369 1301 889 
Q 1547 409 2034 409 
Q 2525 409 2770 889 
Q 3016 1369 3016 2328 
Q 3016 3291 2770 3770 
Q 2525 4250 2034 4250 
z
M 2034 4750 
Q 2819 4750 3233 4129 
Q 3647 3509 3647 2328 
Q 3647 1150 3233 529 
Q 2819 -91 2034 -91 
Q 1250 -91 836 529 
Q 422 1150 422 2328 
Q 422 3509 836 4129 
Q 1250 4750 2034 4750 
z
" transform="scale(0.015625)"/>
       </defs>
       <use xlink:href="#DejaVuSans-14" transform="translate(0 0.746875)"/>
       <use xlink:href="#DejaVuSans-13" transform="translate(63.623047 0.746875)"/>
       <use xlink:href="#DejaVuSans-13" transform="translate(128.203125 42.046875) scale(0.7)"/>
      </g>
     </g>
    </g>
    <g id="ytick_2">
     <g id="line2d_6">
      <g>
       <use xlink:href="#md71f1e8a95" x="45.800781" y="188.475263" style="stroke: #000000; stroke-width: 0.8"/>
      </g>
     </g>
     <g id="text_5">
      <!-- $\mathdefault{10^{1}}$ -->
      <g transform="translate(21.200781 193.125263) scale(0.1 -0.1)">
       <use xlink:href="#DejaVuSans-14" transform="translate(0 0.665625)"/>
       <use xlink:href="#DejaVuSans-13" transform="translate(63.623047 0.665625)"/>
       <use xlink:href="#DejaVuSans-14" transform="translate(128.203125 41.965625) scale(0.7)"/>
      </g>
     </g>
    </g>
    <g id="ytick_3">
     <g id="line2d_7">
      <g>
       <use xlink:href="#md71f1e8a95" x="45.800781" y="138.450527" style="stroke: #000000; stroke-width: 0.8"/>
      </g>
     </g>
     <g id="text_6">
      <!-- $\mathdefault{10^{2}}$ -->
      <g transform="translate(21.200781 143.150527) scale(0.1 -0.1)">
       <defs>
        <path id="DejaVuSans-15" d="M 1228 531 
L 3431 531 
L 3431 0 
L 469 0 
L 469 531 
Q 828 903 1448 1529 
Q 2069 2156 2228 2338 
Q 2531 2678 2651 2914 
Q 2772 3150 2772 3378 
Q 2772 3750 2511 3984 
Q 2250 4219 1831 4219 
Q 1534 4219 1204 4116 
Q 875 4013 500 3803 
L 500 4441 
Q 881 4594 1212 4672 
Q 1544 4750 1819 4750 
Q 2544 4750 2975 4387 
Q 3406 4025 3406 3419 
Q 3406 3131 3298 2873 
Q 3191 2616 2906 2266 
Q 2828 2175 2409 1742 
Q 1991 1309 1228 531 
z
" transform="scale(0.015625)"/>
       </defs>
       <use xlink:href="#DejaVuSans-14" transform="translate(0 0.746875)"/>
       <use xlink:href="#DejaVuSans-13" transform="translate(63.623047 0.746875)"/>
       <use xlink:href="#DejaVuSans-15" transform="translate(128.203125 42.046875) scale(0.7)"/>
      </g>
     </g>
    </g>
    <g id="ytick_4">
     <g id="line2d_8">
      <g>
       <use xlink:href="#md71f1e8a95" x="45.800781" y="88.42579" style="stroke: #000000; stroke-width: 0.8"/>
      </g>
     </g>
     <g id="text_7">
      <!-- $\mathdefault{10^{3}}$ -->
      <g transform="translate(21.200781 93.12579) scale(0.1 -0.1)">
       <defs>
        <path id="DejaVuSans-16" d="M 2597 2516 
Q 3050 2419 3304 2112 
Q 3559 1806 3559 1356 
Q 3559 666 3084 287 
Q 2609 -91 1734 -91 
Q 1441 -91 1130 -33 
Q 819 25 488 141 
L 488 750 
Q 750 597 1062 519 
Q 1375 441 1716 441 
Q 2309 441 2620 675 
Q 2931 909 2931 1356 
Q 2931 1769 2642 2001 
Q 2353 2234 1838 2234 
L 1294 2234 
L 1294 2753 
L 1863 2753 
Q 2328 2753 2575 2939 
Q 2822 3125 2822 3475 
Q 2822 3834 2567 4026 
Q 2313 4219 1838 4219 
Q 1578 4219 1281 4162 
Q 984 4106 628 3988 
L 628 4550 
Q 988 4650 1302 4700 
Q 1616 4750 1894 4750 
Q 2613 4750 3031 4423 
Q 3450 4097 3450 3541 
Q 3450 3153 3228 2886 
Q 3006 2619 2597 2516 
z
" transform="scale(0.015625)"/>
       </defs>
       <use xlink:href="#DejaVuSans-14" transform="translate(0 0.746875)"/>
       <use xlink:href="#DejaVuSans-13" transform="translate(63.623047 0.746875)"/>
       <use xlink:href="#DejaVuSans-16" transform="translate(128.203125 42.046875) scale(0.7)"/>
      </g>
     </g>
    </g>
    <g id="ytick_5">
     <g id="line2d_9">
      <g>
       <use xlink:href="#md71f1e8a95" x="45.800781" y="38.401054" style="stroke: #000000; stroke-width: 0.8"/>
      </g>
     </g>
     <g id="text_8">
      <!-- $\mathdefault{10^{4}}$ -->
      <g transform="translate(21.200781 43.051054) scale(0.1 -0.1)">
       <defs>
        <path id="DejaVuSans-17" d="M 2419 4116 
L 825 1625 
L 2419 1625 
L 2419 4116 
z
M 2253 4666 
L 3047 4666 
L 3047 1625 
L 3713 1625 
L 3713 1100 
L 3047 1100 
L 3047 0 
L 2419 0 
L 2419 1100 
L 313 1100 
L 313 1709 
L 2253 4666 
z
" transform="scale(0.015625)"/>
       </defs>
       <use xlink:href="#DejaVuSans-14" transform="translate(0 0.665625)"/>
       <use xlink:href="#DejaVuSans-13" transform="translate(63.623047 0.665625)"/>
       <use xlink:href="#DejaVuSans-17" transform="translate(128.203125 41.965625) scale(0.7)"/>
      </g>
     </g>
    </g>
    <g id="ytick_6">
     <g id="line2d_10">
      <defs>
       <path id="mbc7c4d6a3d" d="M 0 0 
L -2 0 
" style="stroke: #000000; stroke-width: 0.6"/>
      </defs>
      <g>
       <use xlink:href="#mbc7c4d6a3d" x="45.800781" y="223.441054" style="stroke: #000000; stroke-width: 0.6"/>
      </g>
     </g>
    </g>
    <g id="ytick_7">
     <g id="line2d_11">
      <g>
       <use xlink:href="#mbc7c4d6a3d" x="45.800781" y="214.632135" style="stroke: #000000; stroke-width: 0.6"/>
      </g>
     </g>
    </g>
    <g id="ytick_8">
     <g id="line2d_12">
      <g>
       <use xlink:href="#mbc7c4d6a3d" x="45.800781" y="208.382108" style="stroke: #000000; stroke-width: 0.6"/>
      </g>
     </g>
    </g>
    <g id="ytick_9">
     <g id="line2d_13">
      <g>
       <use xlink:href="#mbc7c4d6a3d" x="45.800781" y="203.53421" style="stroke: #000000; stroke-width: 0.6"/>
      </g>
     </g>
    </g>
    <g id="ytick_10">
     <g id="line2d_14">
      <g>
       <use xlink:href="#mbc7c4d6a3d" x="45.800781" y="199.573189" style="stroke: #000000; stroke-width: 0.6"/>
      </g>
     </g>
    </g>
    <g id="ytick_11">
     <g id="line2d_15">
      <g>
       <use xlink:href="#mbc7c4d6a3d" x="45.800781" y="196.224193" style="stroke: #000000; stroke-width: 0.6"/>
      </g>
     </g>
    </g>
    <g id="ytick_12">
     <g id="line2d_16">
      <g>
       <use xlink:href="#mbc7c4d6a3d" x="45.800781" y="193.323161" style="stroke: #000000; stroke-width: 0.6"/>
      </g>
     </g>
    </g>
    <g id="ytick_13">
     <g id="line2d_17">
      <g>
       <use xlink:href="#mbc7c4d6a3d" x="45.800781" y="190.76427" style="stroke: #000000; stroke-width: 0.6"/>
      </g>
     </g>
    </g>
    <g id="ytick_14">
     <g id="line2d_18">
      <g>
       <use xlink:href="#mbc7c4d6a3d" x="45.800781" y="173.416317" style="stroke: #000000; stroke-width: 0.6"/>
      </g>
     </g>
    </g>
    <g id="ytick_15">
     <g id="line2d_19">
      <g>
       <use xlink:href="#mbc7c4d6a3d" x="45.800781" y="164.607398" style="stroke: #000000; stroke-width: 0.6"/>
      </g>
     </g>
    </g>
    <g id="ytick_16">
     <g id="line2d_20">
      <g>
       <use xlink:href="#mbc7c4d6a3d" x="45.800781" y="158.357371" style="stroke: #000000; stroke-width: 0.6"/>
      </g>
     </g>
    </g>
    <g id="ytick_17">
     <g id="line2d_21">
      <g>
       <use xlink:href="#mbc7c4d6a3d" x="45.800781" y="153.509473" style="stroke: #000000; stroke-width: 0.6"/>
      </g>
     </g>
    </g>
    <g id="ytick_18">
     <g id="line2d_22">
      <g>
       <use xlink:href="#mbc7c4d6a3d" x="45.800781" y="149.548452" style="stroke: #000000; stroke-width: 0.6"/>
      </g>
     </g>
    </g>
    <g id="ytick_19">
     <g id="line2d_23">
      <g>
       <use xlink:href="#mbc7c4d6a3d" x="45.800781" y="146.199457" style="stroke: #000000; stroke-width: 0.6"/>
      </g>
     </g>
    </g>
    <g id="ytick_20">
     <g id="line2d_24">
      <g>
       <use xlink:href="#mbc7c4d6a3d" x="45.800781" y="143.298425" style="stroke: #000000; stroke-width: 0.6"/>
      </g>
     </g>
    </g>
    <g id="ytick_21">
     <g id="line2d_25">
      <g>
       <use xlink:href="#mbc7c4d6a3d" x="45.800781" y="140.739533" style="stroke: #000000; stroke-width: 0.6"/>
      </g>
     </g>
    </g>
    <g id="ytick_22">
     <g id="line2d_26">
      <g>
       <use xlink:href="#mbc7c4d6a3d" x="45.800781" y="123.391581" style="stroke: #000000; stroke-width: 0.6"/>
      </g>
     </g>
    </g>
    <g id="ytick_23">
     <g id="line2d_27">
      <g>
       <use xlink:href="#mbc7c4d6a3d" x="45.800781" y="114.582662" style="stroke: #000000; stroke-width: 0.6"/>
      </g>
     </g>
    </g>
    <g id="ytick_24">
     <g id="line2d_28">
      <g>
       <use xlink:href="#mbc7c4d6a3d" x="45.800781" y="108.332634" style="stroke: #000000; stroke-width: 0.6"/>
      </g>
     </g>
    </g>
    <g id="ytick_25">
     <g id="line2d_29">
      <g>
       <use xlink:href="#mbc7c4d6a3d" x="45.800781" y="103.484737" style="stroke: #000000; stroke-width: 0.6"/>
      </g>
     </g>
    </g>
    <g id="ytick_26">
     <g id="line2d_30">
      <g>
       <use xlink:href="#mbc7c4d6a3d" x="45.800781" y="99.523716" style="stroke: #000000; stroke-width: 0.6"/>
      </g>
     </g>
    </g>
    <g id="ytick_27">
     <g id="line2d_31">
      <g>
       <use xlink:href="#mbc7c4d6a3d" x="45.800781" y="96.17472" style="stroke: #000000; stroke-width: 0.6"/>
      </g>
     </g>
    </g>
    <g id="ytick_28">
     <g id="line2d_32">
      <g>
       <use xlink:href="#mbc7c4d6a3d" x="45.800781" y="93.273688" style="stroke: #000000; stroke-width: 0.6"/>
      </g>
     </g>
    </g>
    <g id="ytick_29">
     <g id="line2d_33">
      <g>
       <use xlink:href="#mbc7c4d6a3d" x="45.800781" y="90.714797" style="stroke: #000000; stroke-width: 0.6"/>
      </g>
     </g>
    </g>
    <g id="ytick_30">
     <g id="line2d_34">
      <g>
       <use xlink:href="#mbc7c4d6a3d" x="45.800781" y="73.366844" style="stroke: #000000; stroke-width: 0.6"/>
      </g>
     </g>
    </g>
    <g id="ytick_31">
     <g id="line2d_35">
      <g>
       <use xlink:href="#mbc7c4d6a3d" x="45.800781" y="64.557925" style="stroke: #000000; stroke-width: 0.6"/>
      </g>
     </g>
    </g>
    <g id="ytick_32">
     <g id="line2d_36">
      <g>
       <use xlink:href="#mbc7c4d6a3d" x="45.800781" y="58.307898" style="stroke: #000000; stroke-width: 0.6"/>
      </g>
     </g>
    </g>
    <g id="ytick_33">
     <g id="line2d_37">
      <g>
       <use xlink:href="#mbc7c4d6a3d" x="45.800781" y="53.46" style="stroke: #000000; stroke-width: 0.6"/>
      </g>
     </g>
    </g>
    <g id="ytick_34">
     <g id="line2d_38">
      <g>
       <use xlink:href="#mbc7c4d6a3d" x="45.800781" y="49.498979" style="stroke: #000000; stroke-width: 0.6"/>
      </g>
     </g>
    </g>
    <g id="ytick_35">
     <g id="line2d_39">
      <g>
       <use xlink:href="#mbc7c4d6a3d" x="45.800781" y="46.149984" style="stroke: #000000; stroke-width: 0.6"/>
      </g>
     </g>
    </g>
    <g id="ytick_36">
     <g id="line2d_40">
      <g>
       <use xlink:href="#mbc7c4d6a3d" x="45.800781" y="43.248952" style="stroke: #000000; stroke-width: 0.6"/>
      </g>
     </g>
    </g>
    <g id="ytick_37">
     <g id="line2d_41">
      <g>
       <use xlink:href="#mbc7c4d6a3d" x="45.800781" y="40.69006" style="stroke: #000000; stroke-width: 0.6"/>
      </g>
     </g>
    </g>
    <g id="ytick_38">
     <g id="line2d_42">
      <g>
       <use xlink:href="#mbc7c4d6a3d" x="45.800781" y="23.342108" style="stroke: #000000; stroke-width: 0.6"/>
      </g>
     </g>
    </g>
    <g id="ytick_39">
     <g id="line2d_43">
      <g>
       <use xlink:href="#mbc7c4d6a3d" x="45.800781" y="14.533189" style="stroke: #000000; stroke-width: 0.6"/>
      </g>
     </g>
    </g>
    <g id="ytick_40">
     <g id="line2d_44">
      <g>
       <use xlink:href="#mbc7c4d6a3d" x="45.800781" y="8.283161" style="stroke: #000000; stroke-width: 0.6"/>
      </g>
     </g>
    </g>
    <g id="text_9">
     <!-- time ago (generations) -->
     <g transform="translate(14.798438 180.321094) rotate(-90) scale(0.1 -0.1)">
      <defs>
       <path id="DejaVuSans-57" d="M 1172 4494 
L 1172 3500 
L 2356 3500 
L 2356 3053 
L 1172 3053 
L 1172 1153 
Q 1172 725 1289 603 
Q 1406 481 1766 481 
L 2356 481 
L 2356 0 
L 1766 0 
Q 1100 0 847 248 
Q 594 497 594 1153 
L 594 3053 
L 172 3053 
L 172 3500 
L 594 3500 
L 594 4494 
L 1172 4494 
z
" transform="scale(0.015625)"/>
       <path id="DejaVuSans-4c" d="M 603 3500 
L 1178 3500 
L 1178 0 
L 603 0 
L 603 3500 
z
M 603 4863 
L 1178 4863 
L 1178 4134 
L 603 4134 
L 603 4863 
z
" transform="scale(0.015625)"/>
       <path id="DejaVuSans-50" d="M 3328 2828 
Q 3544 3216 3844 3400 
Q 4144 3584 4550 3584 
Q 5097 3584 5394 3201 
Q 5691 2819 5691 2113 
L 5691 0 
L 5113 0 
L 5113 2094 
Q 5113 2597 4934 2840 
Q 4756 3084 4391 3084 
Q 3944 3084 3684 2787 
Q 3425 2491 3425 1978 
L 3425 0 
L 2847 0 
L 2847 2094 
Q 2847 2600 2669 2842 
Q 2491 3084 2119 3084 
Q 1678 3084 1418 2786 
Q 1159 2488 1159 1978 
L 1159 0 
L 581 0 
L 581 3500 
L 1159 3500 
L 1159 2956 
Q 1356 3278 1631 3431 
Q 1906 3584 2284 3584 
Q 2666 3584 2933 3390 
Q 3200 3197 3328 2828 
z
" transform="scale(0.015625)"/>
       <path id="DejaVuSans-48" d="M 3597 1894 
L 3597 1613 
L 953 1613 
Q 991 1019 1311 708 
Q 1631 397 2203 397 
Q 2534 397 2845 478 
Q 3156 559 3463 722 
L 3463 178 
Q 3153 47 2828 -22 
Q 2503 -91 2169 -91 
Q 1331 -91 842 396 
Q 353 884 353 1716 
Q 353 2575 817 3079 
Q 1281 3584 2069 3584 
Q 2775 3584 3186 3129 
Q 3597 2675 3597 1894 
z
M 3022 2063 
Q 3016 2534 2758 2815 
Q 2500 3097 2075 3097 
Q 1594 3097 1305 2825 
Q 1016 2553 972 2059 
L 3022 2063 
z
" transform="scale(0.015625)"/>
       <path id="DejaVuSans-3" transform="scale(0.015625)"/>
       <path id="DejaVuSans-44" d="M 2194 1759 
Q 1497 1759 1228 1600 
Q 959 1441 959 1056 
Q 959 750 1161 570 
Q 1363 391 1709 391 
Q 2188 391 2477 730 
Q 2766 1069 2766 1631 
L 2766 1759 
L 2194 1759 
z
M 3341 1997 
L 3341 0 
L 2766 0 
L 2766 531 
Q 2569 213 2275 61 
Q 1981 -91 1556 -91 
Q 1019 -91 701 211 
Q 384 513 384 1019 
Q 384 1609 779 1909 
Q 1175 2209 1959 2209 
L 2766 2209 
L 2766 2266 
Q 2766 2663 2505 2880 
Q 2244 3097 1772 3097 
Q 1472 3097 1187 3025 
Q 903 2953 641 2809 
L 641 3341 
Q 956 3463 1253 3523 
Q 1550 3584 1831 3584 
Q 2591 3584 2966 3190 
Q 3341 2797 3341 1997 
z
" transform="scale(0.015625)"/>
       <path id="DejaVuSans-4a" d="M 2906 1791 
Q 2906 2416 2648 2759 
Q 2391 3103 1925 3103 
Q 1463 3103 1205 2759 
Q 947 2416 947 1791 
Q 947 1169 1205 825 
Q 1463 481 1925 481 
Q 2391 481 2648 825 
Q 2906 1169 2906 1791 
z
M 3481 434 
Q 3481 -459 3084 -895 
Q 2688 -1331 1869 -1331 
Q 1566 -1331 1297 -1286 
Q 1028 -1241 775 -1147 
L 775 -588 
Q 1028 -725 1275 -790 
Q 1522 -856 1778 -856 
Q 2344 -856 2625 -561 
Q 2906 -266 2906 331 
L 2906 616 
Q 2728 306 2450 153 
Q 2172 0 1784 0 
Q 1141 0 747 490 
Q 353 981 353 1791 
Q 353 2603 747 3093 
Q 1141 3584 1784 3584 
Q 2172 3584 2450 3431 
Q 2728 3278 2906 2969 
L 2906 3500 
L 3481 3500 
L 3481 434 
z
" transform="scale(0.015625)"/>
       <path id="DejaVuSans-52" d="M 1959 3097 
Q 1497 3097 1228 2736 
Q 959 2375 959 1747 
Q 959 1119 1226 758 
Q 1494 397 1959 397 
Q 2419 397 2687 759 
Q 2956 1122 2956 1747 
Q 2956 2369 2687 2733 
Q 2419 3097 1959 3097 
z
M 1959 3584 
Q 2709 3584 3137 3096 
Q 3566 2609 3566 1747 
Q 3566 888 3137 398 
Q 2709 -91 1959 -91 
Q 1206 -91 779 398 
Q 353 888 353 1747 
Q 353 2609 779 3096 
Q 1206 3584 1959 3584 
z
" transform="scale(0.015625)"/>
       <path id="DejaVuSans-b" d="M 1984 4856 
Q 1566 4138 1362 3434 
Q 1159 2731 1159 2009 
Q 1159 1288 1364 580 
Q 1569 -128 1984 -844 
L 1484 -844 
Q 1016 -109 783 600 
Q 550 1309 550 2009 
Q 550 2706 781 3412 
Q 1013 4119 1484 4856 
L 1984 4856 
z
" transform="scale(0.015625)"/>
       <path id="DejaVuSans-51" d="M 3513 2113 
L 3513 0 
L 2938 0 
L 2938 2094 
Q 2938 2591 2744 2837 
Q 2550 3084 2163 3084 
Q 1697 3084 1428 2787 
Q 1159 2491 1159 1978 
L 1159 0 
L 581 0 
L 581 3500 
L 1159 3500 
L 1159 2956 
Q 1366 3272 1645 3428 
Q 1925 3584 2291 3584 
Q 2894 3584 3203 3211 
Q 3513 2838 3513 2113 
z
" transform="scale(0.015625)"/>
       <path id="DejaVuSans-55" d="M 2631 2963 
Q 2534 3019 2420 3045 
Q 2306 3072 2169 3072 
Q 1681 3072 1420 2755 
Q 1159 2438 1159 1844 
L 1159 0 
L 581 0 
L 581 3500 
L 1159 3500 
L 1159 2956 
Q 1341 3275 1631 3429 
Q 1922 3584 2338 3584 
Q 2397 3584 2469 3576 
Q 2541 3569 2628 3553 
L 2631 2963 
z
" transform="scale(0.015625)"/>
       <path id="DejaVuSans-56" d="M 2834 3397 
L 2834 2853 
Q 2591 2978 2328 3040 
Q 2066 3103 1784 3103 
Q 1356 3103 1142 2972 
Q 928 2841 928 2578 
Q 928 2378 1081 2264 
Q 1234 2150 1697 2047 
L 1894 2003 
Q 2506 1872 2764 1633 
Q 3022 1394 3022 966 
Q 3022 478 2636 193 
Q 2250 -91 1575 -91 
Q 1294 -91 989 -36 
Q 684 19 347 128 
L 347 722 
Q 666 556 975 473 
Q 1284 391 1588 391 
Q 1994 391 2212 530 
Q 2431 669 2431 922 
Q 2431 1156 2273 1281 
Q 2116 1406 1581 1522 
L 1381 1569 
Q 847 1681 609 1914 
Q 372 2147 372 2553 
Q 372 3047 722 3315 
Q 1072 3584 1716 3584 
Q 2034 3584 2315 3537 
Q 2597 3491 2834 3397 
z
" transform="scale(0.015625)"/>
       <path id="DejaVuSans-c" d="M 513 4856 
L 1013 4856 
Q 1481 4119 1714 3412 
Q 1947 2706 1947 2009 
Q 1947 1309 1714 600 
Q 1481 -109 1013 -844 
L 513 -844 
Q 928 -128 1133 580 
Q 1338 1288 1338 2009 
Q 1338 2731 1133 3434 
Q 928 4138 513 4856 
z
" transform="scale(0.015625)"/>
      </defs>
      <use xlink:href="#DejaVuSans-57"/>
      <use xlink:href="#DejaVuSans-4c" transform="translate(39.203125 0)"/>
      <use xlink:href="#DejaVuSans-50" transform="translate(66.984375 0)"/>
      <use xlink:href="#DejaVuSans-48" transform="translate(164.390625 0)"/>
      <use xlink:href="#DejaVuSans-3" transform="translate(225.921875 0)"/>
      <use xlink:href="#DejaVuSans-44" transform="translate(257.703125 0)"/>
      <use xlink:href="#DejaVuSans-4a" transform="translate(318.984375 0)"/>
      <use xlink:href="#DejaVuSans-52" transform="translate(382.46875 0)"/>
      <use xlink:href="#DejaVuSans-3" transform="translate(443.65625 0)"/>
      <use xlink:href="#DejaVuSans-b" transform="translate(475.4375 0)"/>
      <use xlink:href="#DejaVuSans-4a" transform="translate(514.453125 0)"/>
      <use xlink:href="#DejaVuSans-48" transform="translate(577.9375 0)"/>
      <use xlink:href="#DejaVuSans-51" transform="translate(639.46875 0)"/>
      <use xlink:href="#DejaVuSans-48" transform="translate(702.84375 0)"/>
      <use xlink:href="#DejaVuSans-55" transform="translate(764.375 0)"/>
      <use xlink:href="#DejaVuSans-44" transform="translate(805.484375 0)"/>
      <use xlink:href="#DejaVuSans-57" transform="translate(866.765625 0)"/>
      <use xlink:href="#DejaVuSans-4c" transform="translate(905.96875 0)"/>
      <use xlink:href="#DejaVuSans-52" transform="translate(933.75 0)"/>
      <use xlink:href="#DejaVuSans-51" transform="translate(994.9375 0)"/>
      <use xlink:href="#DejaVuSans-56" transform="translate(1058.3125 0)"/>
      <use xlink:href="#DejaVuSans-c" transform="translate(1110.40625 0)"/>
     </g>
    </g>
   </g>
   <g id="patch_7">
    <path d="M 204.652158 53.46 
L 203.652158 53.428564 
L 202.652158 53.391623 
L 201.652158 53.293877 
L 200.652158 53.261355 
L 199.652158 53.18773 
L 198.652158 53.149165 
L 197.652158 53.113752 
L 196.652158 53.056112 
L 195.652158 52.985726 
L 194.652158 52.933761 
L 193.652158 52.874672 
L 192.652158 52.786351 
L 191.652158 52.740206 
L 190.652158 52.697795 
L 189.652158 52.667303 
L 188.652158 52.641258 
L 187.652158 52.620058 
L 186.652158 52.565757 
L 185.652158 52.537819 
L 184.652158 52.508095 
L 183.652158 52.4827 
L 182.652158 52.4715 
L 181.652158 52.461376 
L 180.652158 52.46158 
L 179.652158 52.47109 
L 178.652158 52.482744 
L 177.652158 52.513773 
L 176.652158 52.524941 
L 175.652158 52.555058 
L 174.652158 52.614835 
L 173.652158 52.652027 
L 172.652158 52.691123 
L 171.652158 52.733563 
L 170.652158 52.766328 
L 169.652158 52.833754 
L 168.652158 52.87288 
L 167.652158 52.915555 
L 166.652158 52.986135 
L 165.652158 53.022526 
L 164.652158 53.080929 
L 163.652158 53.191882 
L 162.652158 53.26254 
L 161.652158 53.37548 
L 160.652158 53.421253 
L 159.402072 53.482536 
" clip-path="url(#p65ff932fd0)" style="fill: none; stroke: #ffffff; stroke-width: 3; stroke-linecap: round"/>
    <path d="M 204.652158 53.46 
L 203.652158 53.428564 
L 202.652158 53.391623 
L 201.652158 53.293877 
L 200.652158 53.261355 
L 199.652158 53.18773 
L 198.652158 53.149165 
L 197.652158 53.113752 
L 196.652158 53.056112 
L 195.652158 52.985726 
L 194.652158 52.933761 
L 193.652158 52.874672 
L 192.652158 52.786351 
L 191.652158 52.740206 
L 190.652158 52.697795 
L 189.652158 52.667303 
L 188.652158 52.641258 
L 187.652158 52.620058 
L 186.652158 52.565757 
L 185.652158 52.537819 
L 184.652158 52.508095 
L 183.652158 52.4827 
L 182.652158 52.4715 
L 181.652158 52.461376 
L 180.652158 52.46158 
L 179.652158 52.47109 
L 178.652158 52.482744 
L 177.652158 52.513773 
L 176.652158 52.524941 
L 175.652158 52.555058 
L 174.652158 52.614835 
L 173.652158 52.652027 
L 172.652158 52.691123 
L 171.652158 52.733563 
L 170.652158 52.766328 
L 169.652158 52.833754 
L 168.652158 52.87288 
L 167.652158 52.915555 
L 166.652158 52.986135 
L 165.652158 53.022526 
L 164.652158 53.080929 
L 163.652158 53.191882 
L 162.652158 53.26254 
L 161.652158 53.37548 
L 160.652158 53.421253 
L 159.402072 53.482536 
" clip-path="url(#p65ff932fd0)" style="fill: none; stroke: #2ca02c; stroke-linecap: round"/>
    <path d="M 163.402072 55.46 
L 162.521703 54.984669 
L 161.643796 54.504415 
L 160.793083 53.969774 
L 159.490908 53.282327 
L 160.418261 53.256312 
L 161.329936 52.843592 
L 162.2402 52.428053 
L 163.582696 51.821249 
L 162.927797 52.46 
L 162.875833 53.46 
L 162.816743 55.46 
z
" clip-path="url(#p65ff932fd0)" style="fill: #ffffff; stroke: #ffffff; stroke-width: 3; stroke-linecap: round"/>
    <path d="M 163.402072 55.46 
L 162.521703 54.984669 
L 161.643796 54.504415 
L 160.793083 53.969774 
L 159.490908 53.282327 
L 160.418261 53.256312 
L 161.329936 52.843592 
L 162.2402 52.428053 
L 163.582696 51.821249 
L 162.927797 52.46 
L 162.875833 53.46 
L 162.816743 55.46 
z
" clip-path="url(#p65ff932fd0)" style="fill: #ffffff; stroke: #2ca02c; stroke-linecap: round"/>
   </g>
   <g id="patch_8">
    <path d="M 300.348623 53.46 
L 301.348623 53.491436 
L 302.348623 53.528377 
L 303.348623 53.626123 
L 304.348623 53.658645 
L 305.348623 53.73227 
L 306.348623 53.770835 
L 307.348623 53.806248 
L 308.348623 53.863888 
L 309.348623 53.934274 
L 310.348623 53.986239 
L 311.348623 54.045328 
L 312.348623 54.133649 
L 313.348623 54.179794 
L 314.348623 54.222205 
L 315.348623 54.252697 
L 316.348623 54.278742 
L 317.348623 54.299942 
L 318.348623 54.354243 
L 319.348623 54.382181 
L 320.348623 54.411905 
L 321.348623 54.4373 
L 322.348623 54.4485 
L 323.348623 54.458624 
L 324.348623 54.45842 
L 325.348623 54.44891 
L 326.348623 54.437256 
L 327.348623 54.406227 
L 328.348623 54.395059 
L 329.348623 54.364942 
L 330.348623 54.305165 
L 331.348623 54.267973 
L 332.348623 54.228877 
L 333.348623 54.186437 
L 334.348623 54.153672 
L 335.348623 54.086246 
L 336.348623 54.04712 
L 337.348623 54.004445 
L 338.348623 53.933865 
L 339.348623 53.897474 
L 340.348623 53.839071 
L 341.348623 53.728118 
L 342.348623 53.65746 
L 343.348623 53.54452 
L 344.348623 53.498747 
L 345.59871 53.437464 
" clip-path="url(#p65ff932fd0)" style="fill: none; stroke: #ffffff; stroke-width: 3; stroke-linecap: round"/>
    <path d="M 300.348623 53.46 
L 301.348623 53.491436 
L 302.348623 53.528377 
L 303.348623 53.626123 
L 304.348623 53.658645 
L 305.348623 53.73227 
L 306.348623 53.770835 
L 307.348623 53.806248 
L 308.348623 53.863888 
L 309.348623 53.934274 
L 310.348623 53.986239 
L 311.348623 54.045328 
L 312.348623 54.133649 
L 313.348623 54.179794 
L 314.348623 54.222205 
L 315.348623 54.252697 
L 316.348623 54.278742 
L 317.348623 54.299942 
L 318.348623 54.354243 
L 319.348623 54.382181 
L 320.348623 54.411905 
L 321.348623 54.4373 
L 322.348623 54.4485 
L 323.348623 54.458624 
L 324.348623 54.45842 
L 325.348623 54.44891 
L 326.348623 54.437256 
L 327.348623 54.406227 
L 328.348623 54.395059 
L 329.348623 54.364942 
L 330.348623 54.305165 
L 331.348623 54.267973 
L 332.348623 54.228877 
L 333.348623 54.186437 
L 334.348623 54.153672 
L 335.348623 54.086246 
L 336.348623 54.04712 
L 337.348623 54.004445 
L 338.348623 53.933865 
L 339.348623 53.897474 
L 340.348623 53.839071 
L 341.348623 53.728118 
L 342.348623 53.65746 
L 343.348623 53.54452 
L 344.348623 53.498747 
L 345.59871 53.437464 
" clip-path="url(#p65ff932fd0)" style="fill: none; stroke: #2ca02c; stroke-linecap: round"/>
    <path d="M 341.59871 51.46 
L 342.479078 51.935331 
L 343.356985 52.415585 
L 344.207699 52.950226 
L 345.509873 53.637673 
L 344.58252 53.663688 
L 343.670846 54.076408 
L 342.760581 54.491947 
L 341.418085 55.098751 
L 342.072984 54.46 
L 342.124948 53.46 
L 342.184038 51.46 
z
" clip-path="url(#p65ff932fd0)" style="fill: #ffffff; stroke: #ffffff; stroke-width: 3; stroke-linecap: round"/>
    <path d="M 341.59871 51.46 
L 342.479078 51.935331 
L 343.356985 52.415585 
L 344.207699 52.950226 
L 345.509873 53.637673 
L 344.58252 53.663688 
L 343.670846 54.076408 
L 342.760581 54.491947 
L 341.418085 55.098751 
L 342.072984 54.46 
L 342.124948 53.46 
L 342.184038 51.46 
z
" clip-path="url(#p65ff932fd0)" style="fill: #ffffff; stroke: #2ca02c; stroke-linecap: round"/>
   </g>
   <g id="patch_9">
    <path d="M 158.286804 164.607398 
L 159.286804 164.638835 
L 160.286804 164.675775 
L 161.286804 164.773522 
L 162.286804 164.806043 
L 163.286804 164.879668 
L 164.286804 164.918234 
L 165.286804 164.953647 
L 166.286804 165.011287 
L 167.286804 165.081673 
L 168.286804 165.133637 
L 169.286804 165.192727 
L 170.286804 165.281048 
L 171.286804 165.327192 
L 172.286804 165.369603 
L 173.286804 165.400096 
L 174.286804 165.426141 
L 175.286804 165.447341 
L 176.286804 165.501642 
L 177.286804 165.529579 
L 178.286804 165.559303 
L 179.286804 165.584698 
L 180.286804 165.595899 
L 181.286804 165.606023 
L 182.286804 165.605818 
L 183.286804 165.596308 
L 184.286804 165.584655 
L 185.286804 165.553626 
L 186.286804 165.542458 
L 187.286804 165.51234 
L 188.286804 165.452563 
L 189.286804 165.415372 
L 190.286804 165.376275 
L 191.286804 165.333836 
L 192.286804 165.301071 
L 193.286804 165.233644 
L 194.286804 165.194518 
L 195.286804 165.151844 
L 196.286804 165.081263 
L 197.286804 165.044872 
L 198.286804 164.986469 
L 199.286804 164.875517 
L 200.286804 164.804858 
L 201.286804 164.691918 
L 202.286804 164.646146 
L 203.53689 164.584862 
" clip-path="url(#p65ff932fd0)" style="fill: none; stroke: #ffffff; stroke-width: 3; stroke-linecap: round"/>
    <path d="M 158.286804 164.607398 
L 159.286804 164.638835 
L 160.286804 164.675775 
L 161.286804 164.773522 
L 162.286804 164.806043 
L 163.286804 164.879668 
L 164.286804 164.918234 
L 165.286804 164.953647 
L 166.286804 165.011287 
L 167.286804 165.081673 
L 168.286804 165.133637 
L 169.286804 165.192727 
L 170.286804 165.281048 
L 171.286804 165.327192 
L 172.286804 165.369603 
L 173.286804 165.400096 
L 174.286804 165.426141 
L 175.286804 165.447341 
L 176.286804 165.501642 
L 177.286804 165.529579 
L 178.286804 165.559303 
L 179.286804 165.584698 
L 180.286804 165.595899 
L 181.286804 165.606023 
L 182.286804 165.605818 
L 183.286804 165.596308 
L 184.286804 165.584655 
L 185.286804 165.553626 
L 186.286804 165.542458 
L 187.286804 165.51234 
L 188.286804 165.452563 
L 189.286804 165.415372 
L 190.286804 165.376275 
L 191.286804 165.333836 
L 192.286804 165.301071 
L 193.286804 165.233644 
L 194.286804 165.194518 
L 195.286804 165.151844 
L 196.286804 165.081263 
L 197.286804 165.044872 
L 198.286804 164.986469 
L 199.286804 164.875517 
L 200.286804 164.804858 
L 201.286804 164.691918 
L 202.286804 164.646146 
L 203.53689 164.584862 
" clip-path="url(#p65ff932fd0)" style="fill: none; stroke: #1f77b4; stroke-linecap: round"/>
    <path d="M 199.53689 162.607398 
L 200.417259 163.08273 
L 201.295166 163.562984 
L 202.145879 164.097624 
L 203.448054 164.785072 
L 202.520701 164.811087 
L 201.609026 165.223806 
L 200.698762 165.639345 
L 199.356266 166.24615 
L 200.011165 165.607398 
L 200.063129 164.607398 
L 200.122219 162.607398 
z
" clip-path="url(#p65ff932fd0)" style="fill: #ffffff; stroke: #ffffff; stroke-width: 3; stroke-linecap: round"/>
    <path d="M 199.53689 162.607398 
L 200.417259 163.08273 
L 201.295166 163.562984 
L 202.145879 164.097624 
L 203.448054 164.785072 
L 202.520701 164.811087 
L 201.609026 165.223806 
L 200.698762 165.639345 
L 199.356266 166.24615 
L 200.011165 165.607398 
L 200.063129 164.607398 
L 200.122219 162.607398 
z
" clip-path="url(#p65ff932fd0)" style="fill: #ffffff; stroke: #1f77b4; stroke-linecap: round"/>
   </g>
   <g id="patch_10">
    <path d="M 346.713977 164.607398 
L 345.713977 164.575962 
L 344.713977 164.539022 
L 343.713977 164.441275 
L 342.713977 164.408753 
L 341.713977 164.335129 
L 340.713977 164.296563 
L 339.713977 164.26115 
L 338.713977 164.20351 
L 337.713977 164.133124 
L 336.713977 164.08116 
L 335.713977 164.02207 
L 334.713977 163.933749 
L 333.713977 163.887605 
L 332.713977 163.845194 
L 331.713977 163.814701 
L 330.713977 163.788656 
L 329.713977 163.767456 
L 328.713977 163.713155 
L 327.713977 163.685217 
L 326.713977 163.655493 
L 325.713977 163.630099 
L 324.713977 163.618898 
L 323.713977 163.608774 
L 322.713977 163.608979 
L 321.713977 163.618488 
L 320.713977 163.630142 
L 319.713977 163.661171 
L 318.713977 163.672339 
L 317.713977 163.702457 
L 316.713977 163.762234 
L 315.713977 163.799425 
L 314.713977 163.838521 
L 313.713977 163.880961 
L 312.713977 163.913726 
L 311.713977 163.981152 
L 310.713977 164.020278 
L 309.713977 164.062953 
L 308.713977 164.133534 
L 307.713977 164.169924 
L 306.713977 164.228328 
L 305.713977 164.33928 
L 304.713977 164.409938 
L 303.713977 164.522878 
L 302.713977 164.568651 
L 301.463891 164.629934 
" clip-path="url(#p65ff932fd0)" style="fill: none; stroke: #ffffff; stroke-width: 3; stroke-linecap: round"/>
    <path d="M 346.713977 164.607398 
L 345.713977 164.575962 
L 344.713977 164.539022 
L 343.713977 164.441275 
L 342.713977 164.408753 
L 341.713977 164.335129 
L 340.713977 164.296563 
L 339.713977 164.26115 
L 338.713977 164.20351 
L 337.713977 164.133124 
L 336.713977 164.08116 
L 335.713977 164.02207 
L 334.713977 163.933749 
L 333.713977 163.887605 
L 332.713977 163.845194 
L 331.713977 163.814701 
L 330.713977 163.788656 
L 329.713977 163.767456 
L 328.713977 163.713155 
L 327.713977 163.685217 
L 326.713977 163.655493 
L 325.713977 163.630099 
L 324.713977 163.618898 
L 323.713977 163.608774 
L 322.713977 163.608979 
L 321.713977 163.618488 
L 320.713977 163.630142 
L 319.713977 163.661171 
L 318.713977 163.672339 
L 317.713977 163.702457 
L 316.713977 163.762234 
L 315.713977 163.799425 
L 314.713977 163.838521 
L 313.713977 163.880961 
L 312.713977 163.913726 
L 311.713977 163.981152 
L 310.713977 164.020278 
L 309.713977 164.062953 
L 308.713977 164.133534 
L 307.713977 164.169924 
L 306.713977 164.228328 
L 305.713977 164.33928 
L 304.713977 164.409938 
L 303.713977 164.522878 
L 302.713977 164.568651 
L 301.463891 164.629934 
" clip-path="url(#p65ff932fd0)" style="fill: none; stroke: #d62728; stroke-linecap: round"/>
    <path d="M 305.463891 166.607398 
L 304.583522 166.132067 
L 303.705615 165.651813 
L 302.854902 165.117172 
L 301.552727 164.429725 
L 302.480081 164.40371 
L 303.391755 163.990991 
L 304.302019 163.575452 
L 305.644515 162.968647 
L 304.989616 163.607398 
L 304.937652 164.607398 
L 304.878562 166.607398 
z
" clip-path="url(#p65ff932fd0)" style="fill: #ffffff; stroke: #ffffff; stroke-width: 3; stroke-linecap: round"/>
    <path d="M 305.463891 166.607398 
L 304.583522 166.132067 
L 303.705615 165.651813 
L 302.854902 165.117172 
L 301.552727 164.429725 
L 302.480081 164.40371 
L 303.391755 163.990991 
L 304.302019 163.575452 
L 305.644515 162.968647 
L 304.989616 163.607398 
L 304.937652 164.607398 
L 304.878562 166.607398 
z
" clip-path="url(#p65ff932fd0)" style="fill: #ffffff; stroke: #d62728; stroke-linecap: round"/>
   </g>
   <g id="line2d_45">
    <path d="M 160.41948 88.42579 
" clip-path="url(#p65ff932fd0)" style="fill: none; stroke-dasharray: 3.7,1.6; stroke-dashoffset: 0; stroke: #d62728"/>
    <path d="M 159.41948 88.42579 
L 161.41948 89.42579 
L 161.41948 87.42579 
z
" clip-path="url(#p65ff932fd0)" style="fill: #d62728; stroke: #d62728; stroke-linejoin: miter"/>
   </g>
   <g id="patch_11">
    <path d="M 45.800781 238.5 
L 45.800781 7.2 
" style="fill: none; stroke: #000000; stroke-width: 0.8; stroke-linejoin: miter; stroke-linecap: square"/>
   </g>
   <g id="text_10">
    <g id="patch_12">
     <path d="M 241.848047 37.33 
L 263.152734 37.33 
Q 265.152734 37.33 265.152734 35.33 
L 265.152734 25.33 
Q 265.152734 23.33 263.152734 23.33 
L 241.848047 23.33 
Q 239.848047 23.33 239.848047 25.33 
L 239.848047 35.33 
Q 239.848047 37.33 241.848047 37.33 
z
" style="fill: #ffffff; opacity: 0.6"/>
    </g>
    <!-- ANC -->
    <g transform="translate(241.848047 32.927656) scale(0.1 -0.1)">
     <defs>
      <path id="DejaVuSans-31" d="M 628 4666 
L 1478 4666 
L 3547 763 
L 3547 4666 
L 4159 4666 
L 4159 0 
L 3309 0 
L 1241 3903 
L 1241 0 
L 628 0 
L 628 4666 
z
" transform="scale(0.015625)"/>
      <path id="DejaVuSans-26" d="M 4122 4306 
L 4122 3641 
Q 3803 3938 3442 4084 
Q 3081 4231 2675 4231 
Q 1875 4231 1450 3742 
Q 1025 3253 1025 2328 
Q 1025 1406 1450 917 
Q 1875 428 2675 428 
Q 3081 428 3442 575 
Q 3803 722 4122 1019 
L 4122 359 
Q 3791 134 3420 21 
Q 3050 -91 2638 -91 
Q 1578 -91 968 557 
Q 359 1206 359 2328 
Q 359 3453 968 4101 
Q 1578 4750 2638 4750 
Q 3056 4750 3426 4639 
Q 3797 4528 4122 4306 
z
" transform="scale(0.015625)"/>
     </defs>
     <use xlink:href="#DejaVuSans-24"/>
     <use xlink:href="#DejaVuSans-31" transform="translate(68.40625 0)"/>
     <use xlink:href="#DejaVuSans-26" transform="translate(143.21875 0)"/>
    </g>
   </g>
  </g>
 </g>
 <defs>
  <clipPath id="p65ff932fd0">
   <rect x="45.800781" y="7.2" width="413.399219" height="231.3"/>
  </clipPath>
 </defs>
</svg>
