<?xml version="1.0" encoding="utf-8" standalone="no"?>
<!DOCTYPE svg PUBLIC "-//W3C//DTD SVG 1.1//EN"
  "http://www.w3.org/Graphics/SVG/1.1/DTD/svg11.dtd">
<svg xmlns:xlink="http://www.w3.org/1999/xlink" width="296.800781pt" height="194.22pt" viewBox="0 0 296.800781 194.22" xmlns="http://www.w3.org/2000/svg" version="1.1">
 <metadata>
  <rdf:RDF xmlns:dc="http://purl.org/dc/elements/1.1/" xmlns:cc="http://creativecommons.org/ns#" xmlns:rdf="http://www.w3.org/1999/02/22-rdf-syntax-ns#">
   <cc:Work>
    <dc:type rdf:resource="http://purl.org/dc/dcmitype/StillImage"/>
    <dc:date>2026-07-06T21:34:23.324942</dc:date>
    <dc:format>image/svg+xml</dc:format>
    <dc:creator>
     <cc:Agent>
      <dc:title>Matplotlib v3.11.0, https://matplotlib.org/</dc:title>
     </cc:Agent>
    </dc:creator>
   </cc:Work>
  </rdf:RDF>
 </metadata>
 <defs>
  <style type="text/css">*{stroke-linejoin: round; stroke-linecap: butt}</style>
 </defs>
 <g id="figure_1">
  <g id="patch_1">
   <path d="M 0 194.22 
L 296.800781 194.22 
L 296.800781 0 
L 0 0 
z
" style="fill: #ffffff"/>
  </g>
  <g id="axes_1">
   <g id="patch_2">
    <path d="M 66.400781 173.52 
L 289.600781 173.52 
L 289.600781 7.2 
L 66.400781 7.2 
z
" style="fill: #ffffff"/>
   </g>
   <g id="patch_3">
    <path d="M 176.935659 7.2 
L 176.935659 40.464 
M 196.506356 7.2 
L 196.506356 40.464 
" clip-path="url(#p95777861b3)" style="fill: none; stroke: #ffffff; stroke-width: 3; stroke-linejoin: miter"/>
    <path d="M 176.935659 7.2 
L 176.935659 40.464 
M 196.506356 7.2 
L 196.506356 40.464 
" clip-path="url(#p95777861b3)" style="fill: none; stroke: #1f77b4; stroke-linejoin: miter"/>
   </g>
   <g id="FillBetweenPolyCollection_1">
    <path d="M 196.506356 7.2 
L 176.935659 7.2 
L 176.935659 40.464 
L 196.506356 40.464 
L 196.506356 40.464 
L 196.506356 7.2 
z
" clip-path="url(#p95777861b3)" style="fill: #1f77b4; fill-opacity: 0.5"/>
   </g>
   <g id="patch_4">
    <path d="M 112.549216 40.464 
L 112.549216 129.168 
M 132.119913 40.464 
L 132.119913 129.168 
" clip-path="url(#p95777861b3)" style="fill: none; stroke: #ffffff; stroke-width: 3; stroke-linejoin: miter"/>
    <path d="M 112.549216 40.464 
L 112.549216 129.168 
M 132.119913 40.464 
L 132.119913 129.168 
" clip-path="url(#p95777861b3)" style="fill: none; stroke: #ff7f0e; stroke-linejoin: miter"/>
   </g>
   <g id="FillBetweenPolyCollection_2">
    <path d="M 132.119913 40.464 
L 112.549216 40.464 
L 112.549216 129.168 
L 132.119913 129.168 
L 132.119913 129.168 
L 132.119913 40.464 
z
" clip-path="url(#p95777861b3)" style="fill: #ff7f0e; fill-opacity: 0.5"/>
   </g>
   <g id="patch_5">
    <path d="M 241.322101 40.464 
L 241.322101 146.9088 
M 260.892798 40.464 
L 260.892798 146.9088 
" clip-path="url(#p95777861b3)" style="fill: none; stroke: #ffffff; stroke-width: 3; stroke-linejoin: miter"/>
    <path d="M 241.322101 40.464 
L 241.322101 146.9088 
M 260.892798 40.464 
L 260.892798 146.9088 
" clip-path="url(#p95777861b3)" style="fill: none; stroke: #2ca02c; stroke-linejoin: miter"/>
   </g>
   <g id="FillBetweenPolyCollection_3">
    <path d="M 260.892798 40.464 
L 241.322101 40.464 
L 241.322101 146.9088 
L 260.892798 146.9088 
L 260.892798 146.9088 
L 260.892798 40.464 
z
" clip-path="url(#p95777861b3)" style="fill: #2ca02c; fill-opacity: 0.5"/>
   </g>
   <g id="patch_6">
    <path d="M 76.546236 129.168 
L 76.546236 173.52 
M 96.116933 129.168 
L 96.116933 173.52 
" clip-path="url(#p95777861b3)" style="fill: none; stroke: #ffffff; stroke-width: 3; stroke-linejoin: miter"/>
    <path d="M 76.546236 129.168 
L 76.546236 173.52 
M 96.116933 129.168 
L 96.116933 173.52 
" clip-path="url(#p95777861b3)" style="fill: none; stroke: #d62728; stroke-linejoin: miter"/>
   </g>
   <g id="FillBetweenPolyCollection_4">
    <path d="M 96.116933 129.168 
L 76.546236 129.168 
L 76.546236 173.52 
L 96.116933 173.52 
L 96.116933 173.52 
L 96.116933 129.168 
z
" clip-path="url(#p95777861b3)" style="fill: #d62728; fill-opacity: 0.5"/>
   </g>
   <g id="patch_7">
    <path d="M 148.552197 129.168 
L 148.552197 173.52 
M 168.122894 129.168 
L 168.122894 173.52 
" clip-path="url(#p95777861b3)" style="fill: none; stroke: #ffffff; stroke-width: 3; stroke-linejoin: miter"/>
    <path d="M 148.552197 129.168 
L 148.552197 173.52 
M 168.122894 129.168 
L 168.122894 173.52 
" clip-path="url(#p95777861b3)" style="fill: none; stroke: #9467bd; stroke-linejoin: miter"/>
   </g>
   <g id="FillBetweenPolyCollection_5">
    <path d="M 168.122894 129.168 
L 148.552197 129.168 
L 148.552197 173.52 
L 168.122894 173.52 
L 168.122894 173.52 
L 168.122894 129.168 
z
" clip-path="url(#p95777861b3)" style="fill: #9467bd; fill-opacity: 0.5"/>
   </g>
   <g id="patch_8">
    <path d="M 222.759572 146.9088 
L 222.759572 173.52 
M 242.330269 146.9088 
L 242.330269 173.52 
" clip-path="url(#p95777861b3)" style="fill: none; stroke: #ffffff; stroke-width: 3; stroke-linejoin: miter"/>
    <path d="M 222.759572 146.9088 
L 222.759572 173.52 
M 242.330269 146.9088 
L 242.330269 173.52 
" clip-path="url(#p95777861b3)" style="fill: none; stroke: #8c564b; stroke-linejoin: miter"/>
   </g>
   <g id="FillBetweenPolyCollection_6">
    <path d="M 242.330269 146.9088 
L 222.759572 146.9088 
L 222.759572 173.52 
L 242.330269 173.52 
L 242.330269 173.52 
L 242.330269 146.9088 
z
" clip-path="url(#p95777861b3)" style="fill: #8c564b; fill-opacity: 0.5"/>
   </g>
   <g id="patch_9">
    <path d="M 259.88463 146.9088 
L 259.88463 173.52 
M 279.455327 146.9088 
L 279.455327 173.52 
" clip-path="url(#p95777861b3)" style="fill: none; stroke: #ffffff; stroke-width: 3; stroke-linejoin: miter"/>
    <path d="M 259.88463 146.9088 
L 259.88463 173.52 
M 279.455327 146.9088 
L 279.455327 173.52 
" clip-path="url(#p95777861b3)" style="fill: none; stroke: #e377c2; stroke-linejoin: miter"/>
   </g>
   <g id="FillBetweenPolyCollection_7">
    <path d="M 279.455327 146.9088 
L 259.88463 146.9088 
L 259.88463 173.52 
L 279.455327 173.52 
L 279.455327 173.52 
L 279.455327 146.9088 
z
" clip-path="url(#p95777861b3)" style="fill: #e377c2; fill-opacity: 0.5"/>
   </g>
   <g id="patch_10">
    <path d="M 185.655885 173.07648 
L 185.655885 173.52 
M 205.226581 173.07648 
L 205.226581 173.52 
" clip-path="url(#p95777861b3)" style="fill: none; stroke: #ffffff; stroke-width: 3; stroke-linejoin: miter"/>
    <path d="M 185.655885 173.07648 
L 185.655885 173.52 
M 205.226581 173.07648 
L 205.226581 173.52 
" clip-path="url(#p95777861b3)" style="fill: none; stroke: #7f7f7f; stroke-linejoin: miter"/>
   </g>
   <g id="FillBetweenPolyCollection_8">
    <path d="M 205.226581 173.07648 
L 185.655885 173.07648 
L 185.655885 173.52 
L 205.226581 173.52 
L 205.226581 173.52 
L 205.226581 173.07648 
z
" clip-path="url(#p95777861b3)" style="fill: #7f7f7f; fill-opacity: 0.5"/>
   </g>
   <g id="matplotlib.axis_1">
    <g id="xtick_1">
     <g id="line2d_1"/>
     <g id="text_1">
      <!-- A_prox -->
      <g transform="translate(69.426897 184.617656) scale(0.1 -0.1)">
       <defs>
        <path id="DejaVuSans-24" d="M 2188 4044 
L 1331 1722 
L 3047 1722 
L 2188 4044 
z
M 1831 4666 
L 2547 4666 
L 4325 0 
L 3669 0 
L 3244 1197 
L 1141 1197 
L 716 0 
L 50 0 
L 1831 4666 
z
" transform="scale(0.015625)"/>
        <path id="DejaVuSans-42" d="M 3263 -1063 
L 3263 -1509 
L -63 -1509 
L -63 -1063 
L 3263 -1063 
z
" transform="scale(0.015625)"/>
        <path id="DejaVuSans-53" d="M 1159 525 
L 1159 -1331 
L 581 -1331 
L 581 3500 
L 1159 3500 
L 1159 2969 
Q 1341 3281 1617 3432 
Q 1894 3584 2278 3584 
Q 2916 3584 3314 3078 
Q 3713 2572 3713 1747 
Q 3713 922 3314 415 
Q 2916 -91 2278 -91 
Q 1894 -91 1617 61 
Q 1341 213 1159 525 
z
M 3116 1747 
Q 3116 2381 2855 2742 
Q 2594 3103 2138 3103 
Q 1681 3103 1420 2742 
Q 1159 2381 1159 1747 
Q 1159 1113 1420 752 
Q 1681 391 2138 391 
Q 2594 391 2855 752 
Q 3116 1113 3116 1747 
z
" transform="scale(0.015625)"/>
        <path id="DejaVuSans-55" d="M 2631 2963 
Q 2534 3019 2420 3045 
Q 2306 3072 2169 3072 
Q 1681 3072 1420 2755 
Q 1159 2438 1159 1844 
L 1159 0 
L 581 0 
L 581 3500 
L 1159 3500 
L 1159 2956 
Q 1341 3275 1631 3429 
Q 1922 3584 2338 3584 
Q 2397 3584 2469 3576 
Q 2541 3569 2628 3553 
L 2631 2963 
z
" transform="scale(0.015625)"/>
        <path id="DejaVuSans-52" d="M 1959 3097 
Q 1497 3097 1228 2736 
Q 959 2375 959 1747 
Q 959 1119 1226 758 
Q 1494 397 1959 397 
Q 2419 397 2687 759 
Q 2956 1122 2956 1747 
Q 2956 2369 2687 2733 
Q 2419 3097 1959 3097 
z
M 1959 3584 
Q 2709 3584 3137 3096 
Q 3566 2609 3566 1747 
Q 3566 888 3137 398 
Q 2709 -91 1959 -91 
Q 1206 -91 779 398 
Q 353 888 353 1747 
Q 353 2609 779 3096 
Q 1206 3584 1959 3584 
z
" transform="scale(0.015625)"/>
        <path id="DejaVuSans-5b" d="M 3513 3500 
L 2247 1797 
L 3578 0 
L 2900 0 
L 1881 1375 
L 863 0 
L 184 0 
L 1544 1831 
L 300 3500 
L 978 3500 
L 1906 2253 
L 2834 3500 
L 3513 3500 
z
" transform="scale(0.015625)"/>
       </defs>
       <use xlink:href="#DejaVuSans-24"/>
       <use xlink:href="#DejaVuSans-42" transform="translate(68.40625 0)"/>
       <use xlink:href="#DejaVuSans-53" transform="translate(118.40625 0)"/>
       <use xlink:href="#DejaVuSans-55" transform="translate(181.890625 0)"/>
       <use xlink:href="#DejaVuSans-52" transform="translate(220.796875 0)"/>
       <use xlink:href="#DejaVuSans-5b" transform="translate(278.90625 0)"/>
      </g>
     </g>
    </g>
    <g id="xtick_2">
     <g id="line2d_2"/>
     <g id="text_2">
      <!-- A -->
      <g transform="translate(154.917233 184.617656) scale(0.1 -0.1)">
       <use xlink:href="#DejaVuSans-24"/>
      </g>
     </g>
    </g>
    <g id="xtick_3">
     <g id="line2d_3"/>
     <g id="text_3">
      <!-- B -->
      <g transform="translate(229.114452 184.617656) scale(0.1 -0.1)">
       <defs>
        <path id="DejaVuSans-25" d="M 1259 2228 
L 1259 519 
L 2272 519 
Q 2781 519 3026 730 
Q 3272 941 3272 1375 
Q 3272 1813 3026 2020 
Q 2781 2228 2272 2228 
L 1259 2228 
z
M 1259 4147 
L 1259 2741 
L 2194 2741 
Q 2656 2741 2882 2914 
Q 3109 3088 3109 3444 
Q 3109 3797 2882 3972 
Q 2656 4147 2194 4147 
L 1259 4147 
z
M 628 4666 
L 2241 4666 
Q 2963 4666 3353 4366 
Q 3744 4066 3744 3513 
Q 3744 3084 3544 2831 
Q 3344 2578 2956 2516 
Q 3422 2416 3680 2098 
Q 3938 1781 3938 1306 
Q 3938 681 3513 340 
Q 3088 0 2303 0 
L 628 0 
L 628 4666 
z
" transform="scale(0.015625)"/>
       </defs>
       <use xlink:href="#DejaVuSans-25"/>
      </g>
     </g>
    </g>
    <g id="xtick_4">
     <g id="line2d_4"/>
     <g id="text_4">
      <!-- B_prox -->
      <g transform="translate(252.755135 184.617656) scale(0.1 -0.1)">
       <use xlink:href="#DejaVuSans-25"/>
       <use xlink:href="#DejaVuSans-42" transform="translate(68.609375 0)"/>
       <use xlink:href="#DejaVuSans-53" transform="translate(118.609375 0)"/>
       <use xlink:href="#DejaVuSans-55" transform="translate(182.09375 0)"/>
       <use xlink:href="#DejaVuSans-52" transform="translate(221 0)"/>
       <use xlink:href="#DejaVuSans-5b" transform="translate(279.109375 0)"/>
      </g>
     </g>
    </g>
    <g id="xtick_5">
     <g id="line2d_5"/>
     <g id="text_5">
      <!-- ADMIX -->
      <g transform="translate(178.956858 184.617656) scale(0.1 -0.1)">
       <defs>
        <path id="DejaVuSans-27" d="M 1259 4147 
L 1259 519 
L 2022 519 
Q 2988 519 3436 956 
Q 3884 1394 3884 2338 
Q 3884 3275 3436 3711 
Q 2988 4147 2022 4147 
L 1259 4147 
z
M 628 4666 
L 1925 4666 
Q 3281 4666 3915 4102 
Q 4550 3538 4550 2338 
Q 4550 1131 3912 565 
Q 3275 0 1925 0 
L 628 0 
L 628 4666 
z
" transform="scale(0.015625)"/>
        <path id="DejaVuSans-30" d="M 628 4666 
L 1569 4666 
L 2759 1491 
L 3956 4666 
L 4897 4666 
L 4897 0 
L 4281 0 
L 4281 4097 
L 3078 897 
L 2444 897 
L 1241 4097 
L 1241 0 
L 628 0 
L 628 4666 
z
" transform="scale(0.015625)"/>
        <path id="DejaVuSans-2c" d="M 628 4666 
L 1259 4666 
L 1259 0 
L 628 0 
L 628 4666 
z
" transform="scale(0.015625)"/>
        <path id="DejaVuSans-3b" d="M 403 4666 
L 1081 4666 
L 2241 2931 
L 3406 4666 
L 4084 4666 
L 2584 2425 
L 4184 0 
L 3506 0 
L 2194 1984 
L 872 0 
L 191 0 
L 1856 2491 
L 403 4666 
z
" transform="scale(0.015625)"/>
       </defs>
       <use xlink:href="#DejaVuSans-24"/>
       <use xlink:href="#DejaVuSans-27" transform="translate(68.40625 0)"/>
       <use xlink:href="#DejaVuSans-30" transform="translate(145.40625 0)"/>
       <use xlink:href="#DejaVuSans-2c" transform="translate(231.6875 0)"/>
       <use xlink:href="#DejaVuSans-3b" transform="translate(261.1875 0)"/>
      </g>
     </g>
    </g>
   </g>
   <g id="matplotlib.axis_2">
    <g id="ytick_1">
     <g id="line2d_6">
      <defs>
       <path id="mb2c833797f" d="M 0 0 
L -3.5 0 
" style="stroke: #000000; stroke-width: 0.8"/>
      </defs>
      <g>
       <use xlink:href="#mb2c833797f" x="66.400781" y="173.52" style="stroke: #000000; stroke-width: 0.8"/>
      </g>
     </g>
     <g id="text_6">
      <!-- $\mathdefault{0}$ -->
      <g transform="translate(53.000781 177.318828) scale(0.1 -0.1)">
       <defs>
        <path id="DejaVuSans-13" d="M 2034 4250 
Q 1547 4250 1301 3770 
Q 1056 3291 1056 2328 
Q 1056 1369 1301 889 
Q 1547 409 2034 409 
Q 2525 409 2770 889 
Q 3016 1369 3016 2328 
Q 3016 3291 2770 3770 
Q 2525 4250 2034 4250 
z
M 2034 4750 
Q 2819 4750 3233 4129 
Q 3647 3509 3647 2328 
Q 3647 1150 3233 529 
Q 2819 -91 2034 -91 
Q 1250 -91 836 529 
Q 422 1150 422 2328 
Q 422 3509 836 4129 
Q 1250 4750 2034 4750 
z
" transform="scale(0.015625)"/>
       </defs>
       <use xlink:href="#DejaVuSans-13" transform="translate(0 0.78125)"/>
      </g>
     </g>
    </g>
    <g id="ytick_2">
     <g id="line2d_7">
      <g>
       <use xlink:href="#mb2c833797f" x="66.400781" y="151.344" style="stroke: #000000; stroke-width: 0.8"/>
      </g>
     </g>
     <g id="text_7">
      <!-- $\mathdefault{25000}$ -->
      <g transform="translate(27.500781 155.142828) scale(0.1 -0.1)">
       <defs>
        <path id="DejaVuSans-15" d="M 1228 531 
L 3431 531 
L 3431 0 
L 469 0 
L 469 531 
Q 828 903 1448 1529 
Q 2069 2156 2228 2338 
Q 2531 2678 2651 2914 
Q 2772 3150 2772 3378 
Q 2772 3750 2511 3984 
Q 2250 4219 1831 4219 
Q 1534 4219 1204 4116 
Q 875 4013 500 3803 
L 500 4441 
Q 881 4594 1212 4672 
Q 1544 4750 1819 4750 
Q 2544 4750 2975 4387 
Q 3406 4025 3406 3419 
Q 3406 3131 3298 2873 
Q 3191 2616 2906 2266 
Q 2828 2175 2409 1742 
Q 1991 1309 1228 531 
z
" transform="scale(0.015625)"/>
        <path id="DejaVuSans-18" d="M 691 4666 
L 3169 4666 
L 3169 4134 
L 1269 4134 
L 1269 2991 
Q 1406 3038 1543 3061 
Q 1681 3084 1819 3084 
Q 2600 3084 3056 2656 
Q 3513 2228 3513 1497 
Q 3513 744 3044 326 
Q 2575 -91 1722 -91 
Q 1428 -91 1123 -41 
Q 819 9 494 109 
L 494 744 
Q 775 591 1075 516 
Q 1375 441 1709 441 
Q 2250 441 2565 725 
Q 2881 1009 2881 1497 
Q 2881 1984 2565 2268 
Q 2250 2553 1709 2553 
Q 1456 2553 1204 2497 
Q 953 2441 691 2322 
L 691 4666 
z
" transform="scale(0.015625)"/>
       </defs>
       <use xlink:href="#DejaVuSans-15" transform="translate(0 0.78125)"/>
       <use xlink:href="#DejaVuSans-18" transform="translate(63.623047 0.78125)"/>
       <use xlink:href="#DejaVuSans-13" transform="translate(127.246094 0.78125)"/>
       <use xlink:href="#DejaVuSans-13" transform="translate(190.869141 0.78125)"/>
       <use xlink:href="#DejaVuSans-13" transform="translate(254.492188 0.78125)"/>
      </g>
     </g>
    </g>
    <g id="ytick_3">
     <g id="line2d_8">
      <g>
       <use xlink:href="#mb2c833797f" x="66.400781" y="129.168" style="stroke: #000000; stroke-width: 0.8"/>
      </g>
     </g>
     <g id="text_8">
      <!-- $\mathdefault{50000}$ -->
      <g transform="translate(27.500781 132.966828) scale(0.1 -0.1)">
       <use xlink:href="#DejaVuSans-18" transform="translate(0 0.78125)"/>
       <use xlink:href="#DejaVuSans-13" transform="translate(63.623047 0.78125)"/>
       <use xlink:href="#DejaVuSans-13" transform="translate(127.246094 0.78125)"/>
       <use xlink:href="#DejaVuSans-13" transform="translate(190.869141 0.78125)"/>
       <use xlink:href="#DejaVuSans-13" transform="translate(254.492188 0.78125)"/>
      </g>
     </g>
    </g>
    <g id="ytick_4">
     <g id="line2d_9">
      <g>
       <use xlink:href="#mb2c833797f" x="66.400781" y="106.992" style="stroke: #000000; stroke-width: 0.8"/>
      </g>
     </g>
     <g id="text_9">
      <!-- $\mathdefault{75000}$ -->
      <g transform="translate(27.500781 110.790828) scale(0.1 -0.1)">
       <defs>
        <path id="DejaVuSans-1a" d="M 525 4666 
L 3525 4666 
L 3525 4397 
L 1831 0 
L 1172 0 
L 2766 4134 
L 525 4134 
L 525 4666 
z
" transform="scale(0.015625)"/>
       </defs>
       <use xlink:href="#DejaVuSans-1a" transform="translate(0 0.78125)"/>
       <use xlink:href="#DejaVuSans-18" transform="translate(63.623047 0.78125)"/>
       <use xlink:href="#DejaVuSans-13" transform="translate(127.246094 0.78125)"/>
       <use xlink:href="#DejaVuSans-13" transform="translate(190.869141 0.78125)"/>
       <use xlink:href="#DejaVuSans-13" transform="translate(254.492188 0.78125)"/>
      </g>
     </g>
    </g>
    <g id="ytick_5">
     <g id="line2d_10">
      <g>
       <use xlink:href="#mb2c833797f" x="66.400781" y="84.816" style="stroke: #000000; stroke-width: 0.8"/>
      </g>
     </g>
     <g id="text_10">
      <!-- $\mathdefault{100000}$ -->
      <g transform="translate(21.200781 88.614828) scale(0.1 -0.1)">
       <defs>
        <path id="DejaVuSans-14" d="M 794 531 
L 1825 531 
L 1825 4091 
L 703 3866 
L 703 4441 
L 1819 4666 
L 2450 4666 
L 2450 531 
L 3481 531 
L 3481 0 
L 794 0 
L 794 531 
z
" transform="scale(0.015625)"/>
       </defs>
       <use xlink:href="#DejaVuSans-14" transform="translate(0 0.78125)"/>
       <use xlink:href="#DejaVuSans-13" transform="translate(63.623047 0.78125)"/>
       <use xlink:href="#DejaVuSans-13" transform="translate(127.246094 0.78125)"/>
       <use xlink:href="#DejaVuSans-13" transform="translate(190.869141 0.78125)"/>
       <use xlink:href="#DejaVuSans-13" transform="translate(254.492188 0.78125)"/>
       <use xlink:href="#DejaVuSans-13" transform="translate(318.115234 0.78125)"/>
      </g>
     </g>
    </g>
    <g id="ytick_6">
     <g id="line2d_11">
      <g>
       <use xlink:href="#mb2c833797f" x="66.400781" y="62.64" style="stroke: #000000; stroke-width: 0.8"/>
      </g>
     </g>
     <g id="text_11">
      <!-- $\mathdefault{125000}$ -->
      <g transform="translate(21.200781 66.438828) scale(0.1 -0.1)">
       <use xlink:href="#DejaVuSans-14" transform="translate(0 0.78125)"/>
       <use xlink:href="#DejaVuSans-15" transform="translate(63.623047 0.78125)"/>
       <use xlink:href="#DejaVuSans-18" transform="translate(127.246094 0.78125)"/>
       <use xlink:href="#DejaVuSans-13" transform="translate(190.869141 0.78125)"/>
       <use xlink:href="#DejaVuSans-13" transform="translate(254.492188 0.78125)"/>
       <use xlink:href="#DejaVuSans-13" transform="translate(318.115234 0.78125)"/>
      </g>
     </g>
    </g>
    <g id="ytick_7">
     <g id="line2d_12">
      <g>
       <use xlink:href="#mb2c833797f" x="66.400781" y="40.464" style="stroke: #000000; stroke-width: 0.8"/>
      </g>
     </g>
     <g id="text_12">
      <!-- $\mathdefault{150000}$ -->
      <g transform="translate(21.200781 44.262828) scale(0.1 -0.1)">
       <use xlink:href="#DejaVuSans-14" transform="translate(0 0.78125)"/>
       <use xlink:href="#DejaVuSans-18" transform="translate(63.623047 0.78125)"/>
       <use xlink:href="#DejaVuSans-13" transform="translate(127.246094 0.78125)"/>
       <use xlink:href="#DejaVuSans-13" transform="translate(190.869141 0.78125)"/>
       <use xlink:href="#DejaVuSans-13" transform="translate(254.492188 0.78125)"/>
       <use xlink:href="#DejaVuSans-13" transform="translate(318.115234 0.78125)"/>
      </g>
     </g>
    </g>
    <g id="ytick_8">
     <g id="line2d_13">
      <g>
       <use xlink:href="#mb2c833797f" x="66.400781" y="18.288" style="stroke: #000000; stroke-width: 0.8"/>
      </g>
     </g>
     <g id="text_13">
      <!-- $\mathdefault{175000}$ -->
      <g transform="translate(21.200781 22.086828) scale(0.1 -0.1)">
       <use xlink:href="#DejaVuSans-14" transform="translate(0 0.78125)"/>
       <use xlink:href="#DejaVuSans-1a" transform="translate(63.623047 0.78125)"/>
       <use xlink:href="#DejaVuSans-18" transform="translate(127.246094 0.78125)"/>
       <use xlink:href="#DejaVuSans-13" transform="translate(190.869141 0.78125)"/>
       <use xlink:href="#DejaVuSans-13" transform="translate(254.492188 0.78125)"/>
       <use xlink:href="#DejaVuSans-13" transform="translate(318.115234 0.78125)"/>
      </g>
     </g>
    </g>
    <g id="text_14">
     <!-- time ago (generations) -->
     <g transform="translate(14.798438 147.831094) rotate(-90) scale(0.1 -0.1)">
      <defs>
       <path id="DejaVuSans-57" d="M 1172 4494 
L 1172 3500 
L 2356 3500 
L 2356 3053 
L 1172 3053 
L 1172 1153 
Q 1172 725 1289 603 
Q 1406 481 1766 481 
L 2356 481 
L 2356 0 
L 1766 0 
Q 1100 0 847 248 
Q 594 497 594 1153 
L 594 3053 
L 172 3053 
L 172 3500 
L 594 3500 
L 594 4494 
L 1172 4494 
z
" transform="scale(0.015625)"/>
       <path id="DejaVuSans-4c" d="M 603 3500 
L 1178 3500 
L 1178 0 
L 603 0 
L 603 3500 
z
M 603 4863 
L 1178 4863 
L 1178 4134 
L 603 4134 
L 603 4863 
z
" transform="scale(0.015625)"/>
       <path id="DejaVuSans-50" d="M 3328 2828 
Q 3544 3216 3844 3400 
Q 4144 3584 4550 3584 
Q 5097 3584 5394 3201 
Q 5691 2819 5691 2113 
L 5691 0 
L 5113 0 
L 5113 2094 
Q 5113 2597 4934 2840 
Q 4756 3084 4391 3084 
Q 3944 3084 3684 2787 
Q 3425 2491 3425 1978 
L 3425 0 
L 2847 0 
L 2847 2094 
Q 2847 2600 2669 2842 
Q 2491 3084 2119 3084 
Q 1678 3084 1418 2786 
Q 1159 2488 1159 1978 
L 1159 0 
L 581 0 
L 581 3500 
L 1159 3500 
L 1159 2956 
Q 1356 3278 1631 3431 
Q 1906 3584 2284 3584 
Q 2666 3584 2933 3390 
Q 3200 3197 3328 2828 
z
" transform="scale(0.015625)"/>
       <path id="DejaVuSans-48" d="M 3597 1894 
L 3597 1613 
L 953 1613 
Q 991 1019 1311 708 
Q 1631 397 2203 397 
Q 2534 397 2845 478 
Q 3156 559 3463 722 
L 3463 178 
Q 3153 47 2828 -22 
Q 2503 -91 2169 -91 
Q 1331 -91 842 396 
Q 353 884 353 1716 
Q 353 2575 817 3079 
Q 1281 3584 2069 3584 
Q 2775 3584 3186 3129 
Q 3597 2675 3597 1894 
z
M 3022 2063 
Q 3016 2534 2758 2815 
Q 2500 3097 2075 3097 
Q 1594 3097 1305 2825 
Q 1016 2553 972 2059 
L 3022 2063 
z
" transform="scale(0.015625)"/>
       <path id="DejaVuSans-3" transform="scale(0.015625)"/>
       <path id="DejaVuSans-44" d="M 2194 1759 
Q 1497 1759 1228 1600 
Q 959 1441 959 1056 
Q 959 750 1161 570 
Q 1363 391 1709 391 
Q 2188 391 2477 730 
Q 2766 1069 2766 1631 
L 2766 1759 
L 2194 1759 
z
M 3341 1997 
L 3341 0 
L 2766 0 
L 2766 531 
Q 2569 213 2275 61 
Q 1981 -91 1556 -91 
Q 1019 -91 701 211 
Q 384 513 384 1019 
Q 384 1609 779 1909 
Q 1175 2209 1959 2209 
L 2766 2209 
L 2766 2266 
Q 2766 2663 2505 2880 
Q 2244 3097 1772 3097 
Q 1472 3097 1187 3025 
Q 903 2953 641 2809 
L 641 3341 
Q 956 3463 1253 3523 
Q 1550 3584 1831 3584 
Q 2591 3584 2966 3190 
Q 3341 2797 3341 1997 
z
" transform="scale(0.015625)"/>
       <path id="DejaVuSans-4a" d="M 2906 1791 
Q 2906 2416 2648 2759 
Q 2391 3103 1925 3103 
Q 1463 3103 1205 2759 
Q 947 2416 947 1791 
Q 947 1169 1205 825 
Q 1463 481 1925 481 
Q 2391 481 2648 825 
Q 2906 1169 2906 1791 
z
M 3481 434 
Q 3481 -459 3084 -895 
Q 2688 -1331 1869 -1331 
Q 1566 -1331 1297 -1286 
Q 1028 -1241 775 -1147 
L 775 -588 
Q 1028 -725 1275 -790 
Q 1522 -856 1778 -856 
Q 2344 -856 2625 -561 
Q 2906 -266 2906 331 
L 2906 616 
Q 2728 306 2450 153 
Q 2172 0 1784 0 
Q 1141 0 747 490 
Q 353 981 353 1791 
Q 353 2603 747 3093 
Q 1141 3584 1784 3584 
Q 2172 3584 2450 3431 
Q 2728 3278 2906 2969 
L 2906 3500 
L 3481 3500 
L 3481 434 
z
" transform="scale(0.015625)"/>
       <path id="DejaVuSans-b" d="M 1984 4856 
Q 1566 4138 1362 3434 
Q 1159 2731 1159 2009 
Q 1159 1288 1364 580 
Q 1569 -128 1984 -844 
L 1484 -844 
Q 1016 -109 783 600 
Q 550 1309 550 2009 
Q 550 2706 781 3412 
Q 1013 4119 1484 4856 
L 1984 4856 
z
" transform="scale(0.015625)"/>
       <path id="DejaVuSans-51" d="M 3513 2113 
L 3513 0 
L 2938 0 
L 2938 2094 
Q 2938 2591 2744 2837 
Q 2550 3084 2163 3084 
Q 1697 3084 1428 2787 
Q 1159 2491 1159 1978 
L 1159 0 
L 581 0 
L 581 3500 
L 1159 3500 
L 1159 2956 
Q 1366 3272 1645 3428 
Q 1925 3584 2291 3584 
Q 2894 3584 3203 3211 
Q 3513 2838 3513 2113 
z
" transform="scale(0.015625)"/>
       <path id="DejaVuSans-56" d="M 2834 3397 
L 2834 2853 
Q 2591 2978 2328 3040 
Q 2066 3103 1784 3103 
Q 1356 3103 1142 2972 
Q 928 2841 928 2578 
Q 928 2378 1081 2264 
Q 1234 2150 1697 2047 
L 1894 2003 
Q 2506 1872 2764 1633 
Q 3022 1394 3022 966 
Q 3022 478 2636 193 
Q 2250 -91 1575 -91 
Q 1294 -91 989 -36 
Q 684 19 347 128 
L 347 722 
Q 666 556 975 473 
Q 1284 391 1588 391 
Q 1994 391 2212 530 
Q 2431 669 2431 922 
Q 2431 1156 2273 1281 
Q 2116 1406 1581 1522 
L 1381 1569 
Q 847 1681 609 1914 
Q 372 2147 372 2553 
Q 372 3047 722 3315 
Q 1072 3584 1716 3584 
Q 2034 3584 2315 3537 
Q 2597 3491 2834 3397 
z
" transform="scale(0.015625)"/>
       <path id="DejaVuSans-c" d="M 513 4856 
L 1013 4856 
Q 1481 4119 1714 3412 
Q 1947 2706 1947 2009 
Q 1947 1309 1714 600 
Q 1481 -109 1013 -844 
L 513 -844 
Q 928 -128 1133 580 
Q 1338 1288 1338 2009 
Q 1338 2731 1133 3434 
Q 928 4138 513 4856 
z
" transform="scale(0.015625)"/>
      </defs>
      <use xlink:href="#DejaVuSans-57"/>
      <use xlink:href="#DejaVuSans-4c" transform="translate(39.203125 0)"/>
      <use xlink:href="#DejaVuSans-50" transform="translate(66.984375 0)"/>
      <use xlink:href="#DejaVuSans-48" transform="translate(164.390625 0)"/>
      <use xlink:href="#DejaVuSans-3" transform="translate(225.921875 0)"/>
      <use xlink:href="#DejaVuSans-44" transform="translate(257.703125 0)"/>
      <use xlink:href="#DejaVuSans-4a" transform="translate(318.984375 0)"/>
      <use xlink:href="#DejaVuSans-52" transform="translate(382.46875 0)"/>
      <use xlink:href="#DejaVuSans-3" transform="translate(443.65625 0)"/>
      <use xlink:href="#DejaVuSans-b" transform="translate(475.4375 0)"/>
      <use xlink:href="#DejaVuSans-4a" transform="translate(514.453125 0)"/>
      <use xlink:href="#DejaVuSans-48" transform="translate(577.9375 0)"/>
      <use xlink:href="#DejaVuSans-51" transform="translate(639.46875 0)"/>
      <use xlink:href="#DejaVuSans-48" transform="translate(702.84375 0)"/>
      <use xlink:href="#DejaVuSans-55" transform="translate(764.375 0)"/>
      <use xlink:href="#DejaVuSans-44" transform="translate(805.484375 0)"/>
      <use xlink:href="#DejaVuSans-57" transform="translate(866.765625 0)"/>
      <use xlink:href="#DejaVuSans-4c" transform="translate(905.96875 0)"/>
      <use xlink:href="#DejaVuSans-52" transform="translate(933.75 0)"/>
      <use xlink:href="#DejaVuSans-51" transform="translate(994.9375 0)"/>
      <use xlink:href="#DejaVuSans-56" transform="translate(1058.3125 0)"/>
      <use xlink:href="#DejaVuSans-c" transform="translate(1110.40625 0)"/>
     </g>
    </g>
   </g>
   <g id="patch_11">
    <path d="M 174.936128 40.464 
L 173.936128 40.432564 
L 172.936128 40.395623 
L 171.936128 40.297877 
L 170.936128 40.265355 
L 169.936128 40.19173 
L 168.936128 40.153165 
L 167.936128 40.117752 
L 166.936128 40.060112 
L 165.936128 39.989726 
L 164.936128 39.937761 
L 163.936128 39.878672 
L 162.936128 39.790351 
L 161.936128 39.744206 
L 160.936128 39.701795 
L 159.936128 39.671303 
L 158.936128 39.645258 
L 157.936128 39.624058 
L 156.936128 39.569757 
L 155.936128 39.541819 
L 154.936128 39.512095 
L 153.936128 39.4867 
L 152.936128 39.4755 
L 151.936128 39.465376 
L 150.936128 39.46558 
L 149.936128 39.47509 
L 148.936128 39.486744 
L 147.936128 39.517773 
L 146.936128 39.528941 
L 145.936128 39.559058 
L 144.936128 39.618835 
L 143.936128 39.656027 
L 142.936128 39.695123 
L 141.936128 39.737563 
L 140.936128 39.770328 
L 139.936128 39.837754 
L 138.936128 39.87688 
L 137.936128 39.919555 
L 136.936128 39.990135 
L 135.237117 40.026526 
" clip-path="url(#p95777861b3)" style="fill: none; stroke: #ffffff; stroke-width: 3; stroke-linecap: round"/>
    <path d="M 174.936128 40.464 
L 173.936128 40.432564 
L 172.936128 40.395623 
L 171.936128 40.297877 
L 170.936128 40.265355 
L 169.936128 40.19173 
L 168.936128 40.153165 
L 167.936128 40.117752 
L 166.936128 40.060112 
L 165.936128 39.989726 
L 164.936128 39.937761 
L 163.936128 39.878672 
L 162.936128 39.790351 
L 161.936128 39.744206 
L 160.936128 39.701795 
L 159.936128 39.671303 
L 158.936128 39.645258 
L 157.936128 39.624058 
L 156.936128 39.569757 
L 155.936128 39.541819 
L 154.936128 39.512095 
L 153.936128 39.4867 
L 152.936128 39.4755 
L 151.936128 39.465376 
L 150.936128 39.46558 
L 149.936128 39.47509 
L 148.936128 39.486744 
L 147.936128 39.517773 
L 146.936128 39.528941 
L 145.936128 39.559058 
L 144.936128 39.618835 
L 143.936128 39.656027 
L 142.936128 39.695123 
L 141.936128 39.737563 
L 140.936128 39.770328 
L 139.936128 39.837754 
L 138.936128 39.87688 
L 137.936128 39.919555 
L 136.936128 39.990135 
L 135.237117 40.026526 
" clip-path="url(#p95777861b3)" style="fill: none; stroke: #1f77b4; stroke-linecap: round"/>
    <path d="M 139.237117 42.464 
L 138.356749 41.988669 
L 137.478842 41.508415 
L 136.628128 40.973774 
L 135.325954 40.286327 
L 136.253307 40.260312 
L 137.164982 39.847592 
L 138.075246 39.432053 
L 139.417742 38.825249 
L 138.762843 39.464 
L 138.710879 40.464 
L 138.651789 42.464 
z
" clip-path="url(#p95777861b3)" style="fill: #ffffff; stroke: #ffffff; stroke-width: 3; stroke-linecap: round"/>
    <path d="M 139.237117 42.464 
L 138.356749 41.988669 
L 137.478842 41.508415 
L 136.628128 40.973774 
L 135.325954 40.286327 
L 136.253307 40.260312 
L 137.164982 39.847592 
L 138.075246 39.432053 
L 139.417742 38.825249 
L 138.762843 39.464 
L 138.710879 40.464 
L 138.651789 42.464 
z
" clip-path="url(#p95777861b3)" style="fill: #ffffff; stroke: #1f77b4; stroke-linecap: round"/>
   </g>
   <g id="patch_12">
    <path d="M 198.505886 40.464 
L 199.505886 40.495436 
L 200.505886 40.532377 
L 201.505886 40.630123 
L 202.505886 40.662645 
L 203.505886 40.73627 
L 204.505886 40.774835 
L 205.505886 40.810248 
L 206.505886 40.867888 
L 207.505886 40.938274 
L 208.505886 40.990239 
L 209.505886 41.049328 
L 210.505886 41.137649 
L 211.505886 41.183794 
L 212.505886 41.226205 
L 213.505886 41.256697 
L 214.505886 41.282742 
L 215.505886 41.303942 
L 216.505886 41.358243 
L 217.505886 41.386181 
L 218.505886 41.415905 
L 219.505886 41.4413 
L 220.505886 41.4525 
L 221.505886 41.462624 
L 222.505886 41.46242 
L 223.505886 41.45291 
L 224.505886 41.441256 
L 225.505886 41.410227 
L 226.505886 41.399059 
L 227.505886 41.368942 
L 228.505886 41.309165 
L 229.505886 41.271973 
L 230.505886 41.232877 
L 231.505886 41.190437 
L 232.505886 41.157672 
L 233.505886 41.090246 
L 234.505886 41.05112 
L 235.505886 41.008445 
L 236.505886 40.937865 
L 238.204897 40.901474 
" clip-path="url(#p95777861b3)" style="fill: none; stroke: #ffffff; stroke-width: 3; stroke-linecap: round"/>
    <path d="M 198.505886 40.464 
L 199.505886 40.495436 
L 200.505886 40.532377 
L 201.505886 40.630123 
L 202.505886 40.662645 
L 203.505886 40.73627 
L 204.505886 40.774835 
L 205.505886 40.810248 
L 206.505886 40.867888 
L 207.505886 40.938274 
L 208.505886 40.990239 
L 209.505886 41.049328 
L 210.505886 41.137649 
L 211.505886 41.183794 
L 212.505886 41.226205 
L 213.505886 41.256697 
L 214.505886 41.282742 
L 215.505886 41.303942 
L 216.505886 41.358243 
L 217.505886 41.386181 
L 218.505886 41.415905 
L 219.505886 41.4413 
L 220.505886 41.4525 
L 221.505886 41.462624 
L 222.505886 41.46242 
L 223.505886 41.45291 
L 224.505886 41.441256 
L 225.505886 41.410227 
L 226.505886 41.399059 
L 227.505886 41.368942 
L 228.505886 41.309165 
L 229.505886 41.271973 
L 230.505886 41.232877 
L 231.505886 41.190437 
L 232.505886 41.157672 
L 233.505886 41.090246 
L 234.505886 41.05112 
L 235.505886 41.008445 
L 236.505886 40.937865 
L 238.204897 40.901474 
" clip-path="url(#p95777861b3)" style="fill: none; stroke: #1f77b4; stroke-linecap: round"/>
    <path d="M 234.204897 38.464 
L 235.085265 38.939331 
L 235.963172 39.419585 
L 236.813886 39.954226 
L 238.11606 40.641673 
L 237.188707 40.667688 
L 236.277033 41.080408 
L 235.366768 41.495947 
L 234.024272 42.102751 
L 234.679171 41.464 
L 234.731135 40.464 
L 234.790225 38.464 
z
" clip-path="url(#p95777861b3)" style="fill: #ffffff; stroke: #ffffff; stroke-width: 3; stroke-linecap: round"/>
    <path d="M 234.204897 38.464 
L 235.085265 38.939331 
L 235.963172 39.419585 
L 236.813886 39.954226 
L 238.11606 40.641673 
L 237.188707 40.667688 
L 236.277033 41.080408 
L 235.366768 41.495947 
L 234.024272 42.102751 
L 234.679171 41.464 
L 234.731135 40.464 
L 234.790225 38.464 
z
" clip-path="url(#p95777861b3)" style="fill: #ffffff; stroke: #1f77b4; stroke-linecap: round"/>
   </g>
   <g id="patch_13">
    <path d="M 110.547334 129.168 
L 109.547334 129.136564 
L 108.547334 129.099623 
L 107.547334 129.001877 
L 106.547334 128.969355 
L 105.547334 128.89573 
L 104.547334 128.857165 
L 103.547334 128.821752 
L 102.547334 128.764112 
L 101.547334 128.693726 
L 100.547334 128.641761 
L 99.232534 128.582672 
" clip-path="url(#p95777861b3)" style="fill: none; stroke: #ffffff; stroke-width: 3; stroke-linecap: round"/>
    <path d="M 110.547334 129.168 
L 109.547334 129.136564 
L 108.547334 129.099623 
L 107.547334 129.001877 
L 106.547334 128.969355 
L 105.547334 128.89573 
L 104.547334 128.857165 
L 103.547334 128.821752 
L 102.547334 128.764112 
L 101.547334 128.693726 
L 100.547334 128.641761 
L 99.232534 128.582672 
" clip-path="url(#p95777861b3)" style="fill: none; stroke: #ff7f0e; stroke-linecap: round"/>
    <path d="M 103.232534 131.168 
L 102.352166 130.692669 
L 101.474259 130.212415 
L 100.623545 129.677774 
L 99.321371 128.990327 
L 100.248724 128.964312 
L 101.160399 128.551592 
L 102.070663 128.136053 
L 103.413159 127.529249 
L 102.75826 128.168 
L 102.706296 129.168 
L 102.647206 131.168 
z
" clip-path="url(#p95777861b3)" style="fill: #ffffff; stroke: #ffffff; stroke-width: 3; stroke-linecap: round"/>
    <path d="M 103.232534 131.168 
L 102.352166 130.692669 
L 101.474259 130.212415 
L 100.623545 129.677774 
L 99.321371 128.990327 
L 100.248724 128.964312 
L 101.160399 128.551592 
L 102.070663 128.136053 
L 103.413159 127.529249 
L 102.75826 128.168 
L 102.706296 129.168 
L 102.647206 131.168 
z
" clip-path="url(#p95777861b3)" style="fill: #ffffff; stroke: #ff7f0e; stroke-linecap: round"/>
   </g>
   <g id="patch_14">
    <path d="M 134.121796 129.168 
L 135.121796 129.199436 
L 136.121796 129.236377 
L 137.121796 129.334123 
L 138.121796 129.366645 
L 139.121796 129.44027 
L 140.121796 129.478835 
L 141.121796 129.514248 
L 142.121796 129.571888 
L 143.121796 129.642274 
L 144.121796 129.694239 
L 145.436595 129.753328 
" clip-path="url(#p95777861b3)" style="fill: none; stroke: #ffffff; stroke-width: 3; stroke-linecap: round"/>
    <path d="M 134.121796 129.168 
L 135.121796 129.199436 
L 136.121796 129.236377 
L 137.121796 129.334123 
L 138.121796 129.366645 
L 139.121796 129.44027 
L 140.121796 129.478835 
L 141.121796 129.514248 
L 142.121796 129.571888 
L 143.121796 129.642274 
L 144.121796 129.694239 
L 145.436595 129.753328 
" clip-path="url(#p95777861b3)" style="fill: none; stroke: #ff7f0e; stroke-linecap: round"/>
    <path d="M 141.436595 127.168 
L 142.316964 127.643331 
L 143.194871 128.123585 
L 144.045584 128.658226 
L 145.347759 129.345673 
L 144.420405 129.371688 
L 143.508731 129.784408 
L 142.598467 130.199947 
L 141.255971 130.806751 
L 141.91087 130.168 
L 141.962834 129.168 
L 142.021924 127.168 
z
" clip-path="url(#p95777861b3)" style="fill: #ffffff; stroke: #ffffff; stroke-width: 3; stroke-linecap: round"/>
    <path d="M 141.436595 127.168 
L 142.316964 127.643331 
L 143.194871 128.123585 
L 144.045584 128.658226 
L 145.347759 129.345673 
L 144.420405 129.371688 
L 143.508731 129.784408 
L 142.598467 130.199947 
L 141.255971 130.806751 
L 141.91087 130.168 
L 141.962834 129.168 
L 142.021924 127.168 
z
" clip-path="url(#p95777861b3)" style="fill: #ffffff; stroke: #ff7f0e; stroke-linecap: round"/>
   </g>
   <g id="patch_15">
    <path d="M 170.121895 173.07648 
L 171.121895 173.107916 
L 172.121895 173.144857 
L 173.121895 173.242603 
L 174.121895 173.275125 
L 175.121895 173.34875 
L 176.121895 173.387315 
L 177.121895 173.422728 
L 178.121895 173.480368 
L 179.121895 173.550754 
L 180.121895 173.602719 
L 181.121895 173.661808 
L 182.539215 173.750129 
" clip-path="url(#p95777861b3)" style="fill: none; stroke: #ffffff; stroke-width: 3; stroke-linecap: round"/>
    <path d="M 170.121895 173.07648 
L 171.121895 173.107916 
L 172.121895 173.144857 
L 173.121895 173.242603 
L 174.121895 173.275125 
L 175.121895 173.34875 
L 176.121895 173.387315 
L 177.121895 173.422728 
L 178.121895 173.480368 
L 179.121895 173.550754 
L 180.121895 173.602719 
L 181.121895 173.661808 
L 182.539215 173.750129 
" clip-path="url(#p95777861b3)" style="fill: none; stroke: #9467bd; stroke-linecap: round"/>
    <path d="M 178.539215 171.07648 
L 179.419583 171.551811 
L 180.29749 172.032065 
L 181.148204 172.566706 
L 182.450378 173.254153 
L 181.523025 173.280168 
L 180.611351 173.692888 
L 179.701086 174.108427 
L 178.35859 174.715231 
L 179.013489 174.07648 
L 179.065453 173.07648 
L 179.124543 171.07648 
z
" clip-path="url(#p95777861b3)" style="fill: #ffffff; stroke: #ffffff; stroke-width: 3; stroke-linecap: round"/>
    <path d="M 178.539215 171.07648 
L 179.419583 171.551811 
L 180.29749 172.032065 
L 181.148204 172.566706 
L 182.450378 173.254153 
L 181.523025 173.280168 
L 180.611351 173.692888 
L 179.701086 174.108427 
L 178.35859 174.715231 
L 179.013489 174.07648 
L 179.065453 173.07648 
L 179.124543 171.07648 
z
" clip-path="url(#p95777861b3)" style="fill: #ffffff; stroke: #9467bd; stroke-linecap: round"/>
   </g>
   <g id="patch_16">
    <path d="M 220.760572 173.07648 
L 219.760572 173.045044 
L 218.760572 173.008103 
L 217.760572 172.910357 
L 216.760572 172.877835 
L 215.760572 172.80421 
L 214.760572 172.765645 
L 213.760572 172.730232 
L 212.760572 172.672592 
L 211.760572 172.602206 
L 210.760572 172.550241 
L 209.760572 172.491152 
L 208.343251 172.402831 
" clip-path="url(#p95777861b3)" style="fill: none; stroke: #ffffff; stroke-width: 3; stroke-linecap: round"/>
    <path d="M 220.760572 173.07648 
L 219.760572 173.045044 
L 218.760572 173.008103 
L 217.760572 172.910357 
L 216.760572 172.877835 
L 215.760572 172.80421 
L 214.760572 172.765645 
L 213.760572 172.730232 
L 212.760572 172.672592 
L 211.760572 172.602206 
L 210.760572 172.550241 
L 209.760572 172.491152 
L 208.343251 172.402831 
" clip-path="url(#p95777861b3)" style="fill: none; stroke: #8c564b; stroke-linecap: round"/>
    <path d="M 212.343251 175.07648 
L 211.462883 174.601149 
L 210.584976 174.120895 
L 209.734262 173.586254 
L 208.432088 172.898807 
L 209.359441 172.872792 
L 210.271115 172.460072 
L 211.18138 172.044533 
L 212.523876 171.437729 
L 211.868977 172.07648 
L 211.817013 173.07648 
L 211.757923 175.07648 
z
" clip-path="url(#p95777861b3)" style="fill: #ffffff; stroke: #ffffff; stroke-width: 3; stroke-linecap: round"/>
    <path d="M 212.343251 175.07648 
L 211.462883 174.601149 
L 210.584976 174.120895 
L 209.734262 173.586254 
L 208.432088 172.898807 
L 209.359441 172.872792 
L 210.271115 172.460072 
L 211.18138 172.044533 
L 212.523876 171.437729 
L 211.868977 172.07648 
L 211.817013 173.07648 
L 211.757923 175.07648 
z
" clip-path="url(#p95777861b3)" style="fill: #ffffff; stroke: #8c564b; stroke-linecap: round"/>
   </g>
   <g id="patch_17">
    <path d="M 66.400781 173.52 
L 66.400781 7.2 
" style="fill: none; stroke: #000000; stroke-width: 0.8; stroke-linejoin: miter; stroke-linecap: square"/>
   </g>
   <g id="text_15">
    <g id="patch_18">
     <path d="M 176.068663 30.832 
L 197.373351 30.832 
Q 199.373351 30.832 199.373351 28.832 
L 199.373351 18.832 
Q 199.373351 16.832 197.373351 16.832 
L 176.068663 16.832 
Q 174.068663 16.832 174.068663 18.832 
L 174.068663 28.832 
Q 174.068663 30.832 176.068663 30.832 
z
" style="fill: #ffffff; opacity: 0.6"/>
    </g>
    <!-- ANC -->
    <g transform="translate(176.068663 26.429656) scale(0.1 -0.1)">
     <defs>
      <path id="DejaVuSans-31" d="M 628 4666 
L 1478 4666 
L 3547 763 
L 3547 4666 
L 4159 4666 
L 4159 0 
L 3309 0 
L 1241 3903 
L 1241 0 
L 628 0 
L 628 4666 
z
" transform="scale(0.015625)"/>
      <path id="DejaVuSans-26" d="M 4122 4306 
L 4122 3641 
Q 3803 3938 3442 4084 
Q 3081 4231 2675 4231 
Q 1875 4231 1450 3742 
Q 1025 3253 1025 2328 
Q 1025 1406 1450 917 
Q 1875 428 2675 428 
Q 3081 428 3442 575 
Q 3803 722 4122 1019 
L 4122 359 
Q 3791 134 3420 21 
Q 3050 -91 2638 -91 
Q 1578 -91 968 557 
Q 359 1206 359 2328 
Q 359 3453 968 4101 
Q 1578 4750 2638 4750 
Q 3056 4750 3426 4639 
Q 3797 4528 4122 4306 
z
" transform="scale(0.015625)"/>
     </defs>
     <use xlink:href="#DejaVuSans-24"/>
     <use xlink:href="#DejaVuSans-31" transform="translate(68.40625 0)"/>
     <use xlink:href="#DejaVuSans-26" transform="translate(143.21875 0)"/>
    </g>
   </g>
   <g id="text_16">
    <g id="patch_19">
     <path d="M 105.761909 91.816 
L 138.907221 91.816 
Q 140.907221 91.816 140.907221 89.816 
L 140.907221 79.816 
Q 140.907221 77.816 138.907221 77.816 
L 105.761909 77.816 
Q 103.761909 77.816 103.761909 79.816 
L 103.761909 89.816 
Q 103.761909 91.816 105.761909 91.816 
z
" style="fill: #ffffff; opacity: 0.6"/>
    </g>
    <!-- A_ANC -->
    <g transform="translate(105.761909 87.413656) scale(0.1 -0.1)">
     <use xlink:href="#DejaVuSans-24"/>
     <use xlink:href="#DejaVuSans-42" transform="translate(68.40625 0)"/>
     <use xlink:href="#DejaVuSans-24" transform="translate(118.40625 0)"/>
     <use xlink:href="#DejaVuSans-31" transform="translate(186.8125 0)"/>
     <use xlink:href="#DejaVuSans-26" transform="translate(261.625 0)"/>
    </g>
   </g>
   <g id="text_17">
    <g id="patch_20">
     <path d="M 234.524637 100.6864 
L 267.690262 100.6864 
Q 269.690262 100.6864 269.690262 98.6864 
L 269.690262 88.6864 
Q 269.690262 86.6864 267.690262 86.6864 
L 234.524637 86.6864 
Q 232.524637 86.6864 232.524637 88.6864 
L 232.524637 98.6864 
Q 232.524637 100.6864 234.524637 100.6864 
z
" style="fill: #ffffff; opacity: 0.6"/>
    </g>
    <!-- B_ANC -->
    <g transform="translate(234.524637 96.284056) scale(0.1 -0.1)">
     <use xlink:href="#DejaVuSans-25"/>
     <use xlink:href="#DejaVuSans-42" transform="translate(68.609375 0)"/>
     <use xlink:href="#DejaVuSans-24" transform="translate(118.609375 0)"/>
     <use xlink:href="#DejaVuSans-31" transform="translate(187.015625 0)"/>
     <use xlink:href="#DejaVuSans-26" transform="translate(261.828125 0)"/>
    </g>
   </g>
  </g>
 </g>
 <defs>
  <clipPath id="p95777861b3">
   <rect x="66.400781" y="7.2" width="223.2" height="166.32"/>
  </clipPath>
 </defs>
</svg>
